<?xml version="1.0" encoding="utf-8"?>
<!-- Generator: Adobe Illustrator 24.0.0, SVG Export Plug-In . SVG Version: 6.00 Build 0)  -->
<svg version="1.1" id="图层_1" xmlns="http://www.w3.org/2000/svg" xmlns:xlink="http://www.w3.org/1999/xlink" x="0px" y="0px"
	 viewBox="0 0 497.5 431.8" style="enable-background:new 0 0 497.5 431.8;" xml:space="preserve">
<style type="text/css">
	.st0{fill:#E4E8EE;}
	.st1{fill:#EEF1DC;}
	.st2{fill:#040000;}
	.st3{fill:#A0A01F;}
	.st4{fill:none;stroke:#9B9B24;stroke-width:13.8397;stroke-miterlimit:10;}
	.st5{fill:#3A6083;}
	.st6{fill:none;stroke:#3A6082;stroke-width:13.8712;stroke-miterlimit:10;}
	.st7{fill:none;stroke:#6F9241;stroke-width:11.38;stroke-miterlimit:10;}
	.st8{fill:#6F9341;}
</style>
<rect x="24.4" y="2.2" class="st0" width="234.7" height="429.7"/>
<polygon class="st1" points="420.5,431.8 258.3,431.8 257.9,2.2 420,2.2 "/>
<path class="st2" d="M366.1,360.1"/>
<rect x="105.4" y="18.4" class="st2" width="44.3" height="272.2"/>
<rect x="32.1" y="100.3" transform="matrix(-1.836970e-16 1 -1 -1.836970e-16 208.7332 100.3105)" class="st2" width="44.3" height="108.4"/>
<rect x="279.3" y="-155.5" transform="matrix(-1.836970e-16 1 -1 -1.836970e-16 342.011 -260.8677)" class="st2" width="44.3" height="392.2"/>
<rect x="144.4" y="235.7" transform="matrix(-1.836970e-16 1 -1 -1.836970e-16 463.5425 130.3768)" class="st2" width="44.3" height="122.5"/>
<rect x="312.6" y="100.4" transform="matrix(-1.836970e-16 1 -1 -1.836970e-16 546.1901 -123.1962)" class="st2" width="44.3" height="222.2"/>
<rect x="328.1" y="263.3" transform="matrix(-1.836970e-16 1 -1 -1.836970e-16 732.6578 32.1869)" class="st2" width="44.3" height="238.2"/>
<rect x="224.4" y="189.4" class="st2" width="44.3" height="215.2"/>
<path class="st3" d="M304.4,176.8c-4.6,0-9.1,0.9-13.3,2.7c-4.2,1.7-7.9,4.2-11.2,7.5c-3.3,3.3-5.8,7.1-7.6,11.3
	c-1.7,4.2-2.6,8.6-2.6,13.2c0,4.7,0.9,9.1,2.6,13.3c1.7,4.2,4.2,7.9,7.6,11.3c3.3,3.3,7,5.8,11.2,7.5s8.7,2.6,13.4,2.6
	c4.6,0,9.1-0.9,13.3-2.6c4.2-1.7,7.9-4.2,11.2-7.5c3.3-3.3,5.8-7.1,7.6-11.3c1.7-4.1,2.6-8.6,2.6-13.3c0-4.6-0.9-9.1-2.6-13.2
	c-1.7-4.2-4.3-7.9-7.6-11.3c-3.4-3.3-7.2-5.8-11.3-7.5C313.5,177.7,309.1,176.8,304.4,176.8"/>
<rect x="254.3" y="170.7" class="st4" width="178.7" height="81.5"/>
<path class="st5" d="M96.4,265.5c-4.6,0-9.1,0.9-13.3,2.7c-4.2,1.7-7.9,4.2-11.2,7.5c-3.3,3.3-5.8,7.1-7.6,11.3
	c-1.7,4.2-2.6,8.6-2.6,13.2c0,4.7,0.9,9.1,2.6,13.3c1.7,4.2,4.2,7.9,7.6,11.3c3.3,3.3,7,5.8,11.2,7.5s8.7,2.6,13.4,2.6
	c4.6,0,9.1-0.9,13.3-2.6c4.2-1.7,7.9-4.2,11.2-7.5c3.3-3.3,5.8-7.1,7.6-11.3c1.7-4.1,2.6-8.6,2.6-13.3c0-4.6-0.9-9.1-2.6-13.2
	c-1.7-4.2-4.3-7.9-7.6-11.3c-3.4-3.3-7.2-5.8-11.3-7.5C105.4,266.4,101,265.5,96.4,265.5"/>
<rect x="16" y="259.4" class="st6" width="178.7" height="81.5"/>
<rect x="291" y="341.7" class="st7" width="105.5" height="81.5"/>
<path class="st8" d="M332.2,347.8c-4.6,0-9.1,0.9-13.3,2.7c-4.2,1.7-7.9,4.2-11.2,7.5c-3.3,3.3-5.8,7.1-7.6,11.3
	c-1.7,4.2-2.6,8.6-2.6,13.2c0,4.7,0.9,9.1,2.6,13.3c1.7,4.2,4.2,7.9,7.6,11.3c3.3,3.3,7,5.8,11.2,7.5s8.7,2.6,13.4,2.6
	c4.6,0,9.1-0.9,13.3-2.6c4.2-1.7,7.9-4.2,11.2-7.5c3.3-3.3,5.8-7.1,7.6-11.3c1.7-4.1,2.6-8.6,2.6-13.3c0-4.6-0.9-9.1-2.6-13.2
	c-1.7-4.2-4.3-7.9-7.6-11.3c-3.4-3.3-7.2-5.8-11.3-7.5C341.3,348.6,336.8,347.8,332.2,347.8"/>
</svg>
