<?xml version="1.0" encoding="utf-8"?>
<!-- Generator: Adobe Illustrator 24.0.0, SVG Export Plug-In . SVG Version: 6.00 Build 0)  -->
<svg version="1.1" id="图层_1" xmlns="http://www.w3.org/2000/svg" xmlns:xlink="http://www.w3.org/1999/xlink" x="0px" y="0px"
	 viewBox="0 0 1100 380" style="enable-background:new 0 0 1100 380;" xml:space="preserve">
<style type="text/css">
	.st0{fill:none;stroke:#AAAAAA;stroke-width:2.45;}
	.st1{fill:none;stroke:#0000FF;stroke-width:0.66;stroke-opacity:0.2;stroke-dasharray:4,1;}
	.st2{opacity:0.8;fill:#008000;enable-background:new    ;}
	.st3{opacity:0.6;fill:#FFFFFF;stroke:#6F6B0A;stroke-width:1.46;stroke-dasharray:4,1;enable-background:new    ;}
	.st4{opacity:0.3;fill:#0000FF;enable-background:new    ;}
	.st5{font-family:'Calibri';}
	.st6{font-size:10px;}
	.st7{font-family:'Times-Italic';}
	.st8{font-size:14px;}
	.st9{fill:#A6CEE3;}
	.st10{fill:#1F78B4;}
	.st11{fill:#B2DF8A;}
	.st12{fill:#33A02C;}
	.st13{font-family:'Calibri-Bold';}
	.st14{font-size:9px;}
	.st15{fill:#3C3C3C;}
	.st16{opacity:0.7;fill:#008000;enable-background:new    ;}
	.st17{font-size:13px;}
	.st18{fill:#6F6B0A;}
	.st19{fill:none;stroke:#AAAAAA;stroke-width:3;}
</style>
<g transform="translate(120, 20)">
	<path class="st0" d="M89,245v17.5h411"/>
	<path class="st0" d="M89,245v-17.5h411"/>
	<path class="st0" d="M136,175v17.5h364"/>
	<path class="st0" d="M136,175v-17.5h364"/>
	<path class="st0" d="M183,105v17.5h316"/>
	<path class="st0" d="M183,105V87.5h316"/>
	<path class="st0" d="M124,78.7V105h59"/>
	<path class="st0" d="M124,78.7V52.5h375"/>
	<path class="st0" d="M86,126.9V175h50"/>
	<path class="st0" d="M86,126.9V78.7h38"/>
	<path class="st0" d="M19,185.9V245h70"/>
	<path class="st0" d="M19,185.9v-59.1h67"/>
	<path class="st0" d="M0,101.7v84.2h19"/>
	<path class="st0" d="M0,101.7V17.5h499"/>
	<line class="st1" x1="500" y1="0" x2="500" y2="280"/>
	<line class="st1" x1="435.3" y1="0" x2="435.3" y2="280"/>
	<line class="st1" x1="370.5" y1="0" x2="370.5" y2="280"/>
	<line class="st1" x1="305.8" y1="0" x2="305.8" y2="280"/>
	<line class="st1" x1="241.1" y1="0" x2="241.1" y2="280"/>
	<line class="st1" x1="176.3" y1="0" x2="176.3" y2="280"/>
	<line class="st1" x1="111.6" y1="0" x2="111.6" y2="280"/>
	<line class="st1" x1="46.9" y1="0" x2="46.9" y2="280"/>
	<rect x="43.5" y="117.9" class="st2" width="18" height="18"/>
	<rect x="96" y="69.7" class="st3" width="18" height="18"/>
	<rect x="144.5" y="96" class="st3" width="18" height="18"/>
	<rect x="102" y="166" class="st3" width="18" height="18"/>
	<text transform="matrix(1 0 0 1 497.4658 292)" class="st4 st5 st6">0</text>
	<text transform="matrix(1 0 0 1 430.1976 292)" class="st4 st5 st6">20</text>
	<text transform="matrix(1 0 0 1 365.4637 292)" class="st4 st5 st6">40</text>
	<text transform="matrix(1 0 0 1 300.7297 292)" class="st4 st5 st6">60</text>
	<text transform="matrix(1 0 0 1 235.9958 292)" class="st4 st5 st6">80</text>
	<text transform="matrix(1 0 0 1 168.7276 292)" class="st4 st5 st6">100</text>
	<text transform="matrix(1 0 0 1 103.9937 292)" class="st4 st5 st6">120</text>
	<text transform="matrix(1 0 0 1 39.2597 292)" class="st4 st5 st6">140</text>
	<g>
		<text transform="matrix(1 0 0 1 508 292)" class="st4 st5 st6">million years ago</text>
	</g>
	<g transform="translate(19,185.9375)">
	</g>
	<g transform="translate(86,126.875)">
	</g>
	<g transform="translate(124,78.75)">
	</g>
	<g transform="translate(183,105)">
	</g>
	<g transform="translate(499,122.5)">
		<text transform="matrix(1 0 0 1 8 3)" class="st7 st8">Oryza sativa</text>
	</g>
	<g transform="translate(499,87.5)">
		<text transform="matrix(1 0 0 1 8 3)" class="st7 st8">Ananas comosus</text>
	</g>
	<g transform="translate(499,52.5)">
		<text transform="matrix(1 0 0 1 8 3)" class="st7 st8">Elaeis guineensis</text>
	</g>
	<g transform="translate(136,175)">
	</g>
	<g transform="translate(500,192.5)">
		<text transform="matrix(1 0 0 1 8 3)" class="st7 st8">Asparagus officinalis</text>
	</g>
	<g transform="translate(500,157.5)">
		<text transform="matrix(1 0 0 1 8 3)" class="st7 st8">Phalaenopsis equestris</text>
	</g>
	<g transform="translate(89,245)">
	</g>
	<g transform="translate(500,262.5)">
		<text transform="matrix(1 0 0 1 8 3)" class="st7 st8">Spirodela polyrhiza</text>
	</g>
	<g transform="translate(500,227.5)">
		<text transform="matrix(1 0 0 1 8 3)" class="st7 st8">Zostera marina</text>
	</g>
	<g transform="translate(499,17.5)">
		<text transform="matrix(1 0 0 1 8 3)" class="st7 st8">Vitis vinifera</text>
	</g>
	<g>
		<rect x="491.6" y="298" class="st9" width="8.4" height="18"/>
	</g>
	<g>
		<rect x="425.6" y="298" class="st10" width="66" height="18"/>
	</g>
	<g>
		<rect x="286.4" y="298" class="st11" width="139.2" height="18"/>
	</g>
	<g>
		<rect x="30.7" y="298" class="st12" width="255.7" height="18"/>
	</g>
	<text transform="matrix(1 0 0 1 504.3536 311)" class="st9 st13 st14">Quaternary</text>
	<text transform="matrix(1 0 0 1 441.8908 311)" class="st15 st13 st14">Neogene</text>
	<text transform="matrix(1 0 0 1 336.6178 311)" class="st15 st13 st14">Paleogene</text>
	<text transform="matrix(1 0 0 1 137.8477 311)" class="st15 st13 st14">Cretaceous</text>
	<text transform="matrix(1 0 0 1 37.9163 106.875)" class="st16 st13 st17">wgd1</text>
	<text transform="matrix(1 0 0 1 90.7019 58.75)" class="st18 st5 st17">wgd2</text>
	<text transform="matrix(1 0 0 1 139.2019 85)" class="st18 st5 st17">wgd3</text>
	<text transform="matrix(1 0 0 1 96.7019 155)" class="st18 st5 st17">wgd4</text>
</g>
<line class="st19" x1="98.1" y1="121.7" x2="119.6" y2="121.7"/>
</svg>
