<?xml version="1.0" encoding="utf-8"?>
<!-- Generator: Adobe Illustrator 24.0.0, SVG Export Plug-In . SVG Version: 6.00 Build 0)  -->
<svg version="1.1" id="图层_1" xmlns="http://www.w3.org/2000/svg" xmlns:xlink="http://www.w3.org/1999/xlink" x="0px" y="0px"
	 viewBox="0 0 33.9 26.6" style="enable-background:new 0 0 33.9 26.6;" xml:space="preserve">
<style type="text/css">
	.st0{fill:#E4E9EF;}
	.st1{fill:#EEF1DC;}
	.st2{fill:#040000;}
	.st3{fill:#8EA126;}
	.st4{fill:#3B6387;}
	.st5{fill:#B8D1DE;}
	.st6{fill:#729741;}
	.st7{fill:#E7DBA3;}
	.st8{fill:#372B11;}
	.st9{fill:#A0A01F;}
</style>
<rect x="2.1" y="0" class="st0" width="16.9" height="26.6"/>
<polygon class="st1" points="30.7,26.6 19,26.6 18.9,0 30.6,0 "/>
<path class="st2" d="M0.2,11.2h7.2c0.1,0,0.2,0.2,0.2,0.3c0,0.2-0.1,0.3-0.2,0.3H0.2c-0.1,0-0.2-0.2-0.2-0.3
	C0,11.3,0.1,11.2,0.2,11.2"/>
<path class="st2" d="M7.4,18.1h11.3c0.1,0,0.2,0.2,0.2,0.3c0,0.2-0.1,0.3-0.2,0.3H7.4c-0.1,0-0.2-0.2-0.2-0.3
	C7.2,18.2,7.3,18.1,7.4,18.1"/>
<path class="st2" d="M18.7,24.5h15.1c0.1,0,0.2,0.2,0.2,0.3c0,0.2-0.1,0.3-0.2,0.3H18.7c-0.1,0-0.2-0.2-0.2-0.3
	C18.5,24.6,18.6,24.5,18.7,24.5"/>
<path class="st2" d="M24.8,26"/>
<path class="st2" d="M18.7,11h15c0.1,0,0.2,0.2,0.2,0.3c0,0.2-0.1,0.3-0.2,0.3h-15c-0.1,0-0.2-0.2-0.2-0.3
	C18.5,11.1,18.6,11,18.7,11"/>
<path class="st2" d="M7.6,2.4h23c0,0,0,0.2,0,0.3c0,0.2,0,0.3,0,0.3l-23,0.1c-0.1,0-0.2-0.2-0.2-0.3C7.3,2.5,7.5,2.4,7.6,2.4"/>
<path class="st2" d="M6.9,18.5v-16c0-0.1,0.2-0.2,0.3-0.2c0.2,0,0.3,0.1,0.3,0.2v16c0,0.1-0.2,0.2-0.3,0.2
	C7.1,18.7,6.9,18.7,6.9,18.5"/>
<path class="st2" d="M18.1,25V11.1c0-0.1,0.2-0.2,0.4-0.2s0.4,0.1,0.4,0.2V25c0,0.1-0.2,0.2-0.4,0.2S18.1,25.1,18.1,25"/>
<rect x="2" y="11.4" class="st2" width="5.2" height="0.4"/>
<path class="st2" d="M15.8,18.4H7.6v0.2c0,0.1-0.1,0.2-0.2,0.2c-0.1,0-0.2-0.1-0.2-0.2c0,0.1,0.1,0.2,0.2,0.2h8.4V18.4"/>
<path class="st2" d="M15.8,2.4H7.4c0.1,0,0.2,0.1,0.2,0.2v0.2h8.2V2.4"/>
<line class="st1" x1="30.7" y1="11.3" x2="30.6" y2="11.3"/>
<line class="st1" x1="30.6" y1="11" x2="30.7" y2="11"/>
<rect x="30.6" y="11" class="st2" width="0" height="0.4"/>
<path class="st3" d="M25.7,24.6c0-0.1-0.1-0.2-0.2-0.2c-0.1-0.1-0.1-0.1-0.2-0.2c-0.1,0-0.2-0.1-0.3-0.1c-0.1,0-0.2,0-0.3,0.1
	c-0.1,0-0.2,0.1-0.2,0.2c-0.1,0.1-0.1,0.1-0.2,0.2c0,0.1-0.1,0.2-0.1,0.3c0,0.1,0,0.2,0.1,0.3c0,0.1,0.1,0.2,0.2,0.2
	c0.1,0.1,0.1,0.1,0.2,0.2c0.1,0,0.2,0.1,0.3,0.1c0.1,0,0.2,0,0.3-0.1c0.1,0,0.2-0.1,0.2-0.2c0.1-0.1,0.1-0.1,0.2-0.2
	c0-0.1,0.1-0.2,0.1-0.3C25.8,24.8,25.8,24.7,25.7,24.6"/>
<path class="st3" d="M21.5,10.9c0-0.1-0.1-0.2-0.2-0.2c-0.1-0.1-0.1-0.1-0.2-0.2c-0.1,0-0.2-0.1-0.3-0.1c-0.1,0-0.2,0-0.3,0.1
	c-0.1,0-0.2,0.1-0.2,0.2c-0.1,0.1-0.1,0.1-0.2,0.2c0,0.1-0.1,0.2-0.1,0.3c0,0.1,0,0.2,0.1,0.3c0,0.1,0.1,0.2,0.2,0.2
	c0.1,0.1,0.1,0.1,0.2,0.2s0.2,0.1,0.3,0.1c0.1,0,0.2,0,0.3-0.1c0.1,0,0.2-0.1,0.2-0.2c0.1-0.1,0.1-0.1,0.2-0.2
	c0-0.1,0.1-0.2,0.1-0.3C21.6,11,21.6,11,21.5,10.9"/>
<path class="st3" d="M19.1,10.3v-0.1h11.6c0,0,0.1,0,0.1,0c0,0,0,0.1,0,0.1V12c0,0,0,0.1,0,0.1c0,0-0.1,0-0.1,0H19.1
	c0,0-0.1,0-0.1,0c0,0,0-0.1,0-0.1v-1.7c0,0,0-0.1,0-0.1c0,0,0.1,0,0.1,0V10.3h0.1v1.6h11.3v-1.4H19.1V10.3h0.1H19.1"/>
<path class="st4" d="M7.3,17.5c0-0.1-0.1-0.2-0.2-0.2c-0.1-0.1-0.1-0.1-0.2-0.2C6.9,17,6.8,17,6.7,17c-0.1,0-0.2,0-0.3,0.1
	c-0.1,0-0.2,0.1-0.2,0.2c-0.1,0.1-0.1,0.1-0.2,0.2C6,17.5,6,17.6,6,17.7C6,17.8,6,17.9,6,18c0,0.1,0.1,0.2,0.2,0.2
	c0.1,0.1,0.1,0.1,0.2,0.2c0.1,0,0.2,0.1,0.3,0.1c0.1,0,0.2,0,0.3-0.1c0.1,0,0.2-0.1,0.2-0.2c0.1-0.1,0.1-0.1,0.2-0.2
	c0-0.1,0.1-0.2,0.1-0.3C7.4,17.6,7.4,17.5,7.3,17.5"/>
<path class="st4" d="M4.2,16.9v-0.1h5.7c0,0,0.1,0,0.1,0c0,0,0,0.1,0,0.1v1.7c0,0,0,0.1,0,0.1c0,0-0.1,0-0.1,0H4.2c0,0-0.1,0-0.1,0
	c0,0,0-0.1,0-0.1v-1.7c0,0,0-0.1,0-0.1c0,0,0.1,0,0.1,0V16.9h0.1v1.6h5.4V17H4.2V16.9h0.1H4.2"/>
<path class="st5" d="M26.4,23.2h-1.9v1.6c0,0,0-0.1,0-0.1v-0.6c0,0,0-0.1,0-0.1c0,0,0.1-0.1,0.1-0.1h0.5c0,0,0.1,0,0.1,0.1
	c0,0,0,0.1,0,0.1v0.2c0,0,0.1,0,0.1,0c0.1,0,0.2,0.1,0.2,0.2c0.1,0.1,0.1,0.2,0.2,0.3c0,0.1,0,0.1,0,0.2h0.5c0,0,0.1,0,0.1,0.1V23.2
	"/>
<path class="st5" d="M26.4,24.9C26.4,25,26.3,25,26.4,24.9L25.8,25c0,0.1,0,0.1,0,0.2c0,0.1-0.1,0.2-0.2,0.2
	c-0.1,0.1-0.1,0.1-0.2,0.2c0,0-0.1,0-0.1,0v0.2c0,0,0,0.1,0,0.1c0,0-0.1,0-0.1,0h-0.5c0,0-0.1,0-0.1,0c0,0,0-0.1,0-0.1v-0.5
	c0,0,0,0,0-0.1v1.1h1.9V24.9"/>
<path class="st5" d="M24.8,25.5L24.8,25.5l0.2,0.1v0C24.9,25.6,24.9,25.6,24.8,25.5C24.8,25.5,24.8,25.5,24.8,25.5 M24.9,24.2h-0.2
	v0.1c0,0,0,0,0,0C24.9,24.2,24.9,24.2,24.9,24.2L24.9,24.2"/>
<path class="st6" d="M24.5,24.5C24.5,24.6,24.5,24.6,24.5,24.5l0,0.6c0,0,0,0.1,0,0.1V24.5 M24.9,24.2c0,0-0.1,0-0.1,0c0,0,0,0,0,0
	v1.3c0,0,0,0,0,0c0,0,0.1,0,0.1,0V24.2 M25.2,24.2v1.4c0,0,0.1,0,0.1,0c0.1,0,0.2-0.1,0.2-0.2c0.1-0.1,0.1-0.1,0.2-0.2
	c0-0.1,0-0.1,0-0.2c0,0,0-0.1,0-0.1c0,0,0-0.1,0-0.1c0-0.1,0-0.1,0-0.2c0-0.1-0.1-0.2-0.2-0.2c-0.1-0.1-0.1-0.1-0.2-0.2
	C25.3,24.2,25.3,24.2,25.2,24.2"/>
<path class="st6" d="M24.8,24.2 M25.1,23.9h-0.5c0,0-0.1,0-0.1,0c0,0,0,0.1,0,0.1v1.7c0,0,0,0.1,0,0.1c0,0,0.1,0,0.1,0h0.5
	c0,0,0.1,0,0.1,0c0,0,0-0.1,0-0.1V24c0,0,0-0.1,0-0.1C25.2,23.9,25.1,23.9,25.1,23.9"/>
<path class="st7" d="M20.9,11.8c-0.1,0-0.2,0-0.3-0.1s-0.2-0.1-0.2-0.2c-0.1-0.1-0.1-0.1-0.2-0.2c0-0.1-0.1-0.2-0.1-0.3
	c0-0.1,0-0.2,0.1-0.3c0-0.1,0.1-0.2,0.2-0.2c0.1-0.1,0.1-0.1,0.2-0.2c0.1,0,0.2-0.1,0.3-0.1c0.1,0,0.2,0,0.3,0.1
	c0.1,0,0.2,0.1,0.2,0.2c0.1,0.1,0.1,0.1,0.2,0.2c0,0.1,0.1,0.2,0.1,0.3c0,0.1,0,0.2-0.1,0.3c0,0.1-0.1,0.2-0.2,0.2
	c-0.1,0.1-0.1,0.1-0.2,0.2S21,11.8,20.9,11.8 M19.2,11.2L19.2,11.2v0.6h11.3v-1.4H19.2 M19.2,10.4V11l0,0"/>
<rect x="19" y="11" class="st8" width="0.1" height="0.4"/>
<path class="st9" d="M20.9,10.4c-0.1,0-0.2,0-0.3,0.1c-0.1,0-0.2,0.1-0.2,0.2c-0.1,0.1-0.1,0.1-0.2,0.2c0,0.1-0.1,0.2-0.1,0.3
	c0,0.1,0,0.2,0.1,0.3c0,0.1,0.1,0.2,0.2,0.2c0.1,0.1,0.1,0.1,0.2,0.2s0.2,0.1,0.3,0.1c0.1,0,0.2,0,0.3-0.1c0.1,0,0.2-0.1,0.2-0.2
	c0.1-0.1,0.1-0.1,0.2-0.2c0-0.1,0.1-0.2,0.1-0.3c0-0.1,0-0.2-0.1-0.3c0-0.1-0.1-0.2-0.2-0.2c-0.1-0.1-0.1-0.1-0.2-0.2
	C21.1,10.5,21,10.4,20.9,10.4"/>
<path class="st9" d="M19.2,11v-0.6h11.3v1.4H19.2V11 M30.6,10.1H19.1c0,0-0.1,0-0.1,0v2c0,0,0,0,0.1,0h11.6V10.1"/>
</svg>
