<?xml version="1.0" encoding="utf-8"?>
<!-- Generator: Adobe Illustrator 24.0.0, SVG Export Plug-In . SVG Version: 6.00 Build 0)  -->
<svg version="1.1" id="图层_1" xmlns="http://www.w3.org/2000/svg" xmlns:xlink="http://www.w3.org/1999/xlink" x="0px" y="0px"
	 viewBox="0 0 727 246" style="enable-background:new 0 0 727 246;" xml:space="preserve">
<style type="text/css">
	.st0{fill:#68AC57;}
	.st1{font-family:'Arial-BoldItalicMT';}
	.st2{font-size:12.6px;}
	.st3{font-family:'ArialMT';}
	.st4{font-size:10.8px;}
	.st5{fill:#9B3A4D;}
	.st6{fill:#32AEEC;}
	.st7{fill:#E2AE79;}
	.st8{fill:#8E549E;}
	.st9{fill:#EA7500;}
	.st10{fill:#566CA5;}
	.st11{fill:#D2352C;}
	.st12{fill:#394A92;}
	.st13{fill:#F4C28F;}
	.st14{fill:#9D9D9D;}
	.st15{fill:#3C3C3C;}
	.st16{opacity:0.6;fill:#8E549E;enable-background:new    ;}
	.st17{opacity:0.6;fill:#E2AE79;enable-background:new    ;}
	.st18{opacity:0.6;fill:#EA7500;enable-background:new    ;}
	.st19{opacity:0.6;fill:#9B3A4D;enable-background:new    ;}
	.st20{opacity:0.6;fill:#394A92;enable-background:new    ;}
	.st21{opacity:0.6;fill:#566CA5;enable-background:new    ;}
	.st22{opacity:0.6;fill:#D2352C;enable-background:new    ;}
	.st23{opacity:0.6;fill:#68AC57;enable-background:new    ;}
	.st24{opacity:0.6;fill:#32AEEC;enable-background:new    ;}
	.st25{opacity:0.6;fill:#F4C28F;enable-background:new    ;}
</style>
<g>
	<text id="queryMainLabel" transform="matrix(1 0 0 1 15 21.1102)" class="st0 st1 st2">Elaeis guineensis</text>
	<text transform="matrix(0.866 -0.5 0.5 0.866 35.7093 65.2985)" class="st3 st4">EG5.1_Chr1</text>
	<text transform="matrix(0.866 -0.5 0.5 0.866 98.6119 65.2985)" class="st3 st4">EG5.1_Chr2</text>
	<text transform="matrix(0.866 -0.5 0.5 0.866 158.0638 65.2985)" class="st3 st4">EG5.1_Chr3</text>
	<text transform="matrix(0.866 -0.5 0.5 0.866 214.0922 65.2985)" class="st3 st4">EG5.1_Chr4</text>
	<text transform="matrix(0.866 -0.5 0.5 0.866 266.8905 65.2985)" class="st3 st4">EG5.1_Chr5</text>
	<text transform="matrix(0.866 -0.5 0.5 0.866 314.4305 65.2985)" class="st3 st4">EG5.1_Chr6</text>
	<text transform="matrix(0.866 -0.5 0.5 0.866 358.4926 65.2985)" class="st3 st4">EG5.1_Chr7</text>
	<text transform="matrix(0.866 -0.5 0.5 0.866 400.8251 65.2985)" class="st3 st4">EG5.1_Chr8</text>
	<text transform="matrix(0.866 -0.5 0.5 0.866 440.9305 65.2985)" class="st3 st4">EG5.1_Chr9</text>
	<text transform="matrix(0.866 -0.5 0.5 0.866 477.6603 65.2985)" class="st3 st4">EG5.1_Chr10</text>
	<text transform="matrix(0.866 -0.5 0.5 0.866 511.1454 65.2985)" class="st3 st4">EG5.1_Chr11</text>
	<text transform="matrix(0.866 -0.5 0.5 0.866 543.3583 65.2985)" class="st3 st4">EG5.1_Chr12</text>
	<text transform="matrix(0.866 -0.5 0.5 0.866 574.6388 65.2985)" class="st3 st4">EG5.1_Chr13</text>
	<text transform="matrix(0.866 -0.5 0.5 0.866 604.1305 65.2985)" class="st3 st4">EG5.1_Chr14</text>
	<text transform="matrix(0.866 -0.5 0.5 0.866 632.1989 65.2985)" class="st3 st4">EG5.1_Chr15</text>
	<text transform="matrix(0.866 -0.5 0.5 0.866 659.0353 65.2985)" class="st3 st4">EG5.1_Chr16</text>
	<path id="queryChr_0" class="st5" d="M13,68.1h49.9c1.7,0,3,1.3,3,3v4c0,1.7-1.3,3-3,3H13c-1.7,0-3-1.3-3-3v-4
		C10,69.5,11.3,68.1,13,68.1z"/>
	<path id="queryChr_1" class="st6" d="M77,68.1h47.6c1.7,0,3,1.3,3,3v4c0,1.7-1.3,3-3,3H77c-1.7,0-3-1.3-3-3v-4
		C74,69.5,75.4,68.1,77,68.1z"/>
	<path id="queryChr_2" class="st7" d="M138.8,68.1h43c1.7,0,3,1.3,3,3v4c0,1.7-1.3,3-3,3h-43c-1.7,0-3-1.3-3-3v-4
		C135.8,69.5,137.1,68.1,138.8,68.1z"/>
	<path id="queryChr_3" class="st8" d="M195.9,68.1h40.8c1.7,0,3,1.3,3,3v4c0,1.7-1.3,3-3,3h-40.8c-1.7,0-3-1.3-3-3v-4
		C192.9,69.5,194.3,68.1,195.9,68.1z"/>
	<path id="queryChr_4" class="st9" d="M250.9,68.1h36.5c1.7,0,3,1.3,3,3v4c0,1.7-1.3,3-3,3h-36.5c-1.7,0-3-1.3-3-3v-4
		C247.9,69.5,249.2,68.1,250.9,68.1z"/>
	<path id="queryChr_5" class="st10" d="M301.5,68.1h30.3c1.7,0,3,1.3,3,3v4c0,1.7-1.3,3-3,3h-30.3c-1.7,0-3-1.3-3-3v-4
		C298.5,69.5,299.9,68.1,301.5,68.1z"/>
	<path id="queryChr_6" class="st11" d="M345.9,68.1h29.5c1.7,0,3,1.3,3,3v4c0,1.7-1.3,3-3,3h-29.5c-1.7,0-3-1.3-3-3v-4
		C342.9,69.5,344.3,68.1,345.9,68.1z"/>
	<path id="queryChr_7" class="st12" d="M389.6,68.1h26.8c1.7,0,3,1.3,3,3v4c0,1.7-1.3,3-3,3h-26.8c-1.7,0-3-1.3-3-3v-4
		C386.6,69.5,388,68.1,389.6,68.1z"/>
	<path id="queryChr_8" class="st0" d="M430.6,68.1h25.1c1.7,0,3,1.3,3,3v4c0,1.7-1.3,3-3,3h-25.1c-1.7,0-3-1.3-3-3v-4
		C427.6,69.5,428.9,68.1,430.6,68.1z"/>
	<path id="queryChr_9" class="st13" d="M469.8,68.1h20.1c1.7,0,3,1.3,3,3v4c0,1.7-1.3,3-3,3h-20.1c-1.7,0-3-1.3-3-3v-4
		C466.8,69.5,468.2,68.1,469.8,68.1z"/>
	<path id="queryChr_10" class="st5" d="M504.1,68.1h18.6c1.7,0,3,1.3,3,3v4c0,1.7-1.3,3-3,3h-18.6c-1.7,0-3-1.3-3-3v-4
		C501.1,69.5,502.4,68.1,504.1,68.1z"/>
	<path id="queryChr_11" class="st6" d="M536.8,68.1h17.5c1.7,0,3,1.3,3,3v4c0,1.7-1.3,3-3,3h-17.5c-1.7,0-3-1.3-3-3v-4
		C533.8,69.5,535.2,68.1,536.8,68.1z"/>
	<path id="queryChr_12" class="st7" d="M568.5,68.1h16.7c1.7,0,3,1.3,3,3v4c0,1.7-1.3,3-3,3h-16.7c-1.7,0-3-1.3-3-3v-4
		C565.5,69.5,566.8,68.1,568.5,68.1z"/>
	<path id="queryChr_13" class="st8" d="M599.4,68.1h13.9c1.7,0,3,1.3,3,3v4c0,1.7-1.3,3-3,3h-13.9c-1.7,0-3-1.3-3-3v-4
		C596.4,69.5,597.7,68.1,599.4,68.1z"/>
	<path id="queryChr_14" class="st9" d="M627.5,68.1h13.9c1.7,0,3,1.3,3,3v4c0,1.7-1.3,3-3,3h-13.9c-1.7,0-3-1.3-3-3v-4
		C624.5,69.5,625.8,68.1,627.5,68.1z"/>
	<path id="queryChr_15" class="st10" d="M655.5,68.1H667c1.7,0,3,1.3,3,3v4c0,1.7-1.3,3-3,3h-11.5c-1.7,0-3-1.3-3-3v-4
		C652.5,69.5,653.9,68.1,655.5,68.1z"/>
</g>
<g>
	<text id="subjectMainLabel" transform="matrix(1 0 0 1 15 236.1102)" class="st8 st1 st2">Elaeis guineensis</text>
	<text transform="matrix(0.866 0.5 -0.5 0.866 36.1022 192.9404)" class="st3 st4">EG5.1_Chr1</text>
	<text transform="matrix(0.866 0.5 -0.5 0.866 99.005 192.9404)" class="st3 st4">EG5.1_Chr2</text>
	<text transform="matrix(0.866 0.5 -0.5 0.866 158.4567 192.9404)" class="st3 st4">EG5.1_Chr3</text>
	<text transform="matrix(0.866 0.5 -0.5 0.866 214.485 192.9404)" class="st3 st4">EG5.1_Chr4</text>
	<text transform="matrix(0.866 0.5 -0.5 0.866 267.2833 192.9404)" class="st3 st4">EG5.1_Chr5</text>
	<text transform="matrix(0.866 0.5 -0.5 0.866 314.8234 192.9404)" class="st3 st4">EG5.1_Chr6</text>
	<text transform="matrix(0.866 0.5 -0.5 0.866 358.8854 192.9404)" class="st3 st4">EG5.1_Chr7</text>
	<text transform="matrix(0.866 0.5 -0.5 0.866 401.2179 192.9404)" class="st3 st4">EG5.1_Chr8</text>
	<text transform="matrix(0.866 0.5 -0.5 0.866 441.3234 192.9404)" class="st3 st4">EG5.1_Chr9</text>
	<text transform="matrix(0.866 0.5 -0.5 0.866 478.0533 192.9404)" class="st3 st4">EG5.1_Chr10</text>
	<text transform="matrix(0.866 0.5 -0.5 0.866 511.5382 192.9404)" class="st3 st4">EG5.1_Chr11</text>
	<text transform="matrix(0.866 0.5 -0.5 0.866 543.7511 192.9404)" class="st3 st4">EG5.1_Chr12</text>
	<text transform="matrix(0.866 0.5 -0.5 0.866 575.0319 192.9404)" class="st3 st4">EG5.1_Chr13</text>
	<text transform="matrix(0.866 0.5 -0.5 0.866 604.5236 192.9404)" class="st3 st4">EG5.1_Chr14</text>
	<text transform="matrix(0.866 0.5 -0.5 0.866 632.5914 192.9404)" class="st3 st4">EG5.1_Chr15</text>
	<text transform="matrix(0.866 0.5 -0.5 0.866 659.4279 192.9404)" class="st3 st4">EG5.1_Chr16</text>
	<path id="subjectChr_0" class="st14" d="M13,174.1h49.9c1.7,0,3,1.3,3,3v4c0,1.7-1.3,3-3,3H13c-1.7,0-3-1.3-3-3v-4
		C10,175.4,11.3,174.1,13,174.1z"/>
	<path id="subjectChr_1" class="st15" d="M77,174.1h47.6c1.7,0,3,1.3,3,3v4c0,1.7-1.3,3-3,3H77c-1.7,0-3-1.3-3-3v-4
		C74,175.4,75.4,174.1,77,174.1z"/>
	<path id="subjectChr_2" class="st14" d="M138.8,174.1h43c1.7,0,3,1.3,3,3v4c0,1.7-1.3,3-3,3h-43c-1.7,0-3-1.3-3-3v-4
		C135.8,175.4,137.1,174.1,138.8,174.1z"/>
	<path id="subjectChr_3" class="st15" d="M195.9,174.1h40.8c1.7,0,3,1.3,3,3v4c0,1.7-1.3,3-3,3h-40.8c-1.7,0-3-1.3-3-3v-4
		C192.9,175.4,194.3,174.1,195.9,174.1z"/>
	<path id="subjectChr_4" class="st14" d="M250.9,174.1h36.5c1.7,0,3,1.3,3,3v4c0,1.7-1.3,3-3,3h-36.5c-1.7,0-3-1.3-3-3v-4
		C247.9,175.4,249.2,174.1,250.9,174.1z"/>
	<path id="subjectChr_5" class="st15" d="M301.5,174.1h30.3c1.7,0,3,1.3,3,3v4c0,1.7-1.3,3-3,3h-30.3c-1.7,0-3-1.3-3-3v-4
		C298.5,175.4,299.9,174.1,301.5,174.1z"/>
	<path id="subjectChr_6" class="st14" d="M345.9,174.1h29.5c1.7,0,3,1.3,3,3v4c0,1.7-1.3,3-3,3h-29.5c-1.7,0-3-1.3-3-3v-4
		C342.9,175.4,344.3,174.1,345.9,174.1z"/>
	<path id="subjectChr_7" class="st15" d="M389.6,174.1h26.8c1.7,0,3,1.3,3,3v4c0,1.7-1.3,3-3,3h-26.8c-1.7,0-3-1.3-3-3v-4
		C386.6,175.4,388,174.1,389.6,174.1z"/>
	<path id="subjectChr_8" class="st14" d="M430.6,174.1h25.1c1.7,0,3,1.3,3,3v4c0,1.7-1.3,3-3,3h-25.1c-1.7,0-3-1.3-3-3v-4
		C427.6,175.4,428.9,174.1,430.6,174.1z"/>
	<path id="subjectChr_9" class="st15" d="M469.8,174.1h20.1c1.7,0,3,1.3,3,3v4c0,1.7-1.3,3-3,3h-20.1c-1.7,0-3-1.3-3-3v-4
		C466.8,175.4,468.2,174.1,469.8,174.1z"/>
	<path id="subjectChr_10" class="st14" d="M504.1,174.1h18.6c1.7,0,3,1.3,3,3v4c0,1.7-1.3,3-3,3h-18.6c-1.7,0-3-1.3-3-3v-4
		C501.1,175.4,502.4,174.1,504.1,174.1z"/>
	<path id="subjectChr_11" class="st15" d="M536.8,174.1h17.5c1.7,0,3,1.3,3,3v4c0,1.7-1.3,3-3,3h-17.5c-1.7,0-3-1.3-3-3v-4
		C533.8,175.4,535.2,174.1,536.8,174.1z"/>
	<path id="subjectChr_12" class="st14" d="M568.5,174.1h16.7c1.7,0,3,1.3,3,3v4c0,1.7-1.3,3-3,3h-16.7c-1.7,0-3-1.3-3-3v-4
		C565.5,175.4,566.8,174.1,568.5,174.1z"/>
	<path id="subjectChr_13" class="st15" d="M599.4,174.1h13.9c1.7,0,3,1.3,3,3v4c0,1.7-1.3,3-3,3h-13.9c-1.7,0-3-1.3-3-3v-4
		C596.4,175.4,597.7,174.1,599.4,174.1z"/>
	<path id="subjectChr_14" class="st14" d="M627.5,174.1h13.9c1.7,0,3,1.3,3,3v4c0,1.7-1.3,3-3,3h-13.9c-1.7,0-3-1.3-3-3v-4
		C624.5,175.4,625.8,174.1,627.5,174.1z"/>
	<path id="subjectChr_15" class="st15" d="M655.5,174.1H667c1.7,0,3,1.3,3,3v4c0,1.7-1.3,3-3,3h-11.5c-1.7,0-3-1.3-3-3v-4
		C652.5,175.4,653.9,174.1,655.5,174.1z"/>
</g>
<g>
	<path class="st16" d="M221.8,78.1c0,43.2,291.9,52.8,291.9,95.9h9.8c0-43.2-287-52.8-287-95.9"/>
	<path class="st17" d="M135.8,78.1c0,43.2,207.4,52.8,207.4,95.9h8.3c0-43.2-203.2-52.8-203.2-95.9"/>
	<path class="st18" d="M250.9,78.1c0,43.2,347.6,52.8,347.6,95.9h7.8c0-43.2-335.2-52.8-335.2-95.9"/>
	<path class="st19" d="M20.3,78.1c0,43.2,301.3,52.8,301.3,95.9h7.5c0-43.2-299.8-52.8-299.8-95.9"/>
	<path class="st20" d="M391.2,78.1c0,43.2-31.1,52.8-31.1,95.9h8.8c0-43.2,28.2-52.8,28.2-95.9"/>
	<path class="st18" d="M280.9,78.1c0,43.2-32.6,52.8-32.6,95.9h8.2c0-43.2,31.7-52.8,31.7-95.9"/>
	<path class="st21" d="M321.6,78.1c0,43.2-301.3,52.8-301.3,95.9h9c0-43.2,299.8-52.8,299.8-95.9"/>
	<path class="st16" d="M598.5,78.1c0,43.2-347.6,52.8-347.6,95.9H271c0-43.2,335.2-52.8,335.2-95.9"/>
	<path class="st22" d="M343.3,78.1c0,43.2-207.4,52.8-207.4,95.9h12.5c0-43.2,203.2-52.8,203.2-95.9"/>
	<path class="st19" d="M513.7,78.1c0,43.2-291.9,52.8-291.9,95.9h14.7c0-43.2,287-52.8,287-95.9"/>
	<path class="st23" d="M441.1,78.1c0,43.2-346.7,52.8-346.7,95.9h6.4c0-43.2,353.8-52.8,353.8-95.9"/>
	<path class="st18" d="M248.2,78.1c0,43.2,32.6,52.8,32.6,95.9h7.3c0-43.2-31.7-52.8-31.7-95.9"/>
	<path class="st24" d="M94.4,78.1c0,43.2,346.7,52.8,346.7,95.9h13.5c0-43.2-353.8-52.8-353.8-95.9"/>
	<path class="st17" d="M149.7,78.1c0,43.2,202,52.8,202,95.9h7.1c0-43.2-200.1-52.8-200.1-95.9"/>
	<path class="st25" d="M470.8,78.1c0,43.2-193.8,52.8-193.8,95.9h7.2c0-43.2,193-52.8,193-95.9"/>
	<path class="st23" d="M448.2,78.1c0,43.2-373,52.8-373,95.9h6.2c0-43.2,372.8-52.8,372.8-95.9"/>
	<path class="st22" d="M360.1,78.1c0,43.2,31.1,52.8,31.1,95.9h6c0-43.2-28.2-52.8-28.2-95.9"/>
	<path class="st21" d="M316.3,78.1c0,43.2-286,52.8-286,95.9H35c0-43.2,286.5-52.8,286.5-95.9"/>
	<path class="st19" d="M30.2,78.1c0,43.2,286,52.8,286,95.9h5.2c0-43.2-286.5-52.8-286.5-95.9"/>
	<path class="st18" d="M639.5,78.1c0,43.2-64.5,52.8-64.5,95.9h11.3c0-43.2,57.5-52.8,57.5-95.9"/>
	<path class="st21" d="M329.1,78.1c0,43.2-318.6,52.8-318.6,95.9h9.3c0-43.2,314.9-52.8,314.9-95.9"/>
	<path class="st22" d="M351.7,78.1c0,43.2-202,52.8-202,95.9h9c0-43.2,200.1-52.8,200.1-95.9"/>
	<path class="st18" d="M257,78.1c0,43.2-135.5,52.8-135.5,95.9h2.5c0-43.2,139.7-52.8,139.7-95.9"/>
	<path class="st19" d="M10.6,78.1c0,43.2,318.6,52.8,318.6,95.9h5.7c0-43.2-314.9-52.8-314.9-95.9"/>
	<path class="st17" d="M575,78.1c0,43.2,64.5,52.8,64.5,95.9h4.4c0-43.2-57.5-52.8-57.5-95.9"/>
	<path class="st24" d="M75.2,78.1c0,43.2,373,52.8,373,95.9h6c0-43.2-372.8-52.8-372.8-95.9"/>
	<path class="st16" d="M601.5,78.1c0,43.2-479.8,52.8-479.8,95.9h2.8c0-43.2,480.2-52.8,480.2-95.9"/>
	<path class="st17" d="M136.3,78.1c0,43.2,207.4,52.8,207.4,95.9h2.4c0-43.2-205.2-52.8-205.2-95.9"/>
	<path class="st19" d="M10.5,78.1c0,43.2,333.1,52.8,333.1,95.9h2.4c0-43.2-331.4-52.8-331.4-95.9"/>
	<path class="st17" d="M136.3,78.1c0,43.2,207.3,52.8,207.3,95.9h2.3c0-43.2-205.3-52.8-205.3-95.9"/>
	<path class="st19" d="M10.6,78.1c0,43.2,333.1,52.8,333.1,95.9h2.3c0-43.2-331.5-52.8-331.5-95.9"/>
	<path class="st18" d="M250.9,78.1c0,43.2,347.6,52.8,347.6,95.9h2.7c0-43.2-345.2-52.8-345.2-95.9"/>
	<path class="st18" d="M280.9,78.1c0,43.2,317.6,52.8,317.6,95.9h2.7c0-43.2-315.3-52.8-315.3-95.9"/>
	<path class="st18" d="M256,78.1c0,43.2,345.2,52.8,345.2,95.9h3.9c0-43.2-339.7-52.8-339.7-95.9"/>
	<path class="st24" d="M121.5,78.1c0,43.2,479.6,52.8,479.6,95.9h3.9c0-43.2-478.7-52.8-478.7-95.9"/>
	<path class="st24" d="M76.6,78.1c0,43.2,374.8,52.8,374.8,95.9h3.1c0-43.2-373.2-52.8-373.2-95.9"/>
	<path class="st24" d="M110,78.1c0,43.2,300.4,52.8,300.4,95.9h3.8c0-43.2-297.3-52.8-297.3-95.9"/>
	<path class="st24" d="M545.1,78.1c0,43.2,121.6,52.8,121.6,95.9h3.3c0-43.2-119.4-52.8-119.4-95.9"/>
	<path class="st19" d="M38.4,78.1c0,43.2,260.2,52.8,260.2,95.9h3.3c0-43.2-256.8-52.8-256.8-95.9"/>
	<path class="st18" d="M280.9,78.1c0,43.2,315.6,52.8,315.6,95.9h4.8c0-43.2-312.9-52.8-312.9-95.9"/>
	<path class="st18" d="M277,78.1c0,43.2,193.8,52.8,193.8,95.9h6.4c0-43.2-193-52.8-193-95.9"/>
	<path class="st25" d="M480,78.1c0,43.2,121.7,52.8,121.7,95.9h3c0-43.2-122.9-52.8-122.9-95.9"/>
	<path class="st24" d="M121.7,78.1c0,43.2,479.8,52.8,479.8,95.9h3.1c0-43.2-480.2-52.8-480.2-95.9"/>
	<path class="st25" d="M485.5,78.1c0,43.2,94.7,52.8,94.7,95.9h3.2c0-43.2-95.9-52.8-95.9-95.9"/>
	<path class="st24" d="M121.5,78.1c0,43.2,135.5,52.8,135.5,95.9h6.8c0-43.2-139.7-52.8-139.7-95.9"/>
	<path class="st18" d="M252.5,78.1c0,43.2,218.2,52.8,218.2,95.9h4.1c0-43.2-218.9-52.8-218.9-95.9"/>
	<path class="st22" d="M356.6,78.1c0,43.2,280.5,52.8,280.5,95.9h3.4c0-43.2-281.1-52.8-281.1-95.9"/>
	<path class="st17" d="M155.9,78.1c0,43.2,200.8,52.8,200.8,95.9h2.1c0-43.2-200.2-52.8-200.2-95.9"/>
	<path class="st18" d="M637.1,78.1c0,43.2-280.5,52.8-280.5,95.9h2.1c0-43.2,280.9-52.8,280.9-95.9"/>
	<path class="st21" d="M332.8,78.1c0,43.2,10.8,52.8,10.8,95.9h2.3c0-43.2-11.1-52.8-11.1-95.9"/>
	<path class="st21" d="M332.6,78.1c0,43.2-196,52.8-196,95.9h4.3c0-43.2,193.8-52.8,193.8-95.9"/>
	<path class="st25" d="M489.1,78.1c0,43.2-310.6,52.8-310.6,95.9h4.2c0-43.2,307.9-52.8,307.9-95.9"/>
	<path class="st24" d="M94.3,78.1c0,43.2-18.9,52.8-18.9,95.9h6.3c0-43.2,16.6-52.8,16.6-95.9"/>
	<path class="st17" d="M136.3,78.1c0,43.2-125.7,52.8-125.7,95.9h4.1c0-43.2,126.2-52.8,126.2-95.9"/>
	<path class="st18" d="M637.1,78.1c0,43.2-481.2,52.8-481.2,95.9h4c0-43.2,480.7-52.8,480.7-95.9"/>
	<path class="st19" d="M505.7,78.1c0,43.2-287.3,52.8-287.3,95.9h2.9c0-43.2,288.5-52.8,288.5-95.9"/>
	<path class="st25" d="M470.7,78.1c0,43.2-218.2,52.8-218.2,95.9h3.4c0-43.2,218.9-52.8,218.9-95.9"/>
	<path class="st16" d="M598.5,78.1c0,43.2-347.6,52.8-347.6,95.9h5.1c0-43.2,345.2-52.8,345.2-95.9"/>
	<path class="st23" d="M451.4,78.1c0,43.2-357.1,52.8-357.1,95.9h2.6c0-43.2,357.6-52.8,357.6-95.9"/>
	<path class="st16" d="M602.4,78.1c0,43.2-344.3,52.8-344.3,95.9h6.9c0-43.2,339.9-52.8,339.9-95.9"/>
	<path class="st16" d="M601.2,78.1c0,43.2-479.6,52.8-479.6,95.9h4.7c0-43.2,478.7-52.8,478.7-95.9"/>
	<path class="st16" d="M601.2,78.1c0,43.2-345.2,52.8-345.2,95.9h9.3c0-43.2,339.7-52.8,339.7-95.9"/>
	<path class="st22" d="M343.6,78.1c0,43.2-207.4,52.8-207.4,95.9h4.6c0-43.2,205.2-52.8,205.2-95.9"/>
	<path class="st16" d="M602.4,78.1c0,43.2-480.8,52.8-480.8,95.9h1.9c0-43.2,481.5-52.8,481.5-95.9"/>
	<path class="st21" d="M330.3,78.1c0,43.2-185.9,52.8-185.9,95.9h2.3c0-43.2,185.3-52.8,185.3-95.9"/>
	<path class="st25" d="M482.6,78.1c0,43.2-94.3,52.8-94.3,95.9h2.7c0-43.2,93.9-52.8,93.9-95.9"/>
	<path class="st22" d="M374.6,78.1c0,43.2-261.8,52.8-261.8,95.9h1.4c0-43.2,263.4-52.8,263.4-95.9"/>
	<path class="st20" d="M398.1,78.1c0,43.2-322,52.8-322,95.9h1.5c0-43.2,322.9-52.8,322.9-95.9"/>
	<path class="st16" d="M601.6,78.1c0,43.2-121.7,52.8-121.7,95.9h1.9c0-43.2,122.9-52.8,122.9-95.9"/>
	<path class="st17" d="M144.4,78.1c0,43.2,204.4,52.8,204.4,95.9h1.8c0-43.2-203.8-52.8-203.8-95.9"/>
	<path class="st21" d="M330.3,78.1c0,43.2,18.5,52.8,18.5,95.9h1.8c0-43.2-18.5-52.8-18.5-95.9"/>
	<path class="st18" d="M252.4,78.1c0,43.2,347,52.8,347,95.9h1.7c0-43.2-345.2-52.8-345.2-95.9"/>
	<path class="st18" d="M280.9,78.1c0,43.2,318.5,52.8,318.5,95.9h1.7c0-43.2-316.6-52.8-316.6-95.9"/>
	<path class="st25" d="M470.6,78.1c0,43.2,128.8,52.8,128.8,95.9h1.7c0-43.2-126.3-52.8-126.3-95.9"/>
	<path class="st18" d="M258.1,78.1c0,43.2,344.3,52.8,344.3,95.9h2.5c0-43.2-339.9-52.8-339.9-95.9"/>
	<path class="st17" d="M577,78.1c0,43.2-253.9,52.8-253.9,95.9h2.6c0-43.2,253.7-52.8,253.7-95.9"/>
	<path class="st17" d="M577.2,78.1c0,43.2-253.8,52.8-253.8,95.9h2.2c0-43.2,253.6-52.8,253.6-95.9"/>
	<path class="st24" d="M111.5,78.1c0,43.2,299.8,52.8,299.8,95.9h1.7c0-43.2-298.7-52.8-298.7-95.9"/>
	<path class="st20" d="M417.2,78.1c0,43.2-5.9,52.8-5.9,95.9h1.7c0-43.2,6.1-52.8,6.1-95.9"/>
	<path class="st18" d="M248.2,78.1c0,43.2,38.2,52.8,38.2,95.9h1.7c0-43.2-37.7-52.8-37.7-95.9"/>
	<path class="st18" d="M248.1,78.1c0,43.2,348.3,52.8,348.3,95.9h2.3c0-43.2-347.8-52.8-347.8-95.9"/>
	<path class="st24" d="M550.5,78.1c0,43.2,104.7,52.8,104.7,95.9h2c0-43.2-103.6-52.8-103.6-95.9"/>
	<path class="st24" d="M553.6,78.1c0,43.2,99.1,52.8,99.1,95.9h2c0-43.2-98.6-52.8-98.6-95.9"/>
	<path class="st16" d="M596.6,78.1c0,43.2-310.1,52.8-310.1,95.9h1.7c0-43.2,310.2-52.8,310.2-95.9"/>
	<path class="st21" d="M653,78.1c0,43.2-437.1,52.8-437.1,95.9h5.4c0-43.2,433-52.8,433-95.9"/>
	<path class="st16" d="M596.5,78.1c0,43.2-315.6,52.8-315.6,95.9h7.4c0-43.2,312.9-52.8,312.9-95.9"/>
	<path class="st21" d="M298.6,78.1c0,43.2-260.2,52.8-260.2,95.9h6.7c0-43.2,256.8-52.8,256.8-95.9"/>
	<path class="st21" d="M666.7,78.1c0,43.2-121.6,52.8-121.6,95.9h5.5c0-43.2,119.4-52.8,119.4-95.9"/>
	<path class="st20" d="M410.4,78.1c0,43.2-300.4,52.8-300.4,95.9h6.9c0-43.2,297.3-52.8,297.3-95.9"/>
	<path class="st23" d="M451.4,78.1c0,43.2-374.8,52.8-374.8,95.9h4.8c0-43.2,373.2-52.8,373.2-95.9"/>
	<path class="st22" d="M356.6,78.1c0,43.2,280.5,52.8,280.5,95.9h2.5c0-43.2-280.9-52.8-280.9-95.9"/>
	<path class="st22" d="M356.6,78.1c0,43.2-200.8,52.8-200.8,95.9h2.7c0-43.2,200.2-52.8,200.2-95.9"/>
	<path class="st23" d="M448.2,78.1c0,43.2-351.2,52.8-351.2,95.9h1.4c0-43.2,352.8-52.8,352.8-95.9"/>
	<path class="st23" d="M448.2,78.1c0,43.2-373,52.8-373,95.9h1.4c0-43.2,374.6-52.8,374.6-95.9"/>
	<path class="st21" d="M652.7,78.1c0,43.2-99.1,52.8-99.1,95.9h2.5c0-43.2,98.6-52.8,98.6-95.9"/>
	<path class="st21" d="M655.2,78.1c0,43.2-104.7,52.8-104.7,95.9h3c0-43.2,103.6-52.8,103.6-95.9"/>
	<path class="st16" d="M596.4,78.1c0,43.2-348.3,52.8-348.3,95.9h2.7c0-43.2,347.8-52.8,347.8-95.9"/>
	<path class="st21" d="M653,78.1c0,43.2-99.1,52.8-99.1,95.9h1.7c0-43.2,98.7-52.8,98.7-95.9"/>
	<path class="st18" d="M286.4,78.1c0,43.2,310.1,52.8,310.1,95.9h1.8c0-43.2-310.2-52.8-310.2-95.9"/>
	<path class="st18" d="M286.4,78.1c0,43.2-38.2,52.8-38.2,95.9h2.3c0-43.2,37.7-52.8,37.7-95.9"/>
	<path class="st22" d="M374.6,78.1c0,43.2,43.2,52.8,43.2,95.9h1.3c0-43.2-41.1-52.8-41.1-95.9"/>
	<path class="st17" d="M144,78.1c0,43.2-127.5,52.8-127.5,95.9h2.2c0-43.2,128.2-52.8,128.2-95.9"/>
	<path class="st17" d="M140.9,78.1c0,43.2-122.3,52.8-122.3,95.9h2.6c0-43.2,121.8-52.8,121.8-95.9"/>
	<path class="st24" d="M554,78.1c0,43.2,99.1,52.8,99.1,95.9h1.4c0-43.2-98.7-52.8-98.7-95.9"/>
	<path class="st16" d="M216,78.1c0,43.2,437.1,52.8,437.1,95.9h1.4c0-43.2-433-52.8-433-95.9"/>
	<path class="st16" d="M218.4,78.1c0,43.2,287.3,52.8,287.3,95.9h4.1c0-43.2-288.5-52.8-288.5-95.9"/>
	<path class="st19" d="M10.5,78.1c0,43.2,125.7,52.8,125.7,95.9h4.6c0-43.2-126.2-52.8-126.2-95.9"/>
	<path class="st24" d="M75.4,78.1c0,43.2,18.9,52.8,18.9,95.9h4.1c0-43.2-16.6-52.8-16.6-95.9"/>
	<path class="st17" d="M155.9,78.1c0,43.2,481.2,52.8,481.2,95.9h3.4c0-43.2-480.7-52.8-480.7-95.9"/>
	<path class="st19" d="M16.4,78.1c0,43.2,127.5,52.8,127.5,95.9h2.8c0-43.2-128.2-52.8-128.2-95.9"/>
	<path class="st20" d="M388.3,78.1c0,43.2,94.3,52.8,94.3,95.9h2.3c0-43.2-93.9-52.8-93.9-95.9"/>
	<path class="st16" d="M236.4,78.1c0,43.2,287,52.8,287,95.9h1.8c0-43.2-285.7-52.8-285.7-95.9"/>
	<path class="st24" d="M121.7,78.1c0,43.2,358.2,52.8,358.2,95.9h1.7c0-43.2-357.1-52.8-357.1-95.9"/>
	<path class="st24" d="M75.2,78.1c0,43.2,373,52.8,373,95.9h3c0-43.2-374.6-52.8-374.6-95.9"/>
	<path class="st24" d="M97,78.1c0,43.2,351.2,52.8,351.2,95.9h3c0-43.2-352.8-52.8-352.8-95.9"/>
	<path class="st24" d="M94.4,78.1c0,43.2,357.1,52.8,357.1,95.9h3.1c0-43.2-357.6-52.8-357.6-95.9"/>
	<path class="st19" d="M26,78.1c0,43.2,297.4,52.8,297.4,95.9h2.2c0-43.2-298.7-52.8-298.7-95.9"/>
	<path class="st19" d="M25.9,78.1c0,43.2,297.2,52.8,297.2,95.9h2.6c0-43.2-298.5-52.8-298.5-95.9"/>
	<path class="st25" d="M480.2,78.1c0,43.2,122.2,52.8,122.2,95.9h2.5c0-43.2-123.1-52.8-123.1-95.9"/>
	<path class="st24" d="M121.5,78.1c0,43.2,480.8,52.8,480.8,95.9h2.5c0-43.2-481.5-52.8-481.5-95.9"/>
	<path class="st24" d="M550.5,78.1c0,43.2-349.1,52.8-349.1,95.9h5.7c0-43.2,344.9-52.8,344.9-95.9"/>
	<path class="st16" d="M599.5,78.1c0,43.2-128.8,52.8-128.8,95.9h4.2c0-43.2,126.3-52.8,126.3-95.9"/>
	<path class="st21" d="M330.3,78.1c0,43.2,18.5,52.8,18.5,95.9h1.8c0-43.2-18.5-52.8-18.5-95.9"/>
	<path class="st24" d="M550.5,78.1c0,43.2,105.6,52.8,105.6,95.9h1c0-43.2-105.2-52.8-105.2-95.9"/>
	<path class="st24" d="M116.9,78.1c0,43.2,300,52.8,300,95.9h0.9c0-43.2-298.5-52.8-298.5-95.9"/>
	<path class="st19" d="M18.6,78.1c0,43.2,122.3,52.8,122.3,95.9h2.1c0-43.2-121.8-52.8-121.8-95.9"/>
	<path class="st19" d="M10.6,78.1c0,43.2,333.1,52.8,333.1,95.9h2.3c0-43.2-331.5-52.8-331.5-95.9"/>
	<path class="st19" d="M45.5,78.1c0,43.2,256.5,52.8,256.5,95.9h1.6c0-43.2-253.5-52.8-253.5-95.9"/>
	<path class="st16" d="M216,78.1c0,43.2,338,52.8,338,95.9h1.7c0-43.2-334.3-52.8-334.3-95.9"/>
	<path class="st17" d="M569.2,78.1c0,43.2,65.8,52.8,65.8,95.9h1.6c0-43.2-65.4-52.8-65.4-95.9"/>
	<path class="st17" d="M178.6,78.1c0,43.2,310.6,52.8,310.6,95.9h1.5c0-43.2-307.9-52.8-307.9-95.9"/>
	<path class="st19" d="M16.4,78.1c0,43.2,332.4,52.8,332.4,95.9h1.8c0-43.2-332-52.8-332-95.9"/>
	<path class="st22" d="M343.7,78.1c0,43.2-11.1,52.8-11.1,95.9h2c0-43.2,11.4-52.8,11.4-95.9"/>
	<path class="st22" d="M370.7,78.1c0,43.2,236.3,52.8,236.3,95.9h1.3c0-43.2-235.7-52.8-235.7-95.9"/>
	<path class="st16" d="M201.4,78.1c0,43.2,349.1,52.8,349.1,95.9h1.5c0-43.2-344.9-52.8-344.9-95.9"/>
	<path class="st21" d="M656.2,78.1c0,43.2-105.6,52.8-105.6,95.9h1.5c0-43.2,105.2-52.8,105.2-95.9"/>
	<path class="st17" d="M158.6,78.1c0,43.2,425.6,52.8,425.6,95.9h1.8c0-43.2-426.1-52.8-426.1-95.9"/>
	<path class="st18" d="M287.5,78.1c0,43.2,179.6,52.8,179.6,95.9h3.4c0-43.2-181.7-52.8-181.7-95.9"/>
	<path class="st24" d="M111.5,78.1c0,43.2,305.7,52.8,305.7,95.9h1.9c0-43.2-304.8-52.8-304.8-95.9"/>
	<path class="st24" d="M108,78.1c0,43.2,298.6,52.8,298.6,95.9h1.1c0-43.2-297.8-52.8-297.8-95.9"/>
	<path class="st17" d="M160.2,78.1c0,43.2,325.8,52.8,325.8,95.9h1.3c0-43.2-322.2-52.8-322.2-95.9"/>
	<path class="st24" d="M93.4,78.1c0,43.2,361.7,52.8,361.7,95.9h1c0-43.2-361.7-52.8-361.7-95.9"/>
	<path class="st24" d="M92.1,78.1c0,43.2,365.5,52.8,365.5,95.9h0.9c0-43.2-365.4-52.8-365.4-95.9"/>
	<path class="st18" d="M638.1,78.1c0,43.2-51.8,52.8-51.8,95.9h1.8c0-43.2,50.8-52.8,50.8-95.9"/>
	<path class="st25" d="M486,78.1c0,43.2-325.8,52.8-325.8,95.9h4.9c0-43.2,322.2-52.8,322.2-95.9"/>
	<path class="st20" d="M406.6,78.1c0,43.2-298.6,52.8-298.6,95.9h1.9c0-43.2,297.8-52.8,297.8-95.9"/>
	<path class="st18" d="M635.1,78.1c0,43.2-65.8,52.8-65.8,95.9h2c0-43.2,65.4-52.8,65.4-95.9"/>
	<path class="st24" d="M554,78.1c0,43.2-338,52.8-338,95.9h5.4c0-43.2,334.3-52.8,334.3-95.9"/>
	<path class="st18" d="M637.1,78.1c0,43.2-280.5,52.8-280.5,95.9h2.8c0-43.2,281.1-52.8,281.1-95.9"/>
	<path class="st20" d="M417.2,78.1c0,43.2-305.7,52.8-305.7,95.9h2.7c0-43.2,304.8-52.8,304.8-95.9"/>
	<path class="st21" d="M302,78.1c0,43.2-256.5,52.8-256.5,95.9h4.6c0-43.2,253.5-52.8,253.5-95.9"/>
	<path class="st22" d="M343.7,78.1c0,43.2-333.1,52.8-333.1,95.9h3.9c0-43.2,331.5-52.8,331.5-95.9"/>
	<path class="st25" d="M467.1,78.1c0,43.2-179.6,52.8-179.6,95.9h1.3c0-43.2,181.7-52.8,181.7-95.9"/>
	<path class="st23" d="M455.1,78.1c0,43.2-361.7,52.8-361.7,95.9h1c0-43.2,361.7-52.8,361.7-95.9"/>
	<path class="st23" d="M457.6,78.1c0,43.2-365.5,52.8-365.5,95.9h1c0-43.2,365.4-52.8,365.4-95.9"/>
	<path class="st20" d="M416.9,78.1c0,43.2-300,52.8-300,95.9h2.4c0-43.2,298.5-52.8,298.5-95.9"/>
	<path class="st18" d="M633.7,78.1c0,43.2-67.2,52.8-67.2,95.9h1.7c0-43.2,66.8-52.8,66.8-95.9"/>
	<path class="st25" d="M479.9,78.1c0,43.2-358.2,52.8-358.2,95.9h2.7c0-43.2,357.1-52.8,357.1-95.9"/>
	<path class="st19" d="M523.4,78.1c0,43.2-287,52.8-287,95.9h3c0-43.2,285.7-52.8,285.7-95.9"/>
	<path class="st16" d="M234.5,78.1c0,43.2,288,52.8,288,95.9h0.8c0-43.2-287.2-52.8-287.2-95.9"/>
	<path class="st24" d="M547.9,78.1c0,43.2-25.4,52.8-25.4,95.9h0.8c0-43.2,25.9-52.8,25.9-95.9"/>
	<path class="st16" d="M234.6,78.1c0,43.2,287.9,52.8,287.9,95.9h0.8c0-43.2-287.2-52.8-287.2-95.9"/>
	<path class="st24" d="M547.9,78.1c0,43.2-25.4,52.8-25.4,95.9h0.8c0-43.2,25.9-52.8,25.9-95.9"/>
	<path class="st17" d="M144.4,78.1c0,43.2,204.4,52.8,204.4,95.9h1c0-43.2-203.7-52.8-203.7-95.9"/>
	<path class="st17" d="M144,78.1c0,43.2,204.6,52.8,204.6,95.9h1.2c0-43.2-203.7-52.8-203.7-95.9"/>
	<path class="st19" d="M16.2,78.1c0,43.2,332.3,52.8,332.3,95.9h1.2c0-43.2-331.6-52.8-331.6-95.9"/>
	<path class="st21" d="M331,78.1c0,43.2,17.8,52.8,17.8,95.9h1c0-43.2-17.7-52.8-17.7-95.9"/>
	<path class="st19" d="M16.4,78.1c0,43.2,332.4,52.8,332.4,95.9h1c0-43.2-332.1-52.8-332.1-95.9"/>
	<path class="st17" d="M140.9,78.1c0,43.2,205.2,52.8,205.2,95.9h1c0-43.2-204.8-52.8-204.8-95.9"/>
	<path class="st19" d="M19.3,78.1c0,43.2,326.8,52.8,326.8,95.9h1c0-43.2-325.9-52.8-325.9-95.9"/>
	<path class="st17" d="M156.6,78.1c0,43.2,200.7,52.8,200.7,95.9h0.7c0-43.2-200.4-52.8-200.4-95.9"/>
	<path class="st24" d="M111.4,78.1c0,43.2,299.9,52.8,299.9,95.9h0.8c0-43.2-299.3-52.8-299.3-95.9"/>
	<path class="st24" d="M117.3,78.1c0,43.2,294,52.8,294,95.9h0.8c0-43.2-292.8-52.8-292.8-95.9"/>
	<path class="st17" d="M566.5,78.1c0,43.2,67.2,52.8,67.2,95.9h1.4c0-43.2-66.8-52.8-66.8-95.9"/>
	<path class="st20" d="M417.8,78.1c0,43.2-43.2,52.8-43.2,95.9h3.4c0-43.2,41.1-52.8,41.1-95.9"/>
	<path class="st17" d="M586.4,78.1c0,43.2,51.8,52.8,51.8,95.9h0.9c0-43.2-50.8-52.8-50.8-95.9"/>
	<path class="st17" d="M144.4,78.1c0,43.2,185.9,52.8,185.9,95.9h1.7c0-43.2-185.3-52.8-185.3-95.9"/>
	<path class="st18" d="M638.1,78.1c0,43.2-280.9,52.8-280.9,95.9h0.7c0-43.2,281-52.8,281-95.9"/>
	<path class="st17" d="M586.5,78.1c0,43.2-229.2,52.8-229.2,95.9h0.7c0-43.2,230.1-52.8,230.1-95.9"/>
	<path class="st17" d="M584.2,78.1c0,43.2,55.4,52.8,55.4,95.9h0.9c0-43.2-54.6-52.8-54.6-95.9"/>
	<path class="st17" d="M158.7,78.1c0,43.2,481,52.8,481,95.9h0.9c0-43.2-480.7-52.8-480.7-95.9"/>
	<path class="st19" d="M17.9,78.1c0,43.2,331.9,52.8,331.9,95.9h0.8c0-43.2-331.9-52.8-331.9-95.9"/>
	<path class="st21" d="M668.6,78.1c0,43.2-146,52.8-146,95.9h0.8c0-43.2,145.9-52.8,145.9-95.9"/>
	<path class="st20" d="M405.6,78.1c0,43.2-300.2,52.8-300.2,95.9h1.5c0-43.2,299.4-52.8,299.4-95.9"/>
	<path class="st21" d="M653.1,78.1c0,43.2-435.4,52.8-435.4,95.9h3.3c0-43.2,433.4-52.8,433.4-95.9"/>
	<path class="st17" d="M580.2,78.1c0,43.2-94.7,52.8-94.7,95.9h2c0-43.2,95.9-52.8,95.9-95.9"/>
	<path class="st17" d="M146.9,78.1c0,43.2,203.8,52.8,203.8,95.9h0.7c0-43.2-203.4-52.8-203.4-95.9"/>
	<path class="st19" d="M21.3,78.1c0,43.2,329.4,52.8,329.4,95.9h0.7c0-43.2-328-52.8-328-95.9"/>
	<path class="st21" d="M327.9,78.1c0,43.2,22.8,52.8,22.8,95.9h0.7c0-43.2-22.7-52.8-22.7-95.9"/>
	<path class="st17" d="M582.5,78.1c0,43.2,58.1,52.8,58.1,95.9h0.7c0-43.2-57.2-52.8-57.2-95.9"/>
	<path class="st17" d="M165.6,78.1c0,43.2,475,52.8,475,95.9h0.7c0-43.2-472.8-52.8-472.8-95.9"/>
	<path class="st24" d="M113,78.1c0,43.2,299.2,52.8,299.2,95.9h0.7c0-43.2-298.8-52.8-298.8-95.9"/>
	<path class="st20" d="M418.1,78.1c0,43.2-5.9,52.8-5.9,95.9h0.7c0-43.2,6.1-52.8,6.1-95.9"/>
	<path class="st22" d="M376,78.1c0,43.2,36.3,52.8,36.3,95.9h0.7c0-43.2-35.4-52.8-35.4-95.9"/>
	<path class="st25" d="M485.2,78.1c0,43.2,155.4,52.8,155.4,95.9h0.7c0-43.2-155.3-52.8-155.3-95.9"/>
	<path class="st18" d="M642.7,78.1c0,43.2-319.3,52.8-319.3,95.9h2.2c0-43.2,317.8-52.8,317.8-95.9"/>
	<path class="st17" d="M165.4,78.1c0,43.2,319.7,52.8,319.7,95.9h0.7c0-43.2-318-52.8-318-95.9"/>
	<path class="st16" d="M217.7,78.1c0,43.2,435.4,52.8,435.4,95.9h1.3c0-43.2-433.4-52.8-433.4-95.9"/>
	<path class="st17" d="M136.6,78.1c0,43.2,196,52.8,196,95.9h2c0-43.2-193.8-52.8-193.8-95.9"/>
	<path class="st22" d="M348.8,78.1c0,43.2-18.5,52.8-18.5,95.9h1.7c0-43.2,18.5-52.8,18.5-95.9"/>
	<path class="st25" d="M470.7,78.1c0,43.2,128.8,52.8,128.8,95.9h1.7c0-43.2-126.3-52.8-126.3-95.9"/>
	<path class="st24" d="M76.1,78.1c0,43.2,322,52.8,322,95.9h2.4c0-43.2-322.9-52.8-322.9-95.9"/>
	<path class="st24" d="M112.8,78.1c0,43.2,261.8,52.8,261.8,95.9h3c0-43.2-263.4-52.8-263.4-95.9"/>
	<path class="st24" d="M105.4,78.1c0,43.2,300.2,52.8,300.2,95.9h0.7c0-43.2-299.4-52.8-299.4-95.9"/>
	<path class="st21" d="M330.4,78.1c0,43.2,19.4,52.8,19.4,95.9h0.8c0-43.2-19.5-52.8-19.5-95.9"/>
	<path class="st17" d="M146,78.1c0,43.2,203.8,52.8,203.8,95.9h0.8c0-43.2-203.8-52.8-203.8-95.9"/>
	<path class="st25" d="M485.1,78.1c0,43.2-319.7,52.8-319.7,95.9h2.4c0-43.2,318-52.8,318-95.9"/>
	<path class="st21" d="M332.7,78.1c0,43.2,11.1,52.8,11.1,95.9h2.3c0-43.2-11.4-52.8-11.4-95.9"/>
	<path class="st16" d="M607,78.1c0,43.2-236.3,52.8-236.3,95.9h1.9c0-43.2,235.7-52.8,235.7-95.9"/>
	<path class="st22" d="M348.8,78.1c0,43.2-332.4,52.8-332.4,95.9h2.2c0-43.2,332-52.8,332-95.9"/>
	<path class="st17" d="M584.2,78.1c0,43.2-425.6,52.8-425.6,95.9h1.3c0-43.2,426.1-52.8,426.1-95.9"/>
	<path class="st21" d="M653,78.1c0,43.2-145.4,52.8-145.4,95.9h2.3c0-43.2,143.8-52.8,143.8-95.9"/>
	<path class="st21" d="M653,78.1c0,43.2-433,52.8-433,95.9h1.4c0-43.2,432.2-52.8,432.2-95.9"/>
	<path class="st20" d="M411.3,78.1c0,43.2-294,52.8-294,95.9h2c0-43.2,292.8-52.8,292.8-95.9"/>
	<path class="st20" d="M411.3,78.1c0,43.2,5.9,52.8,5.9,95.9h1.9c0-43.2-6.1-52.8-6.1-95.9"/>
	<path class="st20" d="M411.3,78.1c0,43.2-299.8,52.8-299.8,95.9h2.7c0-43.2,298.7-52.8,298.7-95.9"/>
	<path class="st20" d="M411.3,78.1c0,43.2-299.9,52.8-299.9,95.9h1.4c0-43.2,299.3-52.8,299.3-95.9"/>
	<path class="st20" d="M412.1,78.1c0,43.2-37.5,52.8-37.5,95.9h3c0-43.2,35.4-52.8,35.4-95.9"/>
	<path class="st20" d="M412.1,78.1c0,43.2-299.3,52.8-299.3,95.9h1.4c0-43.2,298.8-52.8,298.8-95.9"/>
	<path class="st21" d="M653,78.1c0,43.2-98.1,52.8-98.1,95.9h0.8c0-43.2,97.9-52.8,97.9-95.9"/>
	<path class="st22" d="M357.3,78.1c0,43.2,229.2,52.8,229.2,95.9h1.7c0-43.2-230.1-52.8-230.1-95.9"/>
	<path class="st16" d="M599.4,78.1c0,43.2-128.8,52.8-128.8,95.9h4.3c0-43.2,126.3-52.8,126.3-95.9"/>
	<path class="st16" d="M599.4,78.1c0,43.2-318.5,52.8-318.5,95.9h3.7c0-43.2,316.6-52.8,316.6-95.9"/>
	<path class="st16" d="M599.4,78.1c0,43.2-347,52.8-347,95.9h3.5c0-43.2,345.2-52.8,345.2-95.9"/>
	<path class="st16" d="M598.5,78.1c0,43.2-317.6,52.8-317.6,95.9h5c0-43.2,315.3-52.8,315.3-95.9"/>
	<path class="st16" d="M602.4,78.1c0,43.2-122.2,52.8-122.2,95.9h1.6c0-43.2,123.1-52.8,123.1-95.9"/>
	<path class="st21" d="M323.1,78.1c0,43.2-297.2,52.8-297.2,95.9h1.3c0-43.2,298.5-52.8,298.5-95.9"/>
	<path class="st21" d="M323.1,78.1c0,43.2,253.9,52.8,253.9,95.9h2.4c0-43.2-253.7-52.8-253.7-95.9"/>
	<path class="st22" d="M346.1,78.1c0,43.2-326.8,52.8-326.8,95.9h1.9c0-43.2,325.9-52.8,325.9-95.9"/>
	<path class="st22" d="M348.8,78.1c0,43.2-204.4,52.8-204.4,95.9h2.3c0-43.2,203.8-52.8,203.8-95.9"/>
	<path class="st22" d="M343.6,78.1c0,43.2-333.1,52.8-333.1,95.9h3.8c0-43.2,331.5-52.8,331.5-95.9"/>
	<path class="st22" d="M343.6,78.1c0,43.2-207.3,52.8-207.3,95.9h4.2c0-43.2,205.3-52.8,205.3-95.9"/>
	<path class="st22" d="M343.6,78.1c0,43.2-333.1,52.8-333.1,95.9h4.1c0-43.2,331.4-52.8,331.4-95.9"/>
	<path class="st22" d="M343.6,78.1c0,43.2-10.8,52.8-10.8,95.9h2c0-43.2,11.1-52.8,11.1-95.9"/>
	<path class="st22" d="M348.8,78.1c0,43.2-18.5,52.8-18.5,95.9h1.7c0-43.2,18.5-52.8,18.5-95.9"/>
	<path class="st22" d="M346.1,78.1c0,43.2-205.2,52.8-205.2,95.9h1.4c0-43.2,204.8-52.8,204.8-95.9"/>
	<path class="st22" d="M348.6,78.1c0,43.2-332.3,52.8-332.3,95.9h1.9c0-43.2,331.6-52.8,331.6-95.9"/>
	<path class="st22" d="M348.6,78.1c0,43.2-204.6,52.8-204.6,95.9h2.1c0-43.2,203.7-52.8,203.7-95.9"/>
	<path class="st21" d="M323.4,78.1c0,43.2-297.4,52.8-297.4,95.9h1c0-43.2,298.7-52.8,298.7-95.9"/>
	<path class="st21" d="M323.4,78.1c0,43.2,253.8,52.8,253.8,95.9h2c0-43.2-253.6-52.8-253.6-95.9"/>
	<path class="st22" d="M348.8,78.1c0,43.2-332.4,52.8-332.4,95.9h1.3c0-43.2,332.1-52.8,332.1-95.9"/>
	<path class="st22" d="M348.8,78.1c0,43.2-17.8,52.8-17.8,95.9h1.1c0-43.2,17.7-52.8,17.7-95.9"/>
	<path class="st22" d="M348.8,78.1c0,43.2-204.4,52.8-204.4,95.9h1.6c0-43.2,203.7-52.8,203.7-95.9"/>
	<path class="st19" d="M522.5,78.1c0,43.2,25.4,52.8,25.4,95.9h1.3c0-43.2-25.9-52.8-25.9-95.9"/>
	<path class="st19" d="M522.5,78.1c0,43.2-287.9,52.8-287.9,95.9h1.5c0-43.2,287.2-52.8,287.2-95.9"/>
	<path class="st19" d="M522.5,78.1c0,43.2,25.4,52.8,25.4,95.9h1.3c0-43.2-25.9-52.8-25.9-95.9"/>
	<path class="st19" d="M522.5,78.1c0,43.2-288,52.8-288,95.9h1.6c0-43.2,287.2-52.8,287.2-95.9"/>
	<path class="st19" d="M522.5,78.1c0,43.2,146,52.8,146,95.9h0.7c0-43.2-145.9-52.8-145.9-95.9"/>
	<path class="st21" d="M323.4,78.1c0,43.2,319.3,52.8,319.3,95.9h0.7c0-43.2-317.8-52.8-317.8-95.9"/>
	<path class="st22" d="M357.3,78.1c0,43.2,280.9,52.8,280.9,95.9h0.8c0-43.2-281-52.8-281-95.9"/>
	<path class="st22" d="M357.3,78.1c0,43.2-200.7,52.8-200.7,95.9h1c0-43.2,200.4-52.8,200.4-95.9"/>
	<path class="st17" d="M140.9,78.1c0,43.2,205.2,52.8,205.2,95.9h0.5c0-43.2-205-52.8-205-95.9"/>
	<path class="st19" d="M20.3,78.1c0,43.2,325.8,52.8,325.8,95.9h0.5c0-43.2-325.4-52.8-325.4-95.9"/>
	<path class="st19" d="M24.3,78.1c0,43.2,302.1,52.8,302.1,95.9h0.7c0-43.2-301.8-52.8-301.8-95.9"/>
	<path class="st17" d="M148.4,78.1c0,43.2,178,52.8,178,95.9h0.7c0-43.2-177.8-52.8-177.8-95.9"/>
	<path class="st21" d="M327.4,78.1c0,43.2,18.7,52.8,18.7,95.9h0.5c0-43.2-18.7-52.8-18.7-95.9"/>
	<path class="st24" d="M112,78.1c0,43.2,299.6,52.8,299.6,95.9h0.5c0-43.2-299.3-52.8-299.3-95.9"/>
	<path class="st24" d="M118,78.1c0,43.2,293.7,52.8,293.7,95.9h0.5c0-43.2-292.8-52.8-292.8-95.9"/>
	<path class="st24" d="M112.8,78.1c0,43.2,299.3,52.8,299.3,95.9h0.9c0-43.2-298.8-52.8-298.8-95.9"/>
	<path class="st22" d="M374.6,78.1c0,43.2,37.5,52.8,37.5,95.9h0.9c0-43.2-35.4-52.8-35.4-95.9"/>
	<path class="st24" d="M554.9,78.1c0,43.2,98.1,52.8,98.1,95.9h0.6c0-43.2-97.9-52.8-97.9-95.9"/>
	<path class="st16" d="M220,78.1c0,43.2,433,52.8,433,95.9h0.6c0-43.2-432.2-52.8-432.2-95.9"/>
	<path class="st19" d="M507.6,78.1c0,43.2,145.4,52.8,145.4,95.9h0.6c0-43.2-143.8-52.8-143.8-95.9"/>
	<path class="st20" d="M417.4,78.1c0,43.2-5.8,52.8-5.8,95.9h0.5c0-43.2,5.7-52.8,5.7-95.9"/>
	<path class="st20" d="M413.8,78.1c0,43.2-8.1,52.8-8.1,95.9h0.7c0-43.2,7.7-52.8,7.7-95.9"/>
	<path class="st20" d="M413.8,78.1c0,43.2-308.4,52.8-308.4,95.9h1.5c0-43.2,307.2-52.8,307.2-95.9"/>
	<path class="st20" d="M411.6,78.1c0,43.2-293.7,52.8-293.7,95.9h1.3c0-43.2,292.8-52.8,292.8-95.9"/>
	<path class="st20" d="M411.6,78.1c0,43.2-299.6,52.8-299.6,95.9h0.8c0-43.2,299.3-52.8,299.3-95.9"/>
	<path class="st20" d="M412.2,78.1c0,43.2-36.3,52.8-36.3,95.9h1.6c0-43.2,35.4-52.8,35.4-95.9"/>
	<path class="st20" d="M412.2,78.1c0,43.2,5.9,52.8,5.9,95.9h1c0-43.2-6.1-52.8-6.1-95.9"/>
	<path class="st20" d="M412.2,78.1c0,43.2-299.2,52.8-299.2,95.9h1.2c0-43.2,298.8-52.8,298.8-95.9"/>
	<path class="st18" d="M640.6,78.1c0,43.2-155.4,52.8-155.4,95.9h0.7c0-43.2,155.3-52.8,155.3-95.9"/>
	<path class="st18" d="M640.6,78.1c0,43.2-475,52.8-475,95.9h2.9c0-43.2,472.8-52.8,472.8-95.9"/>
	<path class="st18" d="M640.6,78.1c0,43.2-58.1,52.8-58.1,95.9h1.5c0-43.2,57.2-52.8,57.2-95.9"/>
	<path class="st18" d="M639.6,78.1c0,43.2-481,52.8-481,95.9h1.2c0-43.2,480.7-52.8,480.7-95.9"/>
	<path class="st18" d="M639.6,78.1c0,43.2-55.4,52.8-55.4,95.9h1.7c0-43.2,54.6-52.8,54.6-95.9"/>
	<path class="st21" d="M326.4,78.1c0,43.2-178,52.8-178,95.9h0.8c0-43.2,177.8-52.8,177.8-95.9"/>
	<path class="st21" d="M326.4,78.1c0,43.2-302.1,52.8-302.1,95.9h1c0-43.2,301.8-52.8,301.8-95.9"/>
	<path class="st22" d="M350.7,78.1c0,43.2-22.8,52.8-22.8,95.9h0.8c0-43.2,22.7-52.8,22.7-95.9"/>
	<path class="st22" d="M350.7,78.1c0,43.2-329.4,52.8-329.4,95.9h2.1c0-43.2,328-52.8,328-95.9"/>
	<path class="st22" d="M350.7,78.1c0,43.2-203.8,52.8-203.8,95.9h1c0-43.2,203.4-52.8,203.4-95.9"/>
	<path class="st22" d="M346.1,78.1c0,43.2-325.8,52.8-325.8,95.9h0.9c0-43.2,325.4-52.8,325.4-95.9"/>
	<path class="st22" d="M349.8,78.1c0,43.2-203.8,52.8-203.8,95.9h0.7c0-43.2,203.8-52.8,203.8-95.9"/>
	<path class="st22" d="M349.8,78.1c0,43.2-19.4,52.8-19.4,95.9h0.7c0-43.2,19.5-52.8,19.5-95.9"/>
	<path class="st22" d="M349.8,78.1c0,43.2-331.9,52.8-331.9,95.9h0.7c0-43.2,331.9-52.8,331.9-95.9"/>
	<path class="st22" d="M346.1,78.1c0,43.2-205.2,52.8-205.2,95.9h0.7c0-43.2,205-52.8,205-95.9"/>
	<path class="st22" d="M346.1,78.1c0,43.2-18.7,52.8-18.7,95.9h0.5c0-43.2,18.7-52.8,18.7-95.9"/>
	<path class="st20" d="M411.6,78.1c0,43.2,5.8,52.8,5.8,95.9h0.4c0-43.2-5.7-52.8-5.7-95.9"/>
	<path class="st20" d="M413.8,78.1c0,43.2-299.1,52.8-299.1,95.9h0.5c0-43.2,298.9-52.8,298.9-95.9"/>
	<path class="st24" d="M114.8,78.1c0,43.2,299.1,52.8,299.1,95.9h0.3c0-43.2-298.9-52.8-298.9-95.9"/>
	<path class="st24" d="M105.5,78.1c0,43.2,308.4,52.8,308.4,95.9h0.3c0-43.2-307.2-52.8-307.2-95.9"/>
	<path class="st20" d="M405.7,78.1c0,43.2,8.1,52.8,8.1,95.9h0.3c0-43.2-7.7-52.8-7.7-95.9"/>
</g>
</svg>
