<?xml version="1.0" encoding="utf-8"?>
<!-- Generator: Adobe Illustrator 24.0.0, SVG Export Plug-In . SVG Version: 6.00 Build 0)  -->
<svg version="1.1" id="图层_1" xmlns="http://www.w3.org/2000/svg" xmlns:xlink="http://www.w3.org/1999/xlink" x="0px" y="0px"
	 viewBox="0 0 503.3 426.7" style="enable-background:new 0 0 503.3 426.7;" xml:space="preserve">
<style type="text/css">
	.st0{fill:#FFFFFF;}
	.st1{fill:#93932A;}
	.st2{font-family:'Times-BoldItalic';}
	.st3{font-size:174.0583px;}
	.st4{font-family:'Times-Roman';}
	.st5{font-size:149.1928px;}
	.st6{fill:#DCAB78;fill-opacity:0.5;stroke:#865196;stroke-width:7;}
	.st7{fill:#DCAB78;fill-opacity:0.2;}
	.st8{fill:#3BA4DC;fill-opacity:0.2;}
	.st9{opacity:0.72;}
	.st10{fill:none;stroke:#040000;stroke-width:18.64;}
	.st11{fill:#3BA4DC;fill-opacity:0.5;stroke:#3D9BCD;stroke-width:8.9407;}
	.st12{fill:none;stroke:#DCAB78;stroke-width:7.7873;stroke-dasharray:16.687,11.1246;}
	.st13{fill:none;stroke:#3BA4DC;stroke-width:7.7873;stroke-dasharray:16.687,11.1246;}
	.st14{fill:#D6A776;fill-opacity:0.5;stroke:#D6A877;stroke-width:8.7451;}
</style>
<rect class="st0" width="503.3" height="426.7"/>
<g>
	<text transform="matrix(1 0 0 1 316.9543 145.2723)" class="st1 st2 st3">K</text>
	<text transform="matrix(1 0 0 1 436.4797 170.1297)" class="st1 st4 st5">s</text>
</g>
<g>
	<rect x="230.3" y="8.3" class="st7" width="15.7" height="345.8"/>
	<rect x="155.9" y="8.3" class="st8" width="13.3" height="345.8"/>
	<g transform="translate(75, 0)" class="st9">
		<path class="st10" d="M-39.3,354.8h9.8V9h-9.8"/>
		<g transform="translate(0,310)">
			<line class="st10" x1="-29.5" y1="44.8" x2="-75" y2="44.8"/>
		</g>
		<g transform="translate(0,284)">
			<line class="st10" x1="-29.5" y1="-44.5" x2="-75" y2="-44.5"/>
		</g>
		<g transform="translate(0,76)">
			<line class="st10" x1="-29.5" y1="48.2" x2="-75" y2="48.2"/>
		</g>
		<g transform="translate(0,50)">
			<line class="st10" x1="-29.5" y1="-41" x2="-75" y2="-41"/>
		</g>
	</g>
	<path class="st11" d="M71.2,352.9h-0.9h-0.9h-0.9h-0.9h-0.9h-0.9h-0.9h-0.9h0.9h0.9l0.9,0l0.9,0l0.9,0l0.9,0l0.9,0L71.2,352.9
		l0.9-0.1l0.9,0l0.9,0l0.9,0l0.9,0l0.9,0l0.9,0l0.9,0l0.9,0l0.9,0l0.9,0l0.9,0l0.9,0l0.9,0l0.9,0l0.9,0l0.9,0l0.9,0l0.9,0l0.9,0
		l0.9,0l0.9,0l0.9,0l0.9,0l0.9,0l0.9,0l0.9,0l0.9,0l0.9,0l0.9,0l0.9,0l0.9,0l0.9-0.1l0.9-0.1l0.9-0.1l0.9-0.2l0.9-0.2l0.9-0.2
		l0.9-0.3l0.9-0.3l0.9-0.3l0.9-0.4l0.9-0.5l0.9-0.6l0.9-0.8l0.9-0.9l0.9-1l0.9-1.1l0.9-1.2l0.9-1.4l0.9-1.6l0.9-1.8l0.9-2l0.9-2.2
		l0.9-2.4l0.9-2.6l0.9-2.8l0.9-3l0.9-3.2l0.9-3.5l0.9-3.9l0.9-4.1l0.9-4.3l0.9-4.5l0.9-4.8l0.9-5l0.9-5.2l0.9-5.5l0.9-5.7l0.9-5.9
		l0.9-6.1l0.9-6.2l0.9-6.3l0.9-6.5l0.9-6.6l0.9-6.6l0.9-6.7l0.9-6.7l0.9-6.6l0.9-6.5l0.9-6.4l0.9-6.3l0.9-6.2l0.9-6.1l0.9-5.9
		l0.9-5.7l0.9-5.5l0.9-5.2l0.9-4.9l0.9-4.7l0.9-4.4l0.9-4l0.9-3.7l0.9-3.4l0.9-3.1l0.9-2.8l0.9-2.5l0.9-2.1l0.9-1.7l0.9-1.3l0.9-1
		l0.9-0.7l0.9-0.5l0.9-0.2l0.9,0.1l0.9,0.4l0.9,0.7l0.9,1.1l0.9,1.4l0.9,1.7l0.9,1.7l0.9,2l0.9,2.1l0.9,2.4l0.9,2.5l0.9,2.7l0.9,2.8
		l0.9,2.8l0.9,3l0.9,3.1l0.9,3.1l0.9,3.2l0.9,3.2l0.9,3.2l0.9,3.3l0.9,3.2l0.9,3.2l0.9,3.2l0.9,3.2l0.9,3.3l0.9,3.3l0.9,3.4l0.9,3.2
		l0.9,3.2l0.9,3.2l0.9,3.2l0.9,3.1l0.9,3.1l0.9,3.1l0.9,3.1l0.9,3l0.9,3.1l0.9,3.1l0.9,3l0.9,3l0.9,2.9l0.9,2.8l0.9,2.8l0.9,2.7
		l0.9,2.7l0.9,2.6l0.9,2.5l0.9,2.4l0.9,2.3l0.9,2.2l0.9,2.1l0.9,2.1l0.9,2.1l0.9,2.1l0.9,2l0.9,1.9l0.9,1.8l0.9,1.7l0.9,1.7l0.9,1.7
		l0.9,1.6l0.9,1.6l0.9,1.5l0.9,1.5l0.9,1.5l0.9,1.4l0.9,1.4l0.9,1.4l0.9,1.4l0.9,1.3l0.9,1.2l0.9,1.2l0.9,1.1l0.9,1l0.9,1l0.9,1
		l0.9,0.9l0.9,0.9l0.9,0.8l0.9,0.8l0.9,0.8l0.9,0.8l0.9,0.8l0.9,0.8l0.9,0.8l0.9,0.8l0.9,0.8l0.9,0.8l0.9,0.9l0.9,0.9l0.9,0.9
		l0.9,0.8l0.9,0.8l0.9,0.7l0.9,0.6l0.9,0.6l0.9,0.6l0.9,0.6l0.9,0.6l0.9,0.6l0.9,0.6l0.9,0.6l0.9,0.6l0.9,0.6l0.9,0.6l0.9,0.6
		l0.9,0.6l0.9,0.5l0.9,0.5l0.9,0.6l0.9,0.6l0.9,0.6l0.9,0.6l0.9,0.5l0.9,0.5l0.9,0.5l0.9,0.5l0.9,0.5l0.9,0.5l0.9,0.5l0.9,0.5
		l0.9,0.5l0.9,0.5l0.9,0.4l0.9,0.4l0.9,0.4l0.9,0.4l0.9,0.4l0.9,0.4l0.9,0.4l0.9,0.4l0.9,0.4l0.9,0.4l0.9,0.4l0.9,0.4l0.9,0.4
		l0.9,0.4l0.9,0.4l0.9,0.4l0.9,0.4l0.9,0.4l0.9,0.3l0.9,0.3l0.9,0.3l0.9,0.3l0.9,0.3l0.9,0.3l0.9,0.3l0.9,0.3l0.9,0.3l0.9,0.3
		l0.9,0.3l0.9,0.3l0.9,0.3l0.9,0.3l0.9,0.2l0.9,0.2l0.9,0.2l0.9,0.2l0.9,0.3l0.9,0.3l0.9,0.3l0.9,0.3l0.9,0.2l0.9,0.2l0.9,0.2
		l0.9,0.1l0.9,0.1l0.9,0.1l0.9,0.1l0.9,0.1l0.9,0.1l0.9,0.1l0.9,0.1l0.9,0.1l0.9,0.1l0.9,0.1l0.9,0.1l0.9,0.1l0.9,0.1l0.9,0.1
		l0.9,0.1l0.9,0.1l0.9,0.1l0.9,0.1l0.9,0.1l0.9,0.1l0.9,0.1l0.9,0.1l0.9,0l0.9,0l0.9,0l0.9,0l0.9,0.1l0.9,0.1l0.9,0.1l0.9,0.1
		l0.9,0.1l0.9,0.1l0.9,0.1l0.9,0.1l0.9,0.1l0.9,0.1l0.9,0.1l0.9,0.1l0.9,0.1l0.9,0.1l0.9,0.1l0.9,0.1l0.9,0.2l0.9,0.2l0.9,0.2
		l0.9,0.2l0.9,0.2l0.9,0.2l0.9,0.2l0.9,0.2l0.9,0.1l0.9,0.1l0.9,0.1l0.9,0.1l0.9,0.1l0.9,0.1l0.9,0.1l0.9,0.1l0.9,0.1l0.9,0.1
		l0.9,0.1l0.9,0.1l0.9,0.1l0.9,0.1l0.9,0.1l0.9,0.1l0.9,0.1l0.9,0l0.9,0l0.9,0.1l0.9,0.1l0.9,0l0.9,0l0.9,0l0.9,0l0.9,0.1l0.9,0.1
		l0.9,0.1l0.9,0.1l0.9,0.1l0.9,0.1l0.9,0.1l0.9,0.1l0.9,0.1l0.9,0.1l0.9,0.1l0.9,0.1l0.9,0.1l0.9,0.1l0.9,0l0.9,0.1l0.9,0.1l0.9,0.1
		l0.9,0.1l0.9,0.1l0.9,0.1l0.9,0.1l0.9,0.1l0.9,0.1l0.9,0.1l0.9,0.1l0.9,0.1l0.9,0.1l0.9,0.1l0.9,0.1l0.9,0.1l0.9,0l0.9,0l0.9,0
		l0.9,0l0.9,0.1l0.9,0l0.9,0l0.9,0l0.9,0l0.9,0l0.9,0l0.9,0l0.9,0l0.9,0l0.9,0l0.9,0l0.9,0l0.9,0l0.9,0l0.9,0l0.9,0l0.9,0l0.9,0
		l0.9,0l0.9,0l0.9,0l0.9,0l0.9,0l0.9,0l0.9,0l0.9,0l0.9,0.1l0.9,0.1l0.9,0.1l0.9,0.1l0.9,0.1l0.9,0.1l0.9,0.1l0.9,0.1l0.9,0l0.9,0
		l0.9,0l0.9,0l0.9,0l0.9,0l0.9,0l0.9,0.1l0.9,0l0.9,0.1l0.9,0l0.9,0l0.9,0l0.9,0l0.9,0.1l0.9,0.1l0.9,0l0.9,0l0.9,0l0.9,0l0.9,0
		l0.9,0l0.9,0l0.9,0l0.9,0l0.9,0l0.9,0.1l0.9,0.1l0.9,0l0.9,0l0.9,0l0.9,0l0.9,0.1l0.9,0l0.9,0l0.9,0l0.9,0l0.9,0l0.9,0l0.9,0l0.9,0
		l0.9,0l0.9,0l0.9,0l0.9,0l0.9,0l0.9,0l0.9,0l0.9,0l0.9,0l0.9,0l0.9,0l0.9,0l0.9,0l0.9,0l0.9,0l0.9,0.1l0.9,0.1l0.9,0l0.9,0.1
		l0.9,0.1l0.9,0.1l0.9,0.1l0.9,0.1l0.9,0.1l0.9,0.1l0.9,0.1l0.9,0.1l0.9,0.1l0.9,0.1l0.9,0.1l0.9,0.1l0.9,0.1l0.9,0.1l0.9,0.1"/>
	<line class="st12" x1="238.3" y1="354.1" x2="238.3" y2="8.3"/>
	<g transform="translate(75, 0)" class="st9">
		<path class="st10" d="M419.7,388.6v-10.4H-10.7v10.4"/>
		<g transform="translate(0,310)">
			<line class="st10" x1="419.7" y1="68.2" x2="419.7" y2="116.7"/>
		</g>
		<g transform="translate(0,284)">
			<line class="st10" x1="276.2" y1="94.2" x2="276.2" y2="142.7"/>
		</g>
		<g transform="translate(0,76)">
			<line class="st10" x1="132.8" y1="302.2" x2="132.8" y2="350.7"/>
		</g>
		<g transform="translate(0,50)">
			<line class="st10" x1="-10.7" y1="328.2" x2="-10.7" y2="376.7"/>
		</g>
	</g>
	<line class="st13" x1="162.2" y1="354.1" x2="162.2" y2="8.3"/>
	<path class="st14" d="M107.9,352.7h-0.9H64.2l42-0.1l0.9,0l0.9,0l0.9,0l0.9,0l0.9,0l0.9,0l0.9,0l0.9,0l0.9,0l0.9,0l0.9,0l0.9,0
		l0.9,0l0.9,0l0.9,0l0.9,0l0.9,0l0.9,0l0.9,0l0.9,0l0.9,0l0.9,0h0.9h0.9h0.9h0.9l0.9,0l0.9,0l0.9,0l0.9,0l0.9,0l0.9,0l0.9,0l0.9,0
		l0.9,0l0.9,0l0.9,0l0.9,0l0.9,0l0.9,0l0.9,0l0.9,0l0.9,0l0.9,0l0.9,0l0.9,0l0.9,0l0.9,0l0.9,0l0.9,0l0.9,0l0.9,0l0.9,0l0.9,0l0.9,0
		l0.9,0l0.9-0.1l0.9-0.1l0.9-0.1l0.9-0.1l0.9-0.1l0.9-0.1l0.9-0.1l0.9-0.1l0.9-0.1l0.9-0.2l0.9-0.2l0.9-0.2l0.9-0.3l0.9-0.3l0.9-0.3
		l0.9-0.4l0.9-0.4l0.9-0.5l0.9-0.5l0.9-0.6l0.9-0.7l0.9-0.7l0.9-0.7l0.9-0.8l0.9-0.9l0.9-1l0.9-1.1l0.9-1.2l0.9-1.2l0.9-1.3l0.9-1.4
		l0.9-1.5l0.9-1.6l0.9-1.7l0.9-1.8l0.9-1.9l0.9-2l0.9-2.1l0.9-2.2l0.9-2.3l0.9-2.4l0.9-2.5l0.9-2.6l0.9-2.7l0.9-2.8l0.9-2.9l0.9-3
		l0.9-3.1l0.9-3.1l0.9-3.1l0.9-3.2l0.9-3.3l0.9-3.4l0.9-3.4l0.9-3.5l0.9-3.6l0.9-3.7l0.9-3.7l0.9-3.8l0.9-3.8l0.9-3.8l0.9-3.7
		l0.9-3.7l0.9-3.7l0.9-3.6l0.9-3.6l0.9-3.6l0.9-3.6l0.9-3.6l0.9-3.6l0.9-3.6l0.9-3.4l0.9-3.3l0.9-3.2l0.9-3.1l0.9-3l0.9-2.8l0.9-2.7
		l0.9-2.5l0.9-2.4l0.9-2.3l0.9-2.1l0.9-1.9l0.9-1.8l0.9-1.6l0.9-1.4l0.9-1.3l0.9-1.1l0.9-1l0.9-0.9l0.9-0.7l0.9-0.5l0.9-0.3l0.9-0.2
		l0.9,0l0.9,0.1l0.9,0.3l0.9,0.5l0.9,0.7l0.9,0.9l0.9,1l0.9,1.1l0.9,1.1l0.9,1.2l0.9,1.3l0.9,1.4l0.9,1.4l0.9,1.5l0.9,1.6l0.9,1.7
		l0.9,1.8l0.9,1.9l0.9,1.9l0.9,2.1l0.9,2.1l0.9,2.2l0.9,2.2l0.9,2.2l0.9,2.2l0.9,2.1l0.9,2.1l0.9,2.2l0.9,2.2l0.9,2.1l0.9,2.1
		l0.9,2.1l0.9,2.2l0.9,2.2l0.9,2.2l0.9,2.1l0.9,2l0.9,2l0.9,2l0.9,1.9l0.9,1.9l0.9,1.9l0.9,1.8l0.9,1.8l0.9,1.7l0.9,1.6l0.9,1.5
		l0.9,1.5l0.9,1.5l0.9,1.4l0.9,1.4l0.9,1.3l0.9,1.3l0.9,1.3l0.9,1.4l0.9,1.4l0.9,1.3l0.9,1.3l0.9,1.3l0.9,1.2l0.9,1.1l0.9,1.2
		l0.9,1.2l0.9,1.2l0.9,1.1l0.9,1.1l0.9,1.1l0.9,1.1l0.9,1l0.9,1.1l0.9,1.1l0.9,1.1l0.9,1.1l0.9,1.1l0.9,1.1l0.9,1.1l0.9,1.1l0.9,1.1
		l0.9,1.1l0.9,1l0.9,1l0.9,1l0.9,1l0.9,1l0.9,1l0.9,1l0.9,1l0.9,0.9l0.9,0.9l0.9,0.8l0.9,0.7l0.9,0.7l0.9,0.7l0.9,0.7l0.9,0.7
		l0.9,0.6l0.9,0.6l0.9,0.6l0.9,0.6l0.9,0.5l0.9,0.5l0.9,0.5l0.9,0.4l0.9,0.4l0.9,0.4l0.9,0.4l0.9,0.4l0.9,0.4l0.9,0.4l0.9,0.4
		l0.9,0.4l0.9,0.5l0.9,0.5l0.9,0.5l0.9,0.4l0.9,0.4l0.9,0.4l0.9,0.4l0.9,0.4l0.9,0.4l0.9,0.4l0.9,0.4l0.9,0.4l0.9,0.5l0.9,0.5
		l0.9,0.5l0.9,0.5l0.9,0.5l0.9,0.5l0.9,0.5l0.9,0.5l0.9,0.5l0.9,0.5l0.9,0.5l0.9,0.5l0.9,0.5l0.9,0.5l0.9,0.5l0.9,0.5l0.9,0.5
		l0.9,0.4l0.9,0.4l0.9,0.4l0.9,0.4l0.9,0.4l0.9,0.4l0.9,0.4l0.9,0.4l0.9,0.4l0.9,0.4l0.9,0.4l0.9,0.4l0.9,0.4l0.9,0.4l0.9,0.3
		l0.9,0.3l0.9,0.3l0.9,0.3l0.9,0.3l0.9,0.2l0.9,0.2l0.9,0.2l0.9,0.2l0.9,0.2l0.9,0.2l0.9,0.2l0.9,0.2l0.9,0.1l0.9,0.1l0.9,0.1
		l0.9,0.1l0.9,0.1l0.9,0.1l0.9,0.1l0.9,0.1l0.9,0.1l0.9,0.1l0.9,0.1l0.9,0.1l0.9,0.1l0.9,0.1l0.9,0.1l0.9,0.1l0.9,0.1l0.9,0.1
		l0.9,0.1l0.9,0.1l0.9,0.1l0.9,0.1l0.9,0.1l0.9,0.1l0.9,0.1l0.9,0.1l0.9,0.1l0.9,0.1l0.9,0.1l0.9,0.1l0.9,0.1l0.9,0.1l0.9,0.2
		l0.9,0.1l0.9,0.1l0.9,0.1l0.9,0.1l0.9,0.1l0.9,0.1l0.9,0.1l0.9,0.1l0.9,0.1l0.9,0.1l0.9,0.1l0.9,0.1l0.9,0.1l0.9,0.1l0.9,0.1
		l0.9,0.1l0.9,0.1l0.9,0.1l0.9,0.1l0.9,0.1l0.9,0.1l0.9,0.1l0.9,0.1l0.9,0.1l0.9,0.1l0.9,0.1l0.9,0.1l0.9,0.1l0.9,0.1l0.9,0.1
		l0.9,0.1l0.9,0.1l0.9,0l0.9,0l0.9,0l0.9,0l0.9,0l0.9,0l0.9,0.1l0.9,0.1l0.9,0l0.9,0l0.9,0l0.9,0l0.9,0l0.9,0l0.9,0l0.9,0l0.9,0
		l0.9,0l0.9,0l0.9,0l0.9,0l0.9,0l0.9,0l0.9,0.1l0.9,0.1l0.9,0l0.9,0.1l0.9,0.1l0.9,0.1l0.9,0.1l0.9,0.1l0.9,0.1l0.9,0.1l0.9,0.1
		l0.9,0.1l0.9,0.1l0.9,0.1l0.9,0.1l0.9,0.1l0.9,0.2l0.9,0.2l0.9,0.2l0.9,0.2l0.9,0.2l0.9,0.2l0.9,0.2l0.9,0.2l0.9,0.2l0.9,0.2
		l0.9,0.1l0.9,0.1l0.9,0.1l0.9,0.1l0.9,0.1l0.9,0.1l0.9,0.1l0.9,0.1l0.9,0.1l0.9,0.1l0.9,0l0.9,0l0.9,0l0.9,0.1l0.9,0.1l0.9,0.1
		l0.9,0.1l0.9,0l0.9,0l0.9,0h0.9"/>
</g>
</svg>
