<?xml version="1.0" encoding="utf-8"?>
<!-- Generator: Adobe Illustrator 27.0.0, SVG Export Plug-In . SVG Version: 6.00 Build 0)  -->
<svg version="1.1" id="Layer_1" xmlns="http://www.w3.org/2000/svg" xmlns:xlink="http://www.w3.org/1999/xlink" x="0px" y="0px"
	 viewBox="0 0 591.8 151.3" style="enable-background:new 0 0 591.8 151.3;" xml:space="preserve">
<style type="text/css">
	.st0{fill:none;stroke:#AAAAAA;stroke-width:2.45;}
	.st1{fill:none;stroke:#AAAAAA;stroke-width:2.45;stroke-dasharray:6,8;}
	.st2{font-family:'Arial-ItalicMT';}
	.st3{font-size:10px;}
	.st4{font-family:'ArialMT';}
	.st5{fill:none;stroke:#3C3C3C;stroke-width:1.36;stroke-opacity:0.51;stroke-dasharray:4,1;}
	.st6{fill:#FF7F00;fill-opacity:0.7;}
	.st7{fill:#FFFFFF;fill-opacity:0.1;stroke:#FF7F00;stroke-width:1.31;stroke-opacity:0.6;}
	.st8{fill:#FFA750;fill-opacity:0.7;}
	.st9{fill:#FFFFFF;fill-opacity:0.1;stroke:#FFA750;stroke-width:1.31;stroke-opacity:0.6;}
	.st10{fill:#0064A7;fill-opacity:0.7;}
	.st11{fill:#FFFFFF;fill-opacity:0.1;stroke:#0064A7;stroke-width:1.31;stroke-opacity:0.6;}
	.st12{font-size:11px;}
	.st13{fill:#800080;}
</style>
<g transform="translate(50, 20)">
	<path class="st0" d="M359.1,71.7v15h-84.9"/>
	<path class="st0" d="M359.1,71.7v-15h-84.9"/>
	<path class="st0" d="M444,49.2v22.5h-84.9"/>
	<path class="st0" d="M444,49.2V26.7H274.3"/>
	<path class="st0" d="M528.8,22.9v26.2H444"/>
	<path class="st0" d="M528.8,22.9V-3.3H274.3"/>
	<path class="st0" d="M106.8,71.7v15h37"/>
	<path class="st0" d="M106.8,71.7v-15h26"/>
	<path class="st0" d="M69.8,49.2v22.5h37"/>
	<path class="st0" d="M69.8,49.2V26.7h68"/>
	<path class="st1" d="M-21.2,22.9v26.2h91"/>
	<path class="st1" d="M-21.2,22.9V-3.3h74"/>
	<g>
		<text transform="matrix(1 0 0 1 -42.8282 112.6513)" class="st2 st3">K</text>
		<text transform="matrix(1 0 0 1 -36.1583 115.6513)" class="st4 st3">s</text>
	</g>
	<line class="st0" x1="-21.2" y1="109.7" x2="9.5" y2="109.7"/>
	<g>
		<text transform="matrix(1 0 0 1 -12.7963 105.6513)" class="st4 st3">0.2</text>
	</g>
	<g transform="translate(0,41.25)">
	</g>
	<g transform="translate(91,67.5)">
	</g>
	<g transform="translate(128,90)">
	</g>
	<g transform="translate(165,105)">
	</g>
	<g transform="translate(154,75)">
	</g>
	<g transform="translate(159,45)">
	</g>
	<g transform="translate(74,15)">
	</g>
	<line class="st5" x1="61.7" y1="26.7" x2="70.4" y2="26.7"/>
	<circle class="st6" cx="61.7" cy="26.7" r="3"/>
	<rect x="39.5" y="21.7" class="st7" width="28.3" height="10"/>
	<line class="st5" x1="80.5" y1="56.7" x2="107.6" y2="56.7"/>
	<circle class="st8" cx="80.5" cy="56.7" r="3"/>
	<rect x="70.6" y="51.7" class="st9" width="13" height="10"/>
	<line class="st5" x1="70.3" y1="86.7" x2="107.6" y2="86.7"/>
	<circle class="st10" cx="70.3" cy="86.7" r="3"/>
	<rect x="46.6" y="81.7" class="st11" width="29.9" height="10"/>
	<g transform="translate(0,41.25)">
	</g>
	<g transform="translate(84.85714285714288,67.5)">
	</g>
	<g transform="translate(169.71428571428575,90)">
	</g>
	<g transform="translate(254.57142857142858,105)">
		<text transform="matrix(1 0 0 1 -102.533 -15.3487)" class="st2 st12">Phalaenopsis equestris</text>
	</g>
	<g transform="translate(254.57142857142858,75)">
		<text transform="matrix(1 0 0 1 -102.8553 -15.3487)" class="st2 st12">Dendrobium catenatum</text>
	</g>
	<g transform="translate(254.57142857142858,45)">
		<text transform="matrix(1 0 0 1 -102.0723 -15.3487)" class="st2 st12">Apostasia shenzhenica</text>
	</g>
	<g transform="translate(254.57142857142858,15)">
		<text transform="matrix(1 0 0 1 -95.3985 -15.3487)" class="st2 st12">Asparagus officinalis</text>
	</g>
	<rect x="478.9" y="39.2" class="st13" width="10" height="20"/>
</g>
</svg>
