<?xml version="1.0" encoding="utf-8"?>
<!-- Generator: Adobe Illustrator 24.0.0, SVG Export Plug-In . SVG Version: 6.00 Build 0)  -->
<svg version="1.1" id="图层_1" xmlns="http://www.w3.org/2000/svg" xmlns:xlink="http://www.w3.org/1999/xlink" x="0px" y="0px"
	 viewBox="0 0 73.9 50.8" style="enable-background:new 0 0 73.9 50.8;" xml:space="preserve">
<style type="text/css">
	.st0{fill:#2C3C4F;}
	.st1{fill:#F6DD6F;}
</style>
<polyline class="st0" points="-5.3,-4.6 79.5,-4.6 79.5,53.1 -5.3,53.1 "/>
<g>
	<path class="st1" d="M20.1,18.1h1.2V10h-1.2V18.1z M17.6,18.1h1.2V10h-1.2V18.1z M15.1,18.1h1.2V10h-1.2V18.1z M12.6,18.1h1.2V10
		h-1.2V18.1z M22.6,18.1h1.2V10h-1.2V18.1z M25.1,18.1h1.2V10h-1.2V18.1z M27.6,18.1h1.2V10h-1.2V18.1z M11.3,20.6h18.8v-1.2H11.3
		V20.6z M28.8,8.7H12.6l-1.2-1.2H30L28.8,8.7z M10.1,23h21.3v-1.2H10.1L10.1,23z M31.3,5.4L20.7,1.7L10.1,5.4v1.3L20.7,3l10.6,3.8
		V5.4z M47.7,28.9c0.6,0,1.1,0.2,1.3,0.4v-1.1c-0.2-0.1-0.8-0.3-1.4-0.3c-1.7,0-2.6,0.9-2.6,2.3c0,1.1,0.5,1.7,1.3,2.4l0.7,0.6
		c0.6,0.5,0.9,0.9,0.9,1.6c0,0.9-0.6,1.2-1.4,1.2c-0.6,0-1.2-0.2-1.5-0.4v1.1c0.3,0.2,0.8,0.3,1.6,0.3c1.7,0,2.6-0.9,2.6-2.3
		c0-1.1-0.5-1.7-1.3-2.4l-0.7-0.6c-0.6-0.5-1-0.9-0.9-1.6C46.3,29.3,46.9,28.9,47.7,28.9 M10.1,34.2V28h1.2v6.2
		c0,1.3,0.4,1.7,1.4,1.7c0.9,0,1.4-0.4,1.4-1.7V28h1.2v6.2c0,2-0.8,2.8-2.6,2.8C10.9,37,10.1,36.2,10.1,34.2 M16.9,28h1.4l2.8,7
		c-0.1-0.7-0.2-1.6-0.2-2.3V28h1.2v8.8h-1.4l-2.8-7.1c0.1,0.7,0.2,1.6,0.2,2.4v4.7h-1.2L16.9,28z M23.9,36.8h1.2V28h-1.2V36.8z
		 M26.3,28h1.3l1.1,4.6c0.2,0.7,0.4,1.9,0.5,2.8c0.1-0.9,0.3-2.1,0.5-2.8l1.1-4.6h1.3l-2.2,8.8h-1.3L26.3,28z M33.2,28h4.1v1.1h-2.9
		v2.7h2.3v1h-2.3v3h2.9v1.1h-4.1V28z M40,29.1v3.1h0.7c1,0,1.6-0.2,1.6-1.6c0-1.3-0.7-1.5-1.6-1.5L40,29.1z M38.8,28h2
		c1.6,0,2.8,0.6,2.8,2.6c0,1.4-0.7,2.1-1.5,2.4l1.9,3.8h-1.4l-1.7-3.6H40v3.6h-1.2V28 M50.7,36.8h1.2V28h-1.2V36.8z M53.1,28h5.1
		v1.1h-1.9v7.8H55v-7.8h-1.9L53.1,28z M59.3,28h4.1v1.1h-2.9v2.7h2.3v1h-2.3v3h2.9v1.1h-4.1V28z M64.9,36.8h1.2V28h-1.2V36.8z
		 M67.3,28h5.1v1.1h-1.9v7.8h-1.2v-7.8h-1.9L67.3,28z M9.8,44.9c0-3.5,0.9-4.6,3.2-4.6c0.7,0,1.3,0.2,1.6,0.4v1.2
		c-0.3-0.2-0.9-0.4-1.5-0.4c-1.5,0-2,0.5-2,3.5c0,2.9,0.4,3.5,1.7,3.5c0.4,0,0.7-0.1,1-0.1v-2.9h-1.3v-1.1H15V49
		c-0.3,0.2-1.3,0.4-2.2,0.4C10.4,49.5,9.8,48.2,9.8,44.9 M16.4,40.5h4.1v1.1h-2.9v2.7H20v1h-2.3v3h2.9v1.1h-4.1V40.5z M22,40.5h1.4
		l2.8,7c-0.1-0.7-0.2-1.6-0.2-2.3v-4.7h1.2v8.8h-1.4L23,42.2c0.1,0.7,0.2,1.6,0.2,2.4v4.7H22L22,40.5z M28.4,40.5h5.1v1.1h-1.9v7.8
		h-1.2v-7.8h-1.9L28.4,40.5z"/>
</g>
</svg>
