<?xml version="1.0" encoding="utf-8"?>
<!-- Generator: Adobe Illustrator 24.0.0, SVG Export Plug-In . SVG Version: 6.00 Build 0)  -->
<svg version="1.1" id="图层_1" xmlns="http://www.w3.org/2000/svg" xmlns:xlink="http://www.w3.org/1999/xlink" x="0px" y="0px"
	 viewBox="0 0 800 400.9" style="enable-background:new 0 0 800 400.9;" xml:space="preserve">
<style type="text/css">
	.st0{fill:#68AC57;}
	.st1{font-family:'Calibri-BoldItalic';}
	.st2{font-size:14px;}
	.st3{font-family:'Calibri';}
	.st4{font-size:12px;}
	.st5{opacity:0.6;fill:#9B3A4D;enable-background:new    ;}
	.st6{opacity:0.6;fill:#32AEEC;enable-background:new    ;}
	.st7{opacity:0.6;fill:#E2AE79;enable-background:new    ;}
	.st8{opacity:0.5;fill:#0000FF;enable-background:new    ;}
	.st9{font-size:10px;}
	.st10{fill:none;stroke:#0000FF;stroke-width:0.86;stroke-opacity:0.5;}
	.st11{opacity:0.8;fill:#A6A600;enable-background:new    ;}
	.st12{opacity:0.8;fill:#008000;enable-background:new    ;}
	.st13{opacity:0.6;fill:#9D9D9D;enable-background:new    ;}
	.st14{fill:#8E549E;}
	.st15{fill:#4A4AFF;}
	.st16{font-family:'Calibri-Bold';}
	.st17{font-size:13px;}
	.st18{opacity:0.7;fill:none;stroke:#FFA500;stroke-width:0.8;stroke-dasharray:5,3;enable-background:new    ;}
	.st19{fill:#FFA500;}
	.st20{font-size:9px;}
	.st21{opacity:0.6;fill:#FF3A00;enable-background:new    ;}
	.st22{opacity:0.6;fill:#FF2F00;enable-background:new    ;}
	.st23{opacity:0.6;fill:#FAA400;enable-background:new    ;}
	.st24{opacity:0.6;fill:#C29C00;enable-background:new    ;}
	.st25{opacity:0.6;fill:#FF3500;enable-background:new    ;}
	.st26{opacity:0.6;fill:#FF2C00;enable-background:new    ;}
	.st27{opacity:0.6;fill:#FF9000;enable-background:new    ;}
	.st28{opacity:0.6;fill:#FF7F00;enable-background:new    ;}
	.st29{opacity:0.6;fill:#FF8800;enable-background:new    ;}
	.st30{opacity:0.6;fill:#809300;enable-background:new    ;}
	.st31{opacity:0.6;fill:#FF8600;enable-background:new    ;}
	.st32{opacity:0.6;fill:#FEA500;enable-background:new    ;}
	.st33{opacity:0.6;fill:#FF5700;enable-background:new    ;}
	.st34{opacity:0.6;fill:#FF2D00;enable-background:new    ;}
	.st35{opacity:0.6;fill:#FF8A00;enable-background:new    ;}
	.st36{opacity:0.6;fill:#FF7A00;enable-background:new    ;}
</style>
<g transform="translate(0, 0)">
	<text id="queryMainLabel" transform="matrix(1 0 0 1 15 40)" class="st0 st1 st2">Elaeis guineensis</text>
	<text transform="matrix(1 0 0 1 34.652 67.5156)" class="st3 st4">EG5.1_Chr11</text>
	<text transform="matrix(1 0 0 1 305.9959 67.5156)" class="st3 st4">EG5.1_Chr12</text>
	<text transform="matrix(1 0 0 1 541.364 67.5156)" class="st3 st4">EG5.1_Chr4</text>
	<path id="queryChr_0" class="st5" d="M13,90h106.8c1.7,0,3,0.9,3,2l0,0c0,1.1-1.3,2-3,2H13c-1.7,0-3-0.9-3-2l0,0
		C10,90.9,11.3,90,13,90z"/>
	<path id="queryChr_1" class="st6" d="M154.6,90h366.4c1.7,0,3,0.9,3,2l0,0c0,1.1-1.3,2-3,2H154.6c-1.7,0-3-0.9-3-2l0,0
		C151.6,90.9,152.9,90,154.6,90z"/>
	<path id="queryChr_2" class="st7" d="M555.7,90h28.8c1.7,0,3,0.9,3,2l0,0c0,1.1-1.3,2-3,2h-28.8c-1.7,0-3-0.9-3-2l0,0
		C552.7,90.9,554,90,555.7,90z"/>
	<text transform="matrix(1 0 0 1 15 80)" class="st8 st3 st9">19.14</text>
	<text transform="matrix(1 0 0 1 156.5659 80)" class="st8 st3 st9">1.73</text>
	<text transform="matrix(1 0 0 1 527.89 80)" class="st8 st3 st9">40.37</text>
	<text transform="matrix(1 0 0 1 95.0159 80)" class="st8 st3 st9">19.92</text>
	<text transform="matrix(1 0 0 1 501.2062 80)" class="st8 st3 st9">4.32</text>
	<text transform="matrix(1 0 0 1 597.0796 80)" class="st8 st3 st9">40.61 Mb</text>
	<line class="st10" x1="10" y1="92" x2="10" y2="70"/>
	<line class="st10" x1="151.6" y1="92" x2="151.6" y2="70"/>
	<line class="st10" x1="552.7" y1="92" x2="552.7" y2="70"/>
	<line class="st10" x1="122.8" y1="92" x2="122.8" y2="70"/>
	<line class="st10" x1="523.9" y1="92" x2="523.9" y2="70"/>
	<line class="st10" x1="587.5" y1="92" x2="587.5" y2="70"/>
	<polygon id="queryGene_p5.00_sc00002_p0354.1" class="st11" points="10,92 10.6,87 10.6,97 	"/>
	<polygon id="queryGene_p5.00_sc00002_p0353.1" class="st11" points="16.3,92 16.7,87 16.7,97 	"/>
	<polygon id="queryGene_p5.00_sc00002_p0352.1" class="st11" points="16.8,92 16.9,87 16.9,97 	"/>
	<polygon id="queryGene_p5.00_sc00002_p0351.1" class="st11" points="21,92 21.5,87 21.5,97 	"/>
	<polygon id="queryGene_p5.00_sc00002_p0350.1" class="st11" points="26.6,92 27.6,87 27.6,97 	"/>
	<polygon id="queryGene_p5.00_sc00002_p0349.1" class="st12" points="35,87 35.4,92 35,97 	"/>
	<polygon id="queryGene_p5.00_sc00002_p0348.1" class="st12" points="35.6,87 35.6,92 35.6,97 	"/>
	<polygon id="queryGene_p5.00_sc00002_p0347.1" class="st12" points="38.9,87 39.8,92 38.9,97 	"/>
	<polygon id="queryGene_p5.00_sc00002_p0346.1" class="st12" points="44.1,87 44.5,92 44.1,97 	"/>
	<polygon id="queryGene_p5.00_sc00002_p0345.1" class="st12" points="46.1,87 47.3,92 46.1,97 	"/>
	<polygon id="queryGene_p5.00_sc00002_p0344.1" class="st12" points="47.7,87 47.8,92 47.7,97 	"/>
	<polygon id="queryGene_p5.00_sc00002_p0343.1" class="st11" points="49.5,92 50,87 50,97 	"/>
	<polygon id="queryGene_p5.00_sc00002_p0342.1" class="st12" points="50.6,87 50.8,92 50.6,97 	"/>
	<polygon id="queryGene_p5.00_sc00002_p0341.1" class="st11" points="59.7,92 60,87 60,97 	"/>
	<polygon id="queryGene_p5.00_sc00002_p0340.1" class="st12" points="64.5,87 66.1,92 64.5,97 	"/>
	<polygon id="queryGene_p5.00_sc00002_p0339.1" class="st12" points="66.6,87 67.9,92 66.6,97 	"/>
	<polygon id="queryGene_p5.00_sc00002_p0338.1" class="st12" points="68.6,87 78.4,92 68.6,97 	"/>
	<polygon id="queryGene_p5.00_sc00002_p0337.1" class="st12" points="77.5,87 78.6,92 77.5,97 	"/>
	<polygon id="queryGene_p5.00_sc00002_p0336.1" class="st11" points="79.4,92 81.2,87 81.2,97 	"/>
	<polygon id="queryGene_p5.00_sc00002_p0335.1" class="st11" points="80.5,92 81.5,87 81.5,97 	"/>
	<polygon id="queryGene_p5.00_sc00002_p0334.1" class="st11" points="82.1,92 82.2,87 82.2,97 	"/>
	<polygon id="queryGene_p5.00_sc00002_p0333.1" class="st11" points="88.7,92 88.8,87 88.8,97 	"/>
	<polygon id="queryGene_p5.00_sc00002_p0332.1" class="st12" points="91.9,87 92.2,92 91.9,97 	"/>
	<polygon id="queryGene_p5.00_sc00002_p0331.1" class="st12" points="94.4,87 95.4,92 94.4,97 	"/>
	<polygon id="queryGene_p5.00_sc00002_p0330.1" class="st11" points="108,92 108.6,87 108.6,97 	"/>
	<polygon id="queryGene_p5.00_sc00002_p0329.1" class="st12" points="114.5,87 115.9,92 114.5,97 	"/>
	<polygon id="queryGene_p5.00_sc00002_p0328.1" class="st12" points="117.3,87 117.7,92 117.3,97 	"/>
	<polygon id="queryGene_p5.00_sc00002_p0327.1" class="st12" points="120.4,87 120.6,92 120.4,97 	"/>
	<polygon id="queryGene_p5.00_sc00002_p0326.1" class="st11" points="121.7,92 122.8,87 122.8,97 	"/>
	<polygon id="queryGene_p5.00_sc00024_p0003.1" class="st11" points="151.6,92 152.1,87 152.1,97 	"/>
	<polygon id="queryGene_p5.00_sc00024_p0004.1" class="st11" points="153.3,92 154.9,87 154.9,97 	"/>
	<polygon id="queryGene_p5.00_sc00024_p0005.1" class="st12" points="160.4,87 163.9,92 160.4,97 	"/>
	<polygon id="queryGene_p5.00_sc00024_p0006.1" class="st11" points="164.1,92 164.2,87 164.2,97 	"/>
	<polygon id="queryGene_p5.00_sc00024_p0007.1" class="st12" points="174.2,87 174.8,92 174.2,97 	"/>
	<polygon id="queryGene_p5.00_sc00024_p0008.1" class="st12" points="181.9,87 185.1,92 181.9,97 	"/>
	<polygon id="queryGene_p5.00_sc00024_p0009.1" class="st11" points="192.3,92 192.7,87 192.7,97 	"/>
	<polygon id="queryGene_p5.00_sc00024_p0010.1" class="st12" points="224.1,87 224.7,92 224.1,97 	"/>
	<polygon id="queryGene_p5.00_sc00024_p0011.1" class="st11" points="234,92 234.2,87 234.2,97 	"/>
	<polygon id="queryGene_p5.00_sc00024_p0012.1" class="st11" points="238.8,92 239,87 239,97 	"/>
	<polygon id="queryGene_p5.00_sc00024_p0013.1" class="st11" points="240.5,92 243.1,87 243.1,97 	"/>
	<polygon id="queryGene_p5.00_sc00024_p0014.1" class="st12" points="260.7,87 261.5,92 260.7,97 	"/>
	<polygon id="queryGene_p5.00_sc00024_p0015.1" class="st11" points="281.6,92 282.7,87 282.7,97 	"/>
	<polygon id="queryGene_p5.00_sc00024_p0016.1" class="st11" points="285.6,92 285.9,87 285.9,97 	"/>
	<polygon id="queryGene_p5.00_sc00024_p0017.1" class="st11" points="286,92 286.1,87 286.1,97 	"/>
	<polygon id="queryGene_p5.00_sc00024_p0018.1" class="st11" points="307.6,92 307.6,87 307.6,97 	"/>
	<polygon id="queryGene_p5.00_sc00024_p0019.1" class="st12" points="315.6,87 319.6,92 315.6,97 	"/>
	<polygon id="queryGene_p5.00_sc00024_p0020.1" class="st12" points="328.6,87 328.9,92 328.6,97 	"/>
	<polygon id="queryGene_p5.00_sc00024_p0021.1" class="st12" points="329,87 329.2,92 329,97 	"/>
	<polygon id="queryGene_p5.00_sc00024_p0022.1" class="st11" points="331.2,92 331.7,87 331.7,97 	"/>
	<polygon id="queryGene_p5.00_sc00024_p0023.1" class="st11" points="339.1,92 340.4,87 340.4,97 	"/>
	<polygon id="queryGene_p5.00_sc00024_p0024.1" class="st12" points="354.7,87 354.9,92 354.7,97 	"/>
	<polygon id="queryGene_p5.00_sc00024_p0025.1" class="st12" points="357.8,87 358.4,92 357.8,97 	"/>
	<polygon id="queryGene_p5.00_sc00024_p0026.1" class="st11" points="358.7,92 363.3,87 363.3,97 	"/>
	<polygon id="queryGene_p5.00_sc00024_p0027.1" class="st12" points="385.9,87 387.9,92 385.9,97 	"/>
	<polygon id="queryGene_p5.00_sc00024_p0028.1" class="st11" points="388.3,92 388.9,87 388.9,97 	"/>
	<polygon id="queryGene_p5.00_sc00024_p0029.1" class="st11" points="393.6,92 396.2,87 396.2,97 	"/>
	<polygon id="queryGene_p5.00_sc00024_p0030.1" class="st12" points="409.9,87 410.3,92 409.9,97 	"/>
	<polygon id="queryGene_p5.00_sc00024_p0031.1" class="st11" points="441.8,92 441.9,87 441.9,97 	"/>
	<polygon id="queryGene_p5.00_sc00024_p0032.1" class="st11" points="444.6,92 444.7,87 444.7,97 	"/>
	<polygon id="queryGene_p5.00_sc00024_p0033.1" class="st12" points="461.7,87 461.9,92 461.7,97 	"/>
	<polygon id="queryGene_p5.00_sc00024_p0034.1" class="st12" points="466.5,87 468,92 466.5,97 	"/>
	<polygon id="queryGene_p5.00_sc00024_p0035.1" class="st12" points="472.5,87 472.7,92 472.5,97 	"/>
	<polygon id="queryGene_p5.00_sc00024_p0036.1" class="st11" points="496.9,92 497.9,87 497.9,97 	"/>
	<polygon id="queryGene_p5.00_sc00024_p0037.1" class="st11" points="499.5,92 501.1,87 501.1,97 	"/>
	<polygon id="queryGene_p5.00_sc00024_p0038.1" class="st12" points="510.9,87 511,92 510.9,97 	"/>
	<polygon id="queryGene_p5.00_sc00024_p0039.1" class="st11" points="523.7,92 523.9,87 523.9,97 	"/>
	<polygon id="queryGene_p5.00_sc00016_p0134.1" class="st12" points="552.7,87 554.4,92 552.7,97 	"/>
	<polygon id="queryGene_p5.00_sc00016_p0135.1" class="st12" points="555.6,87 557.7,92 555.6,97 	"/>
	<polygon id="queryGene_p5.00_sc00016_p0136.1" class="st11" points="559.1,92 559.5,87 559.5,97 	"/>
	<polygon id="queryGene_p5.00_sc00016_p0137.1" class="st11" points="561,92 561.1,87 561.1,97 	"/>
	<polygon id="queryGene_p5.00_sc00016_p0138.1" class="st12" points="562.5,87 563.6,92 562.5,97 	"/>
	<polygon id="queryGene_p5.00_sc00016_p0139.1" class="st11" points="563.9,92 564,87 564,97 	"/>
	<polygon id="queryGene_p5.00_sc00016_p0140.1" class="st11" points="565.6,92 567.7,87 567.7,97 	"/>
	<polygon id="queryGene_p5.00_sc00016_p0141.1" class="st11" points="570.5,92 571.2,87 571.2,97 	"/>
	<polygon id="queryGene_p5.00_sc00016_p0142.1" class="st11" points="572.3,92 574.3,87 574.3,97 	"/>
	<polygon id="queryGene_p5.00_sc00016_p0143.1" class="st11" points="575.9,92 576.1,87 576.1,97 	"/>
	<polygon id="queryGene_p5.00_sc00016_p0144.1" class="st11" points="583.7,92 584.4,87 584.4,97 	"/>
	<polygon id="queryGene_p5.00_sc00016_p0145.1" class="st11" points="586.4,92 587.5,87 587.5,97 	"/>
</g>
<g transform="translate(0, 0)">
	<text transform="matrix(1 0 0 1 266.9791 160)" class="st3 st4">EG5.1_Chr16</text>
	<path id="subjectChr_0" class="st13" d="M223.7,126h150.1c1.7,0,3,0.9,3,2l0,0c0,1.1-1.3,2-3,2H223.7c-1.7,0-3-0.9-3-2l0,0
		C220.7,126.9,222,126,223.7,126z"/>
	<text transform="matrix(1 0 0 1 225.7019 149)" class="st8 st3 st9">9.92</text>
	<text transform="matrix(1 0 0 1 332.9037 149)" class="st8 st3 st9">11.01 Mb</text>
	<line class="st10" x1="220.7" y1="128" x2="220.7" y2="153"/>
	<line class="st10" x1="376.8" y1="128" x2="376.8" y2="153"/>
	<polygon id="subjectGene_p5.00_sc00053_p0003.1" class="st12" points="220.7,123 220.9,128 220.7,133 	"/>
	<polygon id="subjectGene_p5.00_sc00053_p0004.1" class="st12" points="227.1,123 227.7,128 227.1,133 	"/>
	<polygon id="subjectGene_p5.00_sc00053_p0005.1" class="st12" points="232.3,123 233.2,128 232.3,133 	"/>
	<polygon id="subjectGene_p5.00_sc00053_p0006.1" class="st12" points="233.8,123 235.5,128 233.8,133 	"/>
	<polygon id="subjectGene_p5.00_sc00053_p0007.1" class="st12" points="237.5,123 237.6,128 237.5,133 	"/>
	<polygon id="subjectGene_p5.00_sc00053_p0008.1" class="st12" points="247.4,123 247.8,128 247.4,133 	"/>
	<polygon id="subjectGene_p5.00_sc00053_p0009.1" class="st11" points="249.6,128 251.3,123 251.3,133 	"/>
	<polygon id="subjectGene_p5.00_sc00053_p0010.1" class="st11" points="252.1,128 253.5,123 253.5,133 	"/>
	<polygon id="subjectGene_p5.00_sc00053_p0011.1" class="st11" points="253.9,128 255.9,123 255.9,133 	"/>
	<polygon id="subjectGene_p5.00_sc00053_p0012.1" class="st12" points="264.5,123 265.1,128 264.5,133 	"/>
	<polygon id="subjectGene_p5.00_sc00053_p0013.1" class="st12" points="270.2,123 274.5,128 270.2,133 	"/>
	<polygon id="subjectGene_p5.00_sc00053_p0014.1" class="st12" points="271.2,123 276.7,128 271.2,133 	"/>
	<polygon id="subjectGene_p5.00_sc00053_p0015.1" class="st12" points="278.5,123 282.3,128 278.5,133 	"/>
	<polygon id="subjectGene_p5.00_sc00053_p0016.1" class="st11" points="284.2,128 284.7,123 284.7,133 	"/>
	<polygon id="subjectGene_p5.00_sc00053_p0017.1" class="st12" points="289.5,123 290.2,128 289.5,133 	"/>
	<polygon id="subjectGene_p5.00_sc00053_p0018.1" class="st12" points="295,123 295.5,128 295,133 	"/>
	<polygon id="subjectGene_p5.00_sc00053_p0019.1" class="st12" points="301.4,123 303,128 301.4,133 	"/>
	<polygon id="subjectGene_p5.00_sc00053_p0020.1" class="st12" points="302.3,123 303.2,128 302.3,133 	"/>
	<polygon id="subjectGene_p5.00_sc00053_p0021.1" class="st12" points="303.3,123 303.4,128 303.3,133 	"/>
	<polygon id="subjectGene_p5.00_sc00053_p0022.1" class="st11" points="305.2,128 308,123 308,133 	"/>
	<polygon id="subjectGene_p5.00_sc00053_p0023.1" class="st11" points="306.3,128 311.9,123 311.9,133 	"/>
	<polygon id="subjectGene_p5.00_sc00053_p0024.1" class="st11" points="312.4,128 314.5,123 314.5,133 	"/>
	<polygon id="subjectGene_p5.00_sc00053_p0025.1" class="st11" points="346.6,128 348.5,123 348.5,133 	"/>
	<polygon id="subjectGene_p5.00_sc00053_p0026.1" class="st11" points="366.6,128 367.5,123 367.5,133 	"/>
	<polygon id="subjectGene_p5.00_sc00053_p0027.1" class="st12" points="368.9,123 369,128 368.9,133 	"/>
	<polygon id="subjectGene_p5.00_sc00053_p0028.1" class="st12" points="376.3,123 376.8,128 376.3,133 	"/>
	<text id="subjectMainLabel" transform="matrix(1 0 0 1 15 190)" class="st14 st1 st2">Elaeis guineensis</text>
</g>
<text id="multipliconId" transform="matrix(1 0 0 1 198 40)" class="st15 st16 st17">Multiplicon: 6</text>
<line class="st18" x1="253.9" y1="123" x2="253.9" y2="168"/>
<text transform="matrix(1 0 0 1 253.9443 173)" class="st19 st3 st20">p5.00_sc00053_p0011.1</text>
<g>
	<path class="st21" d="M151.6,94c0,14.4,224.7,17.6,224.7,32h0.5c0-14.4-224.7-17.6-224.7-32"/>
	<path class="st22" d="M224.1,94c0,14.4,122.4,17.6,122.4,32h1.9c0-14.4-123.8-17.6-123.8-32"/>
	<path class="st23" d="M10,94c0,14.4,291.4,17.6,291.4,32h1.5c0-14.4-292.4-17.6-292.4-32"/>
	<path class="st23" d="M10,94c0,14.4,291.4,17.6,291.4,32h1.5c0-14.4-292.4-17.6-292.4-32"/>
	<path class="st24" d="M21,94c0,14.4,274,17.6,274,32h0.5c0-14.4-273.9-17.6-273.9-32"/>
	<path class="st24" d="M21,94c0,14.4,274,17.6,274,32h0.5c0-14.4-273.9-17.6-273.9-32"/>
	<path class="st25" d="M354.7,94c0,14.4-70.4,17.6-70.4,32h0.4c0-14.4,70.3-17.6,70.3-32"/>
	<path class="st26" d="M358.7,94c0,14.4-80.2,17.6-80.2,32h3.7c0-14.4,81-17.6,81-32"/>
	<path class="st27" d="M49.5,94c0,14.4,215,17.6,215,32h0.6c0-14.4-215.1-17.6-215.1-32"/>
	<path class="st27" d="M49.5,94c0,14.4,215,17.6,215,32h0.6c0-14.4-215.1-17.6-215.1-32"/>
	<path class="st28" d="M552.7,94c0,14.4-298.7,17.6-298.7,32h2c0-14.4,298.5-17.6,298.5-32"/>
	<path class="st28" d="M552.7,94c0,14.4-298.7,17.6-298.7,32h2c0-14.4,298.5-17.6,298.5-32"/>
	<path class="st29" d="M66.6,94c0,14.4,183,17.6,183,32h1.8c0-14.4-183.5-17.6-183.5-32"/>
	<path class="st29" d="M66.6,94c0,14.4,183,17.6,183,32h1.8c0-14.4-183.5-17.6-183.5-32"/>
	<path class="st30" d="M82.1,94c0,14.4,155.4,17.6,155.4,32h0.2c0-14.4-155.4-17.6-155.4-32"/>
	<path class="st30" d="M82.1,94c0,14.4,155.4,17.6,155.4,32h0.2c0-14.4-155.4-17.6-155.4-32"/>
	<path class="st31" d="M586.4,94c0,14.4-352.6,17.6-352.6,32h1.6c0-14.4,352-17.6,352-32"/>
	<path class="st31" d="M586.4,94c0,14.4-352.6,17.6-352.6,32h1.6c0-14.4,352-17.6,352-32"/>
	<path class="st32" d="M108,94c0,14.4,124.3,17.6,124.3,32h0.9c0-14.4-124.6-17.6-124.6-32"/>
	<path class="st32" d="M108,94c0,14.4,124.3,17.6,124.3,32h0.9c0-14.4-124.6-17.6-124.6-32"/>
	<path class="st33" d="M121.7,94c0,14.4,105.3,17.6,105.3,32h0.6c0-14.4-104.8-17.6-104.8-32"/>
	<path class="st33" d="M121.7,94c0,14.4,105.3,17.6,105.3,32h0.6c0-14.4-104.8-17.6-104.8-32"/>
	<path class="st34" d="M523.7,94c0,14.4-303,17.6-303,32h0.2c0-14.4,303-17.6,303-32"/>
</g>
<g transform="translate(0, 200)">
	<text id="queryMainLabel_1_" transform="matrix(1 0 0 1 15 40)" class="st0 st1 st2">Elaeis guineensis</text>
	<text transform="matrix(1 0 0 1 53.4456 67.5156)" class="st3 st4">EG5.1_Chr11</text>
	<text transform="matrix(1 0 0 1 343.5831 67.5156)" class="st3 st4">EG5.1_Chr12</text>
	<text transform="matrix(1 0 0 1 578.9512 67.5156)" class="st3 st4">EG5.1_Chr4</text>
	<path id="queryChr_0_1_" class="st5" d="M13,90h144.4c1.7,0,3,0.9,3,2l0,0c0,1.1-1.3,2-3,2H13c-1.7,0-3-0.9-3-2l0,0
		C10,90.9,11.3,90,13,90z"/>
	<path id="queryChr_1_1_" class="st6" d="M192.2,90h366.4c1.7,0,3,0.9,3,2l0,0c0,1.1-1.3,2-3,2H192.2c-1.7,0-3-0.9-3-2l0,0
		C189.2,90.9,190.5,90,192.2,90z"/>
	<path id="queryChr_2_1_" class="st7" d="M593.3,90h28.8c1.7,0,3,0.9,3,2l0,0c0,1.1-1.3,2-3,2h-28.8c-1.7,0-3-0.9-3-2l0,0
		C590.3,90.9,591.6,90,593.3,90z"/>
	<text transform="matrix(1 0 0 1 15 80)" class="st8 st3 st9">19.14</text>
	<text transform="matrix(1 0 0 1 194.153 80)" class="st8 st3 st9">1.73</text>
	<text transform="matrix(1 0 0 1 564.4771 80)" class="st8 st3 st9">40.37</text>
	<text transform="matrix(1 0 0 1 132.6031 80)" class="st8 st3 st9">20.18</text>
	<text transform="matrix(1 0 0 1 538.7933 80)" class="st8 st3 st9">4.32</text>
	<text transform="matrix(1 0 0 1 630.275 80)" class="st8 st3 st9">40.61 Mb</text>
	<line class="st10" x1="10" y1="92" x2="10" y2="70"/>
	<line class="st10" x1="189.2" y1="92" x2="189.2" y2="70"/>
	<line class="st10" x1="590.3" y1="92" x2="590.3" y2="70"/>
	<line class="st10" x1="160.4" y1="92" x2="160.4" y2="70"/>
	<line class="st10" x1="561.5" y1="92" x2="561.5" y2="70"/>
	<line class="st10" x1="625.1" y1="92" x2="625.1" y2="70"/>
	<polygon id="queryGene_p5.00_sc00002_p0354.1_1_" class="st11" points="10,92 10.6,87 10.6,97 	"/>
	<polygon id="queryGene_p5.00_sc00002_p0353.1_1_" class="st11" points="16.3,92 16.7,87 16.7,97 	"/>
	<polygon id="queryGene_p5.00_sc00002_p0352.1_1_" class="st11" points="16.8,92 16.9,87 16.9,97 	"/>
	<polygon id="queryGene_p5.00_sc00002_p0351.1_1_" class="st11" points="21,92 21.5,87 21.5,97 	"/>
	<polygon id="queryGene_p5.00_sc00002_p0350.1_1_" class="st11" points="26.6,92 27.6,87 27.6,97 	"/>
	<polygon id="queryGene_p5.00_sc00002_p0349.1_1_" class="st12" points="35,87 35.4,92 35,97 	"/>
	<polygon id="queryGene_p5.00_sc00002_p0348.1_1_" class="st12" points="35.6,87 35.6,92 35.6,97 	"/>
	<polygon id="queryGene_p5.00_sc00002_p0347.1_1_" class="st12" points="38.9,87 39.8,92 38.9,97 	"/>
	<polygon id="queryGene_p5.00_sc00002_p0346.1_1_" class="st12" points="44.1,87 44.5,92 44.1,97 	"/>
	<polygon id="queryGene_p5.00_sc00002_p0345.1_1_" class="st12" points="46.1,87 47.3,92 46.1,97 	"/>
	<polygon id="queryGene_p5.00_sc00002_p0344.1_1_" class="st12" points="47.7,87 47.8,92 47.7,97 	"/>
	<polygon id="queryGene_p5.00_sc00002_p0343.1_1_" class="st11" points="49.5,92 50,87 50,97 	"/>
	<polygon id="queryGene_p5.00_sc00002_p0342.1_1_" class="st12" points="50.6,87 50.8,92 50.6,97 	"/>
	<polygon id="queryGene_p5.00_sc00002_p0341.1_1_" class="st11" points="59.7,92 60,87 60,97 	"/>
	<polygon id="queryGene_p5.00_sc00002_p0340.1_1_" class="st12" points="64.5,87 66.1,92 64.5,97 	"/>
	<polygon id="queryGene_p5.00_sc00002_p0339.1_1_" class="st12" points="66.6,87 67.9,92 66.6,97 	"/>
	<polygon id="queryGene_p5.00_sc00002_p0338.1_1_" class="st12" points="68.6,87 78.4,92 68.6,97 	"/>
	<polygon id="queryGene_p5.00_sc00002_p0337.1_1_" class="st12" points="77.5,87 78.6,92 77.5,97 	"/>
	<polygon id="queryGene_p5.00_sc00002_p0336.1_1_" class="st11" points="79.4,92 81.2,87 81.2,97 	"/>
	<polygon id="queryGene_p5.00_sc00002_p0335.1_1_" class="st11" points="80.5,92 81.5,87 81.5,97 	"/>
	<polygon id="queryGene_p5.00_sc00002_p0334.1_1_" class="st11" points="82.1,92 82.2,87 82.2,97 	"/>
	<polygon id="queryGene_p5.00_sc00002_p0333.1_1_" class="st11" points="88.7,92 88.8,87 88.8,97 	"/>
	<polygon id="queryGene_p5.00_sc00002_p0332.1_1_" class="st12" points="91.9,87 92.2,92 91.9,97 	"/>
	<polygon id="queryGene_p5.00_sc00002_p0331.1_1_" class="st12" points="94.4,87 95.4,92 94.4,97 	"/>
	<polygon id="queryGene_p5.00_sc00002_p0330.1_1_" class="st11" points="108,92 108.6,87 108.6,97 	"/>
	<polygon id="queryGene_p5.00_sc00002_p0329.1_1_" class="st12" points="114.5,87 115.9,92 114.5,97 	"/>
	<polygon id="queryGene_p5.00_sc00002_p0328.1_1_" class="st12" points="117.3,87 117.7,92 117.3,97 	"/>
	<polygon id="queryGene_p5.00_sc00002_p0327.1_1_" class="st12" points="120.4,87 120.6,92 120.4,97 	"/>
	<polygon id="queryGene_p5.00_sc00002_p0326.1_1_" class="st11" points="121.7,92 122.8,87 122.8,97 	"/>
	<polygon id="queryGene_p5.00_sc00002_p0325.1" class="st12" points="126.4,87 126.8,92 126.4,97 	"/>
	<polygon id="queryGene_p5.00_sc00002_p0324.1" class="st12" points="127.8,87 127.9,92 127.8,97 	"/>
	<polygon id="queryGene_p5.00_sc00002_p0323.1" class="st11" points="128.1,92 130.3,87 130.3,97 	"/>
	<polygon id="queryGene_p5.00_sc00002_p0322.1" class="st12" points="133.2,87 134.3,92 133.2,97 	"/>
	<polygon id="queryGene_p5.00_sc00002_p0321.1" class="st12" points="134.5,87 135,92 134.5,97 	"/>
	<polygon id="queryGene_p5.00_sc00002_p0320.1" class="st12" points="135.2,87 137,92 135.2,97 	"/>
	<polygon id="queryGene_p5.00_sc00002_p0319.1" class="st11" points="137.2,92 138.2,87 138.2,97 	"/>
	<polygon id="queryGene_p5.00_sc00002_p0318.1" class="st11" points="139,92 139.3,87 139.3,97 	"/>
	<polygon id="queryGene_p5.00_sc00002_p0317.1" class="st12" points="141.7,87 141.7,92 141.7,97 	"/>
	<polygon id="queryGene_p5.00_sc00002_p0316.1" class="st11" points="142.7,92 143.6,87 143.6,97 	"/>
	<polygon id="queryGene_p5.00_sc00002_p0315.1" class="st11" points="145.2,92 146.5,87 146.5,97 	"/>
	<polygon id="queryGene_p5.00_sc00002_p0314.1" class="st12" points="151.2,87 151.4,92 151.2,97 	"/>
	<polygon id="queryGene_p5.00_sc00002_p0313.1" class="st11" points="153.4,92 153.7,87 153.7,97 	"/>
	<polygon id="queryGene_p5.00_sc00002_p0312.1" class="st11" points="155.2,92 156.5,87 156.5,97 	"/>
	<polygon id="queryGene_p5.00_sc00002_p0311.1" class="st12" points="158.2,87 159.1,92 158.2,97 	"/>
	<polygon id="queryGene_p5.00_sc00002_p0310.1" class="st12" points="159.5,87 160.4,92 159.5,97 	"/>
	<polygon id="queryGene_p5.00_sc00024_p0003.1_1_" class="st11" points="189.2,92 189.7,87 189.7,97 	"/>
	<polygon id="queryGene_p5.00_sc00024_p0004.1_1_" class="st11" points="190.9,92 192.5,87 192.5,97 	"/>
	<polygon id="queryGene_p5.00_sc00024_p0005.1_1_" class="st12" points="198,87 201.5,92 198,97 	"/>
	<polygon id="queryGene_p5.00_sc00024_p0006.1_1_" class="st11" points="201.7,92 201.8,87 201.8,97 	"/>
	<polygon id="queryGene_p5.00_sc00024_p0007.1_1_" class="st12" points="211.8,87 212.3,92 211.8,97 	"/>
	<polygon id="queryGene_p5.00_sc00024_p0008.1_1_" class="st12" points="219.5,87 222.7,92 219.5,97 	"/>
	<polygon id="queryGene_p5.00_sc00024_p0009.1_1_" class="st11" points="229.8,92 230.3,87 230.3,97 	"/>
	<polygon id="queryGene_p5.00_sc00024_p0010.1_1_" class="st12" points="261.7,87 262.3,92 261.7,97 	"/>
	<polygon id="queryGene_p5.00_sc00024_p0011.1_1_" class="st11" points="271.6,92 271.8,87 271.8,97 	"/>
	<polygon id="queryGene_p5.00_sc00024_p0012.1_1_" class="st11" points="276.4,92 276.6,87 276.6,97 	"/>
	<polygon id="queryGene_p5.00_sc00024_p0013.1_1_" class="st11" points="278.1,92 280.6,87 280.6,97 	"/>
	<polygon id="queryGene_p5.00_sc00024_p0014.1_1_" class="st12" points="298.3,87 299.1,92 298.3,97 	"/>
	<polygon id="queryGene_p5.00_sc00024_p0015.1_1_" class="st11" points="319.2,92 320.3,87 320.3,97 	"/>
	<polygon id="queryGene_p5.00_sc00024_p0016.1_1_" class="st11" points="323.1,92 323.5,87 323.5,97 	"/>
	<polygon id="queryGene_p5.00_sc00024_p0017.1_1_" class="st11" points="323.6,92 323.7,87 323.7,97 	"/>
	<polygon id="queryGene_p5.00_sc00024_p0018.1_1_" class="st11" points="345.2,92 345.2,87 345.2,97 	"/>
	<polygon id="queryGene_p5.00_sc00024_p0019.1_1_" class="st12" points="353.2,87 357.2,92 353.2,97 	"/>
	<polygon id="queryGene_p5.00_sc00024_p0020.1_1_" class="st12" points="366.2,87 366.5,92 366.2,97 	"/>
	<polygon id="queryGene_p5.00_sc00024_p0021.1_1_" class="st12" points="366.6,87 366.8,92 366.6,97 	"/>
	<polygon id="queryGene_p5.00_sc00024_p0022.1_1_" class="st11" points="368.8,92 369.3,87 369.3,97 	"/>
	<polygon id="queryGene_p5.00_sc00024_p0023.1_1_" class="st11" points="376.7,92 378,87 378,97 	"/>
	<polygon id="queryGene_p5.00_sc00024_p0024.1_1_" class="st12" points="392.2,87 392.5,92 392.2,97 	"/>
	<polygon id="queryGene_p5.00_sc00024_p0025.1_1_" class="st12" points="395.4,87 396,92 395.4,97 	"/>
	<polygon id="queryGene_p5.00_sc00024_p0026.1_1_" class="st11" points="396.3,92 400.9,87 400.9,97 	"/>
	<polygon id="queryGene_p5.00_sc00024_p0027.1_1_" class="st12" points="423.5,87 425.4,92 423.5,97 	"/>
	<polygon id="queryGene_p5.00_sc00024_p0028.1_1_" class="st11" points="425.9,92 426.5,87 426.5,97 	"/>
	<polygon id="queryGene_p5.00_sc00024_p0029.1_1_" class="st11" points="431.2,92 433.7,87 433.7,97 	"/>
	<polygon id="queryGene_p5.00_sc00024_p0030.1_1_" class="st12" points="447.5,87 447.9,92 447.5,97 	"/>
	<polygon id="queryGene_p5.00_sc00024_p0031.1_1_" class="st11" points="479.4,92 479.5,87 479.5,97 	"/>
	<polygon id="queryGene_p5.00_sc00024_p0032.1_1_" class="st11" points="482.1,92 482.3,87 482.3,97 	"/>
	<polygon id="queryGene_p5.00_sc00024_p0033.1_1_" class="st12" points="499.3,87 499.5,92 499.3,97 	"/>
	<polygon id="queryGene_p5.00_sc00024_p0034.1_1_" class="st12" points="504.1,87 505.5,92 504.1,97 	"/>
	<polygon id="queryGene_p5.00_sc00024_p0035.1_1_" class="st12" points="510.1,87 510.3,92 510.1,97 	"/>
	<polygon id="queryGene_p5.00_sc00024_p0036.1_1_" class="st11" points="534.5,92 535.5,87 535.5,97 	"/>
	<polygon id="queryGene_p5.00_sc00024_p0037.1_1_" class="st11" points="537.1,92 538.7,87 538.7,97 	"/>
	<polygon id="queryGene_p5.00_sc00024_p0038.1_1_" class="st12" points="548.5,87 548.6,92 548.5,97 	"/>
	<polygon id="queryGene_p5.00_sc00024_p0039.1_1_" class="st11" points="561.3,92 561.5,87 561.5,97 	"/>
	<polygon id="queryGene_p5.00_sc00016_p0134.1_1_" class="st12" points="590.3,87 592,92 590.3,97 	"/>
	<polygon id="queryGene_p5.00_sc00016_p0135.1_1_" class="st12" points="593.2,87 595.3,92 593.2,97 	"/>
	<polygon id="queryGene_p5.00_sc00016_p0136.1_1_" class="st11" points="596.7,92 597.1,87 597.1,97 	"/>
	<polygon id="queryGene_p5.00_sc00016_p0137.1_1_" class="st11" points="598.6,92 598.7,87 598.7,97 	"/>
	<polygon id="queryGene_p5.00_sc00016_p0138.1_1_" class="st12" points="600.1,87 601.2,92 600.1,97 	"/>
	<polygon id="queryGene_p5.00_sc00016_p0139.1_1_" class="st11" points="601.5,92 601.6,87 601.6,97 	"/>
	<polygon id="queryGene_p5.00_sc00016_p0140.1_1_" class="st11" points="603.2,92 605.3,87 605.3,97 	"/>
	<polygon id="queryGene_p5.00_sc00016_p0141.1_1_" class="st11" points="608,92 608.8,87 608.8,97 	"/>
	<polygon id="queryGene_p5.00_sc00016_p0142.1_1_" class="st11" points="609.9,92 611.9,87 611.9,97 	"/>
	<polygon id="queryGene_p5.00_sc00016_p0143.1_1_" class="st11" points="613.5,92 613.7,87 613.7,97 	"/>
	<polygon id="queryGene_p5.00_sc00016_p0144.1_1_" class="st11" points="621.3,92 622,87 622,97 	"/>
	<polygon id="queryGene_p5.00_sc00016_p0145.1_1_" class="st11" points="624,92 625.1,87 625.1,97 	"/>
</g>
<g transform="translate(0, 200)">
	<text transform="matrix(1 0 0 1 285.7727 160)" class="st3 st4">EG5.1_Chr16</text>
	<path id="subjectChr_0_1_" class="st13" d="M235.5,126h164c1.7,0,3,0.9,3,2l0,0c0,1.1-1.3,2-3,2h-164c-1.7,0-3-0.9-3-2l0,0
		C232.5,126.9,233.9,126,235.5,126z"/>
	<text transform="matrix(1 0 0 1 237.5308 149)" class="st8 st3 st9">9.82</text>
	<text transform="matrix(1 0 0 1 358.662 149)" class="st8 st3 st9">11.01 Mb</text>
	<line class="st10" x1="232.5" y1="128" x2="232.5" y2="153"/>
	<line class="st10" x1="402.5" y1="128" x2="402.5" y2="153"/>
	<polygon id="subjectGene_p5.00_sc00053_p0001.1" class="st11" points="232.5,128 233.1,123 233.1,133 	"/>
	<polygon id="subjectGene_p5.00_sc00053_p0002.1" class="st12" points="241.1,123 241.2,128 241.1,133 	"/>
	<polygon id="subjectGene_p5.00_sc00053_p0003.1_1_" class="st12" points="246.5,123 246.6,128 246.5,133 	"/>
	<polygon id="subjectGene_p5.00_sc00053_p0004.1_1_" class="st12" points="252.8,123 253.4,128 252.8,133 	"/>
	<polygon id="subjectGene_p5.00_sc00053_p0005.1_1_" class="st12" points="258.1,123 259,128 258.1,133 	"/>
	<polygon id="subjectGene_p5.00_sc00053_p0006.1_1_" class="st12" points="259.6,123 261.2,128 259.6,133 	"/>
	<polygon id="subjectGene_p5.00_sc00053_p0007.1_1_" class="st12" points="263.2,123 263.4,128 263.2,133 	"/>
	<polygon id="subjectGene_p5.00_sc00053_p0008.1_1_" class="st12" points="273.2,123 273.5,128 273.2,133 	"/>
	<polygon id="subjectGene_p5.00_sc00053_p0009.1_1_" class="st11" points="275.3,128 277.1,123 277.1,133 	"/>
	<polygon id="subjectGene_p5.00_sc00053_p0010.1_1_" class="st11" points="277.9,128 279.2,123 279.2,133 	"/>
	<polygon id="subjectGene_p5.00_sc00053_p0011.1_1_" class="st11" points="279.7,128 281.7,123 281.7,133 	"/>
	<polygon id="subjectGene_p5.00_sc00053_p0012.1_1_" class="st12" points="290.3,123 290.8,128 290.3,133 	"/>
	<polygon id="subjectGene_p5.00_sc00053_p0013.1_1_" class="st12" points="296,123 300.2,128 296,133 	"/>
	<polygon id="subjectGene_p5.00_sc00053_p0014.1_1_" class="st12" points="297,123 302.5,128 297,133 	"/>
	<polygon id="subjectGene_p5.00_sc00053_p0015.1_1_" class="st12" points="304.3,123 308,128 304.3,133 	"/>
	<polygon id="subjectGene_p5.00_sc00053_p0016.1_1_" class="st11" points="310,128 310.4,123 310.4,133 	"/>
	<polygon id="subjectGene_p5.00_sc00053_p0017.1_1_" class="st12" points="315.2,123 315.9,128 315.2,133 	"/>
	<polygon id="subjectGene_p5.00_sc00053_p0018.1_1_" class="st12" points="320.7,123 321.2,128 320.7,133 	"/>
	<polygon id="subjectGene_p5.00_sc00053_p0019.1_1_" class="st12" points="327.2,123 328.7,128 327.2,133 	"/>
	<polygon id="subjectGene_p5.00_sc00053_p0020.1_1_" class="st12" points="328.1,123 328.9,128 328.1,133 	"/>
	<polygon id="subjectGene_p5.00_sc00053_p0021.1_1_" class="st12" points="329.1,123 329.1,128 329.1,133 	"/>
	<polygon id="subjectGene_p5.00_sc00053_p0022.1_1_" class="st11" points="330.9,128 333.7,123 333.7,133 	"/>
	<polygon id="subjectGene_p5.00_sc00053_p0023.1_1_" class="st11" points="332,128 337.6,123 337.6,133 	"/>
	<polygon id="subjectGene_p5.00_sc00053_p0024.1_1_" class="st11" points="338.1,128 340.3,123 340.3,133 	"/>
	<polygon id="subjectGene_p5.00_sc00053_p0025.1_1_" class="st11" points="372.3,128 374.2,123 374.2,133 	"/>
	<polygon id="subjectGene_p5.00_sc00053_p0026.1_1_" class="st11" points="392.3,128 393.3,123 393.3,133 	"/>
	<polygon id="subjectGene_p5.00_sc00053_p0027.1_1_" class="st12" points="394.7,123 394.8,128 394.7,133 	"/>
	<polygon id="subjectGene_p5.00_sc00053_p0028.1_1_" class="st12" points="402,123 402.5,128 402,133 	"/>
	<text id="subjectMainLabel_1_" transform="matrix(1 0 0 1 15 190)" class="st14 st1 st2">Elaeis guineensis</text>
</g>
<text id="multipliconId_1_" transform="matrix(1 0 0 1 198 240)" class="st15 st16 st17">Multiplicon: 8</text>
<line class="st18" x1="279.7" y1="323" x2="279.7" y2="368"/>
<text transform="matrix(1 0 0 1 279.7026 373)" class="st19 st3 st20">p5.00_sc00053_p0011.1</text>
<g>
	<path class="st23" d="M10,294c0,14.4,317.2,17.6,317.2,32h1.5c0-14.4-318.1-17.6-318.1-32"/>
	<path class="st23" d="M10,294c0,14.4,317.2,17.6,317.2,32h1.5c0-14.4-318.1-17.6-318.1-32"/>
	<path class="st24" d="M21,294c0,14.4,299.7,17.6,299.7,32h0.5c0-14.4-299.7-17.6-299.7-32"/>
	<path class="st24" d="M21,294c0,14.4,299.7,17.6,299.7,32h0.5c0-14.4-299.7-17.6-299.7-32"/>
	<path class="st27" d="M49.5,294c0,14.4,240.8,17.6,240.8,32h0.6c0-14.4-240.8-17.6-240.8-32"/>
	<path class="st27" d="M49.5,294c0,14.4,240.8,17.6,240.8,32h0.6c0-14.4-240.8-17.6-240.8-32"/>
	<path class="st28" d="M590.3,294c0,14.4-310.6,17.6-310.6,32h2c0-14.4,310.3-17.6,310.3-32"/>
	<path class="st28" d="M590.3,294c0,14.4-310.6,17.6-310.6,32h2c0-14.4,310.3-17.6,310.3-32"/>
	<path class="st29" d="M66.6,294c0,14.4,208.8,17.6,208.8,32h1.8c0-14.4-209.3-17.6-209.3-32"/>
	<path class="st29" d="M66.6,294c0,14.4,208.8,17.6,208.8,32h1.8c0-14.4-209.3-17.6-209.3-32"/>
	<path class="st30" d="M82.1,294c0,14.4,181.2,17.6,181.2,32h0.2c0-14.4-181.2-17.6-181.2-32"/>
	<path class="st30" d="M82.1,294c0,14.4,181.2,17.6,181.2,32h0.2c0-14.4-181.2-17.6-181.2-32"/>
	<path class="st31" d="M624,294c0,14.4-364.4,17.6-364.4,32h1.6c0-14.4,363.8-17.6,363.8-32"/>
	<path class="st31" d="M624,294c0,14.4-364.4,17.6-364.4,32h1.6c0-14.4,363.8-17.6,363.8-32"/>
	<path class="st32" d="M108,294c0,14.4,150,17.6,150,32h0.9c0-14.4-150.4-17.6-150.4-32"/>
	<path class="st32" d="M108,294c0,14.4,150,17.6,150,32h0.9c0-14.4-150.4-17.6-150.4-32"/>
	<path class="st33" d="M121.7,294c0,14.4,131.1,17.6,131.1,32h0.6c0-14.4-130.6-17.6-130.6-32"/>
	<path class="st33" d="M121.7,294c0,14.4,131.1,17.6,131.1,32h0.6c0-14.4-130.6-17.6-130.6-32"/>
	<path class="st35" d="M139,294c0,14.4,102.1,17.6,102.1,32h0.1c0-14.4-101.9-17.6-101.9-32"/>
	<path class="st36" d="M159.5,294c0,14.4,73,17.6,73,32h0.6c0-14.4-72.7-17.6-72.7-32"/>
</g>
</svg>
