<svg xmlns="http://www.w3.org/2000/svg" width="600" height="350" style="-webkit-user-select: auto;"><g class="axis axis--x" transform="translate(0, 310)" fill="none" font-size="12px" font-family="calibri" text-anchor="middle" style="-webkit-user-select: auto;"><path class="domain" stroke="currentColor" d="M80,6V0H550V6" style="-webkit-user-select: auto;"/><g class="tick" opacity="1" transform="translate(80,0)" style="-webkit-user-select: auto;"><line stroke="currentColor" y2="6" style="-webkit-user-select: auto;"/><text fill="currentColor" y="9" dy="0.71em" style="-webkit-user-select: auto;">0</text></g><g class="tick" opacity="1" transform="translate(174,0)" style="-webkit-user-select: auto;"><line stroke="currentColor" y2="6" style="-webkit-user-select: auto;"/><text fill="currentColor" y="9" dy="0.71em" style="-webkit-user-select: auto;">1</text></g><g class="tick" opacity="1" transform="translate(268,0)" style="-webkit-user-select: auto;"><line stroke="currentColor" y2="6" style="-webkit-user-select: auto;"/><text fill="currentColor" y="9" dy="0.71em" style="-webkit-user-select: auto;">2</text></g><g class="tick" opacity="1" transform="translate(362,0)" style="-webkit-user-select: auto;"><line stroke="currentColor" y2="6" style="-webkit-user-select: auto;"/><text fill="currentColor" y="9" dy="0.71em" style="-webkit-user-select: auto;">3</text></g><g class="tick" opacity="1" transform="translate(456,0)" style="-webkit-user-select: auto;"><line stroke="currentColor" y2="6" style="-webkit-user-select: auto;"/><text fill="currentColor" y="9" dy="0.71em" style="-webkit-user-select: auto;">4</text></g><g class="tick" opacity="1" transform="translate(550,0)" style="-webkit-user-select: auto;"><line stroke="currentColor" y2="6" style="-webkit-user-select: auto;"/><text fill="currentColor" y="9" dy="0.71em" style="-webkit-user-select: auto;">5</text></g></g><g class="xTitle" style="-webkit-user-select: auto;"><text x="325" y="340" text-anchor="middle" style="-webkit-user-select: auto;"><tspan font-family="times" style="font-size: 14px; -webkit-user-select: auto;"><tspan style="font-style: italic; -webkit-user-select: auto;">K</tspan><tspan dx="1px" dy="2px" style="font-size: 12px; -webkit-user-select: auto;">s</tspan></tspan></text></g><g class="axis axis--y2" transform="translate(75, 0)" fill="none" font-size="12px" font-family="calibri" text-anchor="end" style="-webkit-user-select: auto;"><path class="domain" stroke="currentColor" d="M-6,310H0V50H-6" style="-webkit-user-select: auto;"/><g class="tick" opacity="1" transform="translate(0,310)" style="-webkit-user-select: auto;"><line stroke="currentColor" x2="-6" style="-webkit-user-select: auto;"/><text fill="currentColor" x="-9" dy="0.32em" style="-webkit-user-select: auto;">0.0</text></g><g class="tick" opacity="1" transform="translate(0,284)" style="-webkit-user-select: auto;"><line stroke="currentColor" x2="-6" style="-webkit-user-select: auto;"/><text fill="currentColor" x="-9" dy="0.32em" style="-webkit-user-select: auto;">0.2</text></g><g class="tick" opacity="1" transform="translate(0,258)" style="-webkit-user-select: auto;"><line stroke="currentColor" x2="-6" style="-webkit-user-select: auto;"/><text fill="currentColor" x="-9" dy="0.32em" style="-webkit-user-select: auto;">0.4</text></g><g class="tick" opacity="1" transform="translate(0,232)" style="-webkit-user-select: auto;"><line stroke="currentColor" x2="-6" style="-webkit-user-select: auto;"/><text fill="currentColor" x="-9" dy="0.32em" style="-webkit-user-select: auto;">0.6</text></g><g class="tick" opacity="1" transform="translate(0,206)" style="-webkit-user-select: auto;"><line stroke="currentColor" x2="-6" style="-webkit-user-select: auto;"/><text fill="currentColor" x="-9" dy="0.32em" style="-webkit-user-select: auto;">0.8</text></g><g class="tick" opacity="1" transform="translate(0,180)" style="-webkit-user-select: auto;"><line stroke="currentColor" x2="-6" style="-webkit-user-select: auto;"/><text fill="currentColor" x="-9" dy="0.32em" style="-webkit-user-select: auto;">1.0</text></g><g class="tick" opacity="1" transform="translate(0,153.99999999999997)" style="-webkit-user-select: auto;"><line stroke="currentColor" x2="-6" style="-webkit-user-select: auto;"/><text fill="currentColor" x="-9" dy="0.32em" style="-webkit-user-select: auto;">1.2</text></g><g class="tick" opacity="1" transform="translate(0,127.99999999999999)" style="-webkit-user-select: auto;"><line stroke="currentColor" x2="-6" style="-webkit-user-select: auto;"/><text fill="currentColor" x="-9" dy="0.32em" style="-webkit-user-select: auto;">1.4</text></g><g class="tick" opacity="1" transform="translate(0,101.99999999999999)" style="-webkit-user-select: auto;"><line stroke="currentColor" x2="-6" style="-webkit-user-select: auto;"/><text fill="currentColor" x="-9" dy="0.32em" style="-webkit-user-select: auto;">1.6</text></g><g class="tick" opacity="1" transform="translate(0,76)" style="-webkit-user-select: auto;"><line stroke="currentColor" x2="-6" style="-webkit-user-select: auto;"/><text fill="currentColor" x="-9" dy="0.32em" style="-webkit-user-select: auto;">1.8</text></g><g class="tick" opacity="1" transform="translate(0,50)" style="-webkit-user-select: auto;"><line stroke="currentColor" x2="-6" style="-webkit-user-select: auto;"/><text fill="currentColor" x="-9" dy="0.32em" style="-webkit-user-select: auto;">2.0</text></g></g><g class="y2Title" style="-webkit-user-select: auto;"><text y="180" x="35" text-anchor="middle" font-size="14px" font-family="times" transform="rotate(-90, 35, 180)" style="-webkit-user-select: auto;">Ortholog Density</text></g><path class="area path" d="M80,310L80.94,310L81.88,310L82.82,309.994L83.76,309.987L84.7,309.98L85.64,309.974L86.58,309.968L87.52,309.962L88.46,309.957L89.4,309.952L90.34,309.947L91.28,309.942L92.22,309.938L93.16,309.934L94.1,309.93L95.04,309.927L95.98,309.924L96.92,309.921L97.86,309.918L98.8,309.916L99.74,309.914L100.68,309.913L101.62,309.911L102.56,309.91L103.5,309.906L104.44,309.902L105.38,309.898L106.32,309.892L107.26,309.886L108.2,309.88L109.14,309.874L110.08,309.866L111.02,309.856L111.96,309.842L112.9,309.83L113.84,309.809L114.78,309.785L115.72,309.761L116.66,309.737L117.6,309.709L118.54,309.675L119.48,309.625L120.42,309.551L121.36,309.457L122.3,309.353L123.24,309.232L124.18,309.085L125.12,308.92L126.06,308.73L127,308.502L127.94,308.213L128.88,307.868L129.82,307.431L130.76,306.926L131.7,306.36L132.64,305.731L133.58,305.018L134.52,304.221L135.46,303.328L136.4,302.315L137.34,301.163L138.28,299.915L139.22,298.554L140.16,297.081L141.1,295.479L142.04,293.775L142.98,291.94L143.92,289.937L144.86,287.738L145.8,285.412L146.74,282.962L147.68,280.386L148.62,277.666L149.56,274.82L150.5,271.836L151.44,268.68L152.38,265.411L153.32,262.03L154.26,258.552L155.2,254.987L156.14,251.368L157.08,247.662L158.02,243.924L158.96,240.132L159.9,236.326L160.84,232.508L161.78,228.721L162.72,225.006L163.66,221.353L164.6,217.783L165.54,214.245L166.48,210.779L167.42,207.419L168.36,204.183L169.3,201.048L170.24,198.07L171.18,195.252L172.12,192.589L173.06,190.094L174,187.809L174.94,185.699L175.88,183.762L176.82,182.003L177.76,180.412L178.7,178.999L179.64,177.812L180.58,176.836L181.52,176.111L182.46,175.565L183.4,175.161L184.34,174.883L185.28,174.795L186.22,174.835L187.16,175.075L188.1,175.49L189.04,176.118L189.98,176.943L190.92,177.898L191.86,178.884L192.8,179.998L193.74,181.214L194.68,182.556L195.62,183.997L196.56,185.52L197.5,187.125L198.44,188.731L199.38,190.419L200.32,192.165L201.26,193.942L202.2,195.739L203.14,197.585L204.08,199.428L205.02,201.298L205.96,203.114L206.9,204.937L207.84,206.737L208.78,208.559L209.72,210.432L210.66,212.323L211.6,214.235L212.54,216.086L213.48,217.901L214.42,219.724L215.36,221.554L216.3,223.342L217.24,225.126L218.18,226.922L219.12,228.671L220.06,230.389L221,232.132L221.94,233.875L222.88,235.601L223.82,237.314L224.76,238.984L225.7,240.573L226.64,242.15L227.58,243.681L228.52,245.196L229.46,246.676L230.4,248.094L231.34,249.456L232.28,250.777L233.22,252.007L234.16,253.221L235.1,254.399L236.04,255.585L236.98,256.777L237.92,257.944L238.86,259.037L239.8,260.09L240.74,261.081L241.68,262.05L242.62,262.997L243.56,263.925L244.5,264.845L245.44,265.718L246.38,266.581L247.32,267.424L248.26,268.24L249.2,269.045L250.14,269.839L251.08,270.617L252.02,271.376L252.96,272.079L253.9,272.749L254.84,273.358L255.78,273.946L256.72,274.52L257.66,275.071L258.6,275.601L259.54,276.101L260.48,276.578L261.42,277.043L262.36,277.502L263.3,277.974L264.24,278.44L265.18,278.917L266.12,279.368L267.06,279.81L268,280.262L268.94,280.734L269.88,281.221L270.82,281.712L271.76,282.206L272.7,282.664L273.64,283.114L274.58,283.531L275.52,283.899L276.46,284.262L277.4,284.614L278.34,284.97L279.28,285.324L280.22,285.681L281.16,286.039L282.1,286.375L283.04,286.723L283.98,287.067L284.92,287.408L285.86,287.751L286.8,288.076L287.74,288.379L288.68,288.688L289.62,289.002L290.56,289.334L291.5,289.659L292.44,289.981L293.38,290.288L294.32,290.571L295.26,290.834L296.2,291.109L297.14,291.396L298.08,291.686L299.02,291.974L299.96,292.271L300.9,292.557L301.84,292.825L302.78,293.079L303.72,293.313L304.66,293.534L305.6,293.748L306.54,293.948L307.48,294.154L308.42,294.368L309.36,294.572L310.3,294.799L311.24,295.029L312.18,295.277L313.12,295.51L314.06,295.722L315,295.925L315.94,296.128L316.88,296.332L317.82,296.541L318.76,296.747L319.7,296.936L320.64,297.121L321.58,297.313L322.52,297.502L323.46,297.678L324.4,297.85L325.34,298.03L326.28,298.206L327.22,298.38L328.16,298.555L329.1,298.725L330.04,298.888L330.98,299.038L331.92,299.191L332.86,299.333L333.8,299.469L334.74,299.594L335.68,299.733L336.62,299.892L337.56,300.063L338.5,300.219L339.44,300.366L340.38,300.501L341.32,300.621L342.26,300.709L343.2,300.792L344.14,300.862L345.08,300.927L346.02,300.991L346.96,301.052L347.9,301.111L348.84,301.175L349.78,301.231L350.72,301.272L351.66,301.314L352.6,301.358L353.54,301.395L354.48,301.434L355.42,301.495L356.36,301.549L357.3,301.602L358.24,301.657L359.18,301.731L360.12,301.802L361.06,301.86L362,301.914L362.94,301.962L363.88,302.003L364.82,302.031L365.76,302.059L366.7,302.078L367.64,302.103L368.58,302.137L369.52,302.177L370.46,302.221L371.4,302.271L372.34,302.324L373.28,302.368L374.22,302.417L375.16,302.479L376.1,302.553L377.04,302.621L377.98,302.673L378.92,302.722L379.86,302.759L380.8,302.805L381.74,302.87L382.68,302.95L383.62,303.045L384.56,303.155L385.5,303.268L386.44,303.376L387.38,303.471L388.32,303.573L389.26,303.668L390.2,303.755L391.14,303.815L392.08,303.867L393.02,303.923L393.96,303.97L394.9,304.015L395.84,304.059L396.78,304.099L397.72,304.133L398.66,304.167L399.6,304.201L400.54,304.243L401.48,304.285L402.42,304.33L403.36,304.367L404.3,304.397L405.24,304.431L406.18,304.464L407.12,304.49L408.06,304.512L409,304.548L409.94,304.584L410.88,304.61L411.82,304.625L412.76,304.64L413.7,304.659L414.64,304.689L415.58,304.726L416.52,304.761L417.46,304.803L418.4,304.851L419.34,304.899L420.28,304.939L421.22,304.987L422.16,305.041L423.1,305.101L424.04,305.143L424.98,305.172L425.92,305.202L426.86,305.237L427.8,305.262L428.74,305.299L429.68,305.349L430.62,305.402L431.56,305.457L432.5,305.509L433.44,305.551L434.38,305.581L435.32,305.629L436.26,305.683L437.2,305.738L438.14,305.782L439.08,305.824L440.02,305.87L440.96,305.909L441.9,305.949L442.84,305.981L443.78,305.995L444.72,306.006L445.66,306.02L446.6,306.046L447.54,306.076L448.48,306.104L449.42,306.123L450.36,306.137L451.3,306.153L452.24,306.174L453.18,306.189L454.12,306.194L455.06,306.193L456,306.2L456.94,306.211L457.88,306.219L458.82,306.222L459.76,306.216L460.7,306.206L461.64,306.209L462.58,306.221L463.52,306.238L464.46,306.253L465.4,306.273L466.34,306.298L467.28,306.317L468.22,306.333L469.16,306.353L470.1,306.381L471.04,306.405L471.98,306.432L472.92,306.461L473.86,306.5L474.8,306.53L475.74,306.565L476.68,306.608L477.62,306.654L478.56,306.702L479.5,306.745L480.44,306.771L481.38,306.786L482.32,306.805L483.26,306.824L484.2,306.839L485.14,306.86L486.08,306.887L487.02,306.917L487.96,306.939L488.9,306.968L489.84,306.996L490.78,307.01L491.72,307.024L492.66,307.048L493.6,307.083L494.54,307.114L495.48,307.123L496.42,307.128L497.36,307.14L498.3,307.152L499.24,307.162L500.18,307.174L501.12,307.185L502.06,307.198L503,307.215L503.94,307.237L504.88,307.267L505.82,307.299L506.76,307.327L507.7,307.349L508.64,307.375L509.58,307.403L510.52,307.436L511.46,307.458L512.4,307.472L513.34,307.487L514.28,307.498L515.22,307.5L516.16,307.505L517.1,307.521L518.04,307.538L518.98,307.554L519.92,307.567L520.86,307.581L521.8,307.589L522.74,307.6L523.68,307.614L524.62,307.628L525.56,307.647L526.5,307.665L527.44,307.678L528.38,307.694L529.32,307.712L530.26,307.732L531.2,307.746L532.14,307.768L533.08,307.799L534.02,307.832L534.96,307.859L535.9,307.893L536.84,307.933L537.78,307.978L538.72,308.026L539.66,308.081L540.6,308.143L541.54,308.209L542.48,308.26L543.42,308.311L544.36,308.367L545.3,308.42L546.24,308.474L547.18,308.529L548.12,308.587L549.06,308.648L550,308.713L550,310L549.06,310L548.12,310L547.18,310L546.24,310L545.3,310L544.36,310L543.42,310L542.48,310L541.54,310L540.6,310L539.66,310L538.72,310L537.78,310L536.84,310L535.9,310L534.96,310L534.02,310L533.08,310L532.14,310L531.2,310L530.26,310L529.32,310L528.38,310L527.44,310L526.5,310L525.56,310L524.62,310L523.68,310L522.74,310L521.8,310L520.86,310L519.92,310L518.98,310L518.04,310L517.1,310L516.16,310L515.22,310L514.28,310L513.34,310L512.4,310L511.46,310L510.52,310L509.58,310L508.64,310L507.7,310L506.76,310L505.82,310L504.88,310L503.94,310L503,310L502.06,310L501.12,310L500.18,310L499.24,310L498.3,310L497.36,310L496.42,310L495.48,310L494.54,310L493.6,310L492.66,310L491.72,310L490.78,310L489.84,310L488.9,310L487.96,310L487.02,310L486.08,310L485.14,310L484.2,310L483.26,310L482.32,310L481.38,310L480.44,310L479.5,310L478.56,310L477.62,310L476.68,310L475.74,310L474.8,310L473.86,310L472.92,310L471.98,310L471.04,310L470.1,310L469.16,310L468.22,310L467.28,310L466.34,310L465.4,310L464.46,310L463.52,310L462.58,310L461.64,310L460.7,310L459.76,310L458.82,310L457.88,310L456.94,310L456,310L455.06,310L454.12,310L453.18,310L452.24,310L451.3,310L450.36,310L449.42,310L448.48,310L447.54,310L446.6,310L445.66,310L444.72,310L443.78,310L442.84,310L441.9,310L440.96,310L440.02,310L439.08,310L438.14,310L437.2,310L436.26,310L435.32,310L434.38,310L433.44,310L432.5,310L431.56,310L430.62,310L429.68,310L428.74,310L427.8,310L426.86,310L425.92,310L424.98,310L424.04,310L423.1,310L422.16,310L421.22,310L420.28,310L419.34,310L418.4,310L417.46,310L416.52,310L415.58,310L414.64,310L413.7,310L412.76,310L411.82,310L410.88,310L409.94,310L409,310L408.06,310L407.12,310L406.18,310L405.24,310L404.3,310L403.36,310L402.42,310L401.48,310L400.54,310L399.6,310L398.66,310L397.72,310L396.78,310L395.84,310L394.9,310L393.96,310L393.02,310L392.08,310L391.14,310L390.2,310L389.26,310L388.32,310L387.38,310L386.44,310L385.5,310L384.56,310L383.62,310L382.68,310L381.74,310L380.8,310L379.86,310L378.92,310L377.98,310L377.04,310L376.1,310L375.16,310L374.22,310L373.28,310L372.34,310L371.4,310L370.46,310L369.52,310L368.58,310L367.64,310L366.7,310L365.76,310L364.82,310L363.88,310L362.94,310L362,310L361.06,310L360.12,310L359.18,310L358.24,310L357.3,310L356.36,310L355.42,310L354.48,310L353.54,310L352.6,310L351.66,310L350.72,310L349.78,310L348.84,310L347.9,310L346.96,310L346.02,310L345.08,310L344.14,310L343.2,310L342.26,310L341.32,310L340.38,310L339.44,310L338.5,310L337.56,310L336.62,310L335.68,310L334.74,310L333.8,310L332.86,310L331.92,310L330.98,310L330.04,310L329.1,310L328.16,310L327.22,310L326.28,310L325.34,310L324.4,310L323.46,310L322.52,310L321.58,310L320.64,310L319.7,310L318.76,310L317.82,310L316.88,310L315.94,310L315,310L314.06,310L313.12,310L312.18,310L311.24,310L310.3,310L309.36,310L308.42,310L307.48,310L306.54,310L305.6,310L304.66,310L303.72,310L302.78,310L301.84,310L300.9,310L299.96,310L299.02,310L298.08,310L297.14,310L296.2,310L295.26,310L294.32,310L293.38,310L292.44,310L291.5,310L290.56,310L289.62,310L288.68,310L287.74,310L286.8,310L285.86,310L284.92,310L283.98,310L283.04,310L282.1,310L281.16,310L280.22,310L279.28,310L278.34,310L277.4,310L276.46,310L275.52,310L274.58,310L273.64,310L272.7,310L271.76,310L270.82,310L269.88,310L268.94,310L268,310L267.06,310L266.12,310L265.18,310L264.24,310L263.3,310L262.36,310L261.42,310L260.48,310L259.54,310L258.6,310L257.66,310L256.72,310L255.78,310L254.84,310L253.9,310L252.96,310L252.02,310L251.08,310L250.14,310L249.2,310L248.26,310L247.32,310L246.38,310L245.44,310L244.5,310L243.56,310L242.62,310L241.68,310L240.74,310L239.8,310L238.86,310L237.92,310L236.98,310L236.04,310L235.1,310L234.16,310L233.22,310L232.28,310L231.34,310L230.4,310L229.46,310L228.52,310L227.58,310L226.64,310L225.7,310L224.76,310L223.82,310L222.88,310L221.94,310L221,310L220.06,310L219.12,310L218.18,310L217.24,310L216.3,310L215.36,310L214.42,310L213.48,310L212.54,310L211.6,310L210.66,310L209.72,310L208.78,310L207.84,310L206.9,310L205.96,310L205.02,310L204.08,310L203.14,310L202.2,310L201.26,310L200.32,310L199.38,310L198.44,310L197.5,310L196.56,310L195.62,310L194.68,310L193.74,310L192.8,310L191.86,310L190.92,310L189.98,310L189.04,310L188.1,310L187.16,310L186.22,310L185.28,310L184.34,310L183.4,310L182.46,310L181.52,310L180.58,310L179.64,310L178.7,310L177.76,310L176.82,310L175.88,310L174.94,310L174,310L173.06,310L172.12,310L171.18,310L170.24,310L169.3,310L168.36,310L167.42,310L166.48,310L165.54,310L164.6,310L163.66,310L162.72,310L161.78,310L160.84,310L159.9,310L158.96,310L158.02,310L157.08,310L156.14,310L155.2,310L154.26,310L153.32,310L152.38,310L151.44,310L150.5,310L149.56,310L148.62,310L147.68,310L146.74,310L145.8,310L144.86,310L143.92,310L142.98,310L142.04,310L141.1,310L140.16,310L139.22,310L138.28,310L137.34,310L136.4,310L135.46,310L134.52,310L133.58,310L132.64,310L131.7,310L130.76,310L129.82,310L128.88,310L127.94,310L127,310L126.06,310L125.12,310L124.18,310L123.24,310L122.3,310L121.36,310L120.42,310L119.48,310L118.54,310L117.6,310L116.66,310L115.72,310L114.78,310L113.84,310L112.9,310L111.96,310L111.02,310L110.08,310L109.14,310L108.2,310L107.26,310L106.32,310L105.38,310L104.44,310L103.5,310L102.56,310L101.62,310L100.68,310L99.74,310L98.8,310L97.86,310L96.92,310L95.98,310L95.04,310L94.1,310L93.16,310L92.22,310L91.28,310L90.34,310L89.4,310L88.46,310L87.52,310L86.58,310L85.64,310L84.7,310L83.76,310L82.82,310L81.88,310L80.94,310L80,310Z" fill-opacity="0.5" data-tippy-content="&lt;span style='color: white; background-color: #32AEEC;'&gt;Asparagus_Elaeis.ks&lt;/span&gt; &lt;br&gt; Peak: &lt;span style='color: red;'&gt;1.12&lt;/span&gt; (Density: &lt;span style='color: #32AEEC;'&gt;1.04&lt;/span&gt;)&lt;br&gt;95% CIs: &lt;span style='color: white; background-color: #32AEEC';&gt;1.10 &lt;--&gt; 1.14&lt;/span&gt;" style="fill: rgb(50, 174, 236); -webkit-user-select: auto;"/><path class="area path" d="M80,309.939L80.94,309.934L81.88,309.928L82.82,309.924L83.76,309.919L84.7,309.915L85.64,309.911L86.58,309.907L87.52,309.904L88.46,309.902L89.4,309.899L90.34,309.897L91.28,309.895L92.22,309.89L93.16,309.885L94.1,309.88L95.04,309.876L95.98,309.872L96.92,309.869L97.86,309.867L98.8,309.865L99.74,309.863L100.68,309.862L101.62,309.862L102.56,309.862L103.5,309.862L104.44,309.862L105.38,309.86L106.32,309.858L107.26,309.856L108.2,309.851L109.14,309.847L110.08,309.844L111.02,309.842L111.96,309.841L112.9,309.836L113.84,309.833L114.78,309.826L115.72,309.82L116.66,309.815L117.6,309.808L118.54,309.802L119.48,309.794L120.42,309.778L121.36,309.762L122.3,309.748L123.24,309.735L124.18,309.722L125.12,309.707L126.06,309.69L127,309.669L127.94,309.651L128.88,309.632L129.82,309.612L130.76,309.59L131.7,309.566L132.64,309.541L133.58,309.511L134.52,309.479L135.46,309.441L136.4,309.396L137.34,309.351L138.28,309.301L139.22,309.23L140.16,309.156L141.1,309.071L142.04,308.967L142.98,308.835L143.92,308.694L144.86,308.531L145.8,308.34L146.74,308.14L147.68,307.917L148.62,307.657L149.56,307.381L150.5,307.066L151.44,306.718L152.38,306.328L153.32,305.92L154.26,305.48L155.2,305.012L156.14,304.481L157.08,303.904L158.02,303.272L158.96,302.586L159.9,301.848L160.84,301.073L161.78,300.225L162.72,299.341L163.66,298.399L164.6,297.368L165.54,296.285L166.48,295.167L167.42,293.982L168.36,292.749L169.3,291.437L170.24,290.068L171.18,288.645L172.12,287.179L173.06,285.641L174,284.024L174.94,282.346L175.88,280.615L176.82,278.836L177.76,277.015L178.7,275.174L179.64,273.303L180.58,271.406L181.52,269.465L182.46,267.43L183.4,265.381L184.34,263.319L185.28,261.188L186.22,258.978L187.16,256.763L188.1,254.501L189.04,252.249L189.98,249.998L190.92,247.771L191.86,245.551L192.8,243.352L193.74,241.187L194.68,239.034L195.62,236.859L196.56,234.735L197.5,232.614L198.44,230.447L199.38,228.313L200.32,226.275L201.26,224.315L202.2,222.417L203.14,220.574L204.08,218.798L205.02,217.134L205.96,215.545L206.9,214.035L207.84,212.604L208.78,211.228L209.72,209.98L210.66,208.84L211.6,207.749L212.54,206.776L213.48,205.912L214.42,205.133L215.36,204.478L216.3,203.877L217.24,203.338L218.18,202.92L219.12,202.625L220.06,202.434L221,202.309L221.94,202.305L222.88,202.368L223.82,202.54L224.76,202.822L225.7,203.244L226.64,203.77L227.58,204.361L228.52,205.019L229.46,205.671L230.4,206.399L231.34,207.171L232.28,207.988L233.22,208.822L234.16,209.743L235.1,210.668L236.04,211.702L236.98,212.769L237.92,213.891L238.86,215.051L239.8,216.283L240.74,217.563L241.68,218.873L242.62,220.175L243.56,221.496L244.5,222.813L245.44,224.078L246.38,225.328L247.32,226.626L248.26,227.953L249.2,229.222L250.14,230.499L251.08,231.763L252.02,233.062L252.96,234.367L253.9,235.662L254.84,236.893L255.78,238.099L256.72,239.289L257.66,240.452L258.6,241.58L259.54,242.698L260.48,243.802L261.42,244.883L262.36,245.967L263.3,247.007L264.24,247.937L265.18,248.853L266.12,249.748L267.06,250.637L268,251.472L268.94,252.311L269.88,253.107L270.82,253.893L271.76,254.688L272.7,255.514L273.64,256.354L274.58,257.157L275.52,257.942L276.46,258.689L277.4,259.424L278.34,260.107L279.28,260.81L280.22,261.527L281.16,262.24L282.1,262.914L283.04,263.599L283.98,264.242L284.92,264.87L285.86,265.491L286.8,266.136L287.74,266.768L288.68,267.403L289.62,268.052L290.56,268.692L291.5,269.331L292.44,270.002L293.38,270.659L294.32,271.309L295.26,271.963L296.2,272.557L297.14,273.16L298.08,273.753L299.02,274.33L299.96,274.915L300.9,275.52L301.84,276.093L302.78,276.662L303.72,277.207L304.66,277.717L305.6,278.205L306.54,278.646L307.48,279.088L308.42,279.53L309.36,279.94L310.3,280.368L311.24,280.733L312.18,281.071L313.12,281.412L314.06,281.747L315,282.049L315.94,282.344L316.88,282.626L317.82,282.889L318.76,283.141L319.7,283.392L320.64,283.653L321.58,283.91L322.52,284.159L323.46,284.413L324.4,284.675L325.34,284.943L326.28,285.235L327.22,285.535L328.16,285.827L329.1,286.091L330.04,286.327L330.98,286.56L331.92,286.791L332.86,287.024L333.8,287.284L334.74,287.531L335.68,287.755L336.62,288.018L337.56,288.297L338.5,288.572L339.44,288.869L340.38,289.175L341.32,289.464L342.26,289.749L343.2,290.036L344.14,290.329L345.08,290.62L346.02,290.892L346.96,291.168L347.9,291.472L348.84,291.785L349.78,292.109L350.72,292.419L351.66,292.725L352.6,293.012L353.54,293.259L354.48,293.507L355.42,293.768L356.36,293.988L357.3,294.235L358.24,294.47L359.18,294.699L360.12,294.959L361.06,295.22L362,295.465L362.94,295.704L363.88,295.936L364.82,296.165L365.76,296.376L366.7,296.567L367.64,296.746L368.58,296.913L369.52,297.074L370.46,297.227L371.4,297.353L372.34,297.476L373.28,297.602L374.22,297.71L375.16,297.826L376.1,297.936L377.04,298.032L377.98,298.124L378.92,298.204L379.86,298.266L380.8,298.333L381.74,298.387L382.68,298.419L383.62,298.457L384.56,298.511L385.5,298.559L386.44,298.611L387.38,298.662L388.32,298.713L389.26,298.767L390.2,298.837L391.14,298.896L392.08,298.943L393.02,298.976L393.96,299.022L394.9,299.078L395.84,299.143L396.78,299.22L397.72,299.279L398.66,299.338L399.6,299.397L400.54,299.436L401.48,299.473L402.42,299.521L403.36,299.559L404.3,299.603L405.24,299.654L406.18,299.718L407.12,299.804L408.06,299.889L409,299.983L409.94,300.059L410.88,300.132L411.82,300.209L412.76,300.288L413.7,300.363L414.64,300.443L415.58,300.518L416.52,300.587L417.46,300.659L418.4,300.717L419.34,300.782L420.28,300.837L421.22,300.902L422.16,300.966L423.1,301.036L424.04,301.113L424.98,301.196L425.92,301.261L426.86,301.323L427.8,301.376L428.74,301.431L429.68,301.492L430.62,301.545L431.56,301.617L432.5,301.701L433.44,301.782L434.38,301.853L435.32,301.921L436.26,301.988L437.2,302.05L438.14,302.1L439.08,302.131L440.02,302.152L440.96,302.179L441.9,302.204L442.84,302.232L443.78,302.258L444.72,302.281L445.66,302.312L446.6,302.347L447.54,302.353L448.48,302.344L449.42,302.328L450.36,302.315L451.3,302.314L452.24,302.327L453.18,302.341L454.12,302.348L455.06,302.338L456,302.347L456.94,302.353L457.88,302.364L458.82,302.375L459.76,302.386L460.7,302.402L461.64,302.437L462.58,302.473L463.52,302.495L464.46,302.529L465.4,302.576L466.34,302.629L467.28,302.684L468.22,302.748L469.16,302.801L470.1,302.852L471.04,302.906L471.98,302.97L472.92,303.029L473.86,303.095L474.8,303.16L475.74,303.242L476.68,303.332L477.62,303.431L478.56,303.543L479.5,303.656L480.44,303.767L481.38,303.879L482.32,303.99L483.26,304.105L484.2,304.219L485.14,304.323L486.08,304.407L487.02,304.481L487.96,304.547L488.9,304.614L489.84,304.687L490.78,304.76L491.72,304.836L492.66,304.903L493.6,304.964L494.54,305.004L495.48,305.022L496.42,305.041L497.36,305.058L498.3,305.093L499.24,305.139L500.18,305.188L501.12,305.232L502.06,305.256L503,305.276L503.94,305.275L504.88,305.275L505.82,305.255L506.76,305.227L507.7,305.199L508.64,305.174L509.58,305.163L510.52,305.156L511.46,305.149L512.4,305.153L513.34,305.146L514.28,305.148L515.22,305.151L516.16,305.153L517.1,305.16L518.04,305.176L518.98,305.193L519.92,305.212L520.86,305.226L521.8,305.241L522.74,305.26L523.68,305.273L524.62,305.293L525.56,305.318L526.5,305.335L527.44,305.354L528.38,305.393L529.32,305.441L530.26,305.505L531.2,305.58L532.14,305.657L533.08,305.731L534.02,305.805L534.96,305.884L535.9,305.974L536.84,306.078L537.78,306.191L538.72,306.309L539.66,306.422L540.6,306.539L541.54,306.66L542.48,306.777L543.42,306.903L544.36,307.021L545.3,307.146L546.24,307.277L547.18,307.414L548.12,307.561L549.06,307.703L550,307.843L550,310L549.06,310L548.12,310L547.18,310L546.24,310L545.3,310L544.36,310L543.42,310L542.48,310L541.54,310L540.6,310L539.66,310L538.72,310L537.78,310L536.84,310L535.9,310L534.96,310L534.02,310L533.08,310L532.14,310L531.2,310L530.26,310L529.32,310L528.38,310L527.44,310L526.5,310L525.56,310L524.62,310L523.68,310L522.74,310L521.8,310L520.86,310L519.92,310L518.98,310L518.04,310L517.1,310L516.16,310L515.22,310L514.28,310L513.34,310L512.4,310L511.46,310L510.52,310L509.58,310L508.64,310L507.7,310L506.76,310L505.82,310L504.88,310L503.94,310L503,310L502.06,310L501.12,310L500.18,310L499.24,310L498.3,310L497.36,310L496.42,310L495.48,310L494.54,310L493.6,310L492.66,310L491.72,310L490.78,310L489.84,310L488.9,310L487.96,310L487.02,310L486.08,310L485.14,310L484.2,310L483.26,310L482.32,310L481.38,310L480.44,310L479.5,310L478.56,310L477.62,310L476.68,310L475.74,310L474.8,310L473.86,310L472.92,310L471.98,310L471.04,310L470.1,310L469.16,310L468.22,310L467.28,310L466.34,310L465.4,310L464.46,310L463.52,310L462.58,310L461.64,310L460.7,310L459.76,310L458.82,310L457.88,310L456.94,310L456,310L455.06,310L454.12,310L453.18,310L452.24,310L451.3,310L450.36,310L449.42,310L448.48,310L447.54,310L446.6,310L445.66,310L444.72,310L443.78,310L442.84,310L441.9,310L440.96,310L440.02,310L439.08,310L438.14,310L437.2,310L436.26,310L435.32,310L434.38,310L433.44,310L432.5,310L431.56,310L430.62,310L429.68,310L428.74,310L427.8,310L426.86,310L425.92,310L424.98,310L424.04,310L423.1,310L422.16,310L421.22,310L420.28,310L419.34,310L418.4,310L417.46,310L416.52,310L415.58,310L414.64,310L413.7,310L412.76,310L411.82,310L410.88,310L409.94,310L409,310L408.06,310L407.12,310L406.18,310L405.24,310L404.3,310L403.36,310L402.42,310L401.48,310L400.54,310L399.6,310L398.66,310L397.72,310L396.78,310L395.84,310L394.9,310L393.96,310L393.02,310L392.08,310L391.14,310L390.2,310L389.26,310L388.32,310L387.38,310L386.44,310L385.5,310L384.56,310L383.62,310L382.68,310L381.74,310L380.8,310L379.86,310L378.92,310L377.98,310L377.04,310L376.1,310L375.16,310L374.22,310L373.28,310L372.34,310L371.4,310L370.46,310L369.52,310L368.58,310L367.64,310L366.7,310L365.76,310L364.82,310L363.88,310L362.94,310L362,310L361.06,310L360.12,310L359.18,310L358.24,310L357.3,310L356.36,310L355.42,310L354.48,310L353.54,310L352.6,310L351.66,310L350.72,310L349.78,310L348.84,310L347.9,310L346.96,310L346.02,310L345.08,310L344.14,310L343.2,310L342.26,310L341.32,310L340.38,310L339.44,310L338.5,310L337.56,310L336.62,310L335.68,310L334.74,310L333.8,310L332.86,310L331.92,310L330.98,310L330.04,310L329.1,310L328.16,310L327.22,310L326.28,310L325.34,310L324.4,310L323.46,310L322.52,310L321.58,310L320.64,310L319.7,310L318.76,310L317.82,310L316.88,310L315.94,310L315,310L314.06,310L313.12,310L312.18,310L311.24,310L310.3,310L309.36,310L308.42,310L307.48,310L306.54,310L305.6,310L304.66,310L303.72,310L302.78,310L301.84,310L300.9,310L299.96,310L299.02,310L298.08,310L297.14,310L296.2,310L295.26,310L294.32,310L293.38,310L292.44,310L291.5,310L290.56,310L289.62,310L288.68,310L287.74,310L286.8,310L285.86,310L284.92,310L283.98,310L283.04,310L282.1,310L281.16,310L280.22,310L279.28,310L278.34,310L277.4,310L276.46,310L275.52,310L274.58,310L273.64,310L272.7,310L271.76,310L270.82,310L269.88,310L268.94,310L268,310L267.06,310L266.12,310L265.18,310L264.24,310L263.3,310L262.36,310L261.42,310L260.48,310L259.54,310L258.6,310L257.66,310L256.72,310L255.78,310L254.84,310L253.9,310L252.96,310L252.02,310L251.08,310L250.14,310L249.2,310L248.26,310L247.32,310L246.38,310L245.44,310L244.5,310L243.56,310L242.62,310L241.68,310L240.74,310L239.8,310L238.86,310L237.92,310L236.98,310L236.04,310L235.1,310L234.16,310L233.22,310L232.28,310L231.34,310L230.4,310L229.46,310L228.52,310L227.58,310L226.64,310L225.7,310L224.76,310L223.82,310L222.88,310L221.94,310L221,310L220.06,310L219.12,310L218.18,310L217.24,310L216.3,310L215.36,310L214.42,310L213.48,310L212.54,310L211.6,310L210.66,310L209.72,310L208.78,310L207.84,310L206.9,310L205.96,310L205.02,310L204.08,310L203.14,310L202.2,310L201.26,310L200.32,310L199.38,310L198.44,310L197.5,310L196.56,310L195.62,310L194.68,310L193.74,310L192.8,310L191.86,310L190.92,310L189.98,310L189.04,310L188.1,310L187.16,310L186.22,310L185.28,310L184.34,310L183.4,310L182.46,310L181.52,310L180.58,310L179.64,310L178.7,310L177.76,310L176.82,310L175.88,310L174.94,310L174,310L173.06,310L172.12,310L171.18,310L170.24,310L169.3,310L168.36,310L167.42,310L166.48,310L165.54,310L164.6,310L163.66,310L162.72,310L161.78,310L160.84,310L159.9,310L158.96,310L158.02,310L157.08,310L156.14,310L155.2,310L154.26,310L153.32,310L152.38,310L151.44,310L150.5,310L149.56,310L148.62,310L147.68,310L146.74,310L145.8,310L144.86,310L143.92,310L142.98,310L142.04,310L141.1,310L140.16,310L139.22,310L138.28,310L137.34,310L136.4,310L135.46,310L134.52,310L133.58,310L132.64,310L131.7,310L130.76,310L129.82,310L128.88,310L127.94,310L127,310L126.06,310L125.12,310L124.18,310L123.24,310L122.3,310L121.36,310L120.42,310L119.48,310L118.54,310L117.6,310L116.66,310L115.72,310L114.78,310L113.84,310L112.9,310L111.96,310L111.02,310L110.08,310L109.14,310L108.2,310L107.26,310L106.32,310L105.38,310L104.44,310L103.5,310L102.56,310L101.62,310L100.68,310L99.74,310L98.8,310L97.86,310L96.92,310L95.98,310L95.04,310L94.1,310L93.16,310L92.22,310L91.28,310L90.34,310L89.4,310L88.46,310L87.52,310L86.58,310L85.64,310L84.7,310L83.76,310L82.82,310L81.88,310L80.94,310L80,310Z" fill-opacity="0.5" data-tippy-content="&lt;span style='color: white; background-color: #E2AE79;'&gt;Elaeis_Oryza.ks&lt;/span&gt; &lt;br&gt; Peak: &lt;span style='color: red;'&gt;1.51&lt;/span&gt; (Density: &lt;span style='color: #E2AE79;'&gt;0.83&lt;/span&gt;)&lt;br&gt;95% CIs: &lt;span style='color: white; background-color: #E2AE79';&gt;1.49 &lt;--&gt; 1.52&lt;/span&gt;" style="fill: rgb(226, 174, 121); -webkit-user-select: auto;"/><path class="area path" d="M80,309.947L80.94,309.942L81.88,309.937L82.82,309.933L83.76,309.929L84.7,309.925L85.64,309.922L86.58,309.919L87.52,309.916L88.46,309.914L89.4,309.911L90.34,309.91L91.28,309.908L92.22,309.907L93.16,309.906L94.1,309.905L95.04,309.905L95.98,309.905L96.92,309.905L97.86,309.906L98.8,309.907L99.74,309.906L100.68,309.904L101.62,309.902L102.56,309.901L103.5,309.9L104.44,309.9L105.38,309.9L106.32,309.901L107.26,309.902L108.2,309.903L109.14,309.905L110.08,309.906L111.02,309.904L111.96,309.9L112.9,309.897L113.84,309.895L114.78,309.893L115.72,309.892L116.66,309.891L117.6,309.887L118.54,309.882L119.48,309.874L120.42,309.866L121.36,309.856L122.3,309.846L123.24,309.836L124.18,309.827L125.12,309.819L126.06,309.812L127,309.802L127.94,309.792L128.88,309.782L129.82,309.767L130.76,309.75L131.7,309.732L132.64,309.713L133.58,309.694L134.52,309.671L135.46,309.648L136.4,309.621L137.34,309.587L138.28,309.553L139.22,309.518L140.16,309.476L141.1,309.433L142.04,309.386L142.98,309.327L143.92,309.261L144.86,309.191L145.8,309.108L146.74,308.997L147.68,308.867L148.62,308.729L149.56,308.579L150.5,308.407L151.44,308.221L152.38,308.005L153.32,307.753L154.26,307.459L155.2,307.124L156.14,306.759L157.08,306.364L158.02,305.944L158.96,305.458L159.9,304.943L160.84,304.373L161.78,303.742L162.72,303.052L163.66,302.338L164.6,301.564L165.54,300.727L166.48,299.859L167.42,298.932L168.36,297.961L169.3,296.939L170.24,295.866L171.18,294.753L172.12,293.557L173.06,292.274L174,290.935L174.94,289.55L175.88,288.086L176.82,286.549L177.76,284.953L178.7,283.27L179.64,281.526L180.58,279.75L181.52,277.899L182.46,275.964L183.4,273.955L184.34,271.905L185.28,269.8L186.22,267.662L187.16,265.462L188.1,263.229L189.04,260.994L189.98,258.756L190.92,256.465L191.86,254.154L192.8,251.86L193.74,249.542L194.68,247.213L195.62,244.907L196.56,242.641L197.5,240.434L198.44,238.253L199.38,236.123L200.32,234.007L201.26,231.91L202.2,229.794L203.14,227.726L204.08,225.753L205.02,223.875L205.96,222.044L206.9,220.265L207.84,218.526L208.78,216.888L209.72,215.334L210.66,213.89L211.6,212.515L212.54,211.221L213.48,210.088L214.42,209.105L215.36,208.251L216.3,207.53L217.24,206.905L218.18,206.347L219.12,205.832L220.06,205.343L221,204.942L221.94,204.65L222.88,204.427L223.82,204.275L224.76,204.223L225.7,204.265L226.64,204.44L227.58,204.748L228.52,205.117L229.46,205.528L230.4,206.006L231.34,206.54L232.28,207.113L233.22,207.743L234.16,208.379L235.1,209.065L236.04,209.823L236.98,210.658L237.92,211.502L238.86,212.343L239.8,213.228L240.74,214.133L241.68,215.076L242.62,216.039L243.56,217.004L244.5,218.007L245.44,218.999L246.38,220.024L247.32,221.058L248.26,222.132L249.2,223.157L250.14,224.176L251.08,225.239L252.02,226.341L252.96,227.454L253.9,228.534L254.84,229.593L255.78,230.682L256.72,231.788L257.66,232.864L258.6,233.904L259.54,234.917L260.48,235.935L261.42,236.997L262.36,238.065L263.3,239.153L264.24,240.228L265.18,241.278L266.12,242.312L267.06,243.318L268,244.311L268.94,245.298L269.88,246.279L270.82,247.212L271.76,248.091L272.7,248.985L273.64,249.912L274.58,250.852L275.52,251.793L276.46,252.712L277.4,253.635L278.34,254.542L279.28,255.42L280.22,256.285L281.16,257.11L282.1,257.946L283.04,258.78L283.98,259.617L284.92,260.457L285.86,261.267L286.8,262.064L287.74,262.853L288.68,263.666L289.62,264.463L290.56,265.195L291.5,265.893L292.44,266.548L293.38,267.174L294.32,267.797L295.26,268.436L296.2,269.062L297.14,269.678L298.08,270.292L299.02,270.909L299.96,271.542L300.9,272.166L301.84,272.8L302.78,273.424L303.72,274.038L304.66,274.615L305.6,275.178L306.54,275.719L307.48,276.216L308.42,276.7L309.36,277.157L310.3,277.588L311.24,277.996L312.18,278.41L313.12,278.825L314.06,279.265L315,279.722L315.94,280.182L316.88,280.642L317.82,281.079L318.76,281.472L319.7,281.846L320.64,282.197L321.58,282.53L322.52,282.863L323.46,283.183L324.4,283.49L325.34,283.801L326.28,284.08L327.22,284.359L328.16,284.635L329.1,284.927L330.04,285.199L330.98,285.465L331.92,285.73L332.86,285.994L333.8,286.272L334.74,286.557L335.68,286.851L336.62,287.142L337.56,287.431L338.5,287.726L339.44,288.003L340.38,288.265L341.32,288.532L342.26,288.791L343.2,289.053L344.14,289.313L345.08,289.555L346.02,289.794L346.96,290.046L347.9,290.305L348.84,290.576L349.78,290.837L350.72,291.079L351.66,291.325L352.6,291.591L353.54,291.875L354.48,292.158L355.42,292.444L356.36,292.738L357.3,293.038L358.24,293.331L359.18,293.62L360.12,293.897L361.06,294.176L362,294.454L362.94,294.72L363.88,294.977L364.82,295.228L365.76,295.467L366.7,295.678L367.64,295.875L368.58,296.06L369.52,296.239L370.46,296.409L371.4,296.576L372.34,296.745L373.28,296.892L374.22,297.039L375.16,297.181L376.1,297.32L377.04,297.419L377.98,297.5L378.92,297.572L379.86,297.631L380.8,297.697L381.74,297.755L382.68,297.81L383.62,297.864L384.56,297.933L385.5,298.003L386.44,298.071L387.38,298.134L388.32,298.186L389.26,298.234L390.2,298.286L391.14,298.343L392.08,298.395L393.02,298.447L393.96,298.492L394.9,298.549L395.84,298.62L396.78,298.686L397.72,298.737L398.66,298.789L399.6,298.854L400.54,298.935L401.48,298.999L402.42,299.059L403.36,299.125L404.3,299.208L405.24,299.288L406.18,299.368L407.12,299.439L408.06,299.513L409,299.591L409.94,299.673L410.88,299.761L411.82,299.852L412.76,299.919L413.7,299.97L414.64,300.02L415.58,300.065L416.52,300.123L417.46,300.171L418.4,300.227L419.34,300.303L420.28,300.378L421.22,300.462L422.16,300.539L423.1,300.62L424.04,300.688L424.98,300.744L425.92,300.795L426.86,300.837L427.8,300.894L428.74,300.951L429.68,301.014L430.62,301.091L431.56,301.167L432.5,301.244L433.44,301.331L434.38,301.417L435.32,301.487L436.26,301.544L437.2,301.592L438.14,301.651L439.08,301.721L440.02,301.79L440.96,301.861L441.9,301.934L442.84,302.024L443.78,302.121L444.72,302.221L445.66,302.319L446.6,302.426L447.54,302.537L448.48,302.628L449.42,302.713L450.36,302.782L451.3,302.845L452.24,302.91L453.18,302.969L454.12,303.012L455.06,303.055L456,303.1L456.94,303.158L457.88,303.212L458.82,303.267L459.76,303.303L460.7,303.333L461.64,303.366L462.58,303.395L463.52,303.432L464.46,303.468L465.4,303.507L466.34,303.547L467.28,303.575L468.22,303.61L469.16,303.653L470.1,303.7L471.04,303.745L471.98,303.779L472.92,303.803L473.86,303.821L474.8,303.847L475.74,303.879L476.68,303.918L477.62,303.974L478.56,304.033L479.5,304.093L480.44,304.162L481.38,304.225L482.32,304.277L483.26,304.316L484.2,304.345L485.14,304.378L486.08,304.419L487.02,304.463L487.96,304.508L488.9,304.55L489.84,304.585L490.78,304.621L491.72,304.667L492.66,304.721L493.6,304.787L494.54,304.853L495.48,304.917L496.42,304.986L497.36,305.045L498.3,305.093L499.24,305.143L500.18,305.194L501.12,305.24L502.06,305.282L503,305.32L503.94,305.359L504.88,305.402L505.82,305.449L506.76,305.495L507.7,305.539L508.64,305.588L509.58,305.647L510.52,305.713L511.46,305.783L512.4,305.85L513.34,305.904L514.28,305.95L515.22,305.993L516.16,306.041L517.1,306.086L518.04,306.126L518.98,306.152L519.92,306.169L520.86,306.184L521.8,306.191L522.74,306.198L523.68,306.206L524.62,306.223L525.56,306.25L526.5,306.275L527.44,306.308L528.38,306.347L529.32,306.387L530.26,306.423L531.2,306.463L532.14,306.509L533.08,306.568L534.02,306.632L534.96,306.698L535.9,306.768L536.84,306.829L537.78,306.894L538.72,306.963L539.66,307.038L540.6,307.121L541.54,307.206L542.48,307.295L543.42,307.394L544.36,307.502L545.3,307.616L546.24,307.729L547.18,307.841L548.12,307.952L549.06,308.061L550,308.169L550,310L549.06,310L548.12,310L547.18,310L546.24,310L545.3,310L544.36,310L543.42,310L542.48,310L541.54,310L540.6,310L539.66,310L538.72,310L537.78,310L536.84,310L535.9,310L534.96,310L534.02,310L533.08,310L532.14,310L531.2,310L530.26,310L529.32,310L528.38,310L527.44,310L526.5,310L525.56,310L524.62,310L523.68,310L522.74,310L521.8,310L520.86,310L519.92,310L518.98,310L518.04,310L517.1,310L516.16,310L515.22,310L514.28,310L513.34,310L512.4,310L511.46,310L510.52,310L509.58,310L508.64,310L507.7,310L506.76,310L505.82,310L504.88,310L503.94,310L503,310L502.06,310L501.12,310L500.18,310L499.24,310L498.3,310L497.36,310L496.42,310L495.48,310L494.54,310L493.6,310L492.66,310L491.72,310L490.78,310L489.84,310L488.9,310L487.96,310L487.02,310L486.08,310L485.14,310L484.2,310L483.26,310L482.32,310L481.38,310L480.44,310L479.5,310L478.56,310L477.62,310L476.68,310L475.74,310L474.8,310L473.86,310L472.92,310L471.98,310L471.04,310L470.1,310L469.16,310L468.22,310L467.28,310L466.34,310L465.4,310L464.46,310L463.52,310L462.58,310L461.64,310L460.7,310L459.76,310L458.82,310L457.88,310L456.94,310L456,310L455.06,310L454.12,310L453.18,310L452.24,310L451.3,310L450.36,310L449.42,310L448.48,310L447.54,310L446.6,310L445.66,310L444.72,310L443.78,310L442.84,310L441.9,310L440.96,310L440.02,310L439.08,310L438.14,310L437.2,310L436.26,310L435.32,310L434.38,310L433.44,310L432.5,310L431.56,310L430.62,310L429.68,310L428.74,310L427.8,310L426.86,310L425.92,310L424.98,310L424.04,310L423.1,310L422.16,310L421.22,310L420.28,310L419.34,310L418.4,310L417.46,310L416.52,310L415.58,310L414.64,310L413.7,310L412.76,310L411.82,310L410.88,310L409.94,310L409,310L408.06,310L407.12,310L406.18,310L405.24,310L404.3,310L403.36,310L402.42,310L401.48,310L400.54,310L399.6,310L398.66,310L397.72,310L396.78,310L395.84,310L394.9,310L393.96,310L393.02,310L392.08,310L391.14,310L390.2,310L389.26,310L388.32,310L387.38,310L386.44,310L385.5,310L384.56,310L383.62,310L382.68,310L381.74,310L380.8,310L379.86,310L378.92,310L377.98,310L377.04,310L376.1,310L375.16,310L374.22,310L373.28,310L372.34,310L371.4,310L370.46,310L369.52,310L368.58,310L367.64,310L366.7,310L365.76,310L364.82,310L363.88,310L362.94,310L362,310L361.06,310L360.12,310L359.18,310L358.24,310L357.3,310L356.36,310L355.42,310L354.48,310L353.54,310L352.6,310L351.66,310L350.72,310L349.78,310L348.84,310L347.9,310L346.96,310L346.02,310L345.08,310L344.14,310L343.2,310L342.26,310L341.32,310L340.38,310L339.44,310L338.5,310L337.56,310L336.62,310L335.68,310L334.74,310L333.8,310L332.86,310L331.92,310L330.98,310L330.04,310L329.1,310L328.16,310L327.22,310L326.28,310L325.34,310L324.4,310L323.46,310L322.52,310L321.58,310L320.64,310L319.7,310L318.76,310L317.82,310L316.88,310L315.94,310L315,310L314.06,310L313.12,310L312.18,310L311.24,310L310.3,310L309.36,310L308.42,310L307.48,310L306.54,310L305.6,310L304.66,310L303.72,310L302.78,310L301.84,310L300.9,310L299.96,310L299.02,310L298.08,310L297.14,310L296.2,310L295.26,310L294.32,310L293.38,310L292.44,310L291.5,310L290.56,310L289.62,310L288.68,310L287.74,310L286.8,310L285.86,310L284.92,310L283.98,310L283.04,310L282.1,310L281.16,310L280.22,310L279.28,310L278.34,310L277.4,310L276.46,310L275.52,310L274.58,310L273.64,310L272.7,310L271.76,310L270.82,310L269.88,310L268.94,310L268,310L267.06,310L266.12,310L265.18,310L264.24,310L263.3,310L262.36,310L261.42,310L260.48,310L259.54,310L258.6,310L257.66,310L256.72,310L255.78,310L254.84,310L253.9,310L252.96,310L252.02,310L251.08,310L250.14,310L249.2,310L248.26,310L247.32,310L246.38,310L245.44,310L244.5,310L243.56,310L242.62,310L241.68,310L240.74,310L239.8,310L238.86,310L237.92,310L236.98,310L236.04,310L235.1,310L234.16,310L233.22,310L232.28,310L231.34,310L230.4,310L229.46,310L228.52,310L227.58,310L226.64,310L225.7,310L224.76,310L223.82,310L222.88,310L221.94,310L221,310L220.06,310L219.12,310L218.18,310L217.24,310L216.3,310L215.36,310L214.42,310L213.48,310L212.54,310L211.6,310L210.66,310L209.72,310L208.78,310L207.84,310L206.9,310L205.96,310L205.02,310L204.08,310L203.14,310L202.2,310L201.26,310L200.32,310L199.38,310L198.44,310L197.5,310L196.56,310L195.62,310L194.68,310L193.74,310L192.8,310L191.86,310L190.92,310L189.98,310L189.04,310L188.1,310L187.16,310L186.22,310L185.28,310L184.34,310L183.4,310L182.46,310L181.52,310L180.58,310L179.64,310L178.7,310L177.76,310L176.82,310L175.88,310L174.94,310L174,310L173.06,310L172.12,310L171.18,310L170.24,310L169.3,310L168.36,310L167.42,310L166.48,310L165.54,310L164.6,310L163.66,310L162.72,310L161.78,310L160.84,310L159.9,310L158.96,310L158.02,310L157.08,310L156.14,310L155.2,310L154.26,310L153.32,310L152.38,310L151.44,310L150.5,310L149.56,310L148.62,310L147.68,310L146.74,310L145.8,310L144.86,310L143.92,310L142.98,310L142.04,310L141.1,310L140.16,310L139.22,310L138.28,310L137.34,310L136.4,310L135.46,310L134.52,310L133.58,310L132.64,310L131.7,310L130.76,310L129.82,310L128.88,310L127.94,310L127,310L126.06,310L125.12,310L124.18,310L123.24,310L122.3,310L121.36,310L120.42,310L119.48,310L118.54,310L117.6,310L116.66,310L115.72,310L114.78,310L113.84,310L112.9,310L111.96,310L111.02,310L110.08,310L109.14,310L108.2,310L107.26,310L106.32,310L105.38,310L104.44,310L103.5,310L102.56,310L101.62,310L100.68,310L99.74,310L98.8,310L97.86,310L96.92,310L95.98,310L95.04,310L94.1,310L93.16,310L92.22,310L91.28,310L90.34,310L89.4,310L88.46,310L87.52,310L86.58,310L85.64,310L84.7,310L83.76,310L82.82,310L81.88,310L80.94,310L80,310Z" fill-opacity="0.5" data-tippy-content="&lt;span style='color: white; background-color: #8E549E;'&gt;Elaeis_Vitis.ks&lt;/span&gt; &lt;br&gt; Peak: &lt;span style='color: red;'&gt;1.54&lt;/span&gt; (Density: &lt;span style='color: #8E549E;'&gt;0.81&lt;/span&gt;)&lt;br&gt;95% CIs: &lt;span style='color: white; background-color: #8E549E';&gt;1.53 &lt;--&gt; 1.55&lt;/span&gt;" style="fill: rgb(142, 84, 158); -webkit-user-select: auto;"/><line x1="185.28000000000003" y1="310" x2="185.28000000000003" y2="50" style="stroke: rgb(50, 174, 236); stroke-width: 1.4; stroke-dasharray: 5, 5; -webkit-user-select: auto;"/><rect x="183.40000000000003" y="50" width="3.7599999999999625" height="260" data-tippy-content="Peak: &lt;span style='color: #EA7500;'&gt;1.12&lt;/span&gt;&lt;br&gt;95% CIs: &lt;span style='color: undefined; background-color: undefined';&gt;1.10 &lt;--&gt; 1.14&lt;/span&gt;" style="fill: rgb(50, 174, 236); fill-opacity: 0.2; -webkit-user-select: auto;"/><line x1="221.94" y1="310" x2="221.94" y2="50" style="stroke: rgb(226, 174, 121); stroke-width: 1.4; stroke-dasharray: 5, 5; -webkit-user-select: auto;"/><rect x="220.06" y="50" width="2.819999999999993" height="260" data-tippy-content="Peak: &lt;span style='color: #D2352C;'&gt;1.51&lt;/span&gt;&lt;br&gt;95% CIs: &lt;span style='color: undefined; background-color: undefined';&gt;1.49 &lt;--&gt; 1.52&lt;/span&gt;" style="fill: rgb(226, 174, 121); fill-opacity: 0.2; -webkit-user-select: auto;"/><line x1="224.76" y1="310" x2="224.76" y2="50" style="stroke: rgb(142, 84, 158); stroke-width: 1.4; stroke-dasharray: 5, 5; -webkit-user-select: auto;"/><rect x="223.82" y="50" width="1.8799999999999955" height="260" data-tippy-content="Peak: &lt;span style='color: #394A92;'&gt;1.54&lt;/span&gt;&lt;br&gt;95% CIs: &lt;span style='color: undefined; background-color: undefined';&gt;1.53 &lt;--&gt; 1.55&lt;/span&gt;" style="fill: rgb(142, 84, 158); fill-opacity: 0.2; -webkit-user-select: auto;"/><g class="legend" transform="translate(400, 20)" style="-webkit-user-select: auto;"><g class="legend-item" transform="translate(0, 0)" style="-webkit-user-select: auto;"><rect x="0" y="0" width="10" height="10" fill="#32AEEC" fill-opacity="0.5" style="-webkit-user-select: auto;"/><text x="20" y="10" font-family="sans-serif" font-size="12px" fill="#333" style="-webkit-user-select: auto;">Asparagus_Elaeis</text></g><g class="legend-item" transform="translate(0, 20)" style="-webkit-user-select: auto;"><rect x="0" y="0" width="10" height="10" fill="#E2AE79" fill-opacity="0.5" style="-webkit-user-select: auto;"/><text x="20" y="10" font-family="sans-serif" font-size="12px" fill="#333" style="-webkit-user-select: auto;">Elaeis_Oryza</text></g><g class="legend-item" transform="translate(0, 40)" style="-webkit-user-select: auto;"><rect x="0" y="0" width="10" height="10" fill="#8E549E" fill-opacity="0.5" style="-webkit-user-select: auto;"/><text x="20" y="10" font-family="sans-serif" font-size="12px" fill="#333" style="-webkit-user-select: auto;">Elaeis_Vitis</text></g></g><g class="figureTitle" style="-webkit-user-select: auto;"><text y="10" x="225" text-anchor="middle" font-size="14px" font-family="times" style="-webkit-user-select: auto;"><tspan font-weight="bold" font-family="times" fill="#9B3A4D" style="-webkit-user-select: auto;">Orthologous <tspan font-style="italic" style="-webkit-user-select: auto;">K<tspan baseline-shift="sub" dy="-5px" style="-webkit-user-select: auto;">s<tspan font-weight="normal" font-style="normal" dy="5px" style="-webkit-user-select: auto;"> Distribution Plot</tspan></tspan></tspan></tspan></text></g></svg>