<svg xmlns="http://www.w3.org/2000/svg" width="600" height="350" style="-webkit-user-select: auto;"><g class="axis axis--x" transform="translate(0, 310)" fill="none" font-size="12px" font-family="calibri" text-anchor="middle" style="-webkit-user-select: auto;"><path class="domain" stroke="currentColor" d="M80,6V0H550V6" style="-webkit-user-select: auto;"/><g class="tick" opacity="1" transform="translate(80,0)" style="-webkit-user-select: auto;"><line stroke="currentColor" y2="6" style="-webkit-user-select: auto;"/><text fill="currentColor" y="9" dy="0.71em" style="-webkit-user-select: auto;">0</text></g><g class="tick" opacity="1" transform="translate(174,0)" style="-webkit-user-select: auto;"><line stroke="currentColor" y2="6" style="-webkit-user-select: auto;"/><text fill="currentColor" y="9" dy="0.71em" style="-webkit-user-select: auto;">1</text></g><g class="tick" opacity="1" transform="translate(268,0)" style="-webkit-user-select: auto;"><line stroke="currentColor" y2="6" style="-webkit-user-select: auto;"/><text fill="currentColor" y="9" dy="0.71em" style="-webkit-user-select: auto;">2</text></g><g class="tick" opacity="1" transform="translate(362,0)" style="-webkit-user-select: auto;"><line stroke="currentColor" y2="6" style="-webkit-user-select: auto;"/><text fill="currentColor" y="9" dy="0.71em" style="-webkit-user-select: auto;">3</text></g><g class="tick" opacity="1" transform="translate(456,0)" style="-webkit-user-select: auto;"><line stroke="currentColor" y2="6" style="-webkit-user-select: auto;"/><text fill="currentColor" y="9" dy="0.71em" style="-webkit-user-select: auto;">4</text></g><g class="tick" opacity="1" transform="translate(550,0)" style="-webkit-user-select: auto;"><line stroke="currentColor" y2="6" style="-webkit-user-select: auto;"/><text fill="currentColor" y="9" dy="0.71em" style="-webkit-user-select: auto;">5</text></g></g><g class="xTitle" style="-webkit-user-select: auto;"><text x="325" y="340" text-anchor="middle" style="-webkit-user-select: auto;"><tspan font-family="times" style="font-size: 14px; -webkit-user-select: auto;"><tspan style="font-style: italic; -webkit-user-select: auto;">K</tspan><tspan dx="1px" dy="2px" style="font-size: 12px; -webkit-user-select: auto;">s</tspan></tspan></text></g><g class="axis axis--y2" transform="translate(75, 0)" fill="none" font-size="12px" font-family="calibri" text-anchor="end" style="-webkit-user-select: auto;"><path class="domain" stroke="currentColor" d="M-6,310H0V50H-6" style="-webkit-user-select: auto;"/><g class="tick" opacity="1" transform="translate(0,310)" style="-webkit-user-select: auto;"><line stroke="currentColor" x2="-6" style="-webkit-user-select: auto;"/><text fill="currentColor" x="-9" dy="0.32em" style="-webkit-user-select: auto;">0.0</text></g><g class="tick" opacity="1" transform="translate(0,284)" style="-webkit-user-select: auto;"><line stroke="currentColor" x2="-6" style="-webkit-user-select: auto;"/><text fill="currentColor" x="-9" dy="0.32em" style="-webkit-user-select: auto;">0.2</text></g><g class="tick" opacity="1" transform="translate(0,258)" style="-webkit-user-select: auto;"><line stroke="currentColor" x2="-6" style="-webkit-user-select: auto;"/><text fill="currentColor" x="-9" dy="0.32em" style="-webkit-user-select: auto;">0.4</text></g><g class="tick" opacity="1" transform="translate(0,232)" style="-webkit-user-select: auto;"><line stroke="currentColor" x2="-6" style="-webkit-user-select: auto;"/><text fill="currentColor" x="-9" dy="0.32em" style="-webkit-user-select: auto;">0.6</text></g><g class="tick" opacity="1" transform="translate(0,206)" style="-webkit-user-select: auto;"><line stroke="currentColor" x2="-6" style="-webkit-user-select: auto;"/><text fill="currentColor" x="-9" dy="0.32em" style="-webkit-user-select: auto;">0.8</text></g><g class="tick" opacity="1" transform="translate(0,180)" style="-webkit-user-select: auto;"><line stroke="currentColor" x2="-6" style="-webkit-user-select: auto;"/><text fill="currentColor" x="-9" dy="0.32em" style="-webkit-user-select: auto;">1.0</text></g><g class="tick" opacity="1" transform="translate(0,153.99999999999997)" style="-webkit-user-select: auto;"><line stroke="currentColor" x2="-6" style="-webkit-user-select: auto;"/><text fill="currentColor" x="-9" dy="0.32em" style="-webkit-user-select: auto;">1.2</text></g><g class="tick" opacity="1" transform="translate(0,127.99999999999999)" style="-webkit-user-select: auto;"><line stroke="currentColor" x2="-6" style="-webkit-user-select: auto;"/><text fill="currentColor" x="-9" dy="0.32em" style="-webkit-user-select: auto;">1.4</text></g><g class="tick" opacity="1" transform="translate(0,101.99999999999999)" style="-webkit-user-select: auto;"><line stroke="currentColor" x2="-6" style="-webkit-user-select: auto;"/><text fill="currentColor" x="-9" dy="0.32em" style="-webkit-user-select: auto;">1.6</text></g><g class="tick" opacity="1" transform="translate(0,76)" style="-webkit-user-select: auto;"><line stroke="currentColor" x2="-6" style="-webkit-user-select: auto;"/><text fill="currentColor" x="-9" dy="0.32em" style="-webkit-user-select: auto;">1.8</text></g><g class="tick" opacity="1" transform="translate(0,50)" style="-webkit-user-select: auto;"><line stroke="currentColor" x2="-6" style="-webkit-user-select: auto;"/><text fill="currentColor" x="-9" dy="0.32em" style="-webkit-user-select: auto;">2.0</text></g></g><g class="y2Title" style="-webkit-user-select: auto;"><text y="180" x="30" text-anchor="middle" font-size="14px" font-family="times" transform="rotate(-90, 30, 180)" style="-webkit-user-select: auto;">Ortholog Density</text></g><path class="area path" d="M80,309.968L80.94,309.965L81.88,309.961L82.82,309.958L83.76,309.955L84.7,309.953L85.64,309.95L86.58,309.948L87.52,309.946L88.46,309.944L89.4,309.942L90.34,309.94L91.28,309.939L92.22,309.938L93.16,309.937L94.1,309.936L95.04,309.936L95.98,309.936L96.92,309.935L97.86,309.936L98.8,309.936L99.74,309.937L100.68,309.937L101.62,309.938L102.56,309.939L103.5,309.941L104.44,309.942L105.38,309.944L106.32,309.946L107.26,309.948L108.2,309.951L109.14,309.953L110.08,309.956L111.02,309.959L111.96,309.962L112.9,309.966L113.84,309.969L114.78,309.973L115.72,309.977L116.66,309.982L117.6,309.986L118.54,309.991L119.48,309.993L120.42,309.992L121.36,309.987L122.3,309.983L123.24,309.979L124.18,309.974L125.12,309.971L126.06,309.967L127,309.963L127.94,309.96L128.88,309.957L129.82,309.949L130.76,309.942L131.7,309.934L132.64,309.928L133.58,309.921L134.52,309.916L135.46,309.91L136.4,309.905L137.34,309.9L138.28,309.896L139.22,309.892L140.16,309.889L141.1,309.886L142.04,309.883L142.98,309.881L143.92,309.88L144.86,309.878L145.8,309.877L146.74,309.877L147.68,309.877L148.62,309.877L149.56,309.878L150.5,309.879L151.44,309.881L152.38,309.882L153.32,309.885L154.26,309.888L155.2,309.891L156.14,309.892L157.08,309.886L158.02,309.881L158.96,309.874L159.9,309.859L160.84,309.842L161.78,309.826L162.72,309.812L163.66,309.799L164.6,309.787L165.54,309.776L166.48,309.754L167.42,309.725L168.36,309.694L169.3,309.666L170.24,309.64L171.18,309.61L172.12,309.573L173.06,309.532L174,309.485L174.94,309.432L175.88,309.378L176.82,309.31L177.76,309.235L178.7,309.145L179.64,309.058L180.58,308.973L181.52,308.886L182.46,308.773L183.4,308.651L184.34,308.521L185.28,308.38L186.22,308.228L187.16,308.065L188.1,307.896L189.04,307.722L189.98,307.529L190.92,307.331L191.86,307.116L192.8,306.884L193.74,306.648L194.68,306.405L195.62,306.138L196.56,305.847L197.5,305.546L198.44,305.232L199.38,304.908L200.32,304.575L201.26,304.247L202.2,303.911L203.14,303.562L204.08,303.178L205.02,302.76L205.96,302.308L206.9,301.849L207.84,301.369L208.78,300.888L209.72,300.402L210.66,299.908L211.6,299.401L212.54,298.884L213.48,298.338L214.42,297.75L215.36,297.117L216.3,296.466L217.24,295.805L218.18,295.106L219.12,294.391L220.06,293.665L221,292.9L221.94,292.082L222.88,291.244L223.82,290.393L224.76,289.542L225.7,288.654L226.64,287.764L227.58,286.872L228.52,285.948L229.46,284.983L230.4,283.998L231.34,283.007L232.28,281.988L233.22,280.959L234.16,279.916L235.1,278.876L236.04,277.821L236.98,276.757L237.92,275.694L238.86,274.669L239.8,273.662L240.74,272.674L241.68,271.693L242.62,270.697L243.56,269.681L244.5,268.64L245.44,267.593L246.38,266.539L247.32,265.504L248.26,264.502L249.2,263.511L250.14,262.531L251.08,261.581L252.02,260.664L252.96,259.765L253.9,258.886L254.84,258.032L255.78,257.226L256.72,256.379L257.66,255.573L258.6,254.846L259.54,254.123L260.48,253.417L261.42,252.734L262.36,252.031L263.3,251.34L264.24,250.682L265.18,250.037L266.12,249.424L267.06,248.8L268,248.16L268.94,247.544L269.88,246.953L270.82,246.409L271.76,245.949L272.7,245.508L273.64,245.108L274.58,244.761L275.52,244.412L276.46,244.094L277.4,243.833L278.34,243.62L279.28,243.42L280.22,243.267L281.16,243.124L282.1,242.985L283.04,242.879L283.98,242.759L284.92,242.62L285.86,242.514L286.8,242.463L287.74,242.414L288.68,242.373L289.62,242.372L290.56,242.401L291.5,242.421L292.44,242.454L293.38,242.54L294.32,242.628L295.26,242.739L296.2,242.84L297.14,242.908L298.08,243L299.02,243.175L299.96,243.396L300.9,243.592L301.84,243.82L302.78,244.045L303.72,244.179L304.66,244.315L305.6,244.504L306.54,244.68L307.48,244.879L308.42,245.126L309.36,245.327L310.3,245.531L311.24,245.778L312.18,246.074L313.12,246.357L314.06,246.579L315,246.793L315.94,247.027L316.88,247.275L317.82,247.536L318.76,247.84L319.7,248.127L320.64,248.404L321.58,248.702L322.52,248.992L323.46,249.322L324.4,249.708L325.34,250.102L326.28,250.515L327.22,250.944L328.16,251.36L329.1,251.761L330.04,252.217L330.98,252.65L331.92,253.068L332.86,253.46L333.8,253.88L334.74,254.315L335.68,254.743L336.62,255.219L337.56,255.738L338.5,256.254L339.44,256.789L340.38,257.343L341.32,257.823L342.26,258.302L343.2,258.738L344.14,259.13L345.08,259.502L346.02,259.884L346.96,260.272L347.9,260.625L348.84,260.996L349.78,261.353L350.72,261.671L351.66,261.958L352.6,262.232L353.54,262.502L354.48,262.765L355.42,263.053L356.36,263.31L357.3,263.584L358.24,263.886L359.18,264.243L360.12,264.567L361.06,264.871L362,265.202L362.94,265.52L363.88,265.83L364.82,266.146L365.76,266.494L366.7,266.811L367.64,267.116L368.58,267.409L369.52,267.681L370.46,267.958L371.4,268.237L372.34,268.482L373.28,268.705L374.22,268.899L375.16,269.055L376.1,269.239L377.04,269.437L377.98,269.618L378.92,269.826L379.86,270.04L380.8,270.273L381.74,270.561L382.68,270.856L383.62,271.183L384.56,271.551L385.5,271.911L386.44,272.311L387.38,272.673L388.32,273.017L389.26,273.353L390.2,273.664L391.14,273.984L392.08,274.29L393.02,274.572L393.96,274.85L394.9,275.117L395.84,275.401L396.78,275.689L397.72,275.977L398.66,276.273L399.6,276.574L400.54,276.878L401.48,277.159L402.42,277.443L403.36,277.721L404.3,277.993L405.24,278.255L406.18,278.568L407.12,278.858L408.06,279.155L409,279.465L409.94,279.796L410.88,280.135L411.82,280.487L412.76,280.862L413.7,281.232L414.64,281.633L415.58,282.008L416.52,282.373L417.46,282.706L418.4,283.014L419.34,283.285L420.28,283.546L421.22,283.792L422.16,284.014L423.1,284.27L424.04,284.534L424.98,284.781L425.92,285.032L426.86,285.242L427.8,285.413L428.74,285.57L429.68,285.695L430.62,285.82L431.56,285.947L432.5,286.053L433.44,286.161L434.38,286.252L435.32,286.381L436.26,286.513L437.2,286.633L438.14,286.748L439.08,286.826L440.02,286.882L440.96,286.93L441.9,286.966L442.84,287.004L443.78,287.03L444.72,287.037L445.66,287.069L446.6,287.11L447.54,287.183L448.48,287.269L449.42,287.354L450.36,287.431L451.3,287.478L452.24,287.52L453.18,287.597L454.12,287.669L455.06,287.769L456,287.881L456.94,288.029L457.88,288.195L458.82,288.351L459.76,288.524L460.7,288.725L461.64,288.957L462.58,289.181L463.52,289.417L464.46,289.632L465.4,289.834L466.34,290.02L467.28,290.229L468.22,290.448L469.16,290.685L470.1,290.924L471.04,291.164L471.98,291.416L472.92,291.691L473.86,291.943L474.8,292.184L475.74,292.411L476.68,292.629L477.62,292.862L478.56,293.091L479.5,293.305L480.44,293.498L481.38,293.692L482.32,293.892L483.26,294.093L484.2,294.275L485.14,294.44L486.08,294.58L487.02,294.703L487.96,294.824L488.9,294.942L489.84,295.028L490.78,295.104L491.72,295.154L492.66,295.2L493.6,295.258L494.54,295.354L495.48,295.454L496.42,295.539L497.36,295.617L498.3,295.658L499.24,295.692L500.18,295.723L501.12,295.75L502.06,295.794L503,295.852L503.94,295.905L504.88,295.922L505.82,295.909L506.76,295.906L507.7,295.926L508.64,295.951L509.58,295.977L510.52,296.015L511.46,296.038L512.4,296.063L513.34,296.081L514.28,296.119L515.22,296.164L516.16,296.237L517.1,296.293L518.04,296.334L518.98,296.36L519.92,296.415L520.86,296.478L521.8,296.55L522.74,296.603L523.68,296.667L524.62,296.746L525.56,296.827L526.5,296.863L527.44,296.898L528.38,296.963L529.32,297.054L530.26,297.163L531.2,297.289L532.14,297.44L533.08,297.611L534.02,297.807L534.96,298.036L535.9,298.292L536.84,298.549L537.78,298.817L538.72,299.103L539.66,299.401L540.6,299.724L541.54,300.082L542.48,300.448L543.42,300.82L544.36,301.199L545.3,301.561L546.24,301.925L547.18,302.293L548.12,302.669L549.06,303.05L550,303.444L550,310L549.06,310L548.12,310L547.18,310L546.24,310L545.3,310L544.36,310L543.42,310L542.48,310L541.54,310L540.6,310L539.66,310L538.72,310L537.78,310L536.84,310L535.9,310L534.96,310L534.02,310L533.08,310L532.14,310L531.2,310L530.26,310L529.32,310L528.38,310L527.44,310L526.5,310L525.56,310L524.62,310L523.68,310L522.74,310L521.8,310L520.86,310L519.92,310L518.98,310L518.04,310L517.1,310L516.16,310L515.22,310L514.28,310L513.34,310L512.4,310L511.46,310L510.52,310L509.58,310L508.64,310L507.7,310L506.76,310L505.82,310L504.88,310L503.94,310L503,310L502.06,310L501.12,310L500.18,310L499.24,310L498.3,310L497.36,310L496.42,310L495.48,310L494.54,310L493.6,310L492.66,310L491.72,310L490.78,310L489.84,310L488.9,310L487.96,310L487.02,310L486.08,310L485.14,310L484.2,310L483.26,310L482.32,310L481.38,310L480.44,310L479.5,310L478.56,310L477.62,310L476.68,310L475.74,310L474.8,310L473.86,310L472.92,310L471.98,310L471.04,310L470.1,310L469.16,310L468.22,310L467.28,310L466.34,310L465.4,310L464.46,310L463.52,310L462.58,310L461.64,310L460.7,310L459.76,310L458.82,310L457.88,310L456.94,310L456,310L455.06,310L454.12,310L453.18,310L452.24,310L451.3,310L450.36,310L449.42,310L448.48,310L447.54,310L446.6,310L445.66,310L444.72,310L443.78,310L442.84,310L441.9,310L440.96,310L440.02,310L439.08,310L438.14,310L437.2,310L436.26,310L435.32,310L434.38,310L433.44,310L432.5,310L431.56,310L430.62,310L429.68,310L428.74,310L427.8,310L426.86,310L425.92,310L424.98,310L424.04,310L423.1,310L422.16,310L421.22,310L420.28,310L419.34,310L418.4,310L417.46,310L416.52,310L415.58,310L414.64,310L413.7,310L412.76,310L411.82,310L410.88,310L409.94,310L409,310L408.06,310L407.12,310L406.18,310L405.24,310L404.3,310L403.36,310L402.42,310L401.48,310L400.54,310L399.6,310L398.66,310L397.72,310L396.78,310L395.84,310L394.9,310L393.96,310L393.02,310L392.08,310L391.14,310L390.2,310L389.26,310L388.32,310L387.38,310L386.44,310L385.5,310L384.56,310L383.62,310L382.68,310L381.74,310L380.8,310L379.86,310L378.92,310L377.98,310L377.04,310L376.1,310L375.16,310L374.22,310L373.28,310L372.34,310L371.4,310L370.46,310L369.52,310L368.58,310L367.64,310L366.7,310L365.76,310L364.82,310L363.88,310L362.94,310L362,310L361.06,310L360.12,310L359.18,310L358.24,310L357.3,310L356.36,310L355.42,310L354.48,310L353.54,310L352.6,310L351.66,310L350.72,310L349.78,310L348.84,310L347.9,310L346.96,310L346.02,310L345.08,310L344.14,310L343.2,310L342.26,310L341.32,310L340.38,310L339.44,310L338.5,310L337.56,310L336.62,310L335.68,310L334.74,310L333.8,310L332.86,310L331.92,310L330.98,310L330.04,310L329.1,310L328.16,310L327.22,310L326.28,310L325.34,310L324.4,310L323.46,310L322.52,310L321.58,310L320.64,310L319.7,310L318.76,310L317.82,310L316.88,310L315.94,310L315,310L314.06,310L313.12,310L312.18,310L311.24,310L310.3,310L309.36,310L308.42,310L307.48,310L306.54,310L305.6,310L304.66,310L303.72,310L302.78,310L301.84,310L300.9,310L299.96,310L299.02,310L298.08,310L297.14,310L296.2,310L295.26,310L294.32,310L293.38,310L292.44,310L291.5,310L290.56,310L289.62,310L288.68,310L287.74,310L286.8,310L285.86,310L284.92,310L283.98,310L283.04,310L282.1,310L281.16,310L280.22,310L279.28,310L278.34,310L277.4,310L276.46,310L275.52,310L274.58,310L273.64,310L272.7,310L271.76,310L270.82,310L269.88,310L268.94,310L268,310L267.06,310L266.12,310L265.18,310L264.24,310L263.3,310L262.36,310L261.42,310L260.48,310L259.54,310L258.6,310L257.66,310L256.72,310L255.78,310L254.84,310L253.9,310L252.96,310L252.02,310L251.08,310L250.14,310L249.2,310L248.26,310L247.32,310L246.38,310L245.44,310L244.5,310L243.56,310L242.62,310L241.68,310L240.74,310L239.8,310L238.86,310L237.92,310L236.98,310L236.04,310L235.1,310L234.16,310L233.22,310L232.28,310L231.34,310L230.4,310L229.46,310L228.52,310L227.58,310L226.64,310L225.7,310L224.76,310L223.82,310L222.88,310L221.94,310L221,310L220.06,310L219.12,310L218.18,310L217.24,310L216.3,310L215.36,310L214.42,310L213.48,310L212.54,310L211.6,310L210.66,310L209.72,310L208.78,310L207.84,310L206.9,310L205.96,310L205.02,310L204.08,310L203.14,310L202.2,310L201.26,310L200.32,310L199.38,310L198.44,310L197.5,310L196.56,310L195.62,310L194.68,310L193.74,310L192.8,310L191.86,310L190.92,310L189.98,310L189.04,310L188.1,310L187.16,310L186.22,310L185.28,310L184.34,310L183.4,310L182.46,310L181.52,310L180.58,310L179.64,310L178.7,310L177.76,310L176.82,310L175.88,310L174.94,310L174,310L173.06,310L172.12,310L171.18,310L170.24,310L169.3,310L168.36,310L167.42,310L166.48,310L165.54,310L164.6,310L163.66,310L162.72,310L161.78,310L160.84,310L159.9,310L158.96,310L158.02,310L157.08,310L156.14,310L155.2,310L154.26,310L153.32,310L152.38,310L151.44,310L150.5,310L149.56,310L148.62,310L147.68,310L146.74,310L145.8,310L144.86,310L143.92,310L142.98,310L142.04,310L141.1,310L140.16,310L139.22,310L138.28,310L137.34,310L136.4,310L135.46,310L134.52,310L133.58,310L132.64,310L131.7,310L130.76,310L129.82,310L128.88,310L127.94,310L127,310L126.06,310L125.12,310L124.18,310L123.24,310L122.3,310L121.36,310L120.42,310L119.48,310L118.54,310L117.6,310L116.66,310L115.72,310L114.78,310L113.84,310L112.9,310L111.96,310L111.02,310L110.08,310L109.14,310L108.2,310L107.26,310L106.32,310L105.38,310L104.44,310L103.5,310L102.56,310L101.62,310L100.68,310L99.74,310L98.8,310L97.86,310L96.92,310L95.98,310L95.04,310L94.1,310L93.16,310L92.22,310L91.28,310L90.34,310L89.4,310L88.46,310L87.52,310L86.58,310L85.64,310L84.7,310L83.76,310L82.82,310L81.88,310L80.94,310L80,310Z" fill-opacity="0.5" data-tippy-content="&lt;span style='color: white; background-color: #9B3A4D;'&gt;Vitis_Zostera.ks&lt;/span&gt; &lt;br&gt; Peak: &lt;span style='color: red;'&gt;2.23&lt;/span&gt; (Density: &lt;span style='color: #9B3A4D;'&gt;0.52&lt;/span&gt;)&lt;br&gt;95% CIs: &lt;span style='color: white; background-color: #9B3A4D';&gt;2.21 &lt;--&gt; 2.24&lt;/span&gt;" style="fill: rgb(155, 58, 77); -webkit-user-select: auto;"/><path class="area path" d="M80,309.744L80.94,309.71L81.88,309.672L82.82,309.635L83.76,309.598L84.7,309.563L85.64,309.53L86.58,309.5L87.52,309.472L88.46,309.446L89.4,309.418L90.34,309.392L91.28,309.361L92.22,309.332L93.16,309.306L94.1,309.282L95.04,309.256L95.98,309.23L96.92,309.203L97.86,309.179L98.8,309.159L99.74,309.14L100.68,309.122L101.62,309.108L102.56,309.097L103.5,309.09L104.44,309.086L105.38,309.086L106.32,309.089L107.26,309.096L108.2,309.106L109.14,309.12L110.08,309.137L111.02,309.156L111.96,309.176L112.9,309.2L113.84,309.225L114.78,309.251L115.72,309.273L116.66,309.296L117.6,309.32L118.54,309.349L119.48,309.38L120.42,309.409L121.36,309.438L122.3,309.462L123.24,309.48L124.18,309.493L125.12,309.504L126.06,309.513L127,309.517L127.94,309.523L128.88,309.527L129.82,309.531L130.76,309.535L131.7,309.534L132.64,309.534L133.58,309.537L134.52,309.543L135.46,309.551L136.4,309.549L137.34,309.549L138.28,309.543L139.22,309.537L140.16,309.529L141.1,309.522L142.04,309.507L142.98,309.488L143.92,309.459L144.86,309.428L145.8,309.397L146.74,309.364L147.68,309.331L148.62,309.301L149.56,309.272L150.5,309.245L151.44,309.217L152.38,309.185L153.32,309.146L154.26,309.099L155.2,309.054L156.14,309.001L157.08,308.943L158.02,308.883L158.96,308.816L159.9,308.742L160.84,308.668L161.78,308.595L162.72,308.516L163.66,308.429L164.6,308.34L165.54,308.244L166.48,308.146L167.42,308.053L168.36,307.951L169.3,307.837L170.24,307.71L171.18,307.569L172.12,307.415L173.06,307.245L174,307.048L174.94,306.824L175.88,306.569L176.82,306.292L177.76,305.98L178.7,305.629L179.64,305.254L180.58,304.872L181.52,304.482L182.46,304.086L183.4,303.674L184.34,303.232L185.28,302.769L186.22,302.278L187.16,301.729L188.1,301.118L189.04,300.467L189.98,299.776L190.92,299.053L191.86,298.309L192.8,297.53L193.74,296.711L194.68,295.862L195.62,294.992L196.56,294.094L197.5,293.161L198.44,292.197L199.38,291.184L200.32,290.139L201.26,289.054L202.2,287.974L203.14,286.825L204.08,285.654L205.02,284.448L205.96,283.214L206.9,281.919L207.84,280.563L208.78,279.173L209.72,277.798L210.66,276.413L211.6,275.038L212.54,273.7L213.48,272.396L214.42,271.115L215.36,269.795L216.3,268.452L217.24,267.115L218.18,265.751L219.12,264.397L220.06,263.042L221,261.665L221.94,260.262L222.88,258.823L223.82,257.401L224.76,255.975L225.7,254.531L226.64,253.124L227.58,251.761L228.52,250.386L229.46,249.023L230.4,247.721L231.34,246.434L232.28,245.187L233.22,243.972L234.16,242.77L235.1,241.599L236.04,240.504L236.98,239.476L237.92,238.49L238.86,237.577L239.8,236.717L240.74,235.874L241.68,235.042L242.62,234.258L243.56,233.526L244.5,232.877L245.44,232.292L246.38,231.732L247.32,231.217L248.26,230.781L249.2,230.43L250.14,230.12L251.08,229.869L252.02,229.67L252.96,229.527L253.9,229.409L254.84,229.304L255.78,229.238L256.72,229.246L257.66,229.285L258.6,229.376L259.54,229.568L260.48,229.857L261.42,230.188L262.36,230.499L263.3,230.809L264.24,231.16L265.18,231.5L266.12,231.885L267.06,232.331L268,232.794L268.94,233.226L269.88,233.661L270.82,234.113L271.76,234.61L272.7,235.114L273.64,235.619L274.58,236.109L275.52,236.557L276.46,236.985L277.4,237.446L278.34,237.911L279.28,238.391L280.22,238.887L281.16,239.386L282.1,239.908L283.04,240.478L283.98,241.103L284.92,241.708L285.86,242.343L286.8,242.977L287.74,243.58L288.68,244.137L289.62,244.687L290.56,245.238L291.5,245.825L292.44,246.425L293.38,247.003L294.32,247.566L295.26,248.122L296.2,248.656L297.14,249.204L298.08,249.727L299.02,250.278L299.96,250.849L300.9,251.431L301.84,252.001L302.78,252.575L303.72,253.139L304.66,253.663L305.6,254.158L306.54,254.653L307.48,255.125L308.42,255.568L309.36,255.988L310.3,256.387L311.24,256.805L312.18,257.207L313.12,257.601L314.06,258.035L315,258.47L315.94,258.881L316.88,259.32L317.82,259.772L318.76,260.241L319.7,260.719L320.64,261.151L321.58,261.528L322.52,261.903L323.46,262.256L324.4,262.62L325.34,262.994L326.28,263.359L327.22,263.767L328.16,264.18L329.1,264.57L330.04,264.97L330.98,265.403L331.92,265.83L332.86,266.283L333.8,266.723L334.74,267.189L335.68,267.655L336.62,268.137L337.56,268.626L338.5,269.136L339.44,269.67L340.38,270.184L341.32,270.674L342.26,271.117L343.2,271.542L344.14,271.949L345.08,272.344L346.02,272.753L346.96,273.166L347.9,273.596L348.84,274.011L349.78,274.407L350.72,274.798L351.66,275.146L352.6,275.46L353.54,275.797L354.48,276.101L355.42,276.402L356.36,276.701L357.3,277.001L358.24,277.302L359.18,277.642L360.12,277.985L361.06,278.328L362,278.672L362.94,279.04L363.88,279.417L364.82,279.822L365.76,280.227L366.7,280.655L367.64,281.069L368.58,281.467L369.52,281.87L370.46,282.24L371.4,282.607L372.34,282.971L373.28,283.318L374.22,283.691L375.16,284.075L376.1,284.424L377.04,284.76L377.98,285.083L378.92,285.399L379.86,285.726L380.8,286.051L381.74,286.395L382.68,286.732L383.62,287.059L384.56,287.38L385.5,287.696L386.44,288.028L387.38,288.354L388.32,288.621L389.26,288.838L390.2,289.036L391.14,289.193L392.08,289.323L393.02,289.417L393.96,289.509L394.9,289.611L395.84,289.72L396.78,289.819L397.72,289.913L398.66,289.994L399.6,290.044L400.54,290.108L401.48,290.163L402.42,290.227L403.36,290.28L404.3,290.323L405.24,290.335L406.18,290.367L407.12,290.411L408.06,290.444L409,290.456L409.94,290.483L410.88,290.5L411.82,290.534L412.76,290.577L413.7,290.626L414.64,290.673L415.58,290.733L416.52,290.814L417.46,290.899L418.4,290.983L419.34,291.084L420.28,291.176L421.22,291.28L422.16,291.403L423.1,291.53L424.04,291.666L424.98,291.796L425.92,291.929L426.86,292.077L427.8,292.252L428.74,292.445L429.68,292.65L430.62,292.859L431.56,293.082L432.5,293.293L433.44,293.502L434.38,293.732L435.32,293.935L436.26,294.12L437.2,294.274L438.14,294.418L439.08,294.533L440.02,294.623L440.96,294.731L441.9,294.86L442.84,294.986L443.78,295.125L444.72,295.251L445.66,295.398L446.6,295.539L447.54,295.669L448.48,295.786L449.42,295.899L450.36,296.023L451.3,296.147L452.24,296.273L453.18,296.392L454.12,296.496L455.06,296.598L456,296.673L456.94,296.731L457.88,296.788L458.82,296.859L459.76,296.928L460.7,296.959L461.64,296.985L462.58,297.018L463.52,297.079L464.46,297.151L465.4,297.226L466.34,297.309L467.28,297.387L468.22,297.461L469.16,297.529L470.1,297.606L471.04,297.692L471.98,297.771L472.92,297.845L473.86,297.916L474.8,297.989L475.74,298.085L476.68,298.183L477.62,298.302L478.56,298.436L479.5,298.564L480.44,298.686L481.38,298.805L482.32,298.909L483.26,299.021L484.2,299.117L485.14,299.223L486.08,299.322L487.02,299.424L487.96,299.522L488.9,299.629L489.84,299.704L490.78,299.779L491.72,299.852L492.66,299.922L493.6,299.999L494.54,300.053L495.48,300.108L496.42,300.167L497.36,300.231L498.3,300.296L499.24,300.368L500.18,300.45L501.12,300.527L502.06,300.614L503,300.706L503.94,300.785L504.88,300.864L505.82,300.938L506.76,301.001L507.7,301.047L508.64,301.094L509.58,301.13L510.52,301.17L511.46,301.213L512.4,301.244L513.34,301.28L514.28,301.323L515.22,301.36L516.16,301.393L517.1,301.425L518.04,301.458L518.98,301.476L519.92,301.467L520.86,301.44L521.8,301.394L522.74,301.336L523.68,301.263L524.62,301.197L525.56,301.136L526.5,301.078L527.44,301.032L528.38,301.003L529.32,300.985L530.26,300.994L531.2,301.03L532.14,301.085L533.08,301.159L534.02,301.255L534.96,301.366L535.9,301.493L536.84,301.618L537.78,301.754L538.72,301.907L539.66,302.07L540.6,302.253L541.54,302.425L542.48,302.612L543.42,302.823L544.36,303.036L545.3,303.255L546.24,303.481L547.18,303.727L548.12,303.99L549.06,304.269L550,304.559L550,310L549.06,310L548.12,310L547.18,310L546.24,310L545.3,310L544.36,310L543.42,310L542.48,310L541.54,310L540.6,310L539.66,310L538.72,310L537.78,310L536.84,310L535.9,310L534.96,310L534.02,310L533.08,310L532.14,310L531.2,310L530.26,310L529.32,310L528.38,310L527.44,310L526.5,310L525.56,310L524.62,310L523.68,310L522.74,310L521.8,310L520.86,310L519.92,310L518.98,310L518.04,310L517.1,310L516.16,310L515.22,310L514.28,310L513.34,310L512.4,310L511.46,310L510.52,310L509.58,310L508.64,310L507.7,310L506.76,310L505.82,310L504.88,310L503.94,310L503,310L502.06,310L501.12,310L500.18,310L499.24,310L498.3,310L497.36,310L496.42,310L495.48,310L494.54,310L493.6,310L492.66,310L491.72,310L490.78,310L489.84,310L488.9,310L487.96,310L487.02,310L486.08,310L485.14,310L484.2,310L483.26,310L482.32,310L481.38,310L480.44,310L479.5,310L478.56,310L477.62,310L476.68,310L475.74,310L474.8,310L473.86,310L472.92,310L471.98,310L471.04,310L470.1,310L469.16,310L468.22,310L467.28,310L466.34,310L465.4,310L464.46,310L463.52,310L462.58,310L461.64,310L460.7,310L459.76,310L458.82,310L457.88,310L456.94,310L456,310L455.06,310L454.12,310L453.18,310L452.24,310L451.3,310L450.36,310L449.42,310L448.48,310L447.54,310L446.6,310L445.66,310L444.72,310L443.78,310L442.84,310L441.9,310L440.96,310L440.02,310L439.08,310L438.14,310L437.2,310L436.26,310L435.32,310L434.38,310L433.44,310L432.5,310L431.56,310L430.62,310L429.68,310L428.74,310L427.8,310L426.86,310L425.92,310L424.98,310L424.04,310L423.1,310L422.16,310L421.22,310L420.28,310L419.34,310L418.4,310L417.46,310L416.52,310L415.58,310L414.64,310L413.7,310L412.76,310L411.82,310L410.88,310L409.94,310L409,310L408.06,310L407.12,310L406.18,310L405.24,310L404.3,310L403.36,310L402.42,310L401.48,310L400.54,310L399.6,310L398.66,310L397.72,310L396.78,310L395.84,310L394.9,310L393.96,310L393.02,310L392.08,310L391.14,310L390.2,310L389.26,310L388.32,310L387.38,310L386.44,310L385.5,310L384.56,310L383.62,310L382.68,310L381.74,310L380.8,310L379.86,310L378.92,310L377.98,310L377.04,310L376.1,310L375.16,310L374.22,310L373.28,310L372.34,310L371.4,310L370.46,310L369.52,310L368.58,310L367.64,310L366.7,310L365.76,310L364.82,310L363.88,310L362.94,310L362,310L361.06,310L360.12,310L359.18,310L358.24,310L357.3,310L356.36,310L355.42,310L354.48,310L353.54,310L352.6,310L351.66,310L350.72,310L349.78,310L348.84,310L347.9,310L346.96,310L346.02,310L345.08,310L344.14,310L343.2,310L342.26,310L341.32,310L340.38,310L339.44,310L338.5,310L337.56,310L336.62,310L335.68,310L334.74,310L333.8,310L332.86,310L331.92,310L330.98,310L330.04,310L329.1,310L328.16,310L327.22,310L326.28,310L325.34,310L324.4,310L323.46,310L322.52,310L321.58,310L320.64,310L319.7,310L318.76,310L317.82,310L316.88,310L315.94,310L315,310L314.06,310L313.12,310L312.18,310L311.24,310L310.3,310L309.36,310L308.42,310L307.48,310L306.54,310L305.6,310L304.66,310L303.72,310L302.78,310L301.84,310L300.9,310L299.96,310L299.02,310L298.08,310L297.14,310L296.2,310L295.26,310L294.32,310L293.38,310L292.44,310L291.5,310L290.56,310L289.62,310L288.68,310L287.74,310L286.8,310L285.86,310L284.92,310L283.98,310L283.04,310L282.1,310L281.16,310L280.22,310L279.28,310L278.34,310L277.4,310L276.46,310L275.52,310L274.58,310L273.64,310L272.7,310L271.76,310L270.82,310L269.88,310L268.94,310L268,310L267.06,310L266.12,310L265.18,310L264.24,310L263.3,310L262.36,310L261.42,310L260.48,310L259.54,310L258.6,310L257.66,310L256.72,310L255.78,310L254.84,310L253.9,310L252.96,310L252.02,310L251.08,310L250.14,310L249.2,310L248.26,310L247.32,310L246.38,310L245.44,310L244.5,310L243.56,310L242.62,310L241.68,310L240.74,310L239.8,310L238.86,310L237.92,310L236.98,310L236.04,310L235.1,310L234.16,310L233.22,310L232.28,310L231.34,310L230.4,310L229.46,310L228.52,310L227.58,310L226.64,310L225.7,310L224.76,310L223.82,310L222.88,310L221.94,310L221,310L220.06,310L219.12,310L218.18,310L217.24,310L216.3,310L215.36,310L214.42,310L213.48,310L212.54,310L211.6,310L210.66,310L209.72,310L208.78,310L207.84,310L206.9,310L205.96,310L205.02,310L204.08,310L203.14,310L202.2,310L201.26,310L200.32,310L199.38,310L198.44,310L197.5,310L196.56,310L195.62,310L194.68,310L193.74,310L192.8,310L191.86,310L190.92,310L189.98,310L189.04,310L188.1,310L187.16,310L186.22,310L185.28,310L184.34,310L183.4,310L182.46,310L181.52,310L180.58,310L179.64,310L178.7,310L177.76,310L176.82,310L175.88,310L174.94,310L174,310L173.06,310L172.12,310L171.18,310L170.24,310L169.3,310L168.36,310L167.42,310L166.48,310L165.54,310L164.6,310L163.66,310L162.72,310L161.78,310L160.84,310L159.9,310L158.96,310L158.02,310L157.08,310L156.14,310L155.2,310L154.26,310L153.32,310L152.38,310L151.44,310L150.5,310L149.56,310L148.62,310L147.68,310L146.74,310L145.8,310L144.86,310L143.92,310L142.98,310L142.04,310L141.1,310L140.16,310L139.22,310L138.28,310L137.34,310L136.4,310L135.46,310L134.52,310L133.58,310L132.64,310L131.7,310L130.76,310L129.82,310L128.88,310L127.94,310L127,310L126.06,310L125.12,310L124.18,310L123.24,310L122.3,310L121.36,310L120.42,310L119.48,310L118.54,310L117.6,310L116.66,310L115.72,310L114.78,310L113.84,310L112.9,310L111.96,310L111.02,310L110.08,310L109.14,310L108.2,310L107.26,310L106.32,310L105.38,310L104.44,310L103.5,310L102.56,310L101.62,310L100.68,310L99.74,310L98.8,310L97.86,310L96.92,310L95.98,310L95.04,310L94.1,310L93.16,310L92.22,310L91.28,310L90.34,310L89.4,310L88.46,310L87.52,310L86.58,310L85.64,310L84.7,310L83.76,310L82.82,310L81.88,310L80.94,310L80,310Z" fill-opacity="0.5" data-tippy-content="&lt;span style='color: white; background-color: #32AEEC;'&gt;Ananas_Vitis.ks&lt;/span&gt; &lt;br&gt; Peak: &lt;span style='color: red;'&gt;1.87&lt;/span&gt; (Density: &lt;span style='color: #32AEEC;'&gt;0.62&lt;/span&gt;)&lt;br&gt;95% CIs: &lt;span style='color: white; background-color: #32AEEC';&gt;1.87 &lt;--&gt; 2.24&lt;/span&gt;" style="fill: rgb(50, 174, 236); -webkit-user-select: auto;"/><path class="area path" d="M80,309.947L80.94,309.942L81.88,309.937L82.82,309.933L83.76,309.929L84.7,309.925L85.64,309.922L86.58,309.919L87.52,309.916L88.46,309.914L89.4,309.911L90.34,309.91L91.28,309.908L92.22,309.907L93.16,309.906L94.1,309.905L95.04,309.905L95.98,309.905L96.92,309.905L97.86,309.906L98.8,309.907L99.74,309.906L100.68,309.904L101.62,309.902L102.56,309.901L103.5,309.9L104.44,309.9L105.38,309.9L106.32,309.901L107.26,309.902L108.2,309.903L109.14,309.905L110.08,309.906L111.02,309.904L111.96,309.9L112.9,309.897L113.84,309.895L114.78,309.893L115.72,309.892L116.66,309.891L117.6,309.887L118.54,309.882L119.48,309.874L120.42,309.866L121.36,309.856L122.3,309.846L123.24,309.836L124.18,309.827L125.12,309.819L126.06,309.812L127,309.802L127.94,309.792L128.88,309.782L129.82,309.767L130.76,309.75L131.7,309.732L132.64,309.713L133.58,309.694L134.52,309.671L135.46,309.648L136.4,309.621L137.34,309.587L138.28,309.553L139.22,309.518L140.16,309.476L141.1,309.433L142.04,309.386L142.98,309.327L143.92,309.261L144.86,309.191L145.8,309.108L146.74,308.997L147.68,308.867L148.62,308.729L149.56,308.579L150.5,308.407L151.44,308.221L152.38,308.005L153.32,307.753L154.26,307.459L155.2,307.124L156.14,306.759L157.08,306.364L158.02,305.944L158.96,305.458L159.9,304.943L160.84,304.373L161.78,303.742L162.72,303.052L163.66,302.338L164.6,301.564L165.54,300.727L166.48,299.859L167.42,298.932L168.36,297.961L169.3,296.939L170.24,295.866L171.18,294.753L172.12,293.557L173.06,292.274L174,290.935L174.94,289.55L175.88,288.086L176.82,286.549L177.76,284.953L178.7,283.27L179.64,281.526L180.58,279.75L181.52,277.899L182.46,275.964L183.4,273.955L184.34,271.905L185.28,269.8L186.22,267.662L187.16,265.462L188.1,263.229L189.04,260.994L189.98,258.756L190.92,256.465L191.86,254.154L192.8,251.86L193.74,249.542L194.68,247.213L195.62,244.907L196.56,242.641L197.5,240.434L198.44,238.253L199.38,236.123L200.32,234.007L201.26,231.91L202.2,229.794L203.14,227.726L204.08,225.753L205.02,223.875L205.96,222.044L206.9,220.265L207.84,218.526L208.78,216.888L209.72,215.334L210.66,213.89L211.6,212.515L212.54,211.221L213.48,210.088L214.42,209.105L215.36,208.251L216.3,207.53L217.24,206.905L218.18,206.347L219.12,205.832L220.06,205.343L221,204.942L221.94,204.65L222.88,204.427L223.82,204.275L224.76,204.223L225.7,204.265L226.64,204.44L227.58,204.748L228.52,205.117L229.46,205.528L230.4,206.006L231.34,206.54L232.28,207.113L233.22,207.743L234.16,208.379L235.1,209.065L236.04,209.823L236.98,210.658L237.92,211.502L238.86,212.343L239.8,213.228L240.74,214.133L241.68,215.076L242.62,216.039L243.56,217.004L244.5,218.007L245.44,218.999L246.38,220.024L247.32,221.058L248.26,222.132L249.2,223.157L250.14,224.176L251.08,225.239L252.02,226.341L252.96,227.454L253.9,228.534L254.84,229.593L255.78,230.682L256.72,231.788L257.66,232.864L258.6,233.904L259.54,234.917L260.48,235.935L261.42,236.997L262.36,238.065L263.3,239.153L264.24,240.228L265.18,241.278L266.12,242.312L267.06,243.318L268,244.311L268.94,245.298L269.88,246.279L270.82,247.212L271.76,248.091L272.7,248.985L273.64,249.912L274.58,250.852L275.52,251.793L276.46,252.712L277.4,253.635L278.34,254.542L279.28,255.42L280.22,256.285L281.16,257.11L282.1,257.946L283.04,258.78L283.98,259.617L284.92,260.457L285.86,261.267L286.8,262.064L287.74,262.853L288.68,263.666L289.62,264.463L290.56,265.195L291.5,265.893L292.44,266.548L293.38,267.174L294.32,267.797L295.26,268.436L296.2,269.062L297.14,269.678L298.08,270.292L299.02,270.909L299.96,271.542L300.9,272.166L301.84,272.8L302.78,273.424L303.72,274.038L304.66,274.615L305.6,275.178L306.54,275.719L307.48,276.216L308.42,276.7L309.36,277.157L310.3,277.588L311.24,277.996L312.18,278.41L313.12,278.825L314.06,279.265L315,279.722L315.94,280.182L316.88,280.642L317.82,281.079L318.76,281.472L319.7,281.846L320.64,282.197L321.58,282.53L322.52,282.863L323.46,283.183L324.4,283.49L325.34,283.801L326.28,284.08L327.22,284.359L328.16,284.635L329.1,284.927L330.04,285.199L330.98,285.465L331.92,285.73L332.86,285.994L333.8,286.272L334.74,286.557L335.68,286.851L336.62,287.142L337.56,287.431L338.5,287.726L339.44,288.003L340.38,288.265L341.32,288.532L342.26,288.791L343.2,289.053L344.14,289.313L345.08,289.555L346.02,289.794L346.96,290.046L347.9,290.305L348.84,290.576L349.78,290.837L350.72,291.079L351.66,291.325L352.6,291.591L353.54,291.875L354.48,292.158L355.42,292.444L356.36,292.738L357.3,293.038L358.24,293.331L359.18,293.62L360.12,293.897L361.06,294.176L362,294.454L362.94,294.72L363.88,294.977L364.82,295.228L365.76,295.467L366.7,295.678L367.64,295.875L368.58,296.06L369.52,296.239L370.46,296.409L371.4,296.576L372.34,296.745L373.28,296.892L374.22,297.039L375.16,297.181L376.1,297.32L377.04,297.419L377.98,297.5L378.92,297.572L379.86,297.631L380.8,297.697L381.74,297.755L382.68,297.81L383.62,297.864L384.56,297.933L385.5,298.003L386.44,298.071L387.38,298.134L388.32,298.186L389.26,298.234L390.2,298.286L391.14,298.343L392.08,298.395L393.02,298.447L393.96,298.492L394.9,298.549L395.84,298.62L396.78,298.686L397.72,298.737L398.66,298.789L399.6,298.854L400.54,298.935L401.48,298.999L402.42,299.059L403.36,299.125L404.3,299.208L405.24,299.288L406.18,299.368L407.12,299.439L408.06,299.513L409,299.591L409.94,299.673L410.88,299.761L411.82,299.852L412.76,299.919L413.7,299.97L414.64,300.02L415.58,300.065L416.52,300.123L417.46,300.171L418.4,300.227L419.34,300.303L420.28,300.378L421.22,300.462L422.16,300.539L423.1,300.62L424.04,300.688L424.98,300.744L425.92,300.795L426.86,300.837L427.8,300.894L428.74,300.951L429.68,301.014L430.62,301.091L431.56,301.167L432.5,301.244L433.44,301.331L434.38,301.417L435.32,301.487L436.26,301.544L437.2,301.592L438.14,301.651L439.08,301.721L440.02,301.79L440.96,301.861L441.9,301.934L442.84,302.024L443.78,302.121L444.72,302.221L445.66,302.319L446.6,302.426L447.54,302.537L448.48,302.628L449.42,302.713L450.36,302.782L451.3,302.845L452.24,302.91L453.18,302.969L454.12,303.012L455.06,303.055L456,303.1L456.94,303.158L457.88,303.212L458.82,303.267L459.76,303.303L460.7,303.333L461.64,303.366L462.58,303.395L463.52,303.432L464.46,303.468L465.4,303.507L466.34,303.547L467.28,303.575L468.22,303.61L469.16,303.653L470.1,303.7L471.04,303.745L471.98,303.779L472.92,303.803L473.86,303.821L474.8,303.847L475.74,303.879L476.68,303.918L477.62,303.974L478.56,304.033L479.5,304.093L480.44,304.162L481.38,304.225L482.32,304.277L483.26,304.316L484.2,304.345L485.14,304.378L486.08,304.419L487.02,304.463L487.96,304.508L488.9,304.55L489.84,304.585L490.78,304.621L491.72,304.667L492.66,304.721L493.6,304.787L494.54,304.853L495.48,304.917L496.42,304.986L497.36,305.045L498.3,305.093L499.24,305.143L500.18,305.194L501.12,305.24L502.06,305.282L503,305.32L503.94,305.359L504.88,305.402L505.82,305.449L506.76,305.495L507.7,305.539L508.64,305.588L509.58,305.647L510.52,305.713L511.46,305.783L512.4,305.85L513.34,305.904L514.28,305.95L515.22,305.993L516.16,306.041L517.1,306.086L518.04,306.126L518.98,306.152L519.92,306.169L520.86,306.184L521.8,306.191L522.74,306.198L523.68,306.206L524.62,306.223L525.56,306.25L526.5,306.275L527.44,306.308L528.38,306.347L529.32,306.387L530.26,306.423L531.2,306.463L532.14,306.509L533.08,306.568L534.02,306.632L534.96,306.698L535.9,306.768L536.84,306.829L537.78,306.894L538.72,306.963L539.66,307.038L540.6,307.121L541.54,307.206L542.48,307.295L543.42,307.394L544.36,307.502L545.3,307.616L546.24,307.729L547.18,307.841L548.12,307.952L549.06,308.061L550,308.169L550,310L549.06,310L548.12,310L547.18,310L546.24,310L545.3,310L544.36,310L543.42,310L542.48,310L541.54,310L540.6,310L539.66,310L538.72,310L537.78,310L536.84,310L535.9,310L534.96,310L534.02,310L533.08,310L532.14,310L531.2,310L530.26,310L529.32,310L528.38,310L527.44,310L526.5,310L525.56,310L524.62,310L523.68,310L522.74,310L521.8,310L520.86,310L519.92,310L518.98,310L518.04,310L517.1,310L516.16,310L515.22,310L514.28,310L513.34,310L512.4,310L511.46,310L510.52,310L509.58,310L508.64,310L507.7,310L506.76,310L505.82,310L504.88,310L503.94,310L503,310L502.06,310L501.12,310L500.18,310L499.24,310L498.3,310L497.36,310L496.42,310L495.48,310L494.54,310L493.6,310L492.66,310L491.72,310L490.78,310L489.84,310L488.9,310L487.96,310L487.02,310L486.08,310L485.14,310L484.2,310L483.26,310L482.32,310L481.38,310L480.44,310L479.5,310L478.56,310L477.62,310L476.68,310L475.74,310L474.8,310L473.86,310L472.92,310L471.98,310L471.04,310L470.1,310L469.16,310L468.22,310L467.28,310L466.34,310L465.4,310L464.46,310L463.52,310L462.58,310L461.64,310L460.7,310L459.76,310L458.82,310L457.88,310L456.94,310L456,310L455.06,310L454.12,310L453.18,310L452.24,310L451.3,310L450.36,310L449.42,310L448.48,310L447.54,310L446.6,310L445.66,310L444.72,310L443.78,310L442.84,310L441.9,310L440.96,310L440.02,310L439.08,310L438.14,310L437.2,310L436.26,310L435.32,310L434.38,310L433.44,310L432.5,310L431.56,310L430.62,310L429.68,310L428.74,310L427.8,310L426.86,310L425.92,310L424.98,310L424.04,310L423.1,310L422.16,310L421.22,310L420.28,310L419.34,310L418.4,310L417.46,310L416.52,310L415.58,310L414.64,310L413.7,310L412.76,310L411.82,310L410.88,310L409.94,310L409,310L408.06,310L407.12,310L406.18,310L405.24,310L404.3,310L403.36,310L402.42,310L401.48,310L400.54,310L399.6,310L398.66,310L397.72,310L396.78,310L395.84,310L394.9,310L393.96,310L393.02,310L392.08,310L391.14,310L390.2,310L389.26,310L388.32,310L387.38,310L386.44,310L385.5,310L384.56,310L383.62,310L382.68,310L381.74,310L380.8,310L379.86,310L378.92,310L377.98,310L377.04,310L376.1,310L375.16,310L374.22,310L373.28,310L372.34,310L371.4,310L370.46,310L369.52,310L368.58,310L367.64,310L366.7,310L365.76,310L364.82,310L363.88,310L362.94,310L362,310L361.06,310L360.12,310L359.18,310L358.24,310L357.3,310L356.36,310L355.42,310L354.48,310L353.54,310L352.6,310L351.66,310L350.72,310L349.78,310L348.84,310L347.9,310L346.96,310L346.02,310L345.08,310L344.14,310L343.2,310L342.26,310L341.32,310L340.38,310L339.44,310L338.5,310L337.56,310L336.62,310L335.68,310L334.74,310L333.8,310L332.86,310L331.92,310L330.98,310L330.04,310L329.1,310L328.16,310L327.22,310L326.28,310L325.34,310L324.4,310L323.46,310L322.52,310L321.58,310L320.64,310L319.7,310L318.76,310L317.82,310L316.88,310L315.94,310L315,310L314.06,310L313.12,310L312.18,310L311.24,310L310.3,310L309.36,310L308.42,310L307.48,310L306.54,310L305.6,310L304.66,310L303.72,310L302.78,310L301.84,310L300.9,310L299.96,310L299.02,310L298.08,310L297.14,310L296.2,310L295.26,310L294.32,310L293.38,310L292.44,310L291.5,310L290.56,310L289.62,310L288.68,310L287.74,310L286.8,310L285.86,310L284.92,310L283.98,310L283.04,310L282.1,310L281.16,310L280.22,310L279.28,310L278.34,310L277.4,310L276.46,310L275.52,310L274.58,310L273.64,310L272.7,310L271.76,310L270.82,310L269.88,310L268.94,310L268,310L267.06,310L266.12,310L265.18,310L264.24,310L263.3,310L262.36,310L261.42,310L260.48,310L259.54,310L258.6,310L257.66,310L256.72,310L255.78,310L254.84,310L253.9,310L252.96,310L252.02,310L251.08,310L250.14,310L249.2,310L248.26,310L247.32,310L246.38,310L245.44,310L244.5,310L243.56,310L242.62,310L241.68,310L240.74,310L239.8,310L238.86,310L237.92,310L236.98,310L236.04,310L235.1,310L234.16,310L233.22,310L232.28,310L231.34,310L230.4,310L229.46,310L228.52,310L227.58,310L226.64,310L225.7,310L224.76,310L223.82,310L222.88,310L221.94,310L221,310L220.06,310L219.12,310L218.18,310L217.24,310L216.3,310L215.36,310L214.42,310L213.48,310L212.54,310L211.6,310L210.66,310L209.72,310L208.78,310L207.84,310L206.9,310L205.96,310L205.02,310L204.08,310L203.14,310L202.2,310L201.26,310L200.32,310L199.38,310L198.44,310L197.5,310L196.56,310L195.62,310L194.68,310L193.74,310L192.8,310L191.86,310L190.92,310L189.98,310L189.04,310L188.1,310L187.16,310L186.22,310L185.28,310L184.34,310L183.4,310L182.46,310L181.52,310L180.58,310L179.64,310L178.7,310L177.76,310L176.82,310L175.88,310L174.94,310L174,310L173.06,310L172.12,310L171.18,310L170.24,310L169.3,310L168.36,310L167.42,310L166.48,310L165.54,310L164.6,310L163.66,310L162.72,310L161.78,310L160.84,310L159.9,310L158.96,310L158.02,310L157.08,310L156.14,310L155.2,310L154.26,310L153.32,310L152.38,310L151.44,310L150.5,310L149.56,310L148.62,310L147.68,310L146.74,310L145.8,310L144.86,310L143.92,310L142.98,310L142.04,310L141.1,310L140.16,310L139.22,310L138.28,310L137.34,310L136.4,310L135.46,310L134.52,310L133.58,310L132.64,310L131.7,310L130.76,310L129.82,310L128.88,310L127.94,310L127,310L126.06,310L125.12,310L124.18,310L123.24,310L122.3,310L121.36,310L120.42,310L119.48,310L118.54,310L117.6,310L116.66,310L115.72,310L114.78,310L113.84,310L112.9,310L111.96,310L111.02,310L110.08,310L109.14,310L108.2,310L107.26,310L106.32,310L105.38,310L104.44,310L103.5,310L102.56,310L101.62,310L100.68,310L99.74,310L98.8,310L97.86,310L96.92,310L95.98,310L95.04,310L94.1,310L93.16,310L92.22,310L91.28,310L90.34,310L89.4,310L88.46,310L87.52,310L86.58,310L85.64,310L84.7,310L83.76,310L82.82,310L81.88,310L80.94,310L80,310Z" fill-opacity="0.5" data-tippy-content="&lt;span style='color: white; background-color: #E2AE79;'&gt;Elaeis_Vitis.ks&lt;/span&gt; &lt;br&gt; Peak: &lt;span style='color: red;'&gt;1.54&lt;/span&gt; (Density: &lt;span style='color: #E2AE79;'&gt;0.81&lt;/span&gt;)&lt;br&gt;95% CIs: &lt;span style='color: white; background-color: #E2AE79';&gt;1.53 &lt;--&gt; 2.24&lt;/span&gt;" style="fill: rgb(226, 174, 121); -webkit-user-select: auto;"/><path class="area path" d="M80,309.993L80.94,309.989L81.88,309.986L82.82,309.982L83.76,309.979L84.7,309.975L85.64,309.972L86.58,309.969L87.52,309.967L88.46,309.964L89.4,309.962L90.34,309.96L91.28,309.958L92.22,309.956L93.16,309.954L94.1,309.949L95.04,309.944L95.98,309.939L96.92,309.934L97.86,309.929L98.8,309.925L99.74,309.922L100.68,309.918L101.62,309.915L102.56,309.913L103.5,309.91L104.44,309.908L105.38,309.907L106.32,309.905L107.26,309.904L108.2,309.904L109.14,309.903L110.08,309.904L111.02,309.904L111.96,309.905L112.9,309.906L113.84,309.907L114.78,309.909L115.72,309.911L116.66,309.914L117.6,309.916L118.54,309.92L119.48,309.923L120.42,309.927L121.36,309.931L122.3,309.936L123.24,309.94L124.18,309.946L125.12,309.951L126.06,309.955L127,309.956L127.94,309.958L128.88,309.96L129.82,309.963L130.76,309.962L131.7,309.96L132.64,309.959L133.58,309.957L134.52,309.952L135.46,309.946L136.4,309.935L137.34,309.924L138.28,309.913L139.22,309.904L140.16,309.892L141.1,309.874L142.04,309.852L142.98,309.822L143.92,309.788L144.86,309.754L145.8,309.719L146.74,309.678L147.68,309.64L148.62,309.598L149.56,309.547L150.5,309.494L151.44,309.431L152.38,309.365L153.32,309.301L154.26,309.239L155.2,309.175L156.14,309.109L157.08,309.038L158.02,308.963L158.96,308.865L159.9,308.754L160.84,308.627L161.78,308.494L162.72,308.359L163.66,308.207L164.6,308.041L165.54,307.868L166.48,307.67L167.42,307.455L168.36,307.224L169.3,306.977L170.24,306.717L171.18,306.427L172.12,306.107L173.06,305.76L174,305.394L174.94,305.007L175.88,304.604L176.82,304.169L177.76,303.706L178.7,303.213L179.64,302.682L180.58,302.11L181.52,301.503L182.46,300.847L183.4,300.168L184.34,299.467L185.28,298.738L186.22,297.969L187.16,297.154L188.1,296.307L189.04,295.425L189.98,294.488L190.92,293.482L191.86,292.438L192.8,291.351L193.74,290.227L194.68,289.088L195.62,287.908L196.56,286.689L197.5,285.429L198.44,284.125L199.38,282.797L200.32,281.437L201.26,280.077L202.2,278.683L203.14,277.299L204.08,275.898L205.02,274.491L205.96,273.044L206.9,271.61L207.84,270.197L208.78,268.797L209.72,267.393L210.66,265.966L211.6,264.538L212.54,263.075L213.48,261.62L214.42,260.193L215.36,258.758L216.3,257.356L217.24,255.946L218.18,254.538L219.12,253.134L220.06,251.73L221,250.355L221.94,249.005L222.88,247.648L223.82,246.313L224.76,245.026L225.7,243.771L226.64,242.548L227.58,241.329L228.52,240.139L229.46,238.971L230.4,237.858L231.34,236.827L232.28,235.851L233.22,234.913L234.16,234.033L235.1,233.19L236.04,232.413L236.98,231.64L237.92,230.848L238.86,230.095L239.8,229.382L240.74,228.693L241.68,228.085L242.62,227.539L243.56,227.032L244.5,226.567L245.44,226.145L246.38,225.791L247.32,225.464L248.26,225.197L249.2,224.975L250.14,224.78L251.08,224.609L252.02,224.479L252.96,224.361L253.9,224.325L254.84,224.391L255.78,224.506L256.72,224.639L257.66,224.759L258.6,224.936L259.54,225.138L260.48,225.375L261.42,225.7L262.36,226.073L263.3,226.532L264.24,227.011L265.18,227.525L266.12,228.086L267.06,228.647L268,229.256L268.94,229.881L269.88,230.473L270.82,231.061L271.76,231.697L272.7,232.314L273.64,232.937L274.58,233.581L275.52,234.233L276.46,234.887L277.4,235.532L278.34,236.214L279.28,236.943L280.22,237.676L281.16,238.435L282.1,239.18L283.04,239.95L283.98,240.691L284.92,241.385L285.86,242.109L286.8,242.843L287.74,243.566L288.68,244.293L289.62,245.026L290.56,245.742L291.5,246.433L292.44,247.085L293.38,247.758L294.32,248.445L295.26,249.154L296.2,249.881L297.14,250.58L298.08,251.267L299.02,251.928L299.96,252.56L300.9,253.187L301.84,253.822L302.78,254.431L303.72,254.994L304.66,255.524L305.6,256.061L306.54,256.639L307.48,257.195L308.42,257.773L309.36,258.384L310.3,259.016L311.24,259.662L312.18,260.304L313.12,260.983L314.06,261.637L315,262.311L315.94,262.99L316.88,263.65L317.82,264.275L318.76,264.91L319.7,265.501L320.64,266.052L321.58,266.606L322.52,267.136L323.46,267.661L324.4,268.163L325.34,268.654L326.28,269.185L327.22,269.684L328.16,270.164L329.1,270.633L330.04,271.084L330.98,271.54L331.92,271.988L332.86,272.478L333.8,272.945L334.74,273.398L335.68,273.818L336.62,274.229L337.56,274.63L338.5,275.03L339.44,275.394L340.38,275.751L341.32,276.136L342.26,276.524L343.2,276.868L344.14,277.204L345.08,277.536L346.02,277.847L346.96,278.13L347.9,278.387L348.84,278.622L349.78,278.84L350.72,279.029L351.66,279.222L352.6,279.417L353.54,279.628L354.48,279.842L355.42,280.053L356.36,280.295L357.3,280.517L358.24,280.747L359.18,280.971L360.12,281.225L361.06,281.469L362,281.722L362.94,281.994L363.88,282.264L364.82,282.502L365.76,282.731L366.7,282.961L367.64,283.183L368.58,283.389L369.52,283.579L370.46,283.777L371.4,283.986L372.34,284.191L373.28,284.434L374.22,284.663L375.16,284.888L376.1,285.137L377.04,285.364L377.98,285.612L378.92,285.878L379.86,286.162L380.8,286.429L381.74,286.682L382.68,286.927L383.62,287.157L384.56,287.401L385.5,287.677L386.44,287.985L387.38,288.289L388.32,288.597L389.26,288.909L390.2,289.2L391.14,289.482L392.08,289.769L393.02,290.043L393.96,290.278L394.9,290.505L395.84,290.725L396.78,290.959L397.72,291.205L398.66,291.43L399.6,291.655L400.54,291.88L401.48,292.094L402.42,292.305L403.36,292.552L404.3,292.783L405.24,293.011L406.18,293.239L407.12,293.48L408.06,293.709L409,293.936L409.94,294.17L410.88,294.409L411.82,294.611L412.76,294.79L413.7,294.954L414.64,295.11L415.58,295.266L416.52,295.438L417.46,295.598L418.4,295.753L419.34,295.882L420.28,296.002L421.22,296.115L422.16,296.237L423.1,296.359L424.04,296.451L424.98,296.532L425.92,296.615L426.86,296.695L427.8,296.769L428.74,296.837L429.68,296.903L430.62,296.937L431.56,296.971L432.5,296.984L433.44,296.996L434.38,296.986L435.32,296.942L436.26,296.899L437.2,296.855L438.14,296.802L439.08,296.781L440.02,296.757L440.96,296.712L441.9,296.656L442.84,296.602L443.78,296.568L444.72,296.544L445.66,296.486L446.6,296.414L447.54,296.342L448.48,296.276L449.42,296.237L450.36,296.22L451.3,296.213L452.24,296.224L453.18,296.24L454.12,296.266L455.06,296.303L456,296.36L456.94,296.445L457.88,296.55L458.82,296.648L459.76,296.749L460.7,296.852L461.64,296.948L462.58,297.049L463.52,297.188L464.46,297.337L465.4,297.491L466.34,297.64L467.28,297.783L468.22,297.937L469.16,298.119L470.1,298.295L471.04,298.457L471.98,298.605L472.92,298.758L473.86,298.913L474.8,299.061L475.74,299.212L476.68,299.36L477.62,299.504L478.56,299.646L479.5,299.783L480.44,299.922L481.38,300.058L482.32,300.193L483.26,300.325L484.2,300.451L485.14,300.578L486.08,300.725L487.02,300.89L487.96,301.051L488.9,301.212L489.84,301.358L490.78,301.5L491.72,301.627L492.66,301.727L493.6,301.805L494.54,301.87L495.48,301.941L496.42,302.015L497.36,302.086L498.3,302.15L499.24,302.218L500.18,302.275L501.12,302.322L502.06,302.364L503,302.412L503.94,302.467L504.88,302.525L505.82,302.57L506.76,302.621L507.7,302.668L508.64,302.695L509.58,302.696L510.52,302.71L511.46,302.726L512.4,302.737L513.34,302.745L514.28,302.763L515.22,302.803L516.16,302.86L517.1,302.923L518.04,302.989L518.98,303.051L519.92,303.116L520.86,303.181L521.8,303.243L522.74,303.317L523.68,303.386L524.62,303.445L525.56,303.492L526.5,303.541L527.44,303.598L528.38,303.67L529.32,303.757L530.26,303.854L531.2,303.964L532.14,304.095L533.08,304.237L534.02,304.395L534.96,304.557L535.9,304.739L536.84,304.917L537.78,305.099L538.72,305.281L539.66,305.47L540.6,305.666L541.54,305.867L542.48,306.069L543.42,306.268L544.36,306.469L545.3,306.672L546.24,306.872L547.18,307.068L548.12,307.258L549.06,307.44L550,307.612L550,310L549.06,310L548.12,310L547.18,310L546.24,310L545.3,310L544.36,310L543.42,310L542.48,310L541.54,310L540.6,310L539.66,310L538.72,310L537.78,310L536.84,310L535.9,310L534.96,310L534.02,310L533.08,310L532.14,310L531.2,310L530.26,310L529.32,310L528.38,310L527.44,310L526.5,310L525.56,310L524.62,310L523.68,310L522.74,310L521.8,310L520.86,310L519.92,310L518.98,310L518.04,310L517.1,310L516.16,310L515.22,310L514.28,310L513.34,310L512.4,310L511.46,310L510.52,310L509.58,310L508.64,310L507.7,310L506.76,310L505.82,310L504.88,310L503.94,310L503,310L502.06,310L501.12,310L500.18,310L499.24,310L498.3,310L497.36,310L496.42,310L495.48,310L494.54,310L493.6,310L492.66,310L491.72,310L490.78,310L489.84,310L488.9,310L487.96,310L487.02,310L486.08,310L485.14,310L484.2,310L483.26,310L482.32,310L481.38,310L480.44,310L479.5,310L478.56,310L477.62,310L476.68,310L475.74,310L474.8,310L473.86,310L472.92,310L471.98,310L471.04,310L470.1,310L469.16,310L468.22,310L467.28,310L466.34,310L465.4,310L464.46,310L463.52,310L462.58,310L461.64,310L460.7,310L459.76,310L458.82,310L457.88,310L456.94,310L456,310L455.06,310L454.12,310L453.18,310L452.24,310L451.3,310L450.36,310L449.42,310L448.48,310L447.54,310L446.6,310L445.66,310L444.72,310L443.78,310L442.84,310L441.9,310L440.96,310L440.02,310L439.08,310L438.14,310L437.2,310L436.26,310L435.32,310L434.38,310L433.44,310L432.5,310L431.56,310L430.62,310L429.68,310L428.74,310L427.8,310L426.86,310L425.92,310L424.98,310L424.04,310L423.1,310L422.16,310L421.22,310L420.28,310L419.34,310L418.4,310L417.46,310L416.52,310L415.58,310L414.64,310L413.7,310L412.76,310L411.82,310L410.88,310L409.94,310L409,310L408.06,310L407.12,310L406.18,310L405.24,310L404.3,310L403.36,310L402.42,310L401.48,310L400.54,310L399.6,310L398.66,310L397.72,310L396.78,310L395.84,310L394.9,310L393.96,310L393.02,310L392.08,310L391.14,310L390.2,310L389.26,310L388.32,310L387.38,310L386.44,310L385.5,310L384.56,310L383.62,310L382.68,310L381.74,310L380.8,310L379.86,310L378.92,310L377.98,310L377.04,310L376.1,310L375.16,310L374.22,310L373.28,310L372.34,310L371.4,310L370.46,310L369.52,310L368.58,310L367.64,310L366.7,310L365.76,310L364.82,310L363.88,310L362.94,310L362,310L361.06,310L360.12,310L359.18,310L358.24,310L357.3,310L356.36,310L355.42,310L354.48,310L353.54,310L352.6,310L351.66,310L350.72,310L349.78,310L348.84,310L347.9,310L346.96,310L346.02,310L345.08,310L344.14,310L343.2,310L342.26,310L341.32,310L340.38,310L339.44,310L338.5,310L337.56,310L336.62,310L335.68,310L334.74,310L333.8,310L332.86,310L331.92,310L330.98,310L330.04,310L329.1,310L328.16,310L327.22,310L326.28,310L325.34,310L324.4,310L323.46,310L322.52,310L321.58,310L320.64,310L319.7,310L318.76,310L317.82,310L316.88,310L315.94,310L315,310L314.06,310L313.12,310L312.18,310L311.24,310L310.3,310L309.36,310L308.42,310L307.48,310L306.54,310L305.6,310L304.66,310L303.72,310L302.78,310L301.84,310L300.9,310L299.96,310L299.02,310L298.08,310L297.14,310L296.2,310L295.26,310L294.32,310L293.38,310L292.44,310L291.5,310L290.56,310L289.62,310L288.68,310L287.74,310L286.8,310L285.86,310L284.92,310L283.98,310L283.04,310L282.1,310L281.16,310L280.22,310L279.28,310L278.34,310L277.4,310L276.46,310L275.52,310L274.58,310L273.64,310L272.7,310L271.76,310L270.82,310L269.88,310L268.94,310L268,310L267.06,310L266.12,310L265.18,310L264.24,310L263.3,310L262.36,310L261.42,310L260.48,310L259.54,310L258.6,310L257.66,310L256.72,310L255.78,310L254.84,310L253.9,310L252.96,310L252.02,310L251.08,310L250.14,310L249.2,310L248.26,310L247.32,310L246.38,310L245.44,310L244.5,310L243.56,310L242.62,310L241.68,310L240.74,310L239.8,310L238.86,310L237.92,310L236.98,310L236.04,310L235.1,310L234.16,310L233.22,310L232.28,310L231.34,310L230.4,310L229.46,310L228.52,310L227.58,310L226.64,310L225.7,310L224.76,310L223.82,310L222.88,310L221.94,310L221,310L220.06,310L219.12,310L218.18,310L217.24,310L216.3,310L215.36,310L214.42,310L213.48,310L212.54,310L211.6,310L210.66,310L209.72,310L208.78,310L207.84,310L206.9,310L205.96,310L205.02,310L204.08,310L203.14,310L202.2,310L201.26,310L200.32,310L199.38,310L198.44,310L197.5,310L196.56,310L195.62,310L194.68,310L193.74,310L192.8,310L191.86,310L190.92,310L189.98,310L189.04,310L188.1,310L187.16,310L186.22,310L185.28,310L184.34,310L183.4,310L182.46,310L181.52,310L180.58,310L179.64,310L178.7,310L177.76,310L176.82,310L175.88,310L174.94,310L174,310L173.06,310L172.12,310L171.18,310L170.24,310L169.3,310L168.36,310L167.42,310L166.48,310L165.54,310L164.6,310L163.66,310L162.72,310L161.78,310L160.84,310L159.9,310L158.96,310L158.02,310L157.08,310L156.14,310L155.2,310L154.26,310L153.32,310L152.38,310L151.44,310L150.5,310L149.56,310L148.62,310L147.68,310L146.74,310L145.8,310L144.86,310L143.92,310L142.98,310L142.04,310L141.1,310L140.16,310L139.22,310L138.28,310L137.34,310L136.4,310L135.46,310L134.52,310L133.58,310L132.64,310L131.7,310L130.76,310L129.82,310L128.88,310L127.94,310L127,310L126.06,310L125.12,310L124.18,310L123.24,310L122.3,310L121.36,310L120.42,310L119.48,310L118.54,310L117.6,310L116.66,310L115.72,310L114.78,310L113.84,310L112.9,310L111.96,310L111.02,310L110.08,310L109.14,310L108.2,310L107.26,310L106.32,310L105.38,310L104.44,310L103.5,310L102.56,310L101.62,310L100.68,310L99.74,310L98.8,310L97.86,310L96.92,310L95.98,310L95.04,310L94.1,310L93.16,310L92.22,310L91.28,310L90.34,310L89.4,310L88.46,310L87.52,310L86.58,310L85.64,310L84.7,310L83.76,310L82.82,310L81.88,310L80.94,310L80,310Z" fill-opacity="0.5" data-tippy-content="&lt;span style='color: white; background-color: #8E549E;'&gt;Asparagus_Vitis.ks&lt;/span&gt; &lt;br&gt; Peak: &lt;span style='color: red;'&gt;1.85&lt;/span&gt; (Density: &lt;span style='color: #8E549E;'&gt;0.66&lt;/span&gt;)&lt;br&gt;95% CIs: &lt;span style='color: white; background-color: #8E549E';&gt;1.53 &lt;--&gt; 2.24&lt;/span&gt;" style="fill: rgb(142, 84, 158); -webkit-user-select: auto;"/><circle class="rate test" r="2" cx="162.77886497064574" cy="178.22261522308057" fill="black" fill-opacity="0.7" style="-webkit-user-select: auto;"/><rect class="rate test" id="rate_correction_Ananas comosus" x="156.34050880626222" y="174.22261522308057" width="18.406800391389595" height="8" fill="#8080804D" fill-opacity="0.9" style="-webkit-user-select: auto;"/><marker id="triangle-marker-1" viewBox="0 0 10 10" refX="9" refY="5" markerWidth="6" markerHeight="9" orient="auto" style="-webkit-user-select: auto;"><path d="M 0 0 L 10 5 L 0 10 z" fill="grey" style="-webkit-user-select: auto;"/></marker><text x="297.2669275929547" y="181.22261522308057" fill="#9B3A4D" font-size="10px" text-anchor="start" font-family="calibri" font-style="italic" style="-webkit-user-select: auto;">V. vinifera - Z. marina</text><line class="rate test" x1="162.77886497064574" y1="178.22261522308057" x2="80" y2="178.22261522308057" stroke="grey" marker-end="url(#triangle-marker-1)" style="-webkit-user-select: auto;"/><marker id="triangle-marker-2" viewBox="0 0 10 10" refX="9" refY="5" markerWidth="6" markerHeight="9" orient="auto" style="-webkit-user-select: auto;"><path d="M 0 0 L 10 5 L 0 10 z" fill="#9B3A4D" style="-webkit-user-select: auto;"/></marker><line class="rate test" x1="162.77886497064574" y1="178.22261522308057" x2="286.94716242661394" y2="178.22261522308057" stroke="#9B3A4D" marker-end="url(#triangle-marker-2)" style="-webkit-user-select: auto;"/><line class="rate test" x1="286.94716242661394" y1="178.22261522308057" x2="286.94716242661394" y2="242.3717324077421" stroke="#9B3A4D" opacity="0.6" stroke-dasharray="5 3" style="-webkit-user-select: auto;"/><line x1="162.77886497064574" y1="178.22261522308057" x2="162.77886497064574" y2="158.72261522308057" stroke="#32AEEC" style="-webkit-user-select: auto;"/><marker id="triangle-marker-3" viewBox="0 0 10 10" refX="9" refY="5" markerWidth="6" markerHeight="9" orient="auto" style="-webkit-user-select: auto;"><path d="M 0 0 L 10 5 L 0 10 z" fill="#32AEEC" style="-webkit-user-select: auto;"/></marker><line x1="162.77886497064574" y1="158.72261522308057" x2="253.8356164383561" y2="158.72261522308057" stroke="#32AEEC" marker-end="url(#triangle-marker-3)" style="-webkit-user-select: auto;"/><line class="rate test" x1="253.8356164383561" y1="158.72261522308057" x2="253.8356164383561" y2="229.2376350483454" stroke="#32AEEC" opacity="0.6" stroke-dasharray="5 3" style="-webkit-user-select: auto;"/><text x="297.2669275929547" y="161.72261522308057" fill="#32AEEC" font-size="10px" text-anchor="start" font-family="calibri" font-style="italic" style="-webkit-user-select: auto;">V. vinifera - A. comosus</text><text x="143.97886497064576" y="171.72261522308057" fill="grey" font-size="10px" text-anchor="end" font-family="calibri" style="-webkit-user-select: auto;">0.88</text><text x="181.57886497064575" y="171.72261522308057" fill="#9B3A4D" font-size="10px" font-family="calibri" style="-webkit-user-select: auto;">1.32</text><text x="181.57886497064575" y="152.22261522308057" fill="#32AEEC" font-size="10px" font-family="calibri" style="-webkit-user-select: auto;">0.97</text><circle class="rate test" r="2" cx="170.13698630136986" cy="126.2226152230806" fill="black" fill-opacity="0.7" style="-webkit-user-select: auto;"/><rect class="rate test" id="rate_correction_Elaeis guineensis" x="165.07827788649706" y="122.2226152230806" width="16.555772994128745" height="8" fill="#8080804D" fill-opacity="0.9" style="-webkit-user-select: auto;"/><marker id="triangle-marker-1" viewBox="0 0 10 10" refX="9" refY="5" markerWidth="6" markerHeight="9" orient="auto" style="-webkit-user-select: auto;"><path d="M 0 0 L 10 5 L 0 10 z" fill="grey" style="-webkit-user-select: auto;"/></marker><line class="rate test" x1="170.13698630136986" y1="126.2226152230806" x2="80" y2="126.2226152230806" stroke="grey" marker-end="url(#triangle-marker-1)" style="-webkit-user-select: auto;"/><marker id="triangle-marker-2" viewBox="0 0 10 10" refX="9" refY="5" markerWidth="6" markerHeight="9" orient="auto" style="-webkit-user-select: auto;"><path d="M 0 0 L 10 5 L 0 10 z" fill="#9B3A4D" style="-webkit-user-select: auto;"/></marker><line class="rate test" x1="170.13698630136986" y1="126.2226152230806" x2="287.86692759295465" y2="126.2226152230806" stroke="#9B3A4D" marker-end="url(#triangle-marker-2)" style="-webkit-user-select: auto;"/><line class="rate test" x1="287.86692759295465" y1="126.2226152230806" x2="287.86692759295465" y2="242.3717324077421" stroke="#9B3A4D" opacity="0.6" stroke-dasharray="5 3" style="-webkit-user-select: auto;"/><line x1="170.13698630136986" y1="126.2226152230806" x2="170.13698630136986" y2="106.7226152230806" stroke="#E2AE79" style="-webkit-user-select: auto;"/><marker id="triangle-marker-3" viewBox="0 0 10 10" refX="9" refY="5" markerWidth="6" markerHeight="9" orient="auto" style="-webkit-user-select: auto;"><path d="M 0 0 L 10 5 L 0 10 z" fill="#E2AE79" style="-webkit-user-select: auto;"/></marker><line x1="170.13698630136986" y1="106.7226152230806" x2="223.48336594911933" y2="106.7226152230806" stroke="#E2AE79" marker-end="url(#triangle-marker-3)" style="-webkit-user-select: auto;"/><line class="rate test" x1="223.48336594911933" y1="106.7226152230806" x2="223.48336594911933" y2="204.2226152230806" stroke="#E2AE79" opacity="0.6" stroke-dasharray="5 3" style="-webkit-user-select: auto;"/><text x="297.2669275929547" y="109.7226152230806" fill="#E2AE79" font-size="10px" text-anchor="start" font-family="calibri" font-style="italic" style="-webkit-user-select: auto;">V. vinifera - E. guineensis</text><text x="151.33698630136985" y="119.72261522308057" fill="grey" font-size="10px" text-anchor="end" font-family="calibri" style="-webkit-user-select: auto;">0.96</text><text x="188.93698630136987" y="119.72261522308057" fill="#9B3A4D" font-size="10px" font-family="calibri" style="-webkit-user-select: auto;">1.25</text><text x="188.93698630136987" y="100.2226152230806" fill="#E2AE79" font-size="10px" font-family="calibri" style="-webkit-user-select: auto;">0.57</text><circle class="rate test" r="2" cx="167.37769080234835" cy="74.22261522308057" fill="black" fill-opacity="0.7" style="-webkit-user-select: auto;"/><rect class="rate test" id="rate_correction_Asparagus officinalis" x="161.39921722113502" y="70.22261522308057" width="17.015655577299555" height="8" fill="#8080804D" fill-opacity="0.9" style="-webkit-user-select: auto;"/><marker id="triangle-marker-1" viewBox="0 0 10 10" refX="9" refY="5" markerWidth="6" markerHeight="9" orient="auto" style="-webkit-user-select: auto;"><path d="M 0 0 L 10 5 L 0 10 z" fill="grey" style="-webkit-user-select: auto;"/></marker><line class="rate test" x1="167.37769080234835" y1="74.22261522308057" x2="80" y2="74.22261522308057" stroke="grey" marker-end="url(#triangle-marker-1)" style="-webkit-user-select: auto;"/><marker id="triangle-marker-2" viewBox="0 0 10 10" refX="9" refY="5" markerWidth="6" markerHeight="9" orient="auto" style="-webkit-user-select: auto;"><path d="M 0 0 L 10 5 L 0 10 z" fill="#9B3A4D" style="-webkit-user-select: auto;"/></marker><line class="rate test" x1="167.37769080234835" y1="74.22261522308057" x2="286.9471624266145" y2="74.22261522308057" stroke="#9B3A4D" marker-end="url(#triangle-marker-2)" style="-webkit-user-select: auto;"/><line class="rate test" x1="286.9471624266145" y1="74.22261522308057" x2="286.9471624266145" y2="242.3717324077421" stroke="#9B3A4D" opacity="0.6" stroke-dasharray="5 3" style="-webkit-user-select: auto;"/><line x1="167.37769080234835" y1="74.22261522308057" x2="167.37769080234835" y2="54.72261522308058" stroke="#8E549E" style="-webkit-user-select: auto;"/><marker id="triangle-marker-3" viewBox="0 0 10 10" refX="9" refY="5" markerWidth="6" markerHeight="9" orient="auto" style="-webkit-user-select: auto;"><path d="M 0 0 L 10 5 L 0 10 z" fill="#8E549E" style="-webkit-user-select: auto;"/></marker><line x1="167.37769080234835" y1="54.72261522308058" x2="252.9158512720157" y2="54.72261522308058" stroke="#8E549E" marker-end="url(#triangle-marker-3)" style="-webkit-user-select: auto;"/><line class="rate test" x1="252.9158512720157" y1="54.72261522308058" x2="252.9158512720157" y2="224.32478360379682" stroke="#8E549E" opacity="0.6" stroke-dasharray="5 3" style="-webkit-user-select: auto;"/><text x="297.2669275929547" y="57.72261522308058" fill="#8E549E" font-size="10px" text-anchor="start" font-family="calibri" font-style="italic" style="-webkit-user-select: auto;">V. vinifera - A. officinalis</text><text x="148.57769080234834" y="67.72261522308057" fill="grey" font-size="10px" text-anchor="end" font-family="calibri" style="-webkit-user-select: auto;">0.93</text><text x="186.17769080234834" y="67.72261522308057" fill="#9B3A4D" font-size="10px" font-family="calibri" style="-webkit-user-select: auto;">1.27</text><text x="186.17769080234834" y="48.22261522308058" fill="#8E549E" font-size="10px" font-family="calibri" style="-webkit-user-select: auto;">0.91</text></svg>