<?xml version="1.0" encoding="utf-8"?>
<!-- Generator: Adobe Illustrator 27.0.0, SVG Export Plug-In . SVG Version: 6.00 Build 0)  -->
<svg version="1.1" id="Layer_1" xmlns="http://www.w3.org/2000/svg" xmlns:xlink="http://www.w3.org/1999/xlink" x="0px" y="0px"
	 viewBox="0 0 677.9 323.3" style="enable-background:new 0 0 677.9 323.3;" xml:space="preserve">
<style type="text/css">
	.st0{fill:none;stroke:#AAAAAA;stroke-width:2.45;}
	.st1{fill:none;stroke:#0000FF;stroke-width:0.66;stroke-opacity:0.2;stroke-dasharray:4,1;}
	.st2{opacity:0.3;fill:#0000FF;enable-background:new    ;}
	.st3{font-family:'ArialMT';}
	.st4{font-size:10px;}
	.st5{font-family:'Arial-ItalicMT';}
	.st6{font-size:14px;}
	.st7{fill:none;stroke:#ABABAB;stroke-width:2;}
	.st8{fill:#ABABAB;fill-opacity:0.7;}
	.st9{fill:#A6CEE3;}
	.st10{fill:#1F78B4;}
	.st11{fill:#B2DF8A;}
	.st12{fill:#33A02C;}
	.st13{font-family:'Arial-BoldMT';}
	.st14{font-size:9px;}
	.st15{fill:#3C3C3C;}
</style>
<g transform="translate(50, 20)">
	<path class="st0" d="M57.8,225v17.5h411"/>
	<path class="st0" d="M57.8,225v-17.5h411"/>
	<path class="st0" d="M104.8,155v17.5h364"/>
	<path class="st0" d="M104.8,155v-17.5h364"/>
	<path class="st0" d="M151.8,85v17.5h316"/>
	<path class="st0" d="M151.8,85V67.5h316"/>
	<path class="st0" d="M92.8,58.8V85h59"/>
	<path class="st0" d="M92.8,58.8V32.5h375"/>
	<path class="st0" d="M54.8,106.9V155h50"/>
	<path class="st0" d="M54.8,106.9V58.8h38"/>
	<path class="st0" d="M-12.2,165.9V225h70"/>
	<path class="st0" d="M-12.2,165.9v-59.1h67"/>
	<path class="st0" d="M-31.2,81.7v84.2h19"/>
	<path class="st0" d="M-31.2,81.7V-2.5h499"/>
	<line class="st1" x1="468.8" y1="-20" x2="468.8" y2="260"/>
	<line class="st1" x1="404" y1="-20" x2="404" y2="260"/>
	<line class="st1" x1="339.3" y1="-20" x2="339.3" y2="260"/>
	<line class="st1" x1="274.6" y1="-20" x2="274.6" y2="260"/>
	<line class="st1" x1="209.8" y1="-20" x2="209.8" y2="260"/>
	<line class="st1" x1="145.1" y1="-20" x2="145.1" y2="260"/>
	<line class="st1" x1="80.4" y1="-20" x2="80.4" y2="260"/>
	<line class="st1" x1="15.6" y1="-20" x2="15.6" y2="260"/>
	<text transform="matrix(1 0 0 1 465.984 272)" class="st2 st3 st4">0</text>
	<text transform="matrix(1 0 0 1 398.4692 272)" class="st2 st3 st4">20</text>
	<text transform="matrix(1 0 0 1 333.7353 272)" class="st2 st3 st4">40</text>
	<text transform="matrix(1 0 0 1 269.0013 272)" class="st2 st3 st4">60</text>
	<text transform="matrix(1 0 0 1 204.2673 272)" class="st2 st3 st4">80</text>
	<text transform="matrix(1 0 0 1 136.7526 272)" class="st2 st3 st4">100</text>
	<text transform="matrix(1 0 0 1 72.0186 272)" class="st2 st3 st4">120</text>
	<text transform="matrix(1 0 0 1 7.2847 272)" class="st2 st3 st4">140</text>
	<g>
		<text transform="matrix(1 0 0 1 476.7647 272)" class="st2 st3 st4">million years ago</text>
	</g>
	<g transform="translate(0,101.71875)">
		<line class="st0" x1="-31.2" y1="-20" x2="-41.2" y2="-20"/>
	</g>
	<g transform="translate(499,122.5)">
		<text transform="matrix(1 0 0 1 -23.2353 -17)" class="st5 st6">Oryza sativa</text>
	</g>
	<g transform="translate(499,87.5)">
		<text transform="matrix(1 0 0 1 -23.2353 -17)" class="st5 st6">Ananas comosus</text>
	</g>
	<g transform="translate(499,52.5)">
		<text transform="matrix(1 0 0 1 -23.2353 -17)" class="st5 st6">Elaeis guineensis</text>
	</g>
	<g transform="translate(500,192.5)">
		<text transform="matrix(1 0 0 1 -23.2353 -17)" class="st5 st6">Asparagus officinalis</text>
	</g>
	<g transform="translate(500,157.5)">
		<text transform="matrix(1 0 0 1 -23.2353 -17)" class="st5 st6">Phalaenopsis equestris</text>
	</g>
	<g transform="translate(500,262.5)">
		<text transform="matrix(1 0 0 1 -23.2353 -17)" class="st5 st6">Spirodela polyrhiza</text>
	</g>
	<g transform="translate(500,227.5)">
		<text transform="matrix(1 0 0 1 -23.2353 -17)" class="st5 st6">Zostera marina</text>
	</g>
	<g transform="translate(499,17.5)">
		<text transform="matrix(1 0 0 1 -23.2353 -17)" class="st5 st6">Vitis vinifera</text>
	</g>
	<line class="st7" x1="226" y1="26.5" x2="226" y2="38.5"/>
	<rect x="242.6" y="96.5" class="st8" width="22" height="12"/>
	<rect x="90.1" y="79" class="st8" width="22.7" height="12"/>
	<rect x="215.1" y="131.5" class="st8" width="105.9" height="12"/>
	<rect x="235.7" y="201.5" class="st8" width="25.9" height="12"/>
	<line class="st7" x1="174.9" y1="236.5" x2="174.9" y2="248.5"/>
	<line class="st7" x1="178.6" y1="236.5" x2="178.6" y2="248.5"/>
	<rect x="241.8" y="166.5" class="st8" width="122" height="12"/>
	<rect x="90.1" y="79" class="st8" width="22.7" height="12"/>
	<rect x="38.3" y="52.8" class="st8" width="51.8" height="12"/>
	<rect x="38.3" y="-8.5" class="st8" width="51.8" height="12"/>
	<g>
		<rect x="460.3" y="278" class="st9" width="8.4" height="18"/>
	</g>
	<g>
		<rect x="394.3" y="278" class="st10" width="66" height="18"/>
	</g>
	<g>
		<rect x="255.1" y="278" class="st11" width="139.2" height="18"/>
	</g>
	<g>
		<rect x="-0.6" y="278" class="st12" width="255.7" height="18"/>
	</g>
	<text transform="matrix(1 0 0 1 470.5475 291)" class="st9 st13 st14">Quaternary</text>
	<text transform="matrix(1 0 0 1 408.3308 291)" class="st15 st13 st14">Neogene</text>
	<text transform="matrix(1 0 0 1 302.2229 291)" class="st15 st13 st14">Paleogene</text>
	<text transform="matrix(1 0 0 1 102.7825 291)" class="st15 st13 st14">Cretaceous</text>
</g>
</svg>
