<?xml version="1.0" encoding="utf-8"?>
<!-- Generator: Adobe Illustrator 24.0.0, SVG Export Plug-In . SVG Version: 6.00 Build 0)  -->
<svg version="1.1" id="图层_1" xmlns="http://www.w3.org/2000/svg" xmlns:xlink="http://www.w3.org/1999/xlink" x="0px" y="0px"
	 viewBox="0 0 588.6 485.6" style="enable-background:new 0 0 588.6 485.6;" xml:space="preserve">
<style type="text/css">
	.st0{fill:#FFFFFF;}
	.st1{fill:none;stroke:#3A5E7E;stroke-width:25.3036;stroke-linecap:round;stroke-miterlimit:10;}
	.st2{fill:#6D8F41;}
	.st3{fill:#F29456;}
	.st4{opacity:0.69;fill:#E89055;enable-background:new    ;}
</style>
<rect class="st0" width="588.6" height="485.6"/>
<g>
	<polyline class="st1" points="227.3,184.9 227.3,222.9 21.9,457.4 	"/>
	<polyline class="st1" points="315.5,184.7 316.4,225.2 117.7,459.5 	"/>
	<line class="st1" x1="221.6" y1="315.5" x2="349.9" y2="454.5"/>
	<line class="st1" x1="190.1" y1="350.2" x2="287.9" y2="462.7"/>
	<line class="st1" x1="226.2" y1="222.5" x2="429.8" y2="457.4"/>
	<line class="st1" x1="316.6" y1="222.8" x2="370.8" y2="276.8"/>
	<line class="st1" x1="273.3" y1="20" x2="273.3" y2="56.6"/>
	<path class="st2" d="M207.3,316.8c0,10.3-8.3,18.6-18.6,18.6s-18.6-8.4-18.6-18.6c0-10.3,8.3-18.6,18.6-18.6
		C199,298.2,207.3,306.5,207.3,316.8"/>
	<polyline class="st3" points="331.8,112.4 295,135.8 306.9,173.5 273.2,150.1 237.2,173 250.9,135 214.7,110.7 258.7,111.3 
		273.1,72.6 287,111.7 331.8,112.4 	"/>
	<polyline class="st4" points="418.4,295.8 400,307.5 405.9,326.3 389.1,314.6 371.1,326.1 377.9,307.1 359.8,294.9 381.8,295.2 
		389,275.9 396,295.4 418.4,295.8 	"/>
	<line class="st1" x1="432.8" y1="304" x2="570" y2="446.6"/>
	<line class="st1" x1="390.3" y1="337.7" x2="501" y2="455.7"/>
	<path class="st1" d="M536.4,457.4"/>
	<path class="st1" d="M39.1,457.4"/>
</g>
</svg>
