<svg xmlns="http://www.w3.org/2000/svg" width="800" height="380"><g transform="translate(50, 20)"><path class="link" d="M400,245 400,262.5 500,262.5" fill="none" stroke="#aaa" stroke-width="2.45px"/><path class="link" d="M400,245 400,227.5 500,227.5" fill="none" stroke="#aaa" stroke-width="2.45px"/><path class="link" d="M400,175 400,192.5 500,192.5" fill="none" stroke="#aaa" stroke-width="2.45px"/><path class="link" d="M400,175 400,157.5 500,157.5" fill="none" stroke="#aaa" stroke-width="2.45px"/><path class="link" d="M400,105 400,122.5 500,122.5" fill="none" stroke="#aaa" stroke-width="2.45px"/><path class="link" d="M400,105 400,87.5 500,87.5" fill="none" stroke="#aaa" stroke-width="2.45px"/><path class="link" d="M300,78.75 300,105 400,105" fill="none" stroke="#aaaaaa" stroke-width="2.45px"/><path class="link" d="M300,78.75 300,52.5 500,52.5" fill="none" stroke="#aaa" stroke-width="2.45px"/><path class="link" d="M200,126.875 200,175 400,175" fill="none" stroke="#aaaaaa" stroke-width="2.45px"/><path class="link" d="M200,126.875 200,78.75 300,78.75" fill="none" stroke="#aaa" stroke-width="2.45px"/><path class="link" d="M99.99999999999997,185.9375 99.99999999999997,245 400,245" fill="none" stroke="#aaa" stroke-width="2.45px"/><path class="link" d="M99.99999999999997,185.9375 99.99999999999997,126.875 200,126.875" fill="none" stroke="#aaa" stroke-width="2.45px"/><path class="link" d="M0,101.71875 0,185.9375 99.99999999999997,185.9375" fill="none" stroke="#aaa" stroke-width="2.45px"/><path class="link" d="M0,101.71875 0,17.5 500,17.5" fill="none" stroke="#aaa" stroke-width="2.45px"/><g class="root node" transform="translate(0,101.71875)"/><g class="inner node" transform="translate(99.99999999999997,185.9375)"/><g class="inner node" transform="translate(200,126.875)"/><g class="inner node" transform="translate(300,78.75)"/><g class="inner node" transform="translate(400,105)"/><g class="leaf node" transform="translate(500,122.5)"><text class="my-text" dx="8" dy="3" text-anchor="start" font-size="14px" fill="black" font-style="italic">Oryza sativa</text></g><g class="leaf node" transform="translate(500,87.5)"><text class="my-text" dx="8" dy="3" text-anchor="start" font-size="14px" fill="black" font-style="italic">Ananas comosus</text></g><g class="leaf node" transform="translate(500,52.5)"><text class="my-text" dx="8" dy="3" text-anchor="start" font-size="14px" fill="black" font-style="italic">Elaeis guineensis</text></g><g class="inner node" transform="translate(400,175)"/><g class="leaf node" transform="translate(500,192.5)"><text class="my-text" dx="8" dy="3" text-anchor="start" font-size="14px" fill="black" font-style="italic">Asparagus officinalis</text></g><g class="leaf node" transform="translate(500,157.5)"><text class="my-text" dx="8" dy="3" text-anchor="start" font-size="14px" fill="black" font-style="italic">Phalaenopsis equestris</text></g><g class="inner node" transform="translate(400,245)"/><g class="leaf node" transform="translate(500,262.5)"><text class="my-text" dx="8" dy="3" text-anchor="start" font-size="14px" fill="black" font-style="italic">Spirodela polyrhiza</text></g><g class="leaf node" transform="translate(500,227.5)"><text class="my-text" dx="8" dy="3" text-anchor="start" font-size="14px" fill="black" font-style="italic">Zostera marina</text></g><g class="leaf node" transform="translate(500,17.5)"><text class="my-text" dx="8" dy="3" text-anchor="start" font-size="14px" fill="black" font-style="italic">Vitis vinifera</text></g><rect x="342.5" y="95" width="10" height="20" fill="rgb(128, 0, 128)"/><rect x="292.5" y="165" width="10" height="20" fill="rgb(255, 192, 203)"/></g></svg>