<svg xmlns="http://www.w3.org/2000/svg" width="600" height="350" style="-webkit-user-select: auto;"><g class="axis axis--x" transform="translate(0, 310)" fill="none" font-size="12px" font-family="calibri" text-anchor="middle" style="-webkit-user-select: auto;"><path class="domain" stroke="currentColor" d="M80,6V0H550V6" style="-webkit-user-select: auto;"/><g class="tick" opacity="1" transform="translate(80,0)" style="-webkit-user-select: auto;"><line stroke="currentColor" y2="6" style="-webkit-user-select: auto;"/><text fill="currentColor" y="9" dy="0.71em" style="-webkit-user-select: auto;">0</text></g><g class="tick" opacity="1" transform="translate(174,0)" style="-webkit-user-select: auto;"><line stroke="currentColor" y2="6" style="-webkit-user-select: auto;"/><text fill="currentColor" y="9" dy="0.71em" style="-webkit-user-select: auto;">1</text></g><g class="tick" opacity="1" transform="translate(268,0)" style="-webkit-user-select: auto;"><line stroke="currentColor" y2="6" style="-webkit-user-select: auto;"/><text fill="currentColor" y="9" dy="0.71em" style="-webkit-user-select: auto;">2</text></g><g class="tick" opacity="1" transform="translate(362,0)" style="-webkit-user-select: auto;"><line stroke="currentColor" y2="6" style="-webkit-user-select: auto;"/><text fill="currentColor" y="9" dy="0.71em" style="-webkit-user-select: auto;">3</text></g><g class="tick" opacity="1" transform="translate(456,0)" style="-webkit-user-select: auto;"><line stroke="currentColor" y2="6" style="-webkit-user-select: auto;"/><text fill="currentColor" y="9" dy="0.71em" style="-webkit-user-select: auto;">4</text></g><g class="tick" opacity="1" transform="translate(550,0)" style="-webkit-user-select: auto;"><line stroke="currentColor" y2="6" style="-webkit-user-select: auto;"/><text fill="currentColor" y="9" dy="0.71em" style="-webkit-user-select: auto;">5</text></g></g><g class="xTitle" style="-webkit-user-select: auto;"><text x="325" y="340" text-anchor="middle" style="-webkit-user-select: auto;"><tspan font-family="times" style="font-size: 14px; -webkit-user-select: auto;"><tspan style="font-style: italic; -webkit-user-select: auto;">K</tspan><tspan dx="1px" dy="2px" style="font-size: 12px; -webkit-user-select: auto;">s</tspan></tspan></text></g><g class="axis axis--y2" transform="translate(75, 0)" fill="none" font-size="12px" font-family="calibri" text-anchor="end" style="-webkit-user-select: auto;"><path class="domain" stroke="currentColor" d="M-6,310H0V50H-6" style="-webkit-user-select: auto;"/><g class="tick" opacity="1" transform="translate(0,310)" style="-webkit-user-select: auto;"><line stroke="currentColor" x2="-6" style="-webkit-user-select: auto;"/><text fill="currentColor" x="-9" dy="0.32em" style="-webkit-user-select: auto;">0.0</text></g><g class="tick" opacity="1" transform="translate(0,284)" style="-webkit-user-select: auto;"><line stroke="currentColor" x2="-6" style="-webkit-user-select: auto;"/><text fill="currentColor" x="-9" dy="0.32em" style="-webkit-user-select: auto;">0.2</text></g><g class="tick" opacity="1" transform="translate(0,258)" style="-webkit-user-select: auto;"><line stroke="currentColor" x2="-6" style="-webkit-user-select: auto;"/><text fill="currentColor" x="-9" dy="0.32em" style="-webkit-user-select: auto;">0.4</text></g><g class="tick" opacity="1" transform="translate(0,232)" style="-webkit-user-select: auto;"><line stroke="currentColor" x2="-6" style="-webkit-user-select: auto;"/><text fill="currentColor" x="-9" dy="0.32em" style="-webkit-user-select: auto;">0.6</text></g><g class="tick" opacity="1" transform="translate(0,206)" style="-webkit-user-select: auto;"><line stroke="currentColor" x2="-6" style="-webkit-user-select: auto;"/><text fill="currentColor" x="-9" dy="0.32em" style="-webkit-user-select: auto;">0.8</text></g><g class="tick" opacity="1" transform="translate(0,180)" style="-webkit-user-select: auto;"><line stroke="currentColor" x2="-6" style="-webkit-user-select: auto;"/><text fill="currentColor" x="-9" dy="0.32em" style="-webkit-user-select: auto;">1.0</text></g><g class="tick" opacity="1" transform="translate(0,153.99999999999997)" style="-webkit-user-select: auto;"><line stroke="currentColor" x2="-6" style="-webkit-user-select: auto;"/><text fill="currentColor" x="-9" dy="0.32em" style="-webkit-user-select: auto;">1.2</text></g><g class="tick" opacity="1" transform="translate(0,127.99999999999999)" style="-webkit-user-select: auto;"><line stroke="currentColor" x2="-6" style="-webkit-user-select: auto;"/><text fill="currentColor" x="-9" dy="0.32em" style="-webkit-user-select: auto;">1.4</text></g><g class="tick" opacity="1" transform="translate(0,101.99999999999999)" style="-webkit-user-select: auto;"><line stroke="currentColor" x2="-6" style="-webkit-user-select: auto;"/><text fill="currentColor" x="-9" dy="0.32em" style="-webkit-user-select: auto;">1.6</text></g><g class="tick" opacity="1" transform="translate(0,76)" style="-webkit-user-select: auto;"><line stroke="currentColor" x2="-6" style="-webkit-user-select: auto;"/><text fill="currentColor" x="-9" dy="0.32em" style="-webkit-user-select: auto;">1.8</text></g><g class="tick" opacity="1" transform="translate(0,50)" style="-webkit-user-select: auto;"><line stroke="currentColor" x2="-6" style="-webkit-user-select: auto;"/><text fill="currentColor" x="-9" dy="0.32em" style="-webkit-user-select: auto;">2.0</text></g></g><g class="y2Title" style="-webkit-user-select: auto;"><text y="180" x="35" text-anchor="middle" font-size="14px" font-family="times" transform="rotate(-90, 35, 180)" style="-webkit-user-select: auto;">Ortholog Density</text></g><path class="area path" d="M80,309.993L80.94,309.989L81.88,309.986L82.82,309.982L83.76,309.979L84.7,309.975L85.64,309.972L86.58,309.969L87.52,309.967L88.46,309.964L89.4,309.962L90.34,309.96L91.28,309.958L92.22,309.956L93.16,309.954L94.1,309.949L95.04,309.944L95.98,309.939L96.92,309.934L97.86,309.929L98.8,309.925L99.74,309.922L100.68,309.918L101.62,309.915L102.56,309.913L103.5,309.91L104.44,309.908L105.38,309.907L106.32,309.905L107.26,309.904L108.2,309.904L109.14,309.903L110.08,309.904L111.02,309.904L111.96,309.905L112.9,309.906L113.84,309.907L114.78,309.909L115.72,309.911L116.66,309.914L117.6,309.916L118.54,309.92L119.48,309.923L120.42,309.927L121.36,309.931L122.3,309.936L123.24,309.94L124.18,309.946L125.12,309.951L126.06,309.955L127,309.956L127.94,309.958L128.88,309.96L129.82,309.963L130.76,309.962L131.7,309.96L132.64,309.959L133.58,309.957L134.52,309.952L135.46,309.946L136.4,309.935L137.34,309.924L138.28,309.913L139.22,309.904L140.16,309.892L141.1,309.874L142.04,309.852L142.98,309.822L143.92,309.788L144.86,309.754L145.8,309.719L146.74,309.678L147.68,309.64L148.62,309.598L149.56,309.547L150.5,309.494L151.44,309.431L152.38,309.365L153.32,309.301L154.26,309.239L155.2,309.175L156.14,309.109L157.08,309.038L158.02,308.963L158.96,308.865L159.9,308.754L160.84,308.627L161.78,308.494L162.72,308.359L163.66,308.207L164.6,308.041L165.54,307.868L166.48,307.67L167.42,307.455L168.36,307.224L169.3,306.977L170.24,306.717L171.18,306.427L172.12,306.107L173.06,305.76L174,305.394L174.94,305.007L175.88,304.604L176.82,304.169L177.76,303.706L178.7,303.213L179.64,302.682L180.58,302.11L181.52,301.503L182.46,300.847L183.4,300.168L184.34,299.467L185.28,298.738L186.22,297.969L187.16,297.154L188.1,296.307L189.04,295.425L189.98,294.488L190.92,293.482L191.86,292.438L192.8,291.351L193.74,290.227L194.68,289.088L195.62,287.908L196.56,286.689L197.5,285.429L198.44,284.125L199.38,282.797L200.32,281.437L201.26,280.077L202.2,278.683L203.14,277.299L204.08,275.898L205.02,274.491L205.96,273.044L206.9,271.61L207.84,270.197L208.78,268.797L209.72,267.393L210.66,265.966L211.6,264.538L212.54,263.075L213.48,261.62L214.42,260.193L215.36,258.758L216.3,257.356L217.24,255.946L218.18,254.538L219.12,253.134L220.06,251.73L221,250.355L221.94,249.005L222.88,247.648L223.82,246.313L224.76,245.026L225.7,243.771L226.64,242.548L227.58,241.329L228.52,240.139L229.46,238.971L230.4,237.858L231.34,236.827L232.28,235.851L233.22,234.913L234.16,234.033L235.1,233.19L236.04,232.413L236.98,231.64L237.92,230.848L238.86,230.095L239.8,229.382L240.74,228.693L241.68,228.085L242.62,227.539L243.56,227.032L244.5,226.567L245.44,226.145L246.38,225.791L247.32,225.464L248.26,225.197L249.2,224.975L250.14,224.78L251.08,224.609L252.02,224.479L252.96,224.361L253.9,224.325L254.84,224.391L255.78,224.506L256.72,224.639L257.66,224.759L258.6,224.936L259.54,225.138L260.48,225.375L261.42,225.7L262.36,226.073L263.3,226.532L264.24,227.011L265.18,227.525L266.12,228.086L267.06,228.647L268,229.256L268.94,229.881L269.88,230.473L270.82,231.061L271.76,231.697L272.7,232.314L273.64,232.937L274.58,233.581L275.52,234.233L276.46,234.887L277.4,235.532L278.34,236.214L279.28,236.943L280.22,237.676L281.16,238.435L282.1,239.18L283.04,239.95L283.98,240.691L284.92,241.385L285.86,242.109L286.8,242.843L287.74,243.566L288.68,244.293L289.62,245.026L290.56,245.742L291.5,246.433L292.44,247.085L293.38,247.758L294.32,248.445L295.26,249.154L296.2,249.881L297.14,250.58L298.08,251.267L299.02,251.928L299.96,252.56L300.9,253.187L301.84,253.822L302.78,254.431L303.72,254.994L304.66,255.524L305.6,256.061L306.54,256.639L307.48,257.195L308.42,257.773L309.36,258.384L310.3,259.016L311.24,259.662L312.18,260.304L313.12,260.983L314.06,261.637L315,262.311L315.94,262.99L316.88,263.65L317.82,264.275L318.76,264.91L319.7,265.501L320.64,266.052L321.58,266.606L322.52,267.136L323.46,267.661L324.4,268.163L325.34,268.654L326.28,269.185L327.22,269.684L328.16,270.164L329.1,270.633L330.04,271.084L330.98,271.54L331.92,271.988L332.86,272.478L333.8,272.945L334.74,273.398L335.68,273.818L336.62,274.229L337.56,274.63L338.5,275.03L339.44,275.394L340.38,275.751L341.32,276.136L342.26,276.524L343.2,276.868L344.14,277.204L345.08,277.536L346.02,277.847L346.96,278.13L347.9,278.387L348.84,278.622L349.78,278.84L350.72,279.029L351.66,279.222L352.6,279.417L353.54,279.628L354.48,279.842L355.42,280.053L356.36,280.295L357.3,280.517L358.24,280.747L359.18,280.971L360.12,281.225L361.06,281.469L362,281.722L362.94,281.994L363.88,282.264L364.82,282.502L365.76,282.731L366.7,282.961L367.64,283.183L368.58,283.389L369.52,283.579L370.46,283.777L371.4,283.986L372.34,284.191L373.28,284.434L374.22,284.663L375.16,284.888L376.1,285.137L377.04,285.364L377.98,285.612L378.92,285.878L379.86,286.162L380.8,286.429L381.74,286.682L382.68,286.927L383.62,287.157L384.56,287.401L385.5,287.677L386.44,287.985L387.38,288.289L388.32,288.597L389.26,288.909L390.2,289.2L391.14,289.482L392.08,289.769L393.02,290.043L393.96,290.278L394.9,290.505L395.84,290.725L396.78,290.959L397.72,291.205L398.66,291.43L399.6,291.655L400.54,291.88L401.48,292.094L402.42,292.305L403.36,292.552L404.3,292.783L405.24,293.011L406.18,293.239L407.12,293.48L408.06,293.709L409,293.936L409.94,294.17L410.88,294.409L411.82,294.611L412.76,294.79L413.7,294.954L414.64,295.11L415.58,295.266L416.52,295.438L417.46,295.598L418.4,295.753L419.34,295.882L420.28,296.002L421.22,296.115L422.16,296.237L423.1,296.359L424.04,296.451L424.98,296.532L425.92,296.615L426.86,296.695L427.8,296.769L428.74,296.837L429.68,296.903L430.62,296.937L431.56,296.971L432.5,296.984L433.44,296.996L434.38,296.986L435.32,296.942L436.26,296.899L437.2,296.855L438.14,296.802L439.08,296.781L440.02,296.757L440.96,296.712L441.9,296.656L442.84,296.602L443.78,296.568L444.72,296.544L445.66,296.486L446.6,296.414L447.54,296.342L448.48,296.276L449.42,296.237L450.36,296.22L451.3,296.213L452.24,296.224L453.18,296.24L454.12,296.266L455.06,296.303L456,296.36L456.94,296.445L457.88,296.55L458.82,296.648L459.76,296.749L460.7,296.852L461.64,296.948L462.58,297.049L463.52,297.188L464.46,297.337L465.4,297.491L466.34,297.64L467.28,297.783L468.22,297.937L469.16,298.119L470.1,298.295L471.04,298.457L471.98,298.605L472.92,298.758L473.86,298.913L474.8,299.061L475.74,299.212L476.68,299.36L477.62,299.504L478.56,299.646L479.5,299.783L480.44,299.922L481.38,300.058L482.32,300.193L483.26,300.325L484.2,300.451L485.14,300.578L486.08,300.725L487.02,300.89L487.96,301.051L488.9,301.212L489.84,301.358L490.78,301.5L491.72,301.627L492.66,301.727L493.6,301.805L494.54,301.87L495.48,301.941L496.42,302.015L497.36,302.086L498.3,302.15L499.24,302.218L500.18,302.275L501.12,302.322L502.06,302.364L503,302.412L503.94,302.467L504.88,302.525L505.82,302.57L506.76,302.621L507.7,302.668L508.64,302.695L509.58,302.696L510.52,302.71L511.46,302.726L512.4,302.737L513.34,302.745L514.28,302.763L515.22,302.803L516.16,302.86L517.1,302.923L518.04,302.989L518.98,303.051L519.92,303.116L520.86,303.181L521.8,303.243L522.74,303.317L523.68,303.386L524.62,303.445L525.56,303.492L526.5,303.541L527.44,303.598L528.38,303.67L529.32,303.757L530.26,303.854L531.2,303.964L532.14,304.095L533.08,304.237L534.02,304.395L534.96,304.557L535.9,304.739L536.84,304.917L537.78,305.099L538.72,305.281L539.66,305.47L540.6,305.666L541.54,305.867L542.48,306.069L543.42,306.268L544.36,306.469L545.3,306.672L546.24,306.872L547.18,307.068L548.12,307.258L549.06,307.44L550,307.612L550,310L549.06,310L548.12,310L547.18,310L546.24,310L545.3,310L544.36,310L543.42,310L542.48,310L541.54,310L540.6,310L539.66,310L538.72,310L537.78,310L536.84,310L535.9,310L534.96,310L534.02,310L533.08,310L532.14,310L531.2,310L530.26,310L529.32,310L528.38,310L527.44,310L526.5,310L525.56,310L524.62,310L523.68,310L522.74,310L521.8,310L520.86,310L519.92,310L518.98,310L518.04,310L517.1,310L516.16,310L515.22,310L514.28,310L513.34,310L512.4,310L511.46,310L510.52,310L509.58,310L508.64,310L507.7,310L506.76,310L505.82,310L504.88,310L503.94,310L503,310L502.06,310L501.12,310L500.18,310L499.24,310L498.3,310L497.36,310L496.42,310L495.48,310L494.54,310L493.6,310L492.66,310L491.72,310L490.78,310L489.84,310L488.9,310L487.96,310L487.02,310L486.08,310L485.14,310L484.2,310L483.26,310L482.32,310L481.38,310L480.44,310L479.5,310L478.56,310L477.62,310L476.68,310L475.74,310L474.8,310L473.86,310L472.92,310L471.98,310L471.04,310L470.1,310L469.16,310L468.22,310L467.28,310L466.34,310L465.4,310L464.46,310L463.52,310L462.58,310L461.64,310L460.7,310L459.76,310L458.82,310L457.88,310L456.94,310L456,310L455.06,310L454.12,310L453.18,310L452.24,310L451.3,310L450.36,310L449.42,310L448.48,310L447.54,310L446.6,310L445.66,310L444.72,310L443.78,310L442.84,310L441.9,310L440.96,310L440.02,310L439.08,310L438.14,310L437.2,310L436.26,310L435.32,310L434.38,310L433.44,310L432.5,310L431.56,310L430.62,310L429.68,310L428.74,310L427.8,310L426.86,310L425.92,310L424.98,310L424.04,310L423.1,310L422.16,310L421.22,310L420.28,310L419.34,310L418.4,310L417.46,310L416.52,310L415.58,310L414.64,310L413.7,310L412.76,310L411.82,310L410.88,310L409.94,310L409,310L408.06,310L407.12,310L406.18,310L405.24,310L404.3,310L403.36,310L402.42,310L401.48,310L400.54,310L399.6,310L398.66,310L397.72,310L396.78,310L395.84,310L394.9,310L393.96,310L393.02,310L392.08,310L391.14,310L390.2,310L389.26,310L388.32,310L387.38,310L386.44,310L385.5,310L384.56,310L383.62,310L382.68,310L381.74,310L380.8,310L379.86,310L378.92,310L377.98,310L377.04,310L376.1,310L375.16,310L374.22,310L373.28,310L372.34,310L371.4,310L370.46,310L369.52,310L368.58,310L367.64,310L366.7,310L365.76,310L364.82,310L363.88,310L362.94,310L362,310L361.06,310L360.12,310L359.18,310L358.24,310L357.3,310L356.36,310L355.42,310L354.48,310L353.54,310L352.6,310L351.66,310L350.72,310L349.78,310L348.84,310L347.9,310L346.96,310L346.02,310L345.08,310L344.14,310L343.2,310L342.26,310L341.32,310L340.38,310L339.44,310L338.5,310L337.56,310L336.62,310L335.68,310L334.74,310L333.8,310L332.86,310L331.92,310L330.98,310L330.04,310L329.1,310L328.16,310L327.22,310L326.28,310L325.34,310L324.4,310L323.46,310L322.52,310L321.58,310L320.64,310L319.7,310L318.76,310L317.82,310L316.88,310L315.94,310L315,310L314.06,310L313.12,310L312.18,310L311.24,310L310.3,310L309.36,310L308.42,310L307.48,310L306.54,310L305.6,310L304.66,310L303.72,310L302.78,310L301.84,310L300.9,310L299.96,310L299.02,310L298.08,310L297.14,310L296.2,310L295.26,310L294.32,310L293.38,310L292.44,310L291.5,310L290.56,310L289.62,310L288.68,310L287.74,310L286.8,310L285.86,310L284.92,310L283.98,310L283.04,310L282.1,310L281.16,310L280.22,310L279.28,310L278.34,310L277.4,310L276.46,310L275.52,310L274.58,310L273.64,310L272.7,310L271.76,310L270.82,310L269.88,310L268.94,310L268,310L267.06,310L266.12,310L265.18,310L264.24,310L263.3,310L262.36,310L261.42,310L260.48,310L259.54,310L258.6,310L257.66,310L256.72,310L255.78,310L254.84,310L253.9,310L252.96,310L252.02,310L251.08,310L250.14,310L249.2,310L248.26,310L247.32,310L246.38,310L245.44,310L244.5,310L243.56,310L242.62,310L241.68,310L240.74,310L239.8,310L238.86,310L237.92,310L236.98,310L236.04,310L235.1,310L234.16,310L233.22,310L232.28,310L231.34,310L230.4,310L229.46,310L228.52,310L227.58,310L226.64,310L225.7,310L224.76,310L223.82,310L222.88,310L221.94,310L221,310L220.06,310L219.12,310L218.18,310L217.24,310L216.3,310L215.36,310L214.42,310L213.48,310L212.54,310L211.6,310L210.66,310L209.72,310L208.78,310L207.84,310L206.9,310L205.96,310L205.02,310L204.08,310L203.14,310L202.2,310L201.26,310L200.32,310L199.38,310L198.44,310L197.5,310L196.56,310L195.62,310L194.68,310L193.74,310L192.8,310L191.86,310L190.92,310L189.98,310L189.04,310L188.1,310L187.16,310L186.22,310L185.28,310L184.34,310L183.4,310L182.46,310L181.52,310L180.58,310L179.64,310L178.7,310L177.76,310L176.82,310L175.88,310L174.94,310L174,310L173.06,310L172.12,310L171.18,310L170.24,310L169.3,310L168.36,310L167.42,310L166.48,310L165.54,310L164.6,310L163.66,310L162.72,310L161.78,310L160.84,310L159.9,310L158.96,310L158.02,310L157.08,310L156.14,310L155.2,310L154.26,310L153.32,310L152.38,310L151.44,310L150.5,310L149.56,310L148.62,310L147.68,310L146.74,310L145.8,310L144.86,310L143.92,310L142.98,310L142.04,310L141.1,310L140.16,310L139.22,310L138.28,310L137.34,310L136.4,310L135.46,310L134.52,310L133.58,310L132.64,310L131.7,310L130.76,310L129.82,310L128.88,310L127.94,310L127,310L126.06,310L125.12,310L124.18,310L123.24,310L122.3,310L121.36,310L120.42,310L119.48,310L118.54,310L117.6,310L116.66,310L115.72,310L114.78,310L113.84,310L112.9,310L111.96,310L111.02,310L110.08,310L109.14,310L108.2,310L107.26,310L106.32,310L105.38,310L104.44,310L103.5,310L102.56,310L101.62,310L100.68,310L99.74,310L98.8,310L97.86,310L96.92,310L95.98,310L95.04,310L94.1,310L93.16,310L92.22,310L91.28,310L90.34,310L89.4,310L88.46,310L87.52,310L86.58,310L85.64,310L84.7,310L83.76,310L82.82,310L81.88,310L80.94,310L80,310Z" fill-opacity="0.5" data-tippy-content="&lt;span style='color: white; background-color: #32AEEC;'&gt;Asparagus_Vitis.ks&lt;/span&gt; &lt;br&gt; Peak: &lt;span style='color: red;'&gt;1.85&lt;/span&gt; (Density: &lt;span style='color: #32AEEC;'&gt;0.66&lt;/span&gt;)&lt;br&gt;95% CIs: &lt;span style='color: white; background-color: #32AEEC';&gt;1.83 &lt;--&gt; 1.86&lt;/span&gt;" style="fill: rgb(50, 174, 236); -webkit-user-select: auto;"/><path class="area path" d="M80,309.947L80.94,309.942L81.88,309.937L82.82,309.933L83.76,309.929L84.7,309.925L85.64,309.922L86.58,309.919L87.52,309.916L88.46,309.914L89.4,309.911L90.34,309.91L91.28,309.908L92.22,309.907L93.16,309.906L94.1,309.905L95.04,309.905L95.98,309.905L96.92,309.905L97.86,309.906L98.8,309.907L99.74,309.906L100.68,309.904L101.62,309.902L102.56,309.901L103.5,309.9L104.44,309.9L105.38,309.9L106.32,309.901L107.26,309.902L108.2,309.903L109.14,309.905L110.08,309.906L111.02,309.904L111.96,309.9L112.9,309.897L113.84,309.895L114.78,309.893L115.72,309.892L116.66,309.891L117.6,309.887L118.54,309.882L119.48,309.874L120.42,309.866L121.36,309.856L122.3,309.846L123.24,309.836L124.18,309.827L125.12,309.819L126.06,309.812L127,309.802L127.94,309.792L128.88,309.782L129.82,309.767L130.76,309.75L131.7,309.732L132.64,309.713L133.58,309.694L134.52,309.671L135.46,309.648L136.4,309.621L137.34,309.587L138.28,309.553L139.22,309.518L140.16,309.476L141.1,309.433L142.04,309.386L142.98,309.327L143.92,309.261L144.86,309.191L145.8,309.108L146.74,308.997L147.68,308.867L148.62,308.729L149.56,308.579L150.5,308.407L151.44,308.221L152.38,308.005L153.32,307.753L154.26,307.459L155.2,307.124L156.14,306.759L157.08,306.364L158.02,305.944L158.96,305.458L159.9,304.943L160.84,304.373L161.78,303.742L162.72,303.052L163.66,302.338L164.6,301.564L165.54,300.727L166.48,299.859L167.42,298.932L168.36,297.961L169.3,296.939L170.24,295.866L171.18,294.753L172.12,293.557L173.06,292.274L174,290.935L174.94,289.55L175.88,288.086L176.82,286.549L177.76,284.953L178.7,283.27L179.64,281.526L180.58,279.75L181.52,277.899L182.46,275.964L183.4,273.955L184.34,271.905L185.28,269.8L186.22,267.662L187.16,265.462L188.1,263.229L189.04,260.994L189.98,258.756L190.92,256.465L191.86,254.154L192.8,251.86L193.74,249.542L194.68,247.213L195.62,244.907L196.56,242.641L197.5,240.434L198.44,238.253L199.38,236.123L200.32,234.007L201.26,231.91L202.2,229.794L203.14,227.726L204.08,225.753L205.02,223.875L205.96,222.044L206.9,220.265L207.84,218.526L208.78,216.888L209.72,215.334L210.66,213.89L211.6,212.515L212.54,211.221L213.48,210.088L214.42,209.105L215.36,208.251L216.3,207.53L217.24,206.905L218.18,206.347L219.12,205.832L220.06,205.343L221,204.942L221.94,204.65L222.88,204.427L223.82,204.275L224.76,204.223L225.7,204.265L226.64,204.44L227.58,204.748L228.52,205.117L229.46,205.528L230.4,206.006L231.34,206.54L232.28,207.113L233.22,207.743L234.16,208.379L235.1,209.065L236.04,209.823L236.98,210.658L237.92,211.502L238.86,212.343L239.8,213.228L240.74,214.133L241.68,215.076L242.62,216.039L243.56,217.004L244.5,218.007L245.44,218.999L246.38,220.024L247.32,221.058L248.26,222.132L249.2,223.157L250.14,224.176L251.08,225.239L252.02,226.341L252.96,227.454L253.9,228.534L254.84,229.593L255.78,230.682L256.72,231.788L257.66,232.864L258.6,233.904L259.54,234.917L260.48,235.935L261.42,236.997L262.36,238.065L263.3,239.153L264.24,240.228L265.18,241.278L266.12,242.312L267.06,243.318L268,244.311L268.94,245.298L269.88,246.279L270.82,247.212L271.76,248.091L272.7,248.985L273.64,249.912L274.58,250.852L275.52,251.793L276.46,252.712L277.4,253.635L278.34,254.542L279.28,255.42L280.22,256.285L281.16,257.11L282.1,257.946L283.04,258.78L283.98,259.617L284.92,260.457L285.86,261.267L286.8,262.064L287.74,262.853L288.68,263.666L289.62,264.463L290.56,265.195L291.5,265.893L292.44,266.548L293.38,267.174L294.32,267.797L295.26,268.436L296.2,269.062L297.14,269.678L298.08,270.292L299.02,270.909L299.96,271.542L300.9,272.166L301.84,272.8L302.78,273.424L303.72,274.038L304.66,274.615L305.6,275.178L306.54,275.719L307.48,276.216L308.42,276.7L309.36,277.157L310.3,277.588L311.24,277.996L312.18,278.41L313.12,278.825L314.06,279.265L315,279.722L315.94,280.182L316.88,280.642L317.82,281.079L318.76,281.472L319.7,281.846L320.64,282.197L321.58,282.53L322.52,282.863L323.46,283.183L324.4,283.49L325.34,283.801L326.28,284.08L327.22,284.359L328.16,284.635L329.1,284.927L330.04,285.199L330.98,285.465L331.92,285.73L332.86,285.994L333.8,286.272L334.74,286.557L335.68,286.851L336.62,287.142L337.56,287.431L338.5,287.726L339.44,288.003L340.38,288.265L341.32,288.532L342.26,288.791L343.2,289.053L344.14,289.313L345.08,289.555L346.02,289.794L346.96,290.046L347.9,290.305L348.84,290.576L349.78,290.837L350.72,291.079L351.66,291.325L352.6,291.591L353.54,291.875L354.48,292.158L355.42,292.444L356.36,292.738L357.3,293.038L358.24,293.331L359.18,293.62L360.12,293.897L361.06,294.176L362,294.454L362.94,294.72L363.88,294.977L364.82,295.228L365.76,295.467L366.7,295.678L367.64,295.875L368.58,296.06L369.52,296.239L370.46,296.409L371.4,296.576L372.34,296.745L373.28,296.892L374.22,297.039L375.16,297.181L376.1,297.32L377.04,297.419L377.98,297.5L378.92,297.572L379.86,297.631L380.8,297.697L381.74,297.755L382.68,297.81L383.62,297.864L384.56,297.933L385.5,298.003L386.44,298.071L387.38,298.134L388.32,298.186L389.26,298.234L390.2,298.286L391.14,298.343L392.08,298.395L393.02,298.447L393.96,298.492L394.9,298.549L395.84,298.62L396.78,298.686L397.72,298.737L398.66,298.789L399.6,298.854L400.54,298.935L401.48,298.999L402.42,299.059L403.36,299.125L404.3,299.208L405.24,299.288L406.18,299.368L407.12,299.439L408.06,299.513L409,299.591L409.94,299.673L410.88,299.761L411.82,299.852L412.76,299.919L413.7,299.97L414.64,300.02L415.58,300.065L416.52,300.123L417.46,300.171L418.4,300.227L419.34,300.303L420.28,300.378L421.22,300.462L422.16,300.539L423.1,300.62L424.04,300.688L424.98,300.744L425.92,300.795L426.86,300.837L427.8,300.894L428.74,300.951L429.68,301.014L430.62,301.091L431.56,301.167L432.5,301.244L433.44,301.331L434.38,301.417L435.32,301.487L436.26,301.544L437.2,301.592L438.14,301.651L439.08,301.721L440.02,301.79L440.96,301.861L441.9,301.934L442.84,302.024L443.78,302.121L444.72,302.221L445.66,302.319L446.6,302.426L447.54,302.537L448.48,302.628L449.42,302.713L450.36,302.782L451.3,302.845L452.24,302.91L453.18,302.969L454.12,303.012L455.06,303.055L456,303.1L456.94,303.158L457.88,303.212L458.82,303.267L459.76,303.303L460.7,303.333L461.64,303.366L462.58,303.395L463.52,303.432L464.46,303.468L465.4,303.507L466.34,303.547L467.28,303.575L468.22,303.61L469.16,303.653L470.1,303.7L471.04,303.745L471.98,303.779L472.92,303.803L473.86,303.821L474.8,303.847L475.74,303.879L476.68,303.918L477.62,303.974L478.56,304.033L479.5,304.093L480.44,304.162L481.38,304.225L482.32,304.277L483.26,304.316L484.2,304.345L485.14,304.378L486.08,304.419L487.02,304.463L487.96,304.508L488.9,304.55L489.84,304.585L490.78,304.621L491.72,304.667L492.66,304.721L493.6,304.787L494.54,304.853L495.48,304.917L496.42,304.986L497.36,305.045L498.3,305.093L499.24,305.143L500.18,305.194L501.12,305.24L502.06,305.282L503,305.32L503.94,305.359L504.88,305.402L505.82,305.449L506.76,305.495L507.7,305.539L508.64,305.588L509.58,305.647L510.52,305.713L511.46,305.783L512.4,305.85L513.34,305.904L514.28,305.95L515.22,305.993L516.16,306.041L517.1,306.086L518.04,306.126L518.98,306.152L519.92,306.169L520.86,306.184L521.8,306.191L522.74,306.198L523.68,306.206L524.62,306.223L525.56,306.25L526.5,306.275L527.44,306.308L528.38,306.347L529.32,306.387L530.26,306.423L531.2,306.463L532.14,306.509L533.08,306.568L534.02,306.632L534.96,306.698L535.9,306.768L536.84,306.829L537.78,306.894L538.72,306.963L539.66,307.038L540.6,307.121L541.54,307.206L542.48,307.295L543.42,307.394L544.36,307.502L545.3,307.616L546.24,307.729L547.18,307.841L548.12,307.952L549.06,308.061L550,308.169L550,310L549.06,310L548.12,310L547.18,310L546.24,310L545.3,310L544.36,310L543.42,310L542.48,310L541.54,310L540.6,310L539.66,310L538.72,310L537.78,310L536.84,310L535.9,310L534.96,310L534.02,310L533.08,310L532.14,310L531.2,310L530.26,310L529.32,310L528.38,310L527.44,310L526.5,310L525.56,310L524.62,310L523.68,310L522.74,310L521.8,310L520.86,310L519.92,310L518.98,310L518.04,310L517.1,310L516.16,310L515.22,310L514.28,310L513.34,310L512.4,310L511.46,310L510.52,310L509.58,310L508.64,310L507.7,310L506.76,310L505.82,310L504.88,310L503.94,310L503,310L502.06,310L501.12,310L500.18,310L499.24,310L498.3,310L497.36,310L496.42,310L495.48,310L494.54,310L493.6,310L492.66,310L491.72,310L490.78,310L489.84,310L488.9,310L487.96,310L487.02,310L486.08,310L485.14,310L484.2,310L483.26,310L482.32,310L481.38,310L480.44,310L479.5,310L478.56,310L477.62,310L476.68,310L475.74,310L474.8,310L473.86,310L472.92,310L471.98,310L471.04,310L470.1,310L469.16,310L468.22,310L467.28,310L466.34,310L465.4,310L464.46,310L463.52,310L462.58,310L461.64,310L460.7,310L459.76,310L458.82,310L457.88,310L456.94,310L456,310L455.06,310L454.12,310L453.18,310L452.24,310L451.3,310L450.36,310L449.42,310L448.48,310L447.54,310L446.6,310L445.66,310L444.72,310L443.78,310L442.84,310L441.9,310L440.96,310L440.02,310L439.08,310L438.14,310L437.2,310L436.26,310L435.32,310L434.38,310L433.44,310L432.5,310L431.56,310L430.62,310L429.68,310L428.74,310L427.8,310L426.86,310L425.92,310L424.98,310L424.04,310L423.1,310L422.16,310L421.22,310L420.28,310L419.34,310L418.4,310L417.46,310L416.52,310L415.58,310L414.64,310L413.7,310L412.76,310L411.82,310L410.88,310L409.94,310L409,310L408.06,310L407.12,310L406.18,310L405.24,310L404.3,310L403.36,310L402.42,310L401.48,310L400.54,310L399.6,310L398.66,310L397.72,310L396.78,310L395.84,310L394.9,310L393.96,310L393.02,310L392.08,310L391.14,310L390.2,310L389.26,310L388.32,310L387.38,310L386.44,310L385.5,310L384.56,310L383.62,310L382.68,310L381.74,310L380.8,310L379.86,310L378.92,310L377.98,310L377.04,310L376.1,310L375.16,310L374.22,310L373.28,310L372.34,310L371.4,310L370.46,310L369.52,310L368.58,310L367.64,310L366.7,310L365.76,310L364.82,310L363.88,310L362.94,310L362,310L361.06,310L360.12,310L359.18,310L358.24,310L357.3,310L356.36,310L355.42,310L354.48,310L353.54,310L352.6,310L351.66,310L350.72,310L349.78,310L348.84,310L347.9,310L346.96,310L346.02,310L345.08,310L344.14,310L343.2,310L342.26,310L341.32,310L340.38,310L339.44,310L338.5,310L337.56,310L336.62,310L335.68,310L334.74,310L333.8,310L332.86,310L331.92,310L330.98,310L330.04,310L329.1,310L328.16,310L327.22,310L326.28,310L325.34,310L324.4,310L323.46,310L322.52,310L321.58,310L320.64,310L319.7,310L318.76,310L317.82,310L316.88,310L315.94,310L315,310L314.06,310L313.12,310L312.18,310L311.24,310L310.3,310L309.36,310L308.42,310L307.48,310L306.54,310L305.6,310L304.66,310L303.72,310L302.78,310L301.84,310L300.9,310L299.96,310L299.02,310L298.08,310L297.14,310L296.2,310L295.26,310L294.32,310L293.38,310L292.44,310L291.5,310L290.56,310L289.62,310L288.68,310L287.74,310L286.8,310L285.86,310L284.92,310L283.98,310L283.04,310L282.1,310L281.16,310L280.22,310L279.28,310L278.34,310L277.4,310L276.46,310L275.52,310L274.58,310L273.64,310L272.7,310L271.76,310L270.82,310L269.88,310L268.94,310L268,310L267.06,310L266.12,310L265.18,310L264.24,310L263.3,310L262.36,310L261.42,310L260.48,310L259.54,310L258.6,310L257.66,310L256.72,310L255.78,310L254.84,310L253.9,310L252.96,310L252.02,310L251.08,310L250.14,310L249.2,310L248.26,310L247.32,310L246.38,310L245.44,310L244.5,310L243.56,310L242.62,310L241.68,310L240.74,310L239.8,310L238.86,310L237.92,310L236.98,310L236.04,310L235.1,310L234.16,310L233.22,310L232.28,310L231.34,310L230.4,310L229.46,310L228.52,310L227.58,310L226.64,310L225.7,310L224.76,310L223.82,310L222.88,310L221.94,310L221,310L220.06,310L219.12,310L218.18,310L217.24,310L216.3,310L215.36,310L214.42,310L213.48,310L212.54,310L211.6,310L210.66,310L209.72,310L208.78,310L207.84,310L206.9,310L205.96,310L205.02,310L204.08,310L203.14,310L202.2,310L201.26,310L200.32,310L199.38,310L198.44,310L197.5,310L196.56,310L195.62,310L194.68,310L193.74,310L192.8,310L191.86,310L190.92,310L189.98,310L189.04,310L188.1,310L187.16,310L186.22,310L185.28,310L184.34,310L183.4,310L182.46,310L181.52,310L180.58,310L179.64,310L178.7,310L177.76,310L176.82,310L175.88,310L174.94,310L174,310L173.06,310L172.12,310L171.18,310L170.24,310L169.3,310L168.36,310L167.42,310L166.48,310L165.54,310L164.6,310L163.66,310L162.72,310L161.78,310L160.84,310L159.9,310L158.96,310L158.02,310L157.08,310L156.14,310L155.2,310L154.26,310L153.32,310L152.38,310L151.44,310L150.5,310L149.56,310L148.62,310L147.68,310L146.74,310L145.8,310L144.86,310L143.92,310L142.98,310L142.04,310L141.1,310L140.16,310L139.22,310L138.28,310L137.34,310L136.4,310L135.46,310L134.52,310L133.58,310L132.64,310L131.7,310L130.76,310L129.82,310L128.88,310L127.94,310L127,310L126.06,310L125.12,310L124.18,310L123.24,310L122.3,310L121.36,310L120.42,310L119.48,310L118.54,310L117.6,310L116.66,310L115.72,310L114.78,310L113.84,310L112.9,310L111.96,310L111.02,310L110.08,310L109.14,310L108.2,310L107.26,310L106.32,310L105.38,310L104.44,310L103.5,310L102.56,310L101.62,310L100.68,310L99.74,310L98.8,310L97.86,310L96.92,310L95.98,310L95.04,310L94.1,310L93.16,310L92.22,310L91.28,310L90.34,310L89.4,310L88.46,310L87.52,310L86.58,310L85.64,310L84.7,310L83.76,310L82.82,310L81.88,310L80.94,310L80,310Z" fill-opacity="0.5" data-tippy-content="&lt;span style='color: white; background-color: #E2AE79;'&gt;Elaeis_Vitis.ks&lt;/span&gt; &lt;br&gt; Peak: &lt;span style='color: red;'&gt;1.54&lt;/span&gt; (Density: &lt;span style='color: #E2AE79;'&gt;0.81&lt;/span&gt;)&lt;br&gt;95% CIs: &lt;span style='color: white; background-color: #E2AE79';&gt;1.52 &lt;--&gt; 1.55&lt;/span&gt;" style="fill: rgb(226, 174, 121); -webkit-user-select: auto;"/><path class="area path" d="M80,309.987L80.94,309.975L81.88,309.964L82.82,309.953L83.76,309.94L84.7,309.925L85.64,309.91L86.58,309.895L87.52,309.882L88.46,309.869L89.4,309.857L90.34,309.846L91.28,309.835L92.22,309.826L93.16,309.817L94.1,309.808L95.04,309.801L95.98,309.794L96.92,309.788L97.86,309.783L98.8,309.778L99.74,309.775L100.68,309.766L101.62,309.758L102.56,309.75L103.5,309.744L104.44,309.739L105.38,309.735L106.32,309.73L107.26,309.722L108.2,309.71L109.14,309.698L110.08,309.688L111.02,309.679L111.96,309.67L112.9,309.658L113.84,309.648L114.78,309.64L115.72,309.634L116.66,309.629L117.6,309.626L118.54,309.625L119.48,309.626L120.42,309.628L121.36,309.632L122.3,309.638L123.24,309.646L124.18,309.655L125.12,309.666L126.06,309.678L127,309.681L127.94,309.684L128.88,309.688L129.82,309.694L130.76,309.698L131.7,309.696L132.64,309.693L133.58,309.691L134.52,309.686L135.46,309.68L136.4,309.676L137.34,309.673L138.28,309.672L139.22,309.673L140.16,309.675L141.1,309.678L142.04,309.677L142.98,309.678L143.92,309.68L144.86,309.684L145.8,309.69L146.74,309.697L147.68,309.701L148.62,309.705L149.56,309.705L150.5,309.707L151.44,309.709L152.38,309.708L153.32,309.707L154.26,309.703L155.2,309.696L156.14,309.689L157.08,309.684L158.02,309.681L158.96,309.676L159.9,309.666L160.84,309.655L161.78,309.644L162.72,309.635L163.66,309.623L164.6,309.602L165.54,309.58L166.48,309.56L167.42,309.531L168.36,309.498L169.3,309.465L170.24,309.419L171.18,309.373L172.12,309.319L173.06,309.261L174,309.208L174.94,309.159L175.88,309.106L176.82,309.051L177.76,308.985L178.7,308.906L179.64,308.815L180.58,308.719L181.52,308.619L182.46,308.505L183.4,308.372L184.34,308.232L185.28,308.07L186.22,307.9L187.16,307.724L188.1,307.536L189.04,307.337L189.98,307.128L190.92,306.911L191.86,306.687L192.8,306.451L193.74,306.203L194.68,305.948L195.62,305.693L196.56,305.434L197.5,305.178L198.44,304.93L199.38,304.683L200.32,304.438L201.26,304.189L202.2,303.934L203.14,303.664L204.08,303.38L205.02,303.084L205.96,302.803L206.9,302.529L207.84,302.216L208.78,301.86L209.72,301.469L210.66,301.037L211.6,300.589L212.54,300.131L213.48,299.666L214.42,299.183L215.36,298.662L216.3,298.136L217.24,297.589L218.18,296.994L219.12,296.348L220.06,295.669L221,294.983L221.94,294.285L222.88,293.544L223.82,292.81L224.76,292.067L225.7,291.308L226.64,290.538L227.58,289.747L228.52,288.946L229.46,288.117L230.4,287.271L231.34,286.441L232.28,285.595L233.22,284.765L234.16,283.94L235.1,283.085L236.04,282.215L236.98,281.334L237.92,280.419L238.86,279.501L239.8,278.547L240.74,277.594L241.68,276.642L242.62,275.703L243.56,274.78L244.5,273.881L245.44,273.005L246.38,272.125L247.32,271.247L248.26,270.377L249.2,269.46L250.14,268.524L251.08,267.583L252.02,266.711L252.96,265.957L253.9,265.267L254.84,264.551L255.78,263.793L256.72,263.015L257.66,262.208L258.6,261.438L259.54,260.686L260.48,259.929L261.42,259.201L262.36,258.507L263.3,257.823L264.24,257.172L265.18,256.5L266.12,255.821L267.06,255.123L268,254.439L268.94,253.751L269.88,253.053L270.82,252.417L271.76,251.797L272.7,251.205L273.64,250.658L274.58,250.125L275.52,249.612L276.46,249.12L277.4,248.634L278.34,248.189L279.28,247.785L280.22,247.425L281.16,247.116L282.1,246.818L283.04,246.501L283.98,246.179L284.92,245.786L285.86,245.415L286.8,245.095L287.74,244.796L288.68,244.505L289.62,244.27L290.56,244.029L291.5,243.794L292.44,243.593L293.38,243.418L294.32,243.251L295.26,243.102L296.2,242.93L297.14,242.755L298.08,242.567L299.02,242.448L299.96,242.407L300.9,242.41L301.84,242.414L302.78,242.436L303.72,242.429L304.66,242.386L305.6,242.34L306.54,242.344L307.48,242.371L308.42,242.428L309.36,242.567L310.3,242.735L311.24,242.962L312.18,243.143L313.12,243.353L314.06,243.523L315,243.733L315.94,243.945L316.88,244.17L317.82,244.458L318.76,244.73L319.7,245.04L320.64,245.381L321.58,245.717L322.52,246.107L323.46,246.542L324.4,246.987L325.34,247.449L326.28,247.925L327.22,248.411L328.16,248.959L329.1,249.539L330.04,250.105L330.98,250.62L331.92,251.101L332.86,251.607L333.8,252.169L334.74,252.763L335.68,253.345L336.62,253.945L337.56,254.551L338.5,255.166L339.44,255.821L340.38,256.495L341.32,257.157L342.26,257.792L343.2,258.457L344.14,259.088L345.08,259.698L346.02,260.313L346.96,260.916L347.9,261.515L348.84,262.105L349.78,262.688L350.72,263.223L351.66,263.705L352.6,264.118L353.54,264.527L354.48,264.973L355.42,265.428L356.36,265.903L357.3,266.364L358.24,266.841L359.18,267.261L360.12,267.64L361.06,267.96L362,268.316L362.94,268.66L363.88,268.977L364.82,269.297L365.76,269.558L366.7,269.808L367.64,270.048L368.58,270.252L369.52,270.506L370.46,270.748L371.4,270.983L372.34,271.188L373.28,271.345L374.22,271.443L375.16,271.504L376.1,271.558L377.04,271.594L377.98,271.59L378.92,271.6L379.86,271.65L380.8,271.677L381.74,271.735L382.68,271.819L383.62,271.886L384.56,271.991L385.5,272.173L386.44,272.401L387.38,272.621L388.32,272.841L389.26,273.037L390.2,273.251L391.14,273.437L392.08,273.618L393.02,273.813L393.96,274.035L394.9,274.265L395.84,274.517L396.78,274.763L397.72,275.036L398.66,275.297L399.6,275.543L400.54,275.75L401.48,275.988L402.42,276.283L403.36,276.595L404.3,276.888L405.24,277.193L406.18,277.507L407.12,277.765L408.06,278.036L409,278.338L409.94,278.663L410.88,278.95L411.82,279.247L412.76,279.528L413.7,279.796L414.64,280.083L415.58,280.363L416.52,280.664L417.46,280.964L418.4,281.269L419.34,281.569L420.28,281.868L421.22,282.126L422.16,282.31L423.1,282.49L424.04,282.644L424.98,282.817L425.92,282.977L426.86,283.158L427.8,283.325L428.74,283.473L429.68,283.642L430.62,283.821L431.56,283.984L432.5,284.15L433.44,284.307L434.38,284.446L435.32,284.602L436.26,284.753L437.2,284.918L438.14,285.079L439.08,285.219L440.02,285.324L440.96,285.404L441.9,285.501L442.84,285.599L443.78,285.671L444.72,285.764L445.66,285.832L446.6,285.891L447.54,285.906L448.48,285.944L449.42,286.019L450.36,286.095L451.3,286.175L452.24,286.279L453.18,286.38L454.12,286.458L455.06,286.562L456,286.688L456.94,286.852L457.88,286.99L458.82,287.135L459.76,287.25L460.7,287.378L461.64,287.534L462.58,287.657L463.52,287.764L464.46,287.868L465.4,287.983L466.34,288.123L467.28,288.286L468.22,288.455L469.16,288.607L470.1,288.787L471.04,288.966L471.98,289.167L472.92,289.352L473.86,289.534L474.8,289.732L475.74,289.913L476.68,290.097L477.62,290.286L478.56,290.473L479.5,290.631L480.44,290.778L481.38,290.905L482.32,291.045L483.26,291.165L484.2,291.303L485.14,291.436L486.08,291.577L487.02,291.673L487.96,291.723L488.9,291.803L489.84,291.859L490.78,291.861L491.72,291.855L492.66,291.842L493.6,291.82L494.54,291.78L495.48,291.768L496.42,291.758L497.36,291.742L498.3,291.726L499.24,291.718L500.18,291.701L501.12,291.686L502.06,291.683L503,291.713L503.94,291.77L504.88,291.834L505.82,291.89L506.76,291.903L507.7,291.926L508.64,291.978L509.58,292.032L510.52,292.095L511.46,292.171L512.4,292.253L513.34,292.349L514.28,292.449L515.22,292.558L516.16,292.695L517.1,292.861L518.04,293.013L518.98,293.168L519.92,293.317L520.86,293.46L521.8,293.617L522.74,293.76L523.68,293.912L524.62,294.06L525.56,294.216L526.5,294.385L527.44,294.576L528.38,294.783L529.32,295.017L530.26,295.258L531.2,295.519L532.14,295.803L533.08,296.131L534.02,296.465L534.96,296.802L535.9,297.164L536.84,297.525L537.78,297.879L538.72,298.241L539.66,298.621L540.6,299.008L541.54,299.405L542.48,299.819L543.42,300.243L544.36,300.674L545.3,301.112L546.24,301.555L547.18,301.991L548.12,302.426L549.06,302.864L550,303.313L550,310L549.06,310L548.12,310L547.18,310L546.24,310L545.3,310L544.36,310L543.42,310L542.48,310L541.54,310L540.6,310L539.66,310L538.72,310L537.78,310L536.84,310L535.9,310L534.96,310L534.02,310L533.08,310L532.14,310L531.2,310L530.26,310L529.32,310L528.38,310L527.44,310L526.5,310L525.56,310L524.62,310L523.68,310L522.74,310L521.8,310L520.86,310L519.92,310L518.98,310L518.04,310L517.1,310L516.16,310L515.22,310L514.28,310L513.34,310L512.4,310L511.46,310L510.52,310L509.58,310L508.64,310L507.7,310L506.76,310L505.82,310L504.88,310L503.94,310L503,310L502.06,310L501.12,310L500.18,310L499.24,310L498.3,310L497.36,310L496.42,310L495.48,310L494.54,310L493.6,310L492.66,310L491.72,310L490.78,310L489.84,310L488.9,310L487.96,310L487.02,310L486.08,310L485.14,310L484.2,310L483.26,310L482.32,310L481.38,310L480.44,310L479.5,310L478.56,310L477.62,310L476.68,310L475.74,310L474.8,310L473.86,310L472.92,310L471.98,310L471.04,310L470.1,310L469.16,310L468.22,310L467.28,310L466.34,310L465.4,310L464.46,310L463.52,310L462.58,310L461.64,310L460.7,310L459.76,310L458.82,310L457.88,310L456.94,310L456,310L455.06,310L454.12,310L453.18,310L452.24,310L451.3,310L450.36,310L449.42,310L448.48,310L447.54,310L446.6,310L445.66,310L444.72,310L443.78,310L442.84,310L441.9,310L440.96,310L440.02,310L439.08,310L438.14,310L437.2,310L436.26,310L435.32,310L434.38,310L433.44,310L432.5,310L431.56,310L430.62,310L429.68,310L428.74,310L427.8,310L426.86,310L425.92,310L424.98,310L424.04,310L423.1,310L422.16,310L421.22,310L420.28,310L419.34,310L418.4,310L417.46,310L416.52,310L415.58,310L414.64,310L413.7,310L412.76,310L411.82,310L410.88,310L409.94,310L409,310L408.06,310L407.12,310L406.18,310L405.24,310L404.3,310L403.36,310L402.42,310L401.48,310L400.54,310L399.6,310L398.66,310L397.72,310L396.78,310L395.84,310L394.9,310L393.96,310L393.02,310L392.08,310L391.14,310L390.2,310L389.26,310L388.32,310L387.38,310L386.44,310L385.5,310L384.56,310L383.62,310L382.68,310L381.74,310L380.8,310L379.86,310L378.92,310L377.98,310L377.04,310L376.1,310L375.16,310L374.22,310L373.28,310L372.34,310L371.4,310L370.46,310L369.52,310L368.58,310L367.64,310L366.7,310L365.76,310L364.82,310L363.88,310L362.94,310L362,310L361.06,310L360.12,310L359.18,310L358.24,310L357.3,310L356.36,310L355.42,310L354.48,310L353.54,310L352.6,310L351.66,310L350.72,310L349.78,310L348.84,310L347.9,310L346.96,310L346.02,310L345.08,310L344.14,310L343.2,310L342.26,310L341.32,310L340.38,310L339.44,310L338.5,310L337.56,310L336.62,310L335.68,310L334.74,310L333.8,310L332.86,310L331.92,310L330.98,310L330.04,310L329.1,310L328.16,310L327.22,310L326.28,310L325.34,310L324.4,310L323.46,310L322.52,310L321.58,310L320.64,310L319.7,310L318.76,310L317.82,310L316.88,310L315.94,310L315,310L314.06,310L313.12,310L312.18,310L311.24,310L310.3,310L309.36,310L308.42,310L307.48,310L306.54,310L305.6,310L304.66,310L303.72,310L302.78,310L301.84,310L300.9,310L299.96,310L299.02,310L298.08,310L297.14,310L296.2,310L295.26,310L294.32,310L293.38,310L292.44,310L291.5,310L290.56,310L289.62,310L288.68,310L287.74,310L286.8,310L285.86,310L284.92,310L283.98,310L283.04,310L282.1,310L281.16,310L280.22,310L279.28,310L278.34,310L277.4,310L276.46,310L275.52,310L274.58,310L273.64,310L272.7,310L271.76,310L270.82,310L269.88,310L268.94,310L268,310L267.06,310L266.12,310L265.18,310L264.24,310L263.3,310L262.36,310L261.42,310L260.48,310L259.54,310L258.6,310L257.66,310L256.72,310L255.78,310L254.84,310L253.9,310L252.96,310L252.02,310L251.08,310L250.14,310L249.2,310L248.26,310L247.32,310L246.38,310L245.44,310L244.5,310L243.56,310L242.62,310L241.68,310L240.74,310L239.8,310L238.86,310L237.92,310L236.98,310L236.04,310L235.1,310L234.16,310L233.22,310L232.28,310L231.34,310L230.4,310L229.46,310L228.52,310L227.58,310L226.64,310L225.7,310L224.76,310L223.82,310L222.88,310L221.94,310L221,310L220.06,310L219.12,310L218.18,310L217.24,310L216.3,310L215.36,310L214.42,310L213.48,310L212.54,310L211.6,310L210.66,310L209.72,310L208.78,310L207.84,310L206.9,310L205.96,310L205.02,310L204.08,310L203.14,310L202.2,310L201.26,310L200.32,310L199.38,310L198.44,310L197.5,310L196.56,310L195.62,310L194.68,310L193.74,310L192.8,310L191.86,310L190.92,310L189.98,310L189.04,310L188.1,310L187.16,310L186.22,310L185.28,310L184.34,310L183.4,310L182.46,310L181.52,310L180.58,310L179.64,310L178.7,310L177.76,310L176.82,310L175.88,310L174.94,310L174,310L173.06,310L172.12,310L171.18,310L170.24,310L169.3,310L168.36,310L167.42,310L166.48,310L165.54,310L164.6,310L163.66,310L162.72,310L161.78,310L160.84,310L159.9,310L158.96,310L158.02,310L157.08,310L156.14,310L155.2,310L154.26,310L153.32,310L152.38,310L151.44,310L150.5,310L149.56,310L148.62,310L147.68,310L146.74,310L145.8,310L144.86,310L143.92,310L142.98,310L142.04,310L141.1,310L140.16,310L139.22,310L138.28,310L137.34,310L136.4,310L135.46,310L134.52,310L133.58,310L132.64,310L131.7,310L130.76,310L129.82,310L128.88,310L127.94,310L127,310L126.06,310L125.12,310L124.18,310L123.24,310L122.3,310L121.36,310L120.42,310L119.48,310L118.54,310L117.6,310L116.66,310L115.72,310L114.78,310L113.84,310L112.9,310L111.96,310L111.02,310L110.08,310L109.14,310L108.2,310L107.26,310L106.32,310L105.38,310L104.44,310L103.5,310L102.56,310L101.62,310L100.68,310L99.74,310L98.8,310L97.86,310L96.92,310L95.98,310L95.04,310L94.1,310L93.16,310L92.22,310L91.28,310L90.34,310L89.4,310L88.46,310L87.52,310L86.58,310L85.64,310L84.7,310L83.76,310L82.82,310L81.88,310L80.94,310L80,310Z" fill-opacity="0.5" data-tippy-content="&lt;span style='color: white; background-color: #8E549E;'&gt;Oryza_Vitis.ks&lt;/span&gt; &lt;br&gt; Peak: &lt;span style='color: red;'&gt;2.4&lt;/span&gt; (Density: &lt;span style='color: #8E549E;'&gt;0.52&lt;/span&gt;)&lt;br&gt;95% CIs: &lt;span style='color: white; background-color: #8E549E';&gt;2.39 &lt;--&gt; 2.42&lt;/span&gt;" style="fill: rgb(142, 84, 158); -webkit-user-select: auto;"/><line x1="253.9" y1="310" x2="253.9" y2="50" style="stroke: rgb(50, 174, 236); stroke-width: 1.4; stroke-dasharray: 5, 5; -webkit-user-select: auto;"/><rect x="252.01999999999998" y="50" width="2.8200000000000216" height="260" data-tippy-content="Peak: &lt;span style='color: #EA7500;'&gt;1.85&lt;/span&gt;&lt;br&gt;95% CIs: &lt;span style='color: undefined; background-color: undefined';&gt;1.83 &lt;--&gt; 1.86&lt;/span&gt;" style="fill: rgb(50, 174, 236); fill-opacity: 0.2; -webkit-user-select: auto;"/><line x1="224.76" y1="310" x2="224.76" y2="50" style="stroke: rgb(226, 174, 121); stroke-width: 1.4; stroke-dasharray: 5, 5; -webkit-user-select: auto;"/><rect x="222.88" y="50" width="2.819999999999993" height="260" data-tippy-content="Peak: &lt;span style='color: #D2352C;'&gt;1.54&lt;/span&gt;&lt;br&gt;95% CIs: &lt;span style='color: undefined; background-color: undefined';&gt;1.52 &lt;--&gt; 1.55&lt;/span&gt;" style="fill: rgb(226, 174, 121); fill-opacity: 0.2; -webkit-user-select: auto;"/><line x1="305.6" y1="310" x2="305.6" y2="50" style="stroke: rgb(142, 84, 158); stroke-width: 1.4; stroke-dasharray: 5, 5; -webkit-user-select: auto;"/><rect x="304.66" y="50" width="2.819999999999993" height="260" data-tippy-content="Peak: &lt;span style='color: #394A92;'&gt;2.4&lt;/span&gt;&lt;br&gt;95% CIs: &lt;span style='color: undefined; background-color: undefined';&gt;2.39 &lt;--&gt; 2.42&lt;/span&gt;" style="fill: rgb(142, 84, 158); fill-opacity: 0.2; -webkit-user-select: auto;"/><g class="legend" transform="translate(400, 20)" style="-webkit-user-select: auto;"><g class="legend-item" transform="translate(0, 0)" style="-webkit-user-select: auto;"><rect x="0" y="0" width="10" height="10" fill="#32AEEC" fill-opacity="0.5" style="-webkit-user-select: auto;"/><text x="20" y="10" font-family="calibri" font-size="12px" fill="#333" style="-webkit-user-select: auto;">Asparagus_Vitis</text></g><g class="legend-item" transform="translate(0, 20)" style="-webkit-user-select: auto;"><rect x="0" y="0" width="10" height="10" fill="#E2AE79" fill-opacity="0.5" style="-webkit-user-select: auto;"/><text x="20" y="10" font-family="calibri" font-size="12px" fill="#333" style="-webkit-user-select: auto;">Elaeis_Vitis</text></g><g class="legend-item" transform="translate(0, 40)" style="-webkit-user-select: auto;"><rect x="0" y="0" width="10" height="10" fill="#8E549E" fill-opacity="0.5" style="-webkit-user-select: auto;"/><text x="20" y="10" font-family="calibri" font-size="12px" fill="#333" style="-webkit-user-select: auto;">Oryza_Vitis</text></g></g></svg>