<svg xmlns="http://www.w3.org/2000/svg" width="600" height="350"><g class="axis axis--x" transform="translate(0, 310)" fill="none" font-size="12px" font-family="sans-serif" text-anchor="middle"><path class="domain" stroke="currentColor" d="M80,6V0H550V6"/><g class="tick" opacity="1" transform="translate(80,0)"><line stroke="currentColor" y2="6"/><text fill="currentColor" y="9" dy="0.71em">0</text></g><g class="tick" opacity="1" transform="translate(174,0)"><line stroke="currentColor" y2="6"/><text fill="currentColor" y="9" dy="0.71em">1</text></g><g class="tick" opacity="1" transform="translate(268,0)"><line stroke="currentColor" y2="6"/><text fill="currentColor" y="9" dy="0.71em">2</text></g><g class="tick" opacity="1" transform="translate(362,0)"><line stroke="currentColor" y2="6"/><text fill="currentColor" y="9" dy="0.71em">3</text></g><g class="tick" opacity="1" transform="translate(456,0)"><line stroke="currentColor" y2="6"/><text fill="currentColor" y="9" dy="0.71em">4</text></g><g class="tick" opacity="1" transform="translate(550,0)"><line stroke="currentColor" y2="6"/><text fill="currentColor" y="9" dy="0.71em">5</text></g></g><g class="xTitle"><text x="325" y="340" text-anchor="middle"><tspan style="font-size: 14px;"><tspan style="font-style: italic;">K</tspan><tspan dx="1px" dy="2px" style="font-size: 12px;">s</tspan></tspan></text></g><g class="axis axis--y2" transform="translate(75, 0)" fill="none" font-size="12px" font-family="sans-serif" text-anchor="end"><path class="domain" stroke="currentColor" d="M-6,310H0V50H-6"/><g class="tick" opacity="1" transform="translate(0,310)"><line stroke="currentColor" x2="-6"/><text fill="currentColor" x="-9" dy="0.32em">0.0</text></g><g class="tick" opacity="1" transform="translate(0,284)"><line stroke="currentColor" x2="-6"/><text fill="currentColor" x="-9" dy="0.32em">0.2</text></g><g class="tick" opacity="1" transform="translate(0,258)"><line stroke="currentColor" x2="-6"/><text fill="currentColor" x="-9" dy="0.32em">0.4</text></g><g class="tick" opacity="1" transform="translate(0,232)"><line stroke="currentColor" x2="-6"/><text fill="currentColor" x="-9" dy="0.32em">0.6</text></g><g class="tick" opacity="1" transform="translate(0,206)"><line stroke="currentColor" x2="-6"/><text fill="currentColor" x="-9" dy="0.32em">0.8</text></g><g class="tick" opacity="1" transform="translate(0,180)"><line stroke="currentColor" x2="-6"/><text fill="currentColor" x="-9" dy="0.32em">1.0</text></g><g class="tick" opacity="1" transform="translate(0,153.99999999999997)"><line stroke="currentColor" x2="-6"/><text fill="currentColor" x="-9" dy="0.32em">1.2</text></g><g class="tick" opacity="1" transform="translate(0,127.99999999999999)"><line stroke="currentColor" x2="-6"/><text fill="currentColor" x="-9" dy="0.32em">1.4</text></g><g class="tick" opacity="1" transform="translate(0,101.99999999999999)"><line stroke="currentColor" x2="-6"/><text fill="currentColor" x="-9" dy="0.32em">1.6</text></g><g class="tick" opacity="1" transform="translate(0,76)"><line stroke="currentColor" x2="-6"/><text fill="currentColor" x="-9" dy="0.32em">1.8</text></g><g class="tick" opacity="1" transform="translate(0,50)"><line stroke="currentColor" x2="-6"/><text fill="currentColor" x="-9" dy="0.32em">2.0</text></g></g><g class="y2Title"><text y="180" x="35" text-anchor="middle" font-size="14px" transform="rotate(-90, 35, 180)">Ortholog Density</text></g><path class="area path" d="M80,309.805L80.94,309.792L81.88,309.778L82.82,309.766L83.76,309.755L84.7,309.745L85.64,309.733L86.58,309.722L87.52,309.711L88.46,309.699L89.4,309.688L90.34,309.676L91.28,309.665L92.22,309.656L93.16,309.647L94.1,309.641L95.04,309.636L95.98,309.632L96.92,309.629L97.86,309.628L98.8,309.628L99.74,309.627L100.68,309.627L101.62,309.629L102.56,309.63L103.5,309.63L104.44,309.631L105.38,309.63L106.32,309.628L107.26,309.625L108.2,309.619L109.14,309.606L110.08,309.585L111.02,309.554L111.96,309.516L112.9,309.466L113.84,309.398L114.78,309.313L115.72,309.204L116.66,309.064L117.6,308.889L118.54,308.672L119.48,308.405L120.42,308.075L121.36,307.685L122.3,307.195L123.24,306.62L124.18,305.972L125.12,305.211L126.06,304.333L127,303.306L127.94,302.145L128.88,300.841L129.82,299.384L130.76,297.75L131.7,295.964L132.64,294.055L133.58,291.971L134.52,289.724L135.46,287.255L136.4,284.586L137.34,281.716L138.28,278.661L139.22,275.429L140.16,272.067L141.1,268.557L142.04,264.898L142.98,261.138L143.92,257.327L144.86,253.449L145.8,249.407L146.74,245.231L147.68,240.986L148.62,236.721L149.56,232.404L150.5,228.049L151.44,223.681L152.38,219.372L153.32,215.095L154.26,210.894L155.2,206.778L156.14,202.778L157.08,198.925L158.02,195.141L158.96,191.497L159.9,188.017L160.84,184.748L161.78,181.685L162.72,178.815L163.66,176.124L164.6,173.717L165.54,171.549L166.48,169.649L167.42,168.046L168.36,166.706L169.3,165.608L170.24,164.765L171.18,164.167L172.12,163.791L173.06,163.632L174,163.751L174.94,164.122L175.88,164.697L176.82,165.492L177.76,166.47L178.7,167.626L179.64,168.996L180.58,170.52L181.52,172.188L182.46,173.932L183.4,175.744L184.34,177.616L185.28,179.573L186.22,181.596L187.16,183.705L188.1,185.876L189.04,188.084L189.98,190.362L190.92,192.725L191.86,195.141L192.8,197.502L193.74,199.797L194.68,202.074L195.62,204.352L196.56,206.582L197.5,208.776L198.44,210.929L199.38,213.068L200.32,215.142L201.26,217.174L202.2,219.177L203.14,221.155L204.08,223.123L205.02,224.968L205.96,226.751L206.9,228.464L207.84,230.156L208.78,231.795L209.72,233.348L210.66,234.798L211.6,236.258L212.54,237.677L213.48,239.099L214.42,240.54L215.36,241.957L216.3,243.358L217.24,244.757L218.18,246.12L219.12,247.427L220.06,248.68L221,249.961L221.94,251.23L222.88,252.46L223.82,253.662L224.76,254.845L225.7,256.005L226.64,257.115L227.58,258.186L228.52,259.218L229.46,260.237L230.4,261.223L231.34,262.173L232.28,263.115L233.22,264.055L234.16,264.962L235.1,265.873L236.04,266.745L236.98,267.61L237.92,268.443L238.86,269.242L239.8,270.022L240.74,270.796L241.68,271.574L242.62,272.322L243.56,273.049L244.5,273.786L245.44,274.512L246.38,275.221L247.32,275.894L248.26,276.533L249.2,277.147L250.14,277.759L251.08,278.364L252.02,278.946L252.96,279.527L253.9,280.069L254.84,280.597L255.78,281.088L256.72,281.544L257.66,281.985L258.6,282.416L259.54,282.829L260.48,283.26L261.42,283.666L262.36,284.058L263.3,284.447L264.24,284.861L265.18,285.3L266.12,285.729L267.06,286.168L268,286.624L268.94,287.048L269.88,287.455L270.82,287.83L271.76,288.179L272.7,288.528L273.64,288.836L274.58,289.128L275.52,289.413L276.46,289.682L277.4,289.959L278.34,290.237L279.28,290.521L280.22,290.809L281.16,291.076L282.1,291.341L283.04,291.57L283.98,291.791L284.92,292.007L285.86,292.214L286.8,292.403L287.74,292.602L288.68,292.815L289.62,293.031L290.56,293.244L291.5,293.455L292.44,293.656L293.38,293.864L294.32,294.062L295.26,294.256L296.2,294.428L297.14,294.62L298.08,294.825L299.02,295.023L299.96,295.224L300.9,295.413L301.84,295.614L302.78,295.809L303.72,296.017L304.66,296.228L305.6,296.442L306.54,296.655L307.48,296.871L308.42,297.07L309.36,297.256L310.3,297.448L311.24,297.641L312.18,297.832L313.12,298.024L314.06,298.23L315,298.463L315.94,298.681L316.88,298.89L317.82,299.089L318.76,299.273L319.7,299.442L320.64,299.603L321.58,299.768L322.52,299.933L323.46,300.058L324.4,300.176L325.34,300.301L326.28,300.444L327.22,300.588L328.16,300.724L329.1,300.849L330.04,300.974L330.98,301.106L331.92,301.245L332.86,301.396L333.8,301.542L334.74,301.676L335.68,301.809L336.62,301.947L337.56,302.086L338.5,302.202L339.44,302.314L340.38,302.432L341.32,302.537L342.26,302.647L343.2,302.757L344.14,302.877L345.08,302.998L346.02,303.107L346.96,303.205L347.9,303.286L348.84,303.365L349.78,303.446L350.72,303.541L351.66,303.628L352.6,303.717L353.54,303.809L354.48,303.89L355.42,303.962L356.36,304.023L357.3,304.099L358.24,304.176L359.18,304.237L360.12,304.294L361.06,304.353L362,304.406L362.94,304.463L363.88,304.52L364.82,304.581L365.76,304.644L366.7,304.698L367.64,304.755L368.58,304.805L369.52,304.845L370.46,304.869L371.4,304.879L372.34,304.887L373.28,304.889L374.22,304.882L375.16,304.868L376.1,304.853L377.04,304.843L377.98,304.849L378.92,304.857L379.86,304.868L380.8,304.881L381.74,304.89L382.68,304.899L383.62,304.902L384.56,304.906L385.5,304.897L386.44,304.885L387.38,304.884L388.32,304.884L389.26,304.894L390.2,304.91L391.14,304.931L392.08,304.943L393.02,304.961L393.96,304.985L394.9,305.002L395.84,305.016L396.78,305.032L397.72,305.057L398.66,305.096L399.6,305.145L400.54,305.194L401.48,305.239L402.42,305.278L403.36,305.302L404.3,305.33L405.24,305.368L406.18,305.398L407.12,305.427L408.06,305.459L409,305.49L409.94,305.535L410.88,305.581L411.82,305.632L412.76,305.694L413.7,305.757L414.64,305.826L415.58,305.895L416.52,305.967L417.46,306.045L418.4,306.115L419.34,306.187L420.28,306.248L421.22,306.3L422.16,306.344L423.1,306.39L424.04,306.438L424.98,306.483L425.92,306.53L426.86,306.575L427.8,306.619L428.74,306.666L429.68,306.709L430.62,306.752L431.56,306.789L432.5,306.82L433.44,306.848L434.38,306.879L435.32,306.916L436.26,306.96L437.2,307.001L438.14,307.042L439.08,307.081L440.02,307.123L440.96,307.165L441.9,307.203L442.84,307.24L443.78,307.277L444.72,307.315L445.66,307.352L446.6,307.386L447.54,307.414L448.48,307.439L449.42,307.463L450.36,307.474L451.3,307.482L452.24,307.491L453.18,307.498L454.12,307.51L455.06,307.519L456,307.528L456.94,307.54L457.88,307.551L458.82,307.562L459.76,307.576L460.7,307.579L461.64,307.586L462.58,307.596L463.52,307.604L464.46,307.616L465.4,307.62L466.34,307.623L467.28,307.62L468.22,307.614L469.16,307.61L470.1,307.612L471.04,307.615L471.98,307.612L472.92,307.61L473.86,307.608L474.8,307.604L475.74,307.606L476.68,307.605L477.62,307.609L478.56,307.617L479.5,307.62L480.44,307.616L481.38,307.616L482.32,307.621L483.26,307.623L484.2,307.624L485.14,307.626L486.08,307.64L487.02,307.662L487.96,307.691L488.9,307.715L489.84,307.733L490.78,307.75L491.72,307.771L492.66,307.788L493.6,307.803L494.54,307.811L495.48,307.816L496.42,307.823L497.36,307.828L498.3,307.835L499.24,307.844L500.18,307.855L501.12,307.871L502.06,307.886L503,307.905L503.94,307.924L504.88,307.942L505.82,307.967L506.76,307.995L507.7,308.018L508.64,308.036L509.58,308.052L510.52,308.066L511.46,308.084L512.4,308.098L513.34,308.105L514.28,308.11L515.22,308.115L516.16,308.128L517.1,308.146L518.04,308.162L518.98,308.176L519.92,308.188L520.86,308.199L521.8,308.21L522.74,308.228L523.68,308.246L524.62,308.267L525.56,308.292L526.5,308.304L527.44,308.313L528.38,308.325L529.32,308.343L530.26,308.357L531.2,308.374L532.14,308.395L533.08,308.423L534.02,308.459L534.96,308.501L535.9,308.541L536.84,308.575L537.78,308.609L538.72,308.643L539.66,308.679L540.6,308.719L541.54,308.756L542.48,308.789L543.42,308.823L544.36,308.861L545.3,308.899L546.24,308.936L547.18,308.972L548.12,309.013L549.06,309.057L550,309.105L550,310L549.06,310L548.12,310L547.18,310L546.24,310L545.3,310L544.36,310L543.42,310L542.48,310L541.54,310L540.6,310L539.66,310L538.72,310L537.78,310L536.84,310L535.9,310L534.96,310L534.02,310L533.08,310L532.14,310L531.2,310L530.26,310L529.32,310L528.38,310L527.44,310L526.5,310L525.56,310L524.62,310L523.68,310L522.74,310L521.8,310L520.86,310L519.92,310L518.98,310L518.04,310L517.1,310L516.16,310L515.22,310L514.28,310L513.34,310L512.4,310L511.46,310L510.52,310L509.58,310L508.64,310L507.7,310L506.76,310L505.82,310L504.88,310L503.94,310L503,310L502.06,310L501.12,310L500.18,310L499.24,310L498.3,310L497.36,310L496.42,310L495.48,310L494.54,310L493.6,310L492.66,310L491.72,310L490.78,310L489.84,310L488.9,310L487.96,310L487.02,310L486.08,310L485.14,310L484.2,310L483.26,310L482.32,310L481.38,310L480.44,310L479.5,310L478.56,310L477.62,310L476.68,310L475.74,310L474.8,310L473.86,310L472.92,310L471.98,310L471.04,310L470.1,310L469.16,310L468.22,310L467.28,310L466.34,310L465.4,310L464.46,310L463.52,310L462.58,310L461.64,310L460.7,310L459.76,310L458.82,310L457.88,310L456.94,310L456,310L455.06,310L454.12,310L453.18,310L452.24,310L451.3,310L450.36,310L449.42,310L448.48,310L447.54,310L446.6,310L445.66,310L444.72,310L443.78,310L442.84,310L441.9,310L440.96,310L440.02,310L439.08,310L438.14,310L437.2,310L436.26,310L435.32,310L434.38,310L433.44,310L432.5,310L431.56,310L430.62,310L429.68,310L428.74,310L427.8,310L426.86,310L425.92,310L424.98,310L424.04,310L423.1,310L422.16,310L421.22,310L420.28,310L419.34,310L418.4,310L417.46,310L416.52,310L415.58,310L414.64,310L413.7,310L412.76,310L411.82,310L410.88,310L409.94,310L409,310L408.06,310L407.12,310L406.18,310L405.24,310L404.3,310L403.36,310L402.42,310L401.48,310L400.54,310L399.6,310L398.66,310L397.72,310L396.78,310L395.84,310L394.9,310L393.96,310L393.02,310L392.08,310L391.14,310L390.2,310L389.26,310L388.32,310L387.38,310L386.44,310L385.5,310L384.56,310L383.62,310L382.68,310L381.74,310L380.8,310L379.86,310L378.92,310L377.98,310L377.04,310L376.1,310L375.16,310L374.22,310L373.28,310L372.34,310L371.4,310L370.46,310L369.52,310L368.58,310L367.64,310L366.7,310L365.76,310L364.82,310L363.88,310L362.94,310L362,310L361.06,310L360.12,310L359.18,310L358.24,310L357.3,310L356.36,310L355.42,310L354.48,310L353.54,310L352.6,310L351.66,310L350.72,310L349.78,310L348.84,310L347.9,310L346.96,310L346.02,310L345.08,310L344.14,310L343.2,310L342.26,310L341.32,310L340.38,310L339.44,310L338.5,310L337.56,310L336.62,310L335.68,310L334.74,310L333.8,310L332.86,310L331.92,310L330.98,310L330.04,310L329.1,310L328.16,310L327.22,310L326.28,310L325.34,310L324.4,310L323.46,310L322.52,310L321.58,310L320.64,310L319.7,310L318.76,310L317.82,310L316.88,310L315.94,310L315,310L314.06,310L313.12,310L312.18,310L311.24,310L310.3,310L309.36,310L308.42,310L307.48,310L306.54,310L305.6,310L304.66,310L303.72,310L302.78,310L301.84,310L300.9,310L299.96,310L299.02,310L298.08,310L297.14,310L296.2,310L295.26,310L294.32,310L293.38,310L292.44,310L291.5,310L290.56,310L289.62,310L288.68,310L287.74,310L286.8,310L285.86,310L284.92,310L283.98,310L283.04,310L282.1,310L281.16,310L280.22,310L279.28,310L278.34,310L277.4,310L276.46,310L275.52,310L274.58,310L273.64,310L272.7,310L271.76,310L270.82,310L269.88,310L268.94,310L268,310L267.06,310L266.12,310L265.18,310L264.24,310L263.3,310L262.36,310L261.42,310L260.48,310L259.54,310L258.6,310L257.66,310L256.72,310L255.78,310L254.84,310L253.9,310L252.96,310L252.02,310L251.08,310L250.14,310L249.2,310L248.26,310L247.32,310L246.38,310L245.44,310L244.5,310L243.56,310L242.62,310L241.68,310L240.74,310L239.8,310L238.86,310L237.92,310L236.98,310L236.04,310L235.1,310L234.16,310L233.22,310L232.28,310L231.34,310L230.4,310L229.46,310L228.52,310L227.58,310L226.64,310L225.7,310L224.76,310L223.82,310L222.88,310L221.94,310L221,310L220.06,310L219.12,310L218.18,310L217.24,310L216.3,310L215.36,310L214.42,310L213.48,310L212.54,310L211.6,310L210.66,310L209.72,310L208.78,310L207.84,310L206.9,310L205.96,310L205.02,310L204.08,310L203.14,310L202.2,310L201.26,310L200.32,310L199.38,310L198.44,310L197.5,310L196.56,310L195.62,310L194.68,310L193.74,310L192.8,310L191.86,310L190.92,310L189.98,310L189.04,310L188.1,310L187.16,310L186.22,310L185.28,310L184.34,310L183.4,310L182.46,310L181.52,310L180.58,310L179.64,310L178.7,310L177.76,310L176.82,310L175.88,310L174.94,310L174,310L173.06,310L172.12,310L171.18,310L170.24,310L169.3,310L168.36,310L167.42,310L166.48,310L165.54,310L164.6,310L163.66,310L162.72,310L161.78,310L160.84,310L159.9,310L158.96,310L158.02,310L157.08,310L156.14,310L155.2,310L154.26,310L153.32,310L152.38,310L151.44,310L150.5,310L149.56,310L148.62,310L147.68,310L146.74,310L145.8,310L144.86,310L143.92,310L142.98,310L142.04,310L141.1,310L140.16,310L139.22,310L138.28,310L137.34,310L136.4,310L135.46,310L134.52,310L133.58,310L132.64,310L131.7,310L130.76,310L129.82,310L128.88,310L127.94,310L127,310L126.06,310L125.12,310L124.18,310L123.24,310L122.3,310L121.36,310L120.42,310L119.48,310L118.54,310L117.6,310L116.66,310L115.72,310L114.78,310L113.84,310L112.9,310L111.96,310L111.02,310L110.08,310L109.14,310L108.2,310L107.26,310L106.32,310L105.38,310L104.44,310L103.5,310L102.56,310L101.62,310L100.68,310L99.74,310L98.8,310L97.86,310L96.92,310L95.98,310L95.04,310L94.1,310L93.16,310L92.22,310L91.28,310L90.34,310L89.4,310L88.46,310L87.52,310L86.58,310L85.64,310L84.7,310L83.76,310L82.82,310L81.88,310L80.94,310L80,310Z" fill-opacity="0.5" data-tippy-content="&lt;span style='color: white; background-color: #32AEEC;'&gt;&lt;i&gt;A. comosus - E. guineensis&lt;/i&gt;&lt;/span&gt; &lt;br&gt; Peak: &lt;span style='color: red;'&gt;0.99&lt;/span&gt; (Density: &lt;span style='color: #32AEEC;'&gt;1.13&lt;/span&gt;)&lt;br&gt;95% CIs: &lt;span style='color: white; background-color: #32AEEC';&gt;0.98 &lt;--&gt; 1.01&lt;/span&gt;" style="fill: rgb(50, 174, 236);"/><path class="area path" d="M80,309.939L80.94,309.934L81.88,309.928L82.82,309.924L83.76,309.919L84.7,309.915L85.64,309.911L86.58,309.907L87.52,309.904L88.46,309.902L89.4,309.899L90.34,309.897L91.28,309.895L92.22,309.89L93.16,309.885L94.1,309.88L95.04,309.876L95.98,309.872L96.92,309.869L97.86,309.867L98.8,309.865L99.74,309.863L100.68,309.862L101.62,309.862L102.56,309.862L103.5,309.862L104.44,309.862L105.38,309.86L106.32,309.858L107.26,309.856L108.2,309.851L109.14,309.847L110.08,309.844L111.02,309.842L111.96,309.841L112.9,309.836L113.84,309.833L114.78,309.826L115.72,309.82L116.66,309.815L117.6,309.808L118.54,309.802L119.48,309.794L120.42,309.778L121.36,309.762L122.3,309.748L123.24,309.735L124.18,309.722L125.12,309.707L126.06,309.69L127,309.669L127.94,309.651L128.88,309.632L129.82,309.612L130.76,309.59L131.7,309.566L132.64,309.541L133.58,309.511L134.52,309.479L135.46,309.441L136.4,309.396L137.34,309.351L138.28,309.301L139.22,309.23L140.16,309.156L141.1,309.071L142.04,308.967L142.98,308.835L143.92,308.694L144.86,308.531L145.8,308.34L146.74,308.14L147.68,307.917L148.62,307.657L149.56,307.381L150.5,307.066L151.44,306.718L152.38,306.328L153.32,305.92L154.26,305.48L155.2,305.012L156.14,304.481L157.08,303.904L158.02,303.272L158.96,302.586L159.9,301.848L160.84,301.073L161.78,300.225L162.72,299.341L163.66,298.399L164.6,297.368L165.54,296.285L166.48,295.167L167.42,293.982L168.36,292.749L169.3,291.437L170.24,290.068L171.18,288.645L172.12,287.179L173.06,285.641L174,284.024L174.94,282.346L175.88,280.615L176.82,278.836L177.76,277.015L178.7,275.174L179.64,273.303L180.58,271.406L181.52,269.465L182.46,267.43L183.4,265.381L184.34,263.319L185.28,261.188L186.22,258.978L187.16,256.763L188.1,254.501L189.04,252.249L189.98,249.998L190.92,247.771L191.86,245.551L192.8,243.352L193.74,241.187L194.68,239.034L195.62,236.859L196.56,234.735L197.5,232.614L198.44,230.447L199.38,228.313L200.32,226.275L201.26,224.315L202.2,222.417L203.14,220.574L204.08,218.798L205.02,217.134L205.96,215.545L206.9,214.035L207.84,212.604L208.78,211.228L209.72,209.98L210.66,208.84L211.6,207.749L212.54,206.776L213.48,205.912L214.42,205.133L215.36,204.478L216.3,203.877L217.24,203.338L218.18,202.92L219.12,202.625L220.06,202.434L221,202.309L221.94,202.305L222.88,202.368L223.82,202.54L224.76,202.822L225.7,203.244L226.64,203.77L227.58,204.361L228.52,205.019L229.46,205.671L230.4,206.399L231.34,207.171L232.28,207.988L233.22,208.822L234.16,209.743L235.1,210.668L236.04,211.702L236.98,212.769L237.92,213.891L238.86,215.051L239.8,216.283L240.74,217.563L241.68,218.873L242.62,220.175L243.56,221.496L244.5,222.813L245.44,224.078L246.38,225.328L247.32,226.626L248.26,227.953L249.2,229.222L250.14,230.499L251.08,231.763L252.02,233.062L252.96,234.367L253.9,235.662L254.84,236.893L255.78,238.099L256.72,239.289L257.66,240.452L258.6,241.58L259.54,242.698L260.48,243.802L261.42,244.883L262.36,245.967L263.3,247.007L264.24,247.937L265.18,248.853L266.12,249.748L267.06,250.637L268,251.472L268.94,252.311L269.88,253.107L270.82,253.893L271.76,254.688L272.7,255.514L273.64,256.354L274.58,257.157L275.52,257.942L276.46,258.689L277.4,259.424L278.34,260.107L279.28,260.81L280.22,261.527L281.16,262.24L282.1,262.914L283.04,263.599L283.98,264.242L284.92,264.87L285.86,265.491L286.8,266.136L287.74,266.768L288.68,267.403L289.62,268.052L290.56,268.692L291.5,269.331L292.44,270.002L293.38,270.659L294.32,271.309L295.26,271.963L296.2,272.557L297.14,273.16L298.08,273.753L299.02,274.33L299.96,274.915L300.9,275.52L301.84,276.093L302.78,276.662L303.72,277.207L304.66,277.717L305.6,278.205L306.54,278.646L307.48,279.088L308.42,279.53L309.36,279.94L310.3,280.368L311.24,280.733L312.18,281.071L313.12,281.412L314.06,281.747L315,282.049L315.94,282.344L316.88,282.626L317.82,282.889L318.76,283.141L319.7,283.392L320.64,283.653L321.58,283.91L322.52,284.159L323.46,284.413L324.4,284.675L325.34,284.943L326.28,285.235L327.22,285.535L328.16,285.827L329.1,286.091L330.04,286.327L330.98,286.56L331.92,286.791L332.86,287.024L333.8,287.284L334.74,287.531L335.68,287.755L336.62,288.018L337.56,288.297L338.5,288.572L339.44,288.869L340.38,289.175L341.32,289.464L342.26,289.749L343.2,290.036L344.14,290.329L345.08,290.62L346.02,290.892L346.96,291.168L347.9,291.472L348.84,291.785L349.78,292.109L350.72,292.419L351.66,292.725L352.6,293.012L353.54,293.259L354.48,293.507L355.42,293.768L356.36,293.988L357.3,294.235L358.24,294.47L359.18,294.699L360.12,294.959L361.06,295.22L362,295.465L362.94,295.704L363.88,295.936L364.82,296.165L365.76,296.376L366.7,296.567L367.64,296.746L368.58,296.913L369.52,297.074L370.46,297.227L371.4,297.353L372.34,297.476L373.28,297.602L374.22,297.71L375.16,297.826L376.1,297.936L377.04,298.032L377.98,298.124L378.92,298.204L379.86,298.266L380.8,298.333L381.74,298.387L382.68,298.419L383.62,298.457L384.56,298.511L385.5,298.559L386.44,298.611L387.38,298.662L388.32,298.713L389.26,298.767L390.2,298.837L391.14,298.896L392.08,298.943L393.02,298.976L393.96,299.022L394.9,299.078L395.84,299.143L396.78,299.22L397.72,299.279L398.66,299.338L399.6,299.397L400.54,299.436L401.48,299.473L402.42,299.521L403.36,299.559L404.3,299.603L405.24,299.654L406.18,299.718L407.12,299.804L408.06,299.889L409,299.983L409.94,300.059L410.88,300.132L411.82,300.209L412.76,300.288L413.7,300.363L414.64,300.443L415.58,300.518L416.52,300.587L417.46,300.659L418.4,300.717L419.34,300.782L420.28,300.837L421.22,300.902L422.16,300.966L423.1,301.036L424.04,301.113L424.98,301.196L425.92,301.261L426.86,301.323L427.8,301.376L428.74,301.431L429.68,301.492L430.62,301.545L431.56,301.617L432.5,301.701L433.44,301.782L434.38,301.853L435.32,301.921L436.26,301.988L437.2,302.05L438.14,302.1L439.08,302.131L440.02,302.152L440.96,302.179L441.9,302.204L442.84,302.232L443.78,302.258L444.72,302.281L445.66,302.312L446.6,302.347L447.54,302.353L448.48,302.344L449.42,302.328L450.36,302.315L451.3,302.314L452.24,302.327L453.18,302.341L454.12,302.348L455.06,302.338L456,302.347L456.94,302.353L457.88,302.364L458.82,302.375L459.76,302.386L460.7,302.402L461.64,302.437L462.58,302.473L463.52,302.495L464.46,302.529L465.4,302.576L466.34,302.629L467.28,302.684L468.22,302.748L469.16,302.801L470.1,302.852L471.04,302.906L471.98,302.97L472.92,303.029L473.86,303.095L474.8,303.16L475.74,303.242L476.68,303.332L477.62,303.431L478.56,303.543L479.5,303.656L480.44,303.767L481.38,303.879L482.32,303.99L483.26,304.105L484.2,304.219L485.14,304.323L486.08,304.407L487.02,304.481L487.96,304.547L488.9,304.614L489.84,304.687L490.78,304.76L491.72,304.836L492.66,304.903L493.6,304.964L494.54,305.004L495.48,305.022L496.42,305.041L497.36,305.058L498.3,305.093L499.24,305.139L500.18,305.188L501.12,305.232L502.06,305.256L503,305.276L503.94,305.275L504.88,305.275L505.82,305.255L506.76,305.227L507.7,305.199L508.64,305.174L509.58,305.163L510.52,305.156L511.46,305.149L512.4,305.153L513.34,305.146L514.28,305.148L515.22,305.151L516.16,305.153L517.1,305.16L518.04,305.176L518.98,305.193L519.92,305.212L520.86,305.226L521.8,305.241L522.74,305.26L523.68,305.273L524.62,305.293L525.56,305.318L526.5,305.335L527.44,305.354L528.38,305.393L529.32,305.441L530.26,305.505L531.2,305.58L532.14,305.657L533.08,305.731L534.02,305.805L534.96,305.884L535.9,305.974L536.84,306.078L537.78,306.191L538.72,306.309L539.66,306.422L540.6,306.539L541.54,306.66L542.48,306.777L543.42,306.903L544.36,307.021L545.3,307.146L546.24,307.277L547.18,307.414L548.12,307.561L549.06,307.703L550,307.843L550,310L549.06,310L548.12,310L547.18,310L546.24,310L545.3,310L544.36,310L543.42,310L542.48,310L541.54,310L540.6,310L539.66,310L538.72,310L537.78,310L536.84,310L535.9,310L534.96,310L534.02,310L533.08,310L532.14,310L531.2,310L530.26,310L529.32,310L528.38,310L527.44,310L526.5,310L525.56,310L524.62,310L523.68,310L522.74,310L521.8,310L520.86,310L519.92,310L518.98,310L518.04,310L517.1,310L516.16,310L515.22,310L514.28,310L513.34,310L512.4,310L511.46,310L510.52,310L509.58,310L508.64,310L507.7,310L506.76,310L505.82,310L504.88,310L503.94,310L503,310L502.06,310L501.12,310L500.18,310L499.24,310L498.3,310L497.36,310L496.42,310L495.48,310L494.54,310L493.6,310L492.66,310L491.72,310L490.78,310L489.84,310L488.9,310L487.96,310L487.02,310L486.08,310L485.14,310L484.2,310L483.26,310L482.32,310L481.38,310L480.44,310L479.5,310L478.56,310L477.62,310L476.68,310L475.74,310L474.8,310L473.86,310L472.92,310L471.98,310L471.04,310L470.1,310L469.16,310L468.22,310L467.28,310L466.34,310L465.4,310L464.46,310L463.52,310L462.58,310L461.64,310L460.7,310L459.76,310L458.82,310L457.88,310L456.94,310L456,310L455.06,310L454.12,310L453.18,310L452.24,310L451.3,310L450.36,310L449.42,310L448.48,310L447.54,310L446.6,310L445.66,310L444.72,310L443.78,310L442.84,310L441.9,310L440.96,310L440.02,310L439.08,310L438.14,310L437.2,310L436.26,310L435.32,310L434.38,310L433.44,310L432.5,310L431.56,310L430.62,310L429.68,310L428.74,310L427.8,310L426.86,310L425.92,310L424.98,310L424.04,310L423.1,310L422.16,310L421.22,310L420.28,310L419.34,310L418.4,310L417.46,310L416.52,310L415.58,310L414.64,310L413.7,310L412.76,310L411.82,310L410.88,310L409.94,310L409,310L408.06,310L407.12,310L406.18,310L405.24,310L404.3,310L403.36,310L402.42,310L401.48,310L400.54,310L399.6,310L398.66,310L397.72,310L396.78,310L395.84,310L394.9,310L393.96,310L393.02,310L392.08,310L391.14,310L390.2,310L389.26,310L388.32,310L387.38,310L386.44,310L385.5,310L384.56,310L383.62,310L382.68,310L381.74,310L380.8,310L379.86,310L378.92,310L377.98,310L377.04,310L376.1,310L375.16,310L374.22,310L373.28,310L372.34,310L371.4,310L370.46,310L369.52,310L368.58,310L367.64,310L366.7,310L365.76,310L364.82,310L363.88,310L362.94,310L362,310L361.06,310L360.12,310L359.18,310L358.24,310L357.3,310L356.36,310L355.42,310L354.48,310L353.54,310L352.6,310L351.66,310L350.72,310L349.78,310L348.84,310L347.9,310L346.96,310L346.02,310L345.08,310L344.14,310L343.2,310L342.26,310L341.32,310L340.38,310L339.44,310L338.5,310L337.56,310L336.62,310L335.68,310L334.74,310L333.8,310L332.86,310L331.92,310L330.98,310L330.04,310L329.1,310L328.16,310L327.22,310L326.28,310L325.34,310L324.4,310L323.46,310L322.52,310L321.58,310L320.64,310L319.7,310L318.76,310L317.82,310L316.88,310L315.94,310L315,310L314.06,310L313.12,310L312.18,310L311.24,310L310.3,310L309.36,310L308.42,310L307.48,310L306.54,310L305.6,310L304.66,310L303.72,310L302.78,310L301.84,310L300.9,310L299.96,310L299.02,310L298.08,310L297.14,310L296.2,310L295.26,310L294.32,310L293.38,310L292.44,310L291.5,310L290.56,310L289.62,310L288.68,310L287.74,310L286.8,310L285.86,310L284.92,310L283.98,310L283.04,310L282.1,310L281.16,310L280.22,310L279.28,310L278.34,310L277.4,310L276.46,310L275.52,310L274.58,310L273.64,310L272.7,310L271.76,310L270.82,310L269.88,310L268.94,310L268,310L267.06,310L266.12,310L265.18,310L264.24,310L263.3,310L262.36,310L261.42,310L260.48,310L259.54,310L258.6,310L257.66,310L256.72,310L255.78,310L254.84,310L253.9,310L252.96,310L252.02,310L251.08,310L250.14,310L249.2,310L248.26,310L247.32,310L246.38,310L245.44,310L244.5,310L243.56,310L242.62,310L241.68,310L240.74,310L239.8,310L238.86,310L237.92,310L236.98,310L236.04,310L235.1,310L234.16,310L233.22,310L232.28,310L231.34,310L230.4,310L229.46,310L228.52,310L227.58,310L226.64,310L225.7,310L224.76,310L223.82,310L222.88,310L221.94,310L221,310L220.06,310L219.12,310L218.18,310L217.24,310L216.3,310L215.36,310L214.42,310L213.48,310L212.54,310L211.6,310L210.66,310L209.72,310L208.78,310L207.84,310L206.9,310L205.96,310L205.02,310L204.08,310L203.14,310L202.2,310L201.26,310L200.32,310L199.38,310L198.44,310L197.5,310L196.56,310L195.62,310L194.68,310L193.74,310L192.8,310L191.86,310L190.92,310L189.98,310L189.04,310L188.1,310L187.16,310L186.22,310L185.28,310L184.34,310L183.4,310L182.46,310L181.52,310L180.58,310L179.64,310L178.7,310L177.76,310L176.82,310L175.88,310L174.94,310L174,310L173.06,310L172.12,310L171.18,310L170.24,310L169.3,310L168.36,310L167.42,310L166.48,310L165.54,310L164.6,310L163.66,310L162.72,310L161.78,310L160.84,310L159.9,310L158.96,310L158.02,310L157.08,310L156.14,310L155.2,310L154.26,310L153.32,310L152.38,310L151.44,310L150.5,310L149.56,310L148.62,310L147.68,310L146.74,310L145.8,310L144.86,310L143.92,310L142.98,310L142.04,310L141.1,310L140.16,310L139.22,310L138.28,310L137.34,310L136.4,310L135.46,310L134.52,310L133.58,310L132.64,310L131.7,310L130.76,310L129.82,310L128.88,310L127.94,310L127,310L126.06,310L125.12,310L124.18,310L123.24,310L122.3,310L121.36,310L120.42,310L119.48,310L118.54,310L117.6,310L116.66,310L115.72,310L114.78,310L113.84,310L112.9,310L111.96,310L111.02,310L110.08,310L109.14,310L108.2,310L107.26,310L106.32,310L105.38,310L104.44,310L103.5,310L102.56,310L101.62,310L100.68,310L99.74,310L98.8,310L97.86,310L96.92,310L95.98,310L95.04,310L94.1,310L93.16,310L92.22,310L91.28,310L90.34,310L89.4,310L88.46,310L87.52,310L86.58,310L85.64,310L84.7,310L83.76,310L82.82,310L81.88,310L80.94,310L80,310Z" fill-opacity="0.5" data-tippy-content="&lt;span style='color: white; background-color: #E2AE79;'&gt;&lt;i&gt;E. guineensis - O. sativa&lt;/i&gt;&lt;/span&gt; &lt;br&gt; Peak: &lt;span style='color: red;'&gt;1.51&lt;/span&gt; (Density: &lt;span style='color: #E2AE79;'&gt;0.83&lt;/span&gt;)&lt;br&gt;95% CIs: &lt;span style='color: white; background-color: #E2AE79';&gt;1.49 &lt;--&gt; 1.52&lt;/span&gt;" style="fill: rgb(226, 174, 121);"/><path class="area path" d="M80,309.693L80.94,309.679L81.88,309.667L82.82,309.656L83.76,309.646L84.7,309.637L85.64,309.63L86.58,309.624L87.52,309.618L88.46,309.611L89.4,309.602L90.34,309.594L91.28,309.589L92.22,309.585L93.16,309.582L94.1,309.581L95.04,309.582L95.98,309.584L96.92,309.586L97.86,309.588L98.8,309.592L99.74,309.592L100.68,309.592L101.62,309.594L102.56,309.599L103.5,309.604L104.44,309.609L105.38,309.616L106.32,309.622L107.26,309.629L108.2,309.639L109.14,309.651L110.08,309.656L111.02,309.661L111.96,309.667L112.9,309.674L113.84,309.684L114.78,309.691L115.72,309.693L116.66,309.696L117.6,309.696L118.54,309.698L119.48,309.701L120.42,309.702L121.36,309.701L122.3,309.7L123.24,309.702L124.18,309.7L125.12,309.69L126.06,309.671L127,309.642L127.94,309.61L128.88,309.579L129.82,309.543L130.76,309.502L131.7,309.458L132.64,309.411L133.58,309.363L134.52,309.312L135.46,309.248L136.4,309.172L137.34,309.092L138.28,308.998L139.22,308.896L140.16,308.784L141.1,308.663L142.04,308.53L142.98,308.382L143.92,308.196L144.86,307.993L145.8,307.758L146.74,307.496L147.68,307.21L148.62,306.882L149.56,306.494L150.5,306.058L151.44,305.57L152.38,305.013L153.32,304.388L154.26,303.675L155.2,302.903L156.14,302.056L157.08,301.144L158.02,300.15L158.96,299.055L159.9,297.886L160.84,296.596L161.78,295.229L162.72,293.799L163.66,292.294L164.6,290.672L165.54,288.927L166.48,287.136L167.42,285.272L168.36,283.315L169.3,281.295L170.24,279.21L171.18,277.043L172.12,274.773L173.06,272.391L174,269.931L174.94,267.417L175.88,264.865L176.82,262.219L177.76,259.48L178.7,256.711L179.64,253.901L180.58,251.095L181.52,248.265L182.46,245.417L183.4,242.541L184.34,239.669L185.28,236.811L186.22,233.977L187.16,231.149L188.1,228.344L189.04,225.603L189.98,222.976L190.92,220.372L191.86,217.861L192.8,215.464L193.74,213.191L194.68,211.014L195.62,208.943L196.56,206.957L197.5,205.145L198.44,203.512L199.38,202.026L200.32,200.648L201.26,199.39L202.2,198.297L203.14,197.363L204.08,196.538L205.02,195.829L205.96,195.223L206.9,194.744L207.84,194.35L208.78,194.108L209.72,194.034L210.66,194.074L211.6,194.198L212.54,194.392L213.48,194.716L214.42,195.151L215.36,195.678L216.3,196.322L217.24,197.043L218.18,197.813L219.12,198.654L220.06,199.537L221,200.489L221.94,201.549L222.88,202.685L223.82,203.815L224.76,204.961L225.7,206.148L226.64,207.373L227.58,208.664L228.52,209.971L229.46,211.296L230.4,212.592L231.34,213.886L232.28,215.198L233.22,216.516L234.16,217.797L235.1,219.051L236.04,220.301L236.98,221.579L237.92,222.841L238.86,224.116L239.8,225.404L240.74,226.683L241.68,227.986L242.62,229.29L243.56,230.563L244.5,231.851L245.44,233.206L246.38,234.593L247.32,235.952L248.26,237.284L249.2,238.62L250.14,239.944L251.08,241.203L252.02,242.419L252.96,243.607L253.9,244.746L254.84,245.861L255.78,246.953L256.72,248.069L257.66,249.162L258.6,250.239L259.54,251.288L260.48,252.337L261.42,253.398L262.36,254.45L263.3,255.478L264.24,256.456L265.18,257.373L266.12,258.274L267.06,259.166L268,260.019L268.94,260.867L269.88,261.694L270.82,262.477L271.76,263.269L272.7,264.045L273.64,264.831L274.58,265.628L275.52,266.404L276.46,267.172L277.4,267.904L278.34,268.611L279.28,269.311L280.22,270.001L281.16,270.663L282.1,271.301L283.04,271.898L283.98,272.453L284.92,273.006L285.86,273.587L286.8,274.151L287.74,274.693L288.68,275.279L289.62,275.886L290.56,276.487L291.5,277.046L292.44,277.621L293.38,278.205L294.32,278.789L295.26,279.354L296.2,279.927L297.14,280.463L298.08,280.953L299.02,281.41L299.96,281.834L300.9,282.217L301.84,282.595L302.78,282.929L303.72,283.27L304.66,283.6L305.6,283.921L306.54,284.228L307.48,284.568L308.42,284.944L309.36,285.311L310.3,285.659L311.24,285.995L312.18,286.3L313.12,286.59L314.06,286.881L315,287.142L315.94,287.364L316.88,287.567L317.82,287.756L318.76,287.952L319.7,288.149L320.64,288.347L321.58,288.56L322.52,288.779L323.46,289.02L324.4,289.268L325.34,289.523L326.28,289.778L327.22,290.033L328.16,290.29L329.1,290.548L330.04,290.787L330.98,291.014L331.92,291.233L332.86,291.478L333.8,291.718L334.74,291.963L335.68,292.2L336.62,292.432L337.56,292.665L338.5,292.872L339.44,293.07L340.38,293.265L341.32,293.451L342.26,293.645L343.2,293.859L344.14,294.081L345.08,294.298L346.02,294.506L346.96,294.702L347.9,294.895L348.84,295.084L349.78,295.281L350.72,295.467L351.66,295.646L352.6,295.834L353.54,296.034L354.48,296.253L355.42,296.48L356.36,296.692L357.3,296.89L358.24,297.064L359.18,297.216L360.12,297.365L361.06,297.495L362,297.62L362.94,297.729L363.88,297.831L364.82,297.919L365.76,297.987L366.7,298.052L367.64,298.086L368.58,298.106L369.52,298.129L370.46,298.143L371.4,298.161L372.34,298.184L373.28,298.2L374.22,298.214L375.16,298.234L376.1,298.265L377.04,298.301L377.98,298.345L378.92,298.398L379.86,298.447L380.8,298.507L381.74,298.571L382.68,298.639L383.62,298.693L384.56,298.745L385.5,298.805L386.44,298.874L387.38,298.942L388.32,299.007L389.26,299.079L390.2,299.144L391.14,299.218L392.08,299.318L393.02,299.434L393.96,299.558L394.9,299.689L395.84,299.811L396.78,299.947L397.72,300.072L398.66,300.197L399.6,300.333L400.54,300.476L401.48,300.629L402.42,300.775L403.36,300.91L404.3,301.034L405.24,301.138L406.18,301.248L407.12,301.352L408.06,301.433L409,301.508L409.94,301.582L410.88,301.665L411.82,301.747L412.76,301.809L413.7,301.886L414.64,301.949L415.58,302.009L416.52,302.061L417.46,302.099L418.4,302.142L419.34,302.182L420.28,302.223L421.22,302.272L422.16,302.325L423.1,302.374L424.04,302.426L424.98,302.478L425.92,302.527L426.86,302.564L427.8,302.612L428.74,302.655L429.68,302.695L430.62,302.72L431.56,302.733L432.5,302.757L433.44,302.782L434.38,302.819L435.32,302.859L436.26,302.907L437.2,302.953L438.14,302.998L439.08,303.059L440.02,303.135L440.96,303.222L441.9,303.306L442.84,303.403L443.78,303.505L444.72,303.6L445.66,303.691L446.6,303.778L447.54,303.868L448.48,303.958L449.42,304.033L450.36,304.1L451.3,304.168L452.24,304.244L453.18,304.332L454.12,304.409L455.06,304.481L456,304.533L456.94,304.576L457.88,304.616L458.82,304.65L459.76,304.664L460.7,304.669L461.64,304.668L462.58,304.672L463.52,304.675L464.46,304.684L465.4,304.688L466.34,304.687L467.28,304.679L468.22,304.665L469.16,304.65L470.1,304.638L471.04,304.634L471.98,304.64L472.92,304.645L473.86,304.656L474.8,304.674L475.74,304.689L476.68,304.691L477.62,304.69L478.56,304.688L479.5,304.686L480.44,304.688L481.38,304.709L482.32,304.73L483.26,304.755L484.2,304.786L485.14,304.814L486.08,304.85L487.02,304.885L487.96,304.924L488.9,304.956L489.84,304.991L490.78,305.03L491.72,305.07L492.66,305.11L493.6,305.142L494.54,305.175L495.48,305.217L496.42,305.257L497.36,305.295L498.3,305.333L499.24,305.376L500.18,305.436L501.12,305.499L502.06,305.566L503,305.631L503.94,305.69L504.88,305.751L505.82,305.809L506.76,305.838L507.7,305.851L508.64,305.862L509.58,305.879L510.52,305.911L511.46,305.95L512.4,305.987L513.34,306.02L514.28,306.05L515.22,306.065L516.16,306.075L517.1,306.088L518.04,306.11L518.98,306.139L519.92,306.16L520.86,306.188L521.8,306.223L522.74,306.258L523.68,306.286L524.62,306.317L525.56,306.348L526.5,306.379L527.44,306.41L528.38,306.456L529.32,306.51L530.26,306.568L531.2,306.634L532.14,306.703L533.08,306.78L534.02,306.861L534.96,306.942L535.9,307.022L536.84,307.1L537.78,307.176L538.72,307.262L539.66,307.355L540.6,307.445L541.54,307.535L542.48,307.636L543.42,307.743L544.36,307.849L545.3,307.95L546.24,308.049L547.18,308.155L548.12,308.262L549.06,308.365L550,308.472L550,310L549.06,310L548.12,310L547.18,310L546.24,310L545.3,310L544.36,310L543.42,310L542.48,310L541.54,310L540.6,310L539.66,310L538.72,310L537.78,310L536.84,310L535.9,310L534.96,310L534.02,310L533.08,310L532.14,310L531.2,310L530.26,310L529.32,310L528.38,310L527.44,310L526.5,310L525.56,310L524.62,310L523.68,310L522.74,310L521.8,310L520.86,310L519.92,310L518.98,310L518.04,310L517.1,310L516.16,310L515.22,310L514.28,310L513.34,310L512.4,310L511.46,310L510.52,310L509.58,310L508.64,310L507.7,310L506.76,310L505.82,310L504.88,310L503.94,310L503,310L502.06,310L501.12,310L500.18,310L499.24,310L498.3,310L497.36,310L496.42,310L495.48,310L494.54,310L493.6,310L492.66,310L491.72,310L490.78,310L489.84,310L488.9,310L487.96,310L487.02,310L486.08,310L485.14,310L484.2,310L483.26,310L482.32,310L481.38,310L480.44,310L479.5,310L478.56,310L477.62,310L476.68,310L475.74,310L474.8,310L473.86,310L472.92,310L471.98,310L471.04,310L470.1,310L469.16,310L468.22,310L467.28,310L466.34,310L465.4,310L464.46,310L463.52,310L462.58,310L461.64,310L460.7,310L459.76,310L458.82,310L457.88,310L456.94,310L456,310L455.06,310L454.12,310L453.18,310L452.24,310L451.3,310L450.36,310L449.42,310L448.48,310L447.54,310L446.6,310L445.66,310L444.72,310L443.78,310L442.84,310L441.9,310L440.96,310L440.02,310L439.08,310L438.14,310L437.2,310L436.26,310L435.32,310L434.38,310L433.44,310L432.5,310L431.56,310L430.62,310L429.68,310L428.74,310L427.8,310L426.86,310L425.92,310L424.98,310L424.04,310L423.1,310L422.16,310L421.22,310L420.28,310L419.34,310L418.4,310L417.46,310L416.52,310L415.58,310L414.64,310L413.7,310L412.76,310L411.82,310L410.88,310L409.94,310L409,310L408.06,310L407.12,310L406.18,310L405.24,310L404.3,310L403.36,310L402.42,310L401.48,310L400.54,310L399.6,310L398.66,310L397.72,310L396.78,310L395.84,310L394.9,310L393.96,310L393.02,310L392.08,310L391.14,310L390.2,310L389.26,310L388.32,310L387.38,310L386.44,310L385.5,310L384.56,310L383.62,310L382.68,310L381.74,310L380.8,310L379.86,310L378.92,310L377.98,310L377.04,310L376.1,310L375.16,310L374.22,310L373.28,310L372.34,310L371.4,310L370.46,310L369.52,310L368.58,310L367.64,310L366.7,310L365.76,310L364.82,310L363.88,310L362.94,310L362,310L361.06,310L360.12,310L359.18,310L358.24,310L357.3,310L356.36,310L355.42,310L354.48,310L353.54,310L352.6,310L351.66,310L350.72,310L349.78,310L348.84,310L347.9,310L346.96,310L346.02,310L345.08,310L344.14,310L343.2,310L342.26,310L341.32,310L340.38,310L339.44,310L338.5,310L337.56,310L336.62,310L335.68,310L334.74,310L333.8,310L332.86,310L331.92,310L330.98,310L330.04,310L329.1,310L328.16,310L327.22,310L326.28,310L325.34,310L324.4,310L323.46,310L322.52,310L321.58,310L320.64,310L319.7,310L318.76,310L317.82,310L316.88,310L315.94,310L315,310L314.06,310L313.12,310L312.18,310L311.24,310L310.3,310L309.36,310L308.42,310L307.48,310L306.54,310L305.6,310L304.66,310L303.72,310L302.78,310L301.84,310L300.9,310L299.96,310L299.02,310L298.08,310L297.14,310L296.2,310L295.26,310L294.32,310L293.38,310L292.44,310L291.5,310L290.56,310L289.62,310L288.68,310L287.74,310L286.8,310L285.86,310L284.92,310L283.98,310L283.04,310L282.1,310L281.16,310L280.22,310L279.28,310L278.34,310L277.4,310L276.46,310L275.52,310L274.58,310L273.64,310L272.7,310L271.76,310L270.82,310L269.88,310L268.94,310L268,310L267.06,310L266.12,310L265.18,310L264.24,310L263.3,310L262.36,310L261.42,310L260.48,310L259.54,310L258.6,310L257.66,310L256.72,310L255.78,310L254.84,310L253.9,310L252.96,310L252.02,310L251.08,310L250.14,310L249.2,310L248.26,310L247.32,310L246.38,310L245.44,310L244.5,310L243.56,310L242.62,310L241.68,310L240.74,310L239.8,310L238.86,310L237.92,310L236.98,310L236.04,310L235.1,310L234.16,310L233.22,310L232.28,310L231.34,310L230.4,310L229.46,310L228.52,310L227.58,310L226.64,310L225.7,310L224.76,310L223.82,310L222.88,310L221.94,310L221,310L220.06,310L219.12,310L218.18,310L217.24,310L216.3,310L215.36,310L214.42,310L213.48,310L212.54,310L211.6,310L210.66,310L209.72,310L208.78,310L207.84,310L206.9,310L205.96,310L205.02,310L204.08,310L203.14,310L202.2,310L201.26,310L200.32,310L199.38,310L198.44,310L197.5,310L196.56,310L195.62,310L194.68,310L193.74,310L192.8,310L191.86,310L190.92,310L189.98,310L189.04,310L188.1,310L187.16,310L186.22,310L185.28,310L184.34,310L183.4,310L182.46,310L181.52,310L180.58,310L179.64,310L178.7,310L177.76,310L176.82,310L175.88,310L174.94,310L174,310L173.06,310L172.12,310L171.18,310L170.24,310L169.3,310L168.36,310L167.42,310L166.48,310L165.54,310L164.6,310L163.66,310L162.72,310L161.78,310L160.84,310L159.9,310L158.96,310L158.02,310L157.08,310L156.14,310L155.2,310L154.26,310L153.32,310L152.38,310L151.44,310L150.5,310L149.56,310L148.62,310L147.68,310L146.74,310L145.8,310L144.86,310L143.92,310L142.98,310L142.04,310L141.1,310L140.16,310L139.22,310L138.28,310L137.34,310L136.4,310L135.46,310L134.52,310L133.58,310L132.64,310L131.7,310L130.76,310L129.82,310L128.88,310L127.94,310L127,310L126.06,310L125.12,310L124.18,310L123.24,310L122.3,310L121.36,310L120.42,310L119.48,310L118.54,310L117.6,310L116.66,310L115.72,310L114.78,310L113.84,310L112.9,310L111.96,310L111.02,310L110.08,310L109.14,310L108.2,310L107.26,310L106.32,310L105.38,310L104.44,310L103.5,310L102.56,310L101.62,310L100.68,310L99.74,310L98.8,310L97.86,310L96.92,310L95.98,310L95.04,310L94.1,310L93.16,310L92.22,310L91.28,310L90.34,310L89.4,310L88.46,310L87.52,310L86.58,310L85.64,310L84.7,310L83.76,310L82.82,310L81.88,310L80.94,310L80,310Z" fill-opacity="0.5" data-tippy-content="&lt;span style='color: white; background-color: #8E549E;'&gt;&lt;i&gt;E. guineensis - P. equestris&lt;/i&gt;&lt;/span&gt; &lt;br&gt; Peak: &lt;span style='color: red;'&gt;1.38&lt;/span&gt; (Density: &lt;span style='color: #8E549E;'&gt;0.89&lt;/span&gt;)&lt;br&gt;95% CIs: &lt;span style='color: white; background-color: #8E549E';&gt;1.36 &lt;--&gt; 1.40&lt;/span&gt;" style="fill: rgb(142, 84, 158);"/><line x1="173.06" y1="310" x2="173.06" y2="50" style="stroke: rgb(50, 174, 236); stroke-width: 1.4; stroke-dasharray: 5, 5;"/><rect x="172.12" y="50" width="2.819999999999993" height="260" data-tippy-content="Peak: &lt;span style='color: #EA7500;'&gt;0.99&lt;/span&gt;&lt;br&gt;95% CIs: &lt;span style='color: undefined; background-color: undefined';&gt;0.98 &lt;--&gt; 1.01&lt;/span&gt;" style="fill: rgb(50, 174, 236); fill-opacity: 0.2;"/><line x1="221.94" y1="310" x2="221.94" y2="50" style="stroke: rgb(226, 174, 121); stroke-width: 1.4; stroke-dasharray: 5, 5;"/><rect x="220.06" y="50" width="2.819999999999993" height="260" data-tippy-content="Peak: &lt;span style='color: #D2352C;'&gt;1.51&lt;/span&gt;&lt;br&gt;95% CIs: &lt;span style='color: undefined; background-color: undefined';&gt;1.49 &lt;--&gt; 1.52&lt;/span&gt;" style="fill: rgb(226, 174, 121); fill-opacity: 0.2;"/><line x1="209.71999999999997" y1="310" x2="209.71999999999997" y2="50" style="stroke: rgb(142, 84, 158); stroke-width: 1.4; stroke-dasharray: 5, 5;"/><rect x="207.84000000000003" y="50" width="3.759999999999934" height="260" data-tippy-content="Peak: &lt;span style='color: #394A92;'&gt;1.38&lt;/span&gt;&lt;br&gt;95% CIs: &lt;span style='color: undefined; background-color: undefined';&gt;1.36 &lt;--&gt; 1.40&lt;/span&gt;" style="fill: rgb(142, 84, 158); fill-opacity: 0.2;"/><g class="legend" transform="translate(400, 20)"><g class="legend-item" transform="translate(0, 0)"><rect x="0" y="0" width="10" height="10" fill="#32AEEC" fill-opacity="0.5"/><text x="20" y="10" text-anchor="start" font-size="12px" font-style="italic">A. comosus - E. guineensis</text></g><g class="legend-item" transform="translate(0, 20)"><rect x="0" y="0" width="10" height="10" fill="#E2AE79" fill-opacity="0.5"/><text x="20" y="10" text-anchor="start" font-size="12px" font-style="italic">E. guineensis - O. sativa</text></g><g class="legend-item" transform="translate(0, 40)"><rect x="0" y="0" width="10" height="10" fill="#8E549E" fill-opacity="0.5"/><text x="20" y="10" text-anchor="start" font-size="12px" font-style="italic">E. guineensis - P. equestris</text></g></g></svg>