<svg xmlns="http://www.w3.org/2000/svg" width="1100" height="350"><g class="axis axis--x" transform="translate(0, 310)" fill="none" font-size="12px" font-family="sans-serif" text-anchor="middle"><path class="domain" stroke="currentColor" d="M80,6V0H485V6"/><g class="tick" opacity="1" transform="translate(80,0)"><line stroke="currentColor" y2="6"/><text fill="currentColor" y="9" dy="0.71em">0</text></g><g class="tick" opacity="1" transform="translate(161,0)"><line stroke="currentColor" y2="6"/><text fill="currentColor" y="9" dy="0.71em">1</text></g><g class="tick" opacity="1" transform="translate(242,0)"><line stroke="currentColor" y2="6"/><text fill="currentColor" y="9" dy="0.71em">2</text></g><g class="tick" opacity="1" transform="translate(323,0)"><line stroke="currentColor" y2="6"/><text fill="currentColor" y="9" dy="0.71em">3</text></g><g class="tick" opacity="1" transform="translate(404,0)"><line stroke="currentColor" y2="6"/><text fill="currentColor" y="9" dy="0.71em">4</text></g><g class="tick" opacity="1" transform="translate(485,0)"><line stroke="currentColor" y2="6"/><text fill="currentColor" y="9" dy="0.71em">5</text></g></g><g class="xTitle"><text x="267.5" y="340" text-anchor="middle"><tspan style="font-size: 14px;"><tspan style="font-style: italic;">K</tspan><tspan dx="1px" dy="2px" style="font-size: 12px;">s</tspan></tspan></text></g><g class="axis axis--y2" transform="translate(75, 0)" fill="none" font-size="12px" font-family="sans-serif" text-anchor="end"><path class="domain" stroke="currentColor" d="M-6,310H0V50H-6"/><g class="tick" opacity="1" transform="translate(0,310)"><line stroke="currentColor" x2="-6"/><text fill="currentColor" x="-9" dy="0.32em">0.0</text></g><g class="tick" opacity="1" transform="translate(0,272.8571428571429)"><line stroke="currentColor" x2="-6"/><text fill="currentColor" x="-9" dy="0.32em">0.2</text></g><g class="tick" opacity="1" transform="translate(0,235.71428571428567)"><line stroke="currentColor" x2="-6"/><text fill="currentColor" x="-9" dy="0.32em">0.4</text></g><g class="tick" opacity="1" transform="translate(0,198.57142857142858)"><line stroke="currentColor" x2="-6"/><text fill="currentColor" x="-9" dy="0.32em">0.6</text></g><g class="tick" opacity="1" transform="translate(0,161.42857142857142)"><line stroke="currentColor" x2="-6"/><text fill="currentColor" x="-9" dy="0.32em">0.8</text></g><g class="tick" opacity="1" transform="translate(0,124.28571428571428)"><line stroke="currentColor" x2="-6"/><text fill="currentColor" x="-9" dy="0.32em">1.0</text></g><g class="tick" opacity="1" transform="translate(0,87.14285714285711)"><line stroke="currentColor" x2="-6"/><text fill="currentColor" x="-9" dy="0.32em">1.2</text></g><g class="tick" opacity="1" transform="translate(0,49.99999999999994)"><line stroke="currentColor" x2="-6"/><text fill="currentColor" x="-9" dy="0.32em">1.4</text></g></g><g class="y2Title"><text y="180" x="30" text-anchor="middle" font-size="14px" transform="rotate(-90, 30, 180)">Ortholog Density</text></g><path class="area path" d="M80,310L80.81,310L81.62,310L82.43,309.991L83.24,309.981L84.05,309.972L84.86,309.963L85.67,309.954L86.48,309.946L87.29,309.938L88.1,309.931L88.91,309.924L89.72,309.917L90.53,309.911L91.34,309.906L92.15,309.9L92.96,309.895L93.77,309.891L94.58,309.887L95.39,309.883L96.2,309.88L97.01,309.877L97.82,309.875L98.63,309.873L99.44,309.872L100.25,309.866L101.06,309.86L101.87,309.855L102.68,309.845L103.49,309.837L104.3,309.829L105.11,309.82L105.92,309.809L106.73,309.794L107.54,309.775L108.35,309.757L109.16,309.728L109.97,309.693L110.78,309.659L111.59,309.624L112.4,309.584L113.21,309.535L114.02,309.465L114.83,309.358L115.64,309.224L116.45,309.075L117.26,308.903L118.07,308.692L118.88,308.457L119.69,308.186L120.5,307.861L121.31,307.448L122.12,306.954L122.93,306.33L123.74,305.609L124.55,304.801L125.36,303.902L126.17,302.883L126.98,301.744L127.79,300.469L128.6,299.022L129.41,297.375L130.22,295.592L131.03,293.649L131.84,291.545L132.65,289.255L133.46,286.821L134.27,284.199L135.08,281.338L135.89,278.197L136.7,274.874L137.51,271.374L138.32,267.694L139.13,263.809L139.94,259.743L140.75,255.48L141.56,250.972L142.37,246.302L143.18,241.471L143.99,236.503L144.8,231.409L145.61,226.239L146.42,220.946L147.23,215.606L148.04,210.188L148.85,204.752L149.66,199.297L150.47,193.887L151.28,188.581L152.09,183.362L152.9,178.262L153.71,173.208L154.52,168.255L155.33,163.456L156.14,158.833L156.95,154.355L157.76,150.1L158.57,146.074L159.38,142.269L160.19,138.705L161,135.442L161.81,132.427L162.62,129.66L163.43,127.148L164.24,124.875L165.05,122.856L165.86,121.161L166.67,119.766L167.48,118.73L168.29,117.951L169.1,117.373L169.91,116.976L170.72,116.85L171.53,116.907L172.34,117.25L173.15,117.843L173.96,118.74L174.77,119.919L175.58,121.283L176.39,122.692L177.2,124.283L178.01,126.02L178.82,127.937L179.63,129.995L180.44,132.172L181.25,134.464L182.06,136.759L182.87,139.17L183.68,141.665L184.49,144.202L185.3,146.77L186.11,149.408L186.92,152.041L187.73,154.712L188.54,157.306L189.35,159.909L190.16,162.481L190.97,165.084L191.78,167.76L192.59,170.461L193.4,173.192L194.21,175.833L195.02,178.425L195.83,181.03L196.64,183.645L197.45,186.199L198.26,188.749L199.07,191.313L199.88,193.812L200.69,196.267L201.5,198.757L202.31,201.247L203.12,203.713L203.93,206.161L204.74,208.546L205.55,210.817L206.36,213.07L207.17,215.257L207.98,217.422L208.79,219.536L209.6,221.561L210.41,223.508L211.22,225.395L212.03,227.152L212.84,228.887L213.65,230.57L214.46,232.264L215.27,233.968L216.08,235.634L216.89,237.197L217.7,238.7L218.51,240.117L219.32,241.501L220.13,242.854L220.94,244.18L221.75,245.494L222.56,246.742L223.37,247.975L224.18,249.179L224.99,250.346L225.8,251.495L226.61,252.63L227.42,253.741L228.23,254.827L229.04,255.831L229.85,256.788L230.66,257.659L231.47,258.498L232.28,259.318L233.09,260.105L233.9,260.864L234.71,261.574L235.52,262.254L236.33,262.919L237.14,263.574L237.95,264.248L238.76,264.914L239.57,265.596L240.38,266.24L241.19,266.872L242,267.517L242.81,268.191L243.62,268.887L244.43,269.589L245.24,270.294L246.05,270.948L246.86,271.591L247.67,272.187L248.48,272.713L249.29,273.232L250.1,273.734L250.91,274.243L251.72,274.749L252.53,275.259L253.34,275.77L254.15,276.25L254.96,276.747L255.77,277.238L256.58,277.726L257.39,278.216L258.2,278.68L259.01,279.113L259.82,279.554L260.63,280.002L261.44,280.477L262.25,280.942L263.06,281.401L263.87,281.841L264.68,282.244L265.49,282.62L266.3,283.013L267.11,283.422L267.92,283.837L268.73,284.248L269.54,284.673L270.35,285.082L271.16,285.464L271.97,285.827L272.78,286.162L273.59,286.477L274.4,286.783L275.21,287.068L276.02,287.363L276.83,287.668L277.64,287.961L278.45,288.284L279.26,288.613L280.07,288.967L280.88,289.3L281.69,289.603L282.5,289.893L283.31,290.183L284.12,290.474L284.93,290.773L285.74,291.066L286.55,291.33L287.36,291.59L288.17,291.859L288.98,292.125L289.79,292.372L290.6,292.615L291.41,292.868L292.22,293.115L293.03,293.36L293.84,293.607L294.65,293.847L295.46,294.077L296.27,294.29L297.08,294.505L297.89,294.705L298.7,294.898L299.51,295.076L300.32,295.273L301.13,295.499L301.94,295.742L302.75,295.963L303.56,296.173L304.37,296.365L305.18,296.536L305.99,296.662L306.8,296.78L307.61,296.881L308.42,296.975L309.23,297.067L310.04,297.155L310.85,297.24L311.66,297.333L312.47,297.415L313.28,297.476L314.09,297.538L314.9,297.603L315.71,297.658L316.52,297.716L317.33,297.806L318.14,297.886L318.95,297.966L319.76,298.047L320.57,298.157L321.38,298.262L322.19,298.349L323,298.43L323.81,298.503L324.62,298.567L325.43,298.617L326.24,298.666L327.05,298.697L327.86,298.737L328.67,298.79L329.48,298.851L330.29,298.918L331.1,298.994L331.91,299.073L332.72,299.139L333.53,299.212L334.34,299.303L335.15,299.412L335.96,299.512L336.77,299.588L337.58,299.66L338.39,299.715L339.2,299.782L340.01,299.875L340.82,299.991L341.63,300.127L342.44,300.285L343.25,300.448L344.06,300.603L344.87,300.738L345.68,300.884L346.49,301.018L347.3,301.143L348.11,301.228L348.92,301.301L349.73,301.38L350.54,301.446L351.35,301.508L352.16,301.569L352.97,301.625L353.78,301.671L354.59,301.717L355.4,301.764L356.21,301.82L357.02,301.878L357.83,301.939L358.64,301.988L359.45,302.026L360.26,302.072L361.07,302.115L361.88,302.148L362.69,302.175L363.5,302.221L364.31,302.268L365.12,302.301L365.93,302.321L366.74,302.342L367.55,302.37L368.36,302.413L369.17,302.465L369.98,302.516L370.79,302.575L371.6,302.644L372.41,302.713L373.22,302.77L374.03,302.839L374.84,302.915L375.65,303.001L376.46,303.061L377.27,303.104L378.08,303.146L378.89,303.195L379.7,303.232L380.51,303.284L381.32,303.356L382.13,303.432L382.94,303.51L383.75,303.585L384.56,303.644L385.37,303.688L386.18,303.755L386.99,303.833L387.8,303.911L388.61,303.975L389.42,304.035L390.23,304.1L391.04,304.156L391.85,304.213L392.66,304.259L393.47,304.279L394.28,304.294L395.09,304.315L395.9,304.352L396.71,304.394L397.52,304.434L398.33,304.461L399.14,304.481L399.95,304.504L400.76,304.534L401.57,304.555L402.38,304.563L403.19,304.562L404,304.572L404.81,304.588L405.62,304.599L406.43,304.603L407.24,304.594L408.05,304.58L408.86,304.585L409.67,304.602L410.48,304.626L411.29,304.647L412.1,304.675L412.91,304.711L413.72,304.739L414.53,304.762L415.34,304.79L416.15,304.831L416.96,304.865L417.77,304.902L418.58,304.945L419.39,305L420.2,305.043L421.01,305.093L421.82,305.154L422.63,305.22L423.44,305.289L424.25,305.35L425.06,305.388L425.87,305.409L426.68,305.435L427.49,305.463L428.3,305.485L429.11,305.515L429.92,305.553L430.73,305.596L431.54,305.628L432.35,305.669L433.16,305.708L433.97,305.728L434.78,305.749L435.59,305.783L436.4,305.833L437.21,305.878L438.02,305.889L438.83,305.897L439.64,305.914L440.45,305.931L441.26,305.946L442.07,305.962L442.88,305.979L443.69,305.997L444.5,306.022L445.31,306.053L446.12,306.095L446.93,306.142L447.74,306.181L448.55,306.213L449.36,306.249L450.17,306.29L450.98,306.337L451.79,306.368L452.6,306.389L453.41,306.41L454.22,306.425L455.03,306.428L455.84,306.436L456.65,306.458L457.46,306.483L458.27,306.505L459.08,306.525L459.89,306.544L460.7,306.556L461.51,306.571L462.32,306.591L463.13,306.611L463.94,306.639L464.75,306.664L465.56,306.683L466.37,306.705L467.18,306.732L467.99,306.761L468.8,306.781L469.61,306.811L470.42,306.856L471.23,306.902L472.04,306.941L472.85,306.99L473.66,307.047L474.47,307.111L475.28,307.18L476.09,307.258L476.9,307.347L477.71,307.441L478.52,307.514L479.33,307.587L480.14,307.667L480.95,307.743L481.76,307.82L482.57,307.898L483.38,307.982L484.19,308.068L485,308.161L485,310L484.19,310L483.38,310L482.57,310L481.76,310L480.95,310L480.14,310L479.33,310L478.52,310L477.71,310L476.9,310L476.09,310L475.28,310L474.47,310L473.66,310L472.85,310L472.04,310L471.23,310L470.42,310L469.61,310L468.8,310L467.99,310L467.18,310L466.37,310L465.56,310L464.75,310L463.94,310L463.13,310L462.32,310L461.51,310L460.7,310L459.89,310L459.08,310L458.27,310L457.46,310L456.65,310L455.84,310L455.03,310L454.22,310L453.41,310L452.6,310L451.79,310L450.98,310L450.17,310L449.36,310L448.55,310L447.74,310L446.93,310L446.12,310L445.31,310L444.5,310L443.69,310L442.88,310L442.07,310L441.26,310L440.45,310L439.64,310L438.83,310L438.02,310L437.21,310L436.4,310L435.59,310L434.78,310L433.97,310L433.16,310L432.35,310L431.54,310L430.73,310L429.92,310L429.11,310L428.3,310L427.49,310L426.68,310L425.87,310L425.06,310L424.25,310L423.44,310L422.63,310L421.82,310L421.01,310L420.2,310L419.39,310L418.58,310L417.77,310L416.96,310L416.15,310L415.34,310L414.53,310L413.72,310L412.91,310L412.1,310L411.29,310L410.48,310L409.67,310L408.86,310L408.05,310L407.24,310L406.43,310L405.62,310L404.81,310L404,310L403.19,310L402.38,310L401.57,310L400.76,310L399.95,310L399.14,310L398.33,310L397.52,310L396.71,310L395.9,310L395.09,310L394.28,310L393.47,310L392.66,310L391.85,310L391.04,310L390.23,310L389.42,310L388.61,310L387.8,310L386.99,310L386.18,310L385.37,310L384.56,310L383.75,310L382.94,310L382.13,310L381.32,310L380.51,310L379.7,310L378.89,310L378.08,310L377.27,310L376.46,310L375.65,310L374.84,310L374.03,310L373.22,310L372.41,310L371.6,310L370.79,310L369.98,310L369.17,310L368.36,310L367.55,310L366.74,310L365.93,310L365.12,310L364.31,310L363.5,310L362.69,310L361.88,310L361.07,310L360.26,310L359.45,310L358.64,310L357.83,310L357.02,310L356.21,310L355.4,310L354.59,310L353.78,310L352.97,310L352.16,310L351.35,310L350.54,310L349.73,310L348.92,310L348.11,310L347.3,310L346.49,310L345.68,310L344.87,310L344.06,310L343.25,310L342.44,310L341.63,310L340.82,310L340.01,310L339.2,310L338.39,310L337.58,310L336.77,310L335.96,310L335.15,310L334.34,310L333.53,310L332.72,310L331.91,310L331.1,310L330.29,310L329.48,310L328.67,310L327.86,310L327.05,310L326.24,310L325.43,310L324.62,310L323.81,310L323,310L322.19,310L321.38,310L320.57,310L319.76,310L318.95,310L318.14,310L317.33,310L316.52,310L315.71,310L314.9,310L314.09,310L313.28,310L312.47,310L311.66,310L310.85,310L310.04,310L309.23,310L308.42,310L307.61,310L306.8,310L305.99,310L305.18,310L304.37,310L303.56,310L302.75,310L301.94,310L301.13,310L300.32,310L299.51,310L298.7,310L297.89,310L297.08,310L296.27,310L295.46,310L294.65,310L293.84,310L293.03,310L292.22,310L291.41,310L290.6,310L289.79,310L288.98,310L288.17,310L287.36,310L286.55,310L285.74,310L284.93,310L284.12,310L283.31,310L282.5,310L281.69,310L280.88,310L280.07,310L279.26,310L278.45,310L277.64,310L276.83,310L276.02,310L275.21,310L274.4,310L273.59,310L272.78,310L271.97,310L271.16,310L270.35,310L269.54,310L268.73,310L267.92,310L267.11,310L266.3,310L265.49,310L264.68,310L263.87,310L263.06,310L262.25,310L261.44,310L260.63,310L259.82,310L259.01,310L258.2,310L257.39,310L256.58,310L255.77,310L254.96,310L254.15,310L253.34,310L252.53,310L251.72,310L250.91,310L250.1,310L249.29,310L248.48,310L247.67,310L246.86,310L246.05,310L245.24,310L244.43,310L243.62,310L242.81,310L242,310L241.19,310L240.38,310L239.57,310L238.76,310L237.95,310L237.14,310L236.33,310L235.52,310L234.71,310L233.9,310L233.09,310L232.28,310L231.47,310L230.66,310L229.85,310L229.04,310L228.23,310L227.42,310L226.61,310L225.8,310L224.99,310L224.18,310L223.37,310L222.56,310L221.75,310L220.94,310L220.13,310L219.32,310L218.51,310L217.7,310L216.89,310L216.08,310L215.27,310L214.46,310L213.65,310L212.84,310L212.03,310L211.22,310L210.41,310L209.6,310L208.79,310L207.98,310L207.17,310L206.36,310L205.55,310L204.74,310L203.93,310L203.12,310L202.31,310L201.5,310L200.69,310L199.88,310L199.07,310L198.26,310L197.45,310L196.64,310L195.83,310L195.02,310L194.21,310L193.4,310L192.59,310L191.78,310L190.97,310L190.16,310L189.35,310L188.54,310L187.73,310L186.92,310L186.11,310L185.3,310L184.49,310L183.68,310L182.87,310L182.06,310L181.25,310L180.44,310L179.63,310L178.82,310L178.01,310L177.2,310L176.39,310L175.58,310L174.77,310L173.96,310L173.15,310L172.34,310L171.53,310L170.72,310L169.91,310L169.1,310L168.29,310L167.48,310L166.67,310L165.86,310L165.05,310L164.24,310L163.43,310L162.62,310L161.81,310L161,310L160.19,310L159.38,310L158.57,310L157.76,310L156.95,310L156.14,310L155.33,310L154.52,310L153.71,310L152.9,310L152.09,310L151.28,310L150.47,310L149.66,310L148.85,310L148.04,310L147.23,310L146.42,310L145.61,310L144.8,310L143.99,310L143.18,310L142.37,310L141.56,310L140.75,310L139.94,310L139.13,310L138.32,310L137.51,310L136.7,310L135.89,310L135.08,310L134.27,310L133.46,310L132.65,310L131.84,310L131.03,310L130.22,310L129.41,310L128.6,310L127.79,310L126.98,310L126.17,310L125.36,310L124.55,310L123.74,310L122.93,310L122.12,310L121.31,310L120.5,310L119.69,310L118.88,310L118.07,310L117.26,310L116.45,310L115.64,310L114.83,310L114.02,310L113.21,310L112.4,310L111.59,310L110.78,310L109.97,310L109.16,310L108.35,310L107.54,310L106.73,310L105.92,310L105.11,310L104.3,310L103.49,310L102.68,310L101.87,310L101.06,310L100.25,310L99.44,310L98.63,310L97.82,310L97.01,310L96.2,310L95.39,310L94.58,310L93.77,310L92.96,310L92.15,310L91.34,310L90.53,310L89.72,310L88.91,310L88.1,310L87.29,310L86.48,310L85.67,310L84.86,310L84.05,310L83.24,310L82.43,310L81.62,310L80.81,310L80,310Z" fill-opacity="0.5" data-tippy-content="&lt;span style='color: white; background-color: #32AEEC;'&gt;Asparagus_Elaeis.ks&lt;/span&gt; &lt;br&gt; Peak: &lt;span style='color: red;'&gt;1.12&lt;/span&gt; (Density: &lt;span style='color: #32AEEC;'&gt;1.04&lt;/span&gt;)&lt;br&gt;95% CIs: &lt;span style='color: white; background-color: #32AEEC';&gt;1.11 &lt;--&gt; 1.14&lt;/span&gt;" style="fill: rgb(50, 174, 236);"/><path class="area path" d="M80,309.955L80.81,309.95L81.62,309.944L82.43,309.939L83.24,309.935L84.05,309.93L84.86,309.926L85.67,309.916L86.48,309.905L87.29,309.895L88.1,309.885L88.91,309.876L89.72,309.868L90.53,309.86L91.34,309.853L92.15,309.847L92.96,309.841L93.77,309.836L94.58,309.828L95.39,309.816L96.2,309.806L97.01,309.796L97.82,309.787L98.63,309.78L99.44,309.773L100.25,309.767L101.06,309.76L101.87,309.748L102.68,309.731L103.49,309.712L104.3,309.689L105.11,309.669L105.92,309.65L106.73,309.629L107.54,309.606L108.35,309.586L109.16,309.568L109.97,309.553L110.78,309.539L111.59,309.523L112.4,309.506L113.21,309.492L114.02,309.48L114.83,309.471L115.64,309.46L116.45,309.447L117.26,309.437L118.07,309.429L118.88,309.416L119.69,309.405L120.5,309.396L121.31,309.39L122.12,309.387L122.93,309.386L123.74,309.388L124.55,309.392L125.36,309.391L126.17,309.385L126.98,309.382L127.79,309.381L128.6,309.382L129.41,309.386L130.22,309.392L131.03,309.401L131.84,309.406L132.65,309.413L133.46,309.415L134.27,309.42L135.08,309.424L135.89,309.424L136.7,309.422L137.51,309.423L138.32,309.427L139.13,309.435L139.94,309.444L140.75,309.45L141.56,309.457L142.37,309.462L143.18,309.46L143.99,309.446L144.8,309.421L145.61,309.388L146.42,309.348L147.23,309.294L148.04,309.222L148.85,309.134L149.66,309.049L150.47,308.955L151.28,308.852L152.09,308.727L152.9,308.568L153.71,308.379L154.52,308.165L155.33,307.962L156.14,307.731L156.95,307.486L157.76,307.237L158.57,306.96L159.38,306.655L160.19,306.345L161,306.008L161.81,305.652L162.62,305.255L163.43,304.839L164.24,304.377L165.05,303.875L165.86,303.319L166.67,302.713L167.48,302.103L168.29,301.451L169.1,300.785L169.91,300.114L170.72,299.426L171.53,298.731L172.34,298.016L173.15,297.221L173.96,296.36L174.77,295.446L175.58,294.498L176.39,293.476L177.2,292.433L178.01,291.325L178.82,290.179L179.63,289.061L180.44,287.972L181.25,286.864L182.06,285.716L182.87,284.492L183.68,283.23L184.49,281.936L185.3,280.599L186.11,279.231L186.92,277.852L187.73,276.407L188.54,274.948L189.35,273.436L190.16,271.914L190.97,270.409L191.78,268.899L192.59,267.378L193.4,265.848L194.21,264.232L195.02,262.545L195.83,260.851L196.64,259.127L197.45,257.374L198.26,255.651L199.07,253.921L199.88,252.15L200.69,250.402L201.5,248.679L202.31,246.988L203.12,245.26L203.93,243.605L204.74,241.931L205.55,240.255L206.36,238.573L207.17,236.892L207.98,235.215L208.79,233.598L209.6,231.949L210.41,230.344L211.22,228.751L212.03,227.092L212.84,225.482L213.65,223.811L214.46,222.167L215.27,220.581L216.08,219.069L216.89,217.572L217.7,216.072L218.51,214.613L219.32,213.153L220.13,211.859L220.94,210.665L221.75,209.555L222.56,208.435L223.37,207.336L224.18,206.286L224.99,205.356L225.8,204.378L226.61,203.416L227.42,202.596L228.23,201.801L229.04,201.085L229.85,200.405L230.66,199.82L231.47,199.324L232.28,198.879L233.09,198.533L233.9,198.285L234.71,198.042L235.52,197.79L236.33,197.624L237.14,197.483L237.95,197.41L238.76,197.469L239.57,197.616L240.38,197.766L241.19,197.923L242,198.156L242.81,198.486L243.62,198.853L244.43,199.329L245.24,199.847L246.05,200.4L246.86,201.04L247.67,201.811L248.48,202.644L249.29,203.557L250.1,204.412L250.91,205.308L251.72,206.166L252.53,206.957L253.34,207.804L254.15,208.602L254.96,209.387L255.77,210.219L256.58,211.052L257.39,211.899L258.2,212.719L259.01,213.558L259.82,214.345L260.63,215.184L261.44,216.034L262.25,216.854L263.06,217.61L263.87,218.385L264.68,219.126L265.49,219.918L266.3,220.589L267.11,221.185L267.92,221.809L268.73,222.436L269.54,223.038L270.35,223.595L271.16,224.179L271.97,224.784L272.78,225.389L273.59,225.995L274.4,226.6L275.21,227.167L276.02,227.701L276.83,228.278L277.64,228.811L278.45,229.322L279.26,229.893L280.07,230.522L280.88,231.088L281.69,231.557L282.5,232.002L283.31,232.441L284.12,232.929L284.93,233.379L285.74,233.877L286.55,234.358L287.36,234.839L288.17,235.43L288.98,236.054L289.79,236.679L290.6,237.312L291.41,238.005L292.22,238.644L293.03,239.327L293.84,240.055L294.65,240.791L295.46,241.515L296.27,242.224L297.08,242.902L297.89,243.589L298.7,244.328L299.51,245.073L300.32,245.783L301.13,246.474L301.94,247.187L302.75,247.865L303.56,248.569L304.37,249.309L305.18,250.03L305.99,250.725L306.8,251.386L307.61,252.029L308.42,252.683L309.23,253.354L310.04,254.028L310.85,254.692L311.66,255.344L312.47,256.058L313.28,256.817L314.09,257.566L314.9,258.319L315.71,259.061L316.52,259.809L317.33,260.588L318.14,261.367L318.95,262.108L319.76,262.811L320.57,263.538L321.38,264.196L322.19,264.805L323,265.363L323.81,265.859L324.62,266.396L325.43,266.88L326.24,267.389L327.05,267.874L327.86,268.316L328.67,268.755L329.48,269.128L330.29,269.458L331.1,269.788L331.91,270.133L332.72,270.42L333.53,270.661L334.34,270.895L335.15,271.139L335.96,271.388L336.77,271.591L337.58,271.808L338.39,272.052L339.2,272.302L340.01,272.558L340.82,272.792L341.63,273.019L342.44,273.224L343.25,273.442L344.06,273.659L344.87,273.859L345.68,274.049L346.49,274.235L347.3,274.407L348.11,274.555L348.92,274.737L349.73,274.924L350.54,275.109L351.35,275.311L352.16,275.495L352.97,275.704L353.78,275.933L354.59,276.19L355.4,276.435L356.21,276.646L357.02,276.838L357.83,277.051L358.64,277.275L359.45,277.539L360.26,277.781L361.07,278.038L361.88,278.302L362.69,278.588L363.5,278.858L364.31,279.114L365.12,279.389L365.93,279.663L366.74,279.941L367.55,280.224L368.36,280.525L369.17,280.807L369.98,281.067L370.79,281.295L371.6,281.518L372.41,281.698L373.22,281.851L374.03,281.935L374.84,282.04L375.65,282.178L376.46,282.303L377.27,282.408L378.08,282.553L378.89,282.754L379.7,282.974L380.51,283.186L381.32,283.394L382.13,283.612L382.94,283.851L383.75,284.112L384.56,284.355L385.37,284.596L386.18,284.846L386.99,285.136L387.8,285.428L388.61,285.695L389.42,285.995L390.23,286.288L391.04,286.565L391.85,286.824L392.66,287.04L393.47,287.255L394.28,287.469L395.09,287.701L395.9,287.908L396.71,288.069L397.52,288.197L398.33,288.317L399.14,288.455L399.95,288.617L400.76,288.787L401.57,288.977L402.38,289.201L403.19,289.417L404,289.6L404.81,289.81L405.62,290.014L406.43,290.196L407.24,290.366L408.05,290.54L408.86,290.728L409.67,290.921L410.48,291.092L411.29,291.232L412.1,291.386L412.91,291.495L413.72,291.6L414.53,291.665L415.34,291.731L416.15,291.812L416.96,291.882L417.77,291.937L418.58,292.008L419.39,292.109L420.2,292.226L421.01,292.342L421.82,292.436L422.63,292.509L423.44,292.605L424.25,292.687L425.06,292.767L425.87,292.879L426.68,292.997L427.49,293.135L428.3,293.285L429.11,293.425L429.92,293.595L430.73,293.764L431.54,293.944L432.35,294.098L433.16,294.208L433.97,294.317L434.78,294.393L435.59,294.448L436.4,294.488L437.21,294.541L438.02,294.588L438.83,294.614L439.64,294.68L440.45,294.773L441.26,294.867L442.07,294.973L442.88,295.088L443.69,295.186L444.5,295.261L445.31,295.364L446.12,295.47L446.93,295.577L447.74,295.665L448.55,295.751L449.36,295.867L450.17,296.012L450.98,296.138L451.79,296.231L452.6,296.327L453.41,296.416L454.22,296.508L455.03,296.599L455.84,296.679L456.65,296.769L457.46,296.851L458.27,296.927L459.08,297.018L459.89,297.129L460.7,297.247L461.51,297.376L462.32,297.506L463.13,297.622L463.94,297.733L464.75,297.822L465.56,297.937L466.37,298.086L467.18,298.242L467.99,298.425L468.8,298.647L469.61,298.89L470.42,299.152L471.23,299.44L472.04,299.753L472.85,300.063L473.66,300.38L474.47,300.705L475.28,301.019L476.09,301.333L476.9,301.65L477.71,301.984L478.52,302.326L479.33,302.645L480.14,302.972L480.95,303.313L481.76,303.655L482.57,303.992L483.38,304.31L484.19,304.618L485,304.927L485,310L484.19,310L483.38,310L482.57,310L481.76,310L480.95,310L480.14,310L479.33,310L478.52,310L477.71,310L476.9,310L476.09,310L475.28,310L474.47,310L473.66,310L472.85,310L472.04,310L471.23,310L470.42,310L469.61,310L468.8,310L467.99,310L467.18,310L466.37,310L465.56,310L464.75,310L463.94,310L463.13,310L462.32,310L461.51,310L460.7,310L459.89,310L459.08,310L458.27,310L457.46,310L456.65,310L455.84,310L455.03,310L454.22,310L453.41,310L452.6,310L451.79,310L450.98,310L450.17,310L449.36,310L448.55,310L447.74,310L446.93,310L446.12,310L445.31,310L444.5,310L443.69,310L442.88,310L442.07,310L441.26,310L440.45,310L439.64,310L438.83,310L438.02,310L437.21,310L436.4,310L435.59,310L434.78,310L433.97,310L433.16,310L432.35,310L431.54,310L430.73,310L429.92,310L429.11,310L428.3,310L427.49,310L426.68,310L425.87,310L425.06,310L424.25,310L423.44,310L422.63,310L421.82,310L421.01,310L420.2,310L419.39,310L418.58,310L417.77,310L416.96,310L416.15,310L415.34,310L414.53,310L413.72,310L412.91,310L412.1,310L411.29,310L410.48,310L409.67,310L408.86,310L408.05,310L407.24,310L406.43,310L405.62,310L404.81,310L404,310L403.19,310L402.38,310L401.57,310L400.76,310L399.95,310L399.14,310L398.33,310L397.52,310L396.71,310L395.9,310L395.09,310L394.28,310L393.47,310L392.66,310L391.85,310L391.04,310L390.23,310L389.42,310L388.61,310L387.8,310L386.99,310L386.18,310L385.37,310L384.56,310L383.75,310L382.94,310L382.13,310L381.32,310L380.51,310L379.7,310L378.89,310L378.08,310L377.27,310L376.46,310L375.65,310L374.84,310L374.03,310L373.22,310L372.41,310L371.6,310L370.79,310L369.98,310L369.17,310L368.36,310L367.55,310L366.74,310L365.93,310L365.12,310L364.31,310L363.5,310L362.69,310L361.88,310L361.07,310L360.26,310L359.45,310L358.64,310L357.83,310L357.02,310L356.21,310L355.4,310L354.59,310L353.78,310L352.97,310L352.16,310L351.35,310L350.54,310L349.73,310L348.92,310L348.11,310L347.3,310L346.49,310L345.68,310L344.87,310L344.06,310L343.25,310L342.44,310L341.63,310L340.82,310L340.01,310L339.2,310L338.39,310L337.58,310L336.77,310L335.96,310L335.15,310L334.34,310L333.53,310L332.72,310L331.91,310L331.1,310L330.29,310L329.48,310L328.67,310L327.86,310L327.05,310L326.24,310L325.43,310L324.62,310L323.81,310L323,310L322.19,310L321.38,310L320.57,310L319.76,310L318.95,310L318.14,310L317.33,310L316.52,310L315.71,310L314.9,310L314.09,310L313.28,310L312.47,310L311.66,310L310.85,310L310.04,310L309.23,310L308.42,310L307.61,310L306.8,310L305.99,310L305.18,310L304.37,310L303.56,310L302.75,310L301.94,310L301.13,310L300.32,310L299.51,310L298.7,310L297.89,310L297.08,310L296.27,310L295.46,310L294.65,310L293.84,310L293.03,310L292.22,310L291.41,310L290.6,310L289.79,310L288.98,310L288.17,310L287.36,310L286.55,310L285.74,310L284.93,310L284.12,310L283.31,310L282.5,310L281.69,310L280.88,310L280.07,310L279.26,310L278.45,310L277.64,310L276.83,310L276.02,310L275.21,310L274.4,310L273.59,310L272.78,310L271.97,310L271.16,310L270.35,310L269.54,310L268.73,310L267.92,310L267.11,310L266.3,310L265.49,310L264.68,310L263.87,310L263.06,310L262.25,310L261.44,310L260.63,310L259.82,310L259.01,310L258.2,310L257.39,310L256.58,310L255.77,310L254.96,310L254.15,310L253.34,310L252.53,310L251.72,310L250.91,310L250.1,310L249.29,310L248.48,310L247.67,310L246.86,310L246.05,310L245.24,310L244.43,310L243.62,310L242.81,310L242,310L241.19,310L240.38,310L239.57,310L238.76,310L237.95,310L237.14,310L236.33,310L235.52,310L234.71,310L233.9,310L233.09,310L232.28,310L231.47,310L230.66,310L229.85,310L229.04,310L228.23,310L227.42,310L226.61,310L225.8,310L224.99,310L224.18,310L223.37,310L222.56,310L221.75,310L220.94,310L220.13,310L219.32,310L218.51,310L217.7,310L216.89,310L216.08,310L215.27,310L214.46,310L213.65,310L212.84,310L212.03,310L211.22,310L210.41,310L209.6,310L208.79,310L207.98,310L207.17,310L206.36,310L205.55,310L204.74,310L203.93,310L203.12,310L202.31,310L201.5,310L200.69,310L199.88,310L199.07,310L198.26,310L197.45,310L196.64,310L195.83,310L195.02,310L194.21,310L193.4,310L192.59,310L191.78,310L190.97,310L190.16,310L189.35,310L188.54,310L187.73,310L186.92,310L186.11,310L185.3,310L184.49,310L183.68,310L182.87,310L182.06,310L181.25,310L180.44,310L179.63,310L178.82,310L178.01,310L177.2,310L176.39,310L175.58,310L174.77,310L173.96,310L173.15,310L172.34,310L171.53,310L170.72,310L169.91,310L169.1,310L168.29,310L167.48,310L166.67,310L165.86,310L165.05,310L164.24,310L163.43,310L162.62,310L161.81,310L161,310L160.19,310L159.38,310L158.57,310L157.76,310L156.95,310L156.14,310L155.33,310L154.52,310L153.71,310L152.9,310L152.09,310L151.28,310L150.47,310L149.66,310L148.85,310L148.04,310L147.23,310L146.42,310L145.61,310L144.8,310L143.99,310L143.18,310L142.37,310L141.56,310L140.75,310L139.94,310L139.13,310L138.32,310L137.51,310L136.7,310L135.89,310L135.08,310L134.27,310L133.46,310L132.65,310L131.84,310L131.03,310L130.22,310L129.41,310L128.6,310L127.79,310L126.98,310L126.17,310L125.36,310L124.55,310L123.74,310L122.93,310L122.12,310L121.31,310L120.5,310L119.69,310L118.88,310L118.07,310L117.26,310L116.45,310L115.64,310L114.83,310L114.02,310L113.21,310L112.4,310L111.59,310L110.78,310L109.97,310L109.16,310L108.35,310L107.54,310L106.73,310L105.92,310L105.11,310L104.3,310L103.49,310L102.68,310L101.87,310L101.06,310L100.25,310L99.44,310L98.63,310L97.82,310L97.01,310L96.2,310L95.39,310L94.58,310L93.77,310L92.96,310L92.15,310L91.34,310L90.53,310L89.72,310L88.91,310L88.1,310L87.29,310L86.48,310L85.67,310L84.86,310L84.05,310L83.24,310L82.43,310L81.62,310L80.81,310L80,310Z" fill-opacity="0.5" data-tippy-content="&lt;span style='color: white; background-color: #E2AE79;'&gt;Asparagus_Oryza.ks&lt;/span&gt; &lt;br&gt; Peak: &lt;span style='color: red;'&gt;1.95&lt;/span&gt; (Density: &lt;span style='color: #E2AE79;'&gt;0.61&lt;/span&gt;)&lt;br&gt;95% CIs: &lt;span style='color: white; background-color: #E2AE79';&gt;1.11 &lt;--&gt; 1.96&lt;/span&gt;" style="fill: rgb(226, 174, 121);"/><circle class="rate test" r="2" cx="142.61252446183954" cy="98.27862444254292" fill="black" fill-opacity="0.7"/><rect class="rate test" id="rate_correction_Oryza_sativa" x="139.44227005870837" y="94.27862444254292" width="6.34050880626225" height="8" fill="#8080804D" fill-opacity="0.9"/><marker id="triangle-marker-1" viewBox="0 0 10 10" refX="9" refY="5" markerWidth="6" markerHeight="9" orient="auto"><path d="M 0 0 L 10 5 L 0 10 z" fill="grey"/></marker><text x="245.02759295499055" y="101.27862444254292" fill="#32AEEC" font-size="10px" text-anchor="start" font-style="italic">A. officinalis - E. guineensis</text><line class="rate test" x1="142.61252446183954" y1="98.27862444254292" x2="80" y2="98.27862444254292" stroke="grey" marker-end="url(#triangle-marker-1)"/><marker id="triangle-marker-2" viewBox="0 0 10 10" refX="9" refY="5" markerWidth="6" markerHeight="9" orient="auto"><path d="M 0 0 L 10 5 L 0 10 z" fill="#32AEEC"/></marker><line class="rate test" x1="142.61252446183954" y1="98.27862444254292" x2="169.559686888454" y2="98.27862444254292" stroke="#32AEEC" marker-end="url(#triangle-marker-2)"/><line class="rate test" x1="169.559686888454" y1="98.27862444254292" x2="169.559686888454" y2="116.85005301397152" stroke="#32AEEC" opacity="0.6" stroke-dasharray="5 3"/><line x1="142.61252446183954" y1="98.27862444254292" x2="142.61252446183954" y2="70.42148158540007" stroke="#E2AE79"/><marker id="triangle-marker-3" viewBox="0 0 10 10" refX="9" refY="5" markerWidth="6" markerHeight="9" orient="auto"><path d="M 0 0 L 10 5 L 0 10 z" fill="#E2AE79"/></marker><line x1="142.61252446183954" y1="70.42148158540007" x2="236.9275929549906" y2="70.42148158540007" stroke="#E2AE79" marker-end="url(#triangle-marker-3)"/><line class="rate test" x1="236.9275929549906" y1="70.42148158540007" x2="236.9275929549906" y2="197.4096123369913" stroke="#E2AE79" opacity="0.6" stroke-dasharray="5 3"/><text x="245.02759295499055" y="73.42148158540007" fill="#E2AE79" font-size="10px" text-anchor="start" font-style="italic">A. officinalis - O. sativa</text><text x="126.41252446183955" y="88.99291015682863" fill="grey" font-size="10px" text-anchor="end">0.77</text><text x="158.81252446183953" y="88.99291015682863" fill="#32AEEC" font-size="10px">0.33</text><text x="158.81252446183953" y="61.135767299685796" fill="#E2AE79" font-size="10px">1.16</text><g class="axis axis--x2" transform="translate(0, 310)" fill="none" font-size="12px" font-family="sans-serif" text-anchor="middle"><path class="domain" stroke="currentColor" d="M565,6V0H970V6"/><g class="tick" opacity="1" transform="translate(565,0)"><line stroke="currentColor" y2="6"/><text fill="currentColor" y="9" dy="0.71em">0</text></g><g class="tick" opacity="1" transform="translate(646,0)"><line stroke="currentColor" y2="6"/><text fill="currentColor" y="9" dy="0.71em">1</text></g><g class="tick" opacity="1" transform="translate(727,0)"><line stroke="currentColor" y2="6"/><text fill="currentColor" y="9" dy="0.71em">2</text></g><g class="tick" opacity="1" transform="translate(808,0)"><line stroke="currentColor" y2="6"/><text fill="currentColor" y="9" dy="0.71em">3</text></g><g class="tick" opacity="1" transform="translate(889,0)"><line stroke="currentColor" y2="6"/><text fill="currentColor" y="9" dy="0.71em">4</text></g><g class="tick" opacity="1" transform="translate(970,0)"><line stroke="currentColor" y2="6"/><text fill="currentColor" y="9" dy="0.71em">5</text></g></g><g class="x2Title"><text x="752.5" y="340" text-anchor="middle"><tspan style="font-size: 14px;"><tspan style="font-style: italic;">K</tspan><tspan dx="1px" dy="2px" style="font-size: 12px;">s</tspan></tspan></text></g><g class="y2Title"><text y="180" x="515" text-anchor="middle" font-size="14px" transform="rotate(-90, 515, 180)">Number of retained duplicates</text></g><g class="axis axis--y" transform="translate(560, 0)" fill="none" font-size="12px" font-family="sans-serif" text-anchor="end"><path class="domain" stroke="currentColor" d="M-6,310H0V50H-6"/><g class="tick" opacity="1" transform="translate(0,310)"><line stroke="currentColor" x2="-6"/><text fill="currentColor" x="-9" dy="0.32em">0</text></g><g class="tick" opacity="1" transform="translate(0,245)"><line stroke="currentColor" x2="-6"/><text fill="currentColor" x="-9" dy="0.32em">500</text></g><g class="tick" opacity="1" transform="translate(0,180)"><line stroke="currentColor" x2="-6"/><text fill="currentColor" x="-9" dy="0.32em">1,000</text></g><g class="tick" opacity="1" transform="translate(0,115)"><line stroke="currentColor" x2="-6"/><text fill="currentColor" x="-9" dy="0.32em">1,500</text></g><g class="tick" opacity="1" transform="translate(0,50)"><line stroke="currentColor" x2="-6"/><text fill="currentColor" x="-9" dy="0.32em">2,000</text></g></g><g class="axis axis--y3" transform="translate(975, 0)" fill="none" font-size="12px" font-family="sans-serif" text-anchor="start"><path class="domain" stroke="currentColor" d="M6,310H0V50H6"/><g class="tick" opacity="1" transform="translate(0,310)"><line stroke="currentColor" x2="6"/><text fill="currentColor" x="9" dy="0.32em">0.0</text></g><g class="tick" opacity="1" transform="translate(0,272.8571428571429)"><line stroke="currentColor" x2="6"/><text fill="currentColor" x="9" dy="0.32em">0.2</text></g><g class="tick" opacity="1" transform="translate(0,235.71428571428567)"><line stroke="currentColor" x2="6"/><text fill="currentColor" x="9" dy="0.32em">0.4</text></g><g class="tick" opacity="1" transform="translate(0,198.57142857142858)"><line stroke="currentColor" x2="6"/><text fill="currentColor" x="9" dy="0.32em">0.6</text></g><g class="tick" opacity="1" transform="translate(0,161.42857142857142)"><line stroke="currentColor" x2="6"/><text fill="currentColor" x="9" dy="0.32em">0.8</text></g><g class="tick" opacity="1" transform="translate(0,124.28571428571428)"><line stroke="currentColor" x2="6"/><text fill="currentColor" x="9" dy="0.32em">1.0</text></g><g class="tick" opacity="1" transform="translate(0,87.14285714285711)"><line stroke="currentColor" x2="6"/><text fill="currentColor" x="9" dy="0.32em">1.2</text></g><g class="tick" opacity="1" transform="translate(0,49.99999999999994)"><line stroke="currentColor" x2="6"/><text fill="currentColor" x="9" dy="0.32em">1.4</text></g></g><g class="y2Title"><text y="180" x="1020" text-anchor="middle" font-size="14px" transform="rotate(-90, 1020, 180)">Ortholog Density</text></g><path class="area-two path" d="M565,310L565.81,310L566.62,310L567.43,309.991L568.24,309.981L569.05,309.972L569.86,309.963L570.67,309.954L571.48,309.946L572.29,309.938L573.1,309.931L573.91,309.924L574.72,309.917L575.53,309.911L576.34,309.906L577.15,309.9L577.96,309.895L578.77,309.891L579.58,309.887L580.39,309.883L581.2,309.88L582.01,309.877L582.82,309.875L583.63,309.873L584.44,309.872L585.25,309.866L586.06,309.86L586.87,309.855L587.68,309.845L588.49,309.837L589.3,309.829L590.11,309.82L590.92,309.809L591.73,309.794L592.54,309.775L593.35,309.757L594.16,309.728L594.97,309.693L595.78,309.659L596.59,309.624L597.4,309.584L598.21,309.535L599.02,309.465L599.83,309.358L600.64,309.224L601.45,309.075L602.26,308.903L603.07,308.692L603.88,308.457L604.69,308.186L605.5,307.861L606.31,307.448L607.12,306.954L607.93,306.33L608.74,305.609L609.55,304.801L610.36,303.902L611.17,302.883L611.98,301.744L612.79,300.469L613.6,299.022L614.41,297.375L615.22,295.592L616.03,293.649L616.84,291.545L617.65,289.255L618.46,286.821L619.27,284.199L620.08,281.338L620.89,278.197L621.7,274.874L622.51,271.374L623.32,267.694L624.13,263.809L624.94,259.743L625.75,255.48L626.56,250.972L627.37,246.302L628.18,241.471L628.99,236.503L629.8,231.409L630.61,226.239L631.42,220.946L632.23,215.606L633.04,210.188L633.85,204.752L634.66,199.297L635.47,193.887L636.28,188.581L637.09,183.362L637.9,178.262L638.71,173.208L639.52,168.255L640.33,163.456L641.14,158.833L641.95,154.355L642.76,150.1L643.57,146.074L644.38,142.269L645.19,138.705L646,135.442L646.81,132.427L647.62,129.66L648.43,127.148L649.24,124.875L650.05,122.856L650.86,121.161L651.67,119.766L652.48,118.73L653.29,117.951L654.1,117.373L654.91,116.976L655.72,116.85L656.53,116.907L657.34,117.25L658.15,117.843L658.96,118.74L659.77,119.919L660.58,121.283L661.39,122.692L662.2,124.283L663.01,126.02L663.82,127.937L664.63,129.995L665.44,132.172L666.25,134.464L667.06,136.759L667.87,139.17L668.68,141.665L669.49,144.202L670.3,146.77L671.11,149.408L671.92,152.041L672.73,154.712L673.54,157.306L674.35,159.909L675.16,162.481L675.97,165.084L676.78,167.76L677.59,170.461L678.4,173.192L679.21,175.833L680.02,178.425L680.83,181.03L681.64,183.645L682.45,186.199L683.26,188.749L684.07,191.313L684.88,193.812L685.69,196.267L686.5,198.757L687.31,201.247L688.12,203.713L688.93,206.161L689.74,208.546L690.55,210.817L691.36,213.07L692.17,215.257L692.98,217.422L693.79,219.536L694.6,221.561L695.41,223.508L696.22,225.395L697.03,227.152L697.84,228.887L698.65,230.57L699.46,232.264L700.27,233.968L701.08,235.634L701.89,237.197L702.7,238.7L703.51,240.117L704.32,241.501L705.13,242.854L705.94,244.18L706.75,245.494L707.56,246.742L708.37,247.975L709.18,249.179L709.99,250.346L710.8,251.495L711.61,252.63L712.42,253.741L713.23,254.827L714.04,255.831L714.85,256.788L715.66,257.659L716.47,258.498L717.28,259.318L718.09,260.105L718.9,260.864L719.71,261.574L720.52,262.254L721.33,262.919L722.14,263.574L722.95,264.248L723.76,264.914L724.57,265.596L725.38,266.24L726.19,266.872L727,267.517L727.81,268.191L728.62,268.887L729.43,269.589L730.24,270.294L731.05,270.948L731.86,271.591L732.67,272.187L733.48,272.713L734.29,273.232L735.1,273.734L735.91,274.243L736.72,274.749L737.53,275.259L738.34,275.77L739.15,276.25L739.96,276.747L740.77,277.238L741.58,277.726L742.39,278.216L743.2,278.68L744.01,279.113L744.82,279.554L745.63,280.002L746.44,280.477L747.25,280.942L748.06,281.401L748.87,281.841L749.68,282.244L750.49,282.62L751.3,283.013L752.11,283.422L752.92,283.837L753.73,284.248L754.54,284.673L755.35,285.082L756.16,285.464L756.97,285.827L757.78,286.162L758.59,286.477L759.4,286.783L760.21,287.068L761.02,287.363L761.83,287.668L762.64,287.961L763.45,288.284L764.26,288.613L765.07,288.967L765.88,289.3L766.69,289.603L767.5,289.893L768.31,290.183L769.12,290.474L769.93,290.773L770.74,291.066L771.55,291.33L772.36,291.59L773.17,291.859L773.98,292.125L774.79,292.372L775.6,292.615L776.41,292.868L777.22,293.115L778.03,293.36L778.84,293.607L779.65,293.847L780.46,294.077L781.27,294.29L782.08,294.505L782.89,294.705L783.7,294.898L784.51,295.076L785.32,295.273L786.13,295.499L786.94,295.742L787.75,295.963L788.56,296.173L789.37,296.365L790.18,296.536L790.99,296.662L791.8,296.78L792.61,296.881L793.42,296.975L794.23,297.067L795.04,297.155L795.85,297.24L796.66,297.333L797.47,297.415L798.28,297.476L799.09,297.538L799.9,297.603L800.71,297.658L801.52,297.716L802.33,297.806L803.14,297.886L803.95,297.966L804.76,298.047L805.57,298.157L806.38,298.262L807.19,298.349L808,298.43L808.81,298.503L809.62,298.567L810.43,298.617L811.24,298.666L812.05,298.697L812.86,298.737L813.67,298.79L814.48,298.851L815.29,298.918L816.1,298.994L816.91,299.073L817.72,299.139L818.53,299.212L819.34,299.303L820.15,299.412L820.96,299.512L821.77,299.588L822.58,299.66L823.39,299.715L824.2,299.782L825.01,299.875L825.82,299.991L826.63,300.127L827.44,300.285L828.25,300.448L829.06,300.603L829.87,300.738L830.68,300.884L831.49,301.018L832.3,301.143L833.11,301.228L833.92,301.301L834.73,301.38L835.54,301.446L836.35,301.508L837.16,301.569L837.97,301.625L838.78,301.671L839.59,301.717L840.4,301.764L841.21,301.82L842.02,301.878L842.83,301.939L843.64,301.988L844.45,302.026L845.26,302.072L846.07,302.115L846.88,302.148L847.69,302.175L848.5,302.221L849.31,302.268L850.12,302.301L850.93,302.321L851.74,302.342L852.55,302.37L853.36,302.413L854.17,302.465L854.98,302.516L855.79,302.575L856.6,302.644L857.41,302.713L858.22,302.77L859.03,302.839L859.84,302.915L860.65,303.001L861.46,303.061L862.27,303.104L863.08,303.146L863.89,303.195L864.7,303.232L865.51,303.284L866.32,303.356L867.13,303.432L867.94,303.51L868.75,303.585L869.56,303.644L870.37,303.688L871.18,303.755L871.99,303.833L872.8,303.911L873.61,303.975L874.42,304.035L875.23,304.1L876.04,304.156L876.85,304.213L877.66,304.259L878.47,304.279L879.28,304.294L880.09,304.315L880.9,304.352L881.71,304.394L882.52,304.434L883.33,304.461L884.14,304.481L884.95,304.504L885.76,304.534L886.57,304.555L887.38,304.563L888.19,304.562L889,304.572L889.81,304.588L890.62,304.599L891.43,304.603L892.24,304.594L893.05,304.58L893.86,304.585L894.67,304.602L895.48,304.626L896.29,304.647L897.1,304.675L897.91,304.711L898.72,304.739L899.53,304.762L900.34,304.79L901.15,304.831L901.96,304.865L902.77,304.902L903.58,304.945L904.39,305L905.2,305.043L906.01,305.093L906.82,305.154L907.63,305.22L908.44,305.289L909.25,305.35L910.06,305.388L910.87,305.409L911.68,305.435L912.49,305.463L913.3,305.485L914.11,305.515L914.92,305.553L915.73,305.596L916.54,305.628L917.35,305.669L918.16,305.708L918.97,305.728L919.78,305.749L920.59,305.783L921.4,305.833L922.21,305.878L923.02,305.889L923.83,305.897L924.64,305.914L925.45,305.931L926.26,305.946L927.07,305.962L927.88,305.979L928.69,305.997L929.5,306.022L930.31,306.053L931.12,306.095L931.93,306.142L932.74,306.181L933.55,306.213L934.36,306.249L935.17,306.29L935.98,306.337L936.79,306.368L937.6,306.389L938.41,306.41L939.22,306.425L940.03,306.428L940.84,306.436L941.65,306.458L942.46,306.483L943.27,306.505L944.08,306.525L944.89,306.544L945.7,306.556L946.51,306.571L947.32,306.591L948.13,306.611L948.94,306.639L949.75,306.664L950.56,306.683L951.37,306.705L952.18,306.732L952.99,306.761L953.8,306.781L954.61,306.811L955.42,306.856L956.23,306.902L957.04,306.941L957.85,306.99L958.66,307.047L959.47,307.111L960.28,307.18L961.09,307.258L961.9,307.347L962.71,307.441L963.52,307.514L964.33,307.587L965.14,307.667L965.95,307.743L966.76,307.82L967.57,307.898L968.38,307.982L969.19,308.068L970,308.161L970,310L969.19,310L968.38,310L967.57,310L966.76,310L965.95,310L965.14,310L964.33,310L963.52,310L962.71,310L961.9,310L961.09,310L960.28,310L959.47,310L958.66,310L957.85,310L957.04,310L956.23,310L955.42,310L954.61,310L953.8,310L952.99,310L952.18,310L951.37,310L950.56,310L949.75,310L948.94,310L948.13,310L947.32,310L946.51,310L945.7,310L944.89,310L944.08,310L943.27,310L942.46,310L941.65,310L940.84,310L940.03,310L939.22,310L938.41,310L937.6,310L936.79,310L935.98,310L935.17,310L934.36,310L933.55,310L932.74,310L931.93,310L931.12,310L930.31,310L929.5,310L928.69,310L927.88,310L927.07,310L926.26,310L925.45,310L924.64,310L923.83,310L923.02,310L922.21,310L921.4,310L920.59,310L919.78,310L918.97,310L918.16,310L917.35,310L916.54,310L915.73,310L914.92,310L914.11,310L913.3,310L912.49,310L911.68,310L910.87,310L910.06,310L909.25,310L908.44,310L907.63,310L906.82,310L906.01,310L905.2,310L904.39,310L903.58,310L902.77,310L901.96,310L901.15,310L900.34,310L899.53,310L898.72,310L897.91,310L897.1,310L896.29,310L895.48,310L894.67,310L893.86,310L893.05,310L892.24,310L891.43,310L890.62,310L889.81,310L889,310L888.19,310L887.38,310L886.57,310L885.76,310L884.95,310L884.14,310L883.33,310L882.52,310L881.71,310L880.9,310L880.09,310L879.28,310L878.47,310L877.66,310L876.85,310L876.04,310L875.23,310L874.42,310L873.61,310L872.8,310L871.99,310L871.18,310L870.37,310L869.56,310L868.75,310L867.94,310L867.13,310L866.32,310L865.51,310L864.7,310L863.89,310L863.08,310L862.27,310L861.46,310L860.65,310L859.84,310L859.03,310L858.22,310L857.41,310L856.6,310L855.79,310L854.98,310L854.17,310L853.36,310L852.55,310L851.74,310L850.93,310L850.12,310L849.31,310L848.5,310L847.69,310L846.88,310L846.07,310L845.26,310L844.45,310L843.64,310L842.83,310L842.02,310L841.21,310L840.4,310L839.59,310L838.78,310L837.97,310L837.16,310L836.35,310L835.54,310L834.73,310L833.92,310L833.11,310L832.3,310L831.49,310L830.68,310L829.87,310L829.06,310L828.25,310L827.44,310L826.63,310L825.82,310L825.01,310L824.2,310L823.39,310L822.58,310L821.77,310L820.96,310L820.15,310L819.34,310L818.53,310L817.72,310L816.91,310L816.1,310L815.29,310L814.48,310L813.67,310L812.86,310L812.05,310L811.24,310L810.43,310L809.62,310L808.81,310L808,310L807.19,310L806.38,310L805.57,310L804.76,310L803.95,310L803.14,310L802.33,310L801.52,310L800.71,310L799.9,310L799.09,310L798.28,310L797.47,310L796.66,310L795.85,310L795.04,310L794.23,310L793.42,310L792.61,310L791.8,310L790.99,310L790.18,310L789.37,310L788.56,310L787.75,310L786.94,310L786.13,310L785.32,310L784.51,310L783.7,310L782.89,310L782.08,310L781.27,310L780.46,310L779.65,310L778.84,310L778.03,310L777.22,310L776.41,310L775.6,310L774.79,310L773.98,310L773.17,310L772.36,310L771.55,310L770.74,310L769.93,310L769.12,310L768.31,310L767.5,310L766.69,310L765.88,310L765.07,310L764.26,310L763.45,310L762.64,310L761.83,310L761.02,310L760.21,310L759.4,310L758.59,310L757.78,310L756.97,310L756.16,310L755.35,310L754.54,310L753.73,310L752.92,310L752.11,310L751.3,310L750.49,310L749.68,310L748.87,310L748.06,310L747.25,310L746.44,310L745.63,310L744.82,310L744.01,310L743.2,310L742.39,310L741.58,310L740.77,310L739.96,310L739.15,310L738.34,310L737.53,310L736.72,310L735.91,310L735.1,310L734.29,310L733.48,310L732.67,310L731.86,310L731.05,310L730.24,310L729.43,310L728.62,310L727.81,310L727,310L726.19,310L725.38,310L724.57,310L723.76,310L722.95,310L722.14,310L721.33,310L720.52,310L719.71,310L718.9,310L718.09,310L717.28,310L716.47,310L715.66,310L714.85,310L714.04,310L713.23,310L712.42,310L711.61,310L710.8,310L709.99,310L709.18,310L708.37,310L707.56,310L706.75,310L705.94,310L705.13,310L704.32,310L703.51,310L702.7,310L701.89,310L701.08,310L700.27,310L699.46,310L698.65,310L697.84,310L697.03,310L696.22,310L695.41,310L694.6,310L693.79,310L692.98,310L692.17,310L691.36,310L690.55,310L689.74,310L688.93,310L688.12,310L687.31,310L686.5,310L685.69,310L684.88,310L684.07,310L683.26,310L682.45,310L681.64,310L680.83,310L680.02,310L679.21,310L678.4,310L677.59,310L676.78,310L675.97,310L675.16,310L674.35,310L673.54,310L672.73,310L671.92,310L671.11,310L670.3,310L669.49,310L668.68,310L667.87,310L667.06,310L666.25,310L665.44,310L664.63,310L663.82,310L663.01,310L662.2,310L661.39,310L660.58,310L659.77,310L658.96,310L658.15,310L657.34,310L656.53,310L655.72,310L654.91,310L654.1,310L653.29,310L652.48,310L651.67,310L650.86,310L650.05,310L649.24,310L648.43,310L647.62,310L646.81,310L646,310L645.19,310L644.38,310L643.57,310L642.76,310L641.95,310L641.14,310L640.33,310L639.52,310L638.71,310L637.9,310L637.09,310L636.28,310L635.47,310L634.66,310L633.85,310L633.04,310L632.23,310L631.42,310L630.61,310L629.8,310L628.99,310L628.18,310L627.37,310L626.56,310L625.75,310L624.94,310L624.13,310L623.32,310L622.51,310L621.7,310L620.89,310L620.08,310L619.27,310L618.46,310L617.65,310L616.84,310L616.03,310L615.22,310L614.41,310L613.6,310L612.79,310L611.98,310L611.17,310L610.36,310L609.55,310L608.74,310L607.93,310L607.12,310L606.31,310L605.5,310L604.69,310L603.88,310L603.07,310L602.26,310L601.45,310L600.64,310L599.83,310L599.02,310L598.21,310L597.4,310L596.59,310L595.78,310L594.97,310L594.16,310L593.35,310L592.54,310L591.73,310L590.92,310L590.11,310L589.3,310L588.49,310L587.68,310L586.87,310L586.06,310L585.25,310L584.44,310L583.63,310L582.82,310L582.01,310L581.2,310L580.39,310L579.58,310L578.77,310L577.96,310L577.15,310L576.34,310L575.53,310L574.72,310L573.91,310L573.1,310L572.29,310L571.48,310L570.67,310L569.86,310L569.05,310L568.24,310L567.43,310L566.62,310L565.81,310L565,310Z" fill-opacity="0.5" data-tippy-content="&lt;span style='color: white; background-color: #32AEEC;'&gt;Asparagus_Elaeis.ks&lt;/span&gt; &lt;br&gt; Peak: &lt;span style='color: red;'&gt;1.12&lt;/span&gt; (Density: &lt;span style='color: #32AEEC;'&gt;1.04&lt;/span&gt;)&lt;br&gt;95% CIs: &lt;span style='color: white; background-color: #32AEEC';&gt;1.11 &lt;--&gt; 1.14&lt;/span&gt;" style="fill: rgb(50, 174, 236);"/><path class="area-two path" d="M565,309.955L565.81,309.95L566.62,309.944L567.43,309.939L568.24,309.935L569.05,309.93L569.86,309.926L570.67,309.916L571.48,309.905L572.29,309.895L573.1,309.885L573.91,309.876L574.72,309.868L575.53,309.86L576.34,309.853L577.15,309.847L577.96,309.841L578.77,309.836L579.58,309.828L580.39,309.816L581.2,309.806L582.01,309.796L582.82,309.787L583.63,309.78L584.44,309.773L585.25,309.767L586.06,309.76L586.87,309.748L587.68,309.731L588.49,309.712L589.3,309.689L590.11,309.669L590.92,309.65L591.73,309.629L592.54,309.606L593.35,309.586L594.16,309.568L594.97,309.553L595.78,309.539L596.59,309.523L597.4,309.506L598.21,309.492L599.02,309.48L599.83,309.471L600.64,309.46L601.45,309.447L602.26,309.437L603.07,309.429L603.88,309.416L604.69,309.405L605.5,309.396L606.31,309.39L607.12,309.387L607.93,309.386L608.74,309.388L609.55,309.392L610.36,309.391L611.17,309.385L611.98,309.382L612.79,309.381L613.6,309.382L614.41,309.386L615.22,309.392L616.03,309.401L616.84,309.406L617.65,309.413L618.46,309.415L619.27,309.42L620.08,309.424L620.89,309.424L621.7,309.422L622.51,309.423L623.32,309.427L624.13,309.435L624.94,309.444L625.75,309.45L626.56,309.457L627.37,309.462L628.18,309.46L628.99,309.446L629.8,309.421L630.61,309.388L631.42,309.348L632.23,309.294L633.04,309.222L633.85,309.134L634.66,309.049L635.47,308.955L636.28,308.852L637.09,308.727L637.9,308.568L638.71,308.379L639.52,308.165L640.33,307.962L641.14,307.731L641.95,307.486L642.76,307.237L643.57,306.96L644.38,306.655L645.19,306.345L646,306.008L646.81,305.652L647.62,305.255L648.43,304.839L649.24,304.377L650.05,303.875L650.86,303.319L651.67,302.713L652.48,302.103L653.29,301.451L654.1,300.785L654.91,300.114L655.72,299.426L656.53,298.731L657.34,298.016L658.15,297.221L658.96,296.36L659.77,295.446L660.58,294.498L661.39,293.476L662.2,292.433L663.01,291.325L663.82,290.179L664.63,289.061L665.44,287.972L666.25,286.864L667.06,285.716L667.87,284.492L668.68,283.23L669.49,281.936L670.3,280.599L671.11,279.231L671.92,277.852L672.73,276.407L673.54,274.948L674.35,273.436L675.16,271.914L675.97,270.409L676.78,268.899L677.59,267.378L678.4,265.848L679.21,264.232L680.02,262.545L680.83,260.851L681.64,259.127L682.45,257.374L683.26,255.651L684.07,253.921L684.88,252.15L685.69,250.402L686.5,248.679L687.31,246.988L688.12,245.26L688.93,243.605L689.74,241.931L690.55,240.255L691.36,238.573L692.17,236.892L692.98,235.215L693.79,233.598L694.6,231.949L695.41,230.344L696.22,228.751L697.03,227.092L697.84,225.482L698.65,223.811L699.46,222.167L700.27,220.581L701.08,219.069L701.89,217.572L702.7,216.072L703.51,214.613L704.32,213.153L705.13,211.859L705.94,210.665L706.75,209.555L707.56,208.435L708.37,207.336L709.18,206.286L709.99,205.356L710.8,204.378L711.61,203.416L712.42,202.596L713.23,201.801L714.04,201.085L714.85,200.405L715.66,199.82L716.47,199.324L717.28,198.879L718.09,198.533L718.9,198.285L719.71,198.042L720.52,197.79L721.33,197.624L722.14,197.483L722.95,197.41L723.76,197.469L724.57,197.616L725.38,197.766L726.19,197.923L727,198.156L727.81,198.486L728.62,198.853L729.43,199.329L730.24,199.847L731.05,200.4L731.86,201.04L732.67,201.811L733.48,202.644L734.29,203.557L735.1,204.412L735.91,205.308L736.72,206.166L737.53,206.957L738.34,207.804L739.15,208.602L739.96,209.387L740.77,210.219L741.58,211.052L742.39,211.899L743.2,212.719L744.01,213.558L744.82,214.345L745.63,215.184L746.44,216.034L747.25,216.854L748.06,217.61L748.87,218.385L749.68,219.126L750.49,219.918L751.3,220.589L752.11,221.185L752.92,221.809L753.73,222.436L754.54,223.038L755.35,223.595L756.16,224.179L756.97,224.784L757.78,225.389L758.59,225.995L759.4,226.6L760.21,227.167L761.02,227.701L761.83,228.278L762.64,228.811L763.45,229.322L764.26,229.893L765.07,230.522L765.88,231.088L766.69,231.557L767.5,232.002L768.31,232.441L769.12,232.929L769.93,233.379L770.74,233.877L771.55,234.358L772.36,234.839L773.17,235.43L773.98,236.054L774.79,236.679L775.6,237.312L776.41,238.005L777.22,238.644L778.03,239.327L778.84,240.055L779.65,240.791L780.46,241.515L781.27,242.224L782.08,242.902L782.89,243.589L783.7,244.328L784.51,245.073L785.32,245.783L786.13,246.474L786.94,247.187L787.75,247.865L788.56,248.569L789.37,249.309L790.18,250.03L790.99,250.725L791.8,251.386L792.61,252.029L793.42,252.683L794.23,253.354L795.04,254.028L795.85,254.692L796.66,255.344L797.47,256.058L798.28,256.817L799.09,257.566L799.9,258.319L800.71,259.061L801.52,259.809L802.33,260.588L803.14,261.367L803.95,262.108L804.76,262.811L805.57,263.538L806.38,264.196L807.19,264.805L808,265.363L808.81,265.859L809.62,266.396L810.43,266.88L811.24,267.389L812.05,267.874L812.86,268.316L813.67,268.755L814.48,269.128L815.29,269.458L816.1,269.788L816.91,270.133L817.72,270.42L818.53,270.661L819.34,270.895L820.15,271.139L820.96,271.388L821.77,271.591L822.58,271.808L823.39,272.052L824.2,272.302L825.01,272.558L825.82,272.792L826.63,273.019L827.44,273.224L828.25,273.442L829.06,273.659L829.87,273.859L830.68,274.049L831.49,274.235L832.3,274.407L833.11,274.555L833.92,274.737L834.73,274.924L835.54,275.109L836.35,275.311L837.16,275.495L837.97,275.704L838.78,275.933L839.59,276.19L840.4,276.435L841.21,276.646L842.02,276.838L842.83,277.051L843.64,277.275L844.45,277.539L845.26,277.781L846.07,278.038L846.88,278.302L847.69,278.588L848.5,278.858L849.31,279.114L850.12,279.389L850.93,279.663L851.74,279.941L852.55,280.224L853.36,280.525L854.17,280.807L854.98,281.067L855.79,281.295L856.6,281.518L857.41,281.698L858.22,281.851L859.03,281.935L859.84,282.04L860.65,282.178L861.46,282.303L862.27,282.408L863.08,282.553L863.89,282.754L864.7,282.974L865.51,283.186L866.32,283.394L867.13,283.612L867.94,283.851L868.75,284.112L869.56,284.355L870.37,284.596L871.18,284.846L871.99,285.136L872.8,285.428L873.61,285.695L874.42,285.995L875.23,286.288L876.04,286.565L876.85,286.824L877.66,287.04L878.47,287.255L879.28,287.469L880.09,287.701L880.9,287.908L881.71,288.069L882.52,288.197L883.33,288.317L884.14,288.455L884.95,288.617L885.76,288.787L886.57,288.977L887.38,289.201L888.19,289.417L889,289.6L889.81,289.81L890.62,290.014L891.43,290.196L892.24,290.366L893.05,290.54L893.86,290.728L894.67,290.921L895.48,291.092L896.29,291.232L897.1,291.386L897.91,291.495L898.72,291.6L899.53,291.665L900.34,291.731L901.15,291.812L901.96,291.882L902.77,291.937L903.58,292.008L904.39,292.109L905.2,292.226L906.01,292.342L906.82,292.436L907.63,292.509L908.44,292.605L909.25,292.687L910.06,292.767L910.87,292.879L911.68,292.997L912.49,293.135L913.3,293.285L914.11,293.425L914.92,293.595L915.73,293.764L916.54,293.944L917.35,294.098L918.16,294.208L918.97,294.317L919.78,294.393L920.59,294.448L921.4,294.488L922.21,294.541L923.02,294.588L923.83,294.614L924.64,294.68L925.45,294.773L926.26,294.867L927.07,294.973L927.88,295.088L928.69,295.186L929.5,295.261L930.31,295.364L931.12,295.47L931.93,295.577L932.74,295.665L933.55,295.751L934.36,295.867L935.17,296.012L935.98,296.138L936.79,296.231L937.6,296.327L938.41,296.416L939.22,296.508L940.03,296.599L940.84,296.679L941.65,296.769L942.46,296.851L943.27,296.927L944.08,297.018L944.89,297.129L945.7,297.247L946.51,297.376L947.32,297.506L948.13,297.622L948.94,297.733L949.75,297.822L950.56,297.937L951.37,298.086L952.18,298.242L952.99,298.425L953.8,298.647L954.61,298.89L955.42,299.152L956.23,299.44L957.04,299.753L957.85,300.063L958.66,300.38L959.47,300.705L960.28,301.019L961.09,301.333L961.9,301.65L962.71,301.984L963.52,302.326L964.33,302.645L965.14,302.972L965.95,303.313L966.76,303.655L967.57,303.992L968.38,304.31L969.19,304.618L970,304.927L970,310L969.19,310L968.38,310L967.57,310L966.76,310L965.95,310L965.14,310L964.33,310L963.52,310L962.71,310L961.9,310L961.09,310L960.28,310L959.47,310L958.66,310L957.85,310L957.04,310L956.23,310L955.42,310L954.61,310L953.8,310L952.99,310L952.18,310L951.37,310L950.56,310L949.75,310L948.94,310L948.13,310L947.32,310L946.51,310L945.7,310L944.89,310L944.08,310L943.27,310L942.46,310L941.65,310L940.84,310L940.03,310L939.22,310L938.41,310L937.6,310L936.79,310L935.98,310L935.17,310L934.36,310L933.55,310L932.74,310L931.93,310L931.12,310L930.31,310L929.5,310L928.69,310L927.88,310L927.07,310L926.26,310L925.45,310L924.64,310L923.83,310L923.02,310L922.21,310L921.4,310L920.59,310L919.78,310L918.97,310L918.16,310L917.35,310L916.54,310L915.73,310L914.92,310L914.11,310L913.3,310L912.49,310L911.68,310L910.87,310L910.06,310L909.25,310L908.44,310L907.63,310L906.82,310L906.01,310L905.2,310L904.39,310L903.58,310L902.77,310L901.96,310L901.15,310L900.34,310L899.53,310L898.72,310L897.91,310L897.1,310L896.29,310L895.48,310L894.67,310L893.86,310L893.05,310L892.24,310L891.43,310L890.62,310L889.81,310L889,310L888.19,310L887.38,310L886.57,310L885.76,310L884.95,310L884.14,310L883.33,310L882.52,310L881.71,310L880.9,310L880.09,310L879.28,310L878.47,310L877.66,310L876.85,310L876.04,310L875.23,310L874.42,310L873.61,310L872.8,310L871.99,310L871.18,310L870.37,310L869.56,310L868.75,310L867.94,310L867.13,310L866.32,310L865.51,310L864.7,310L863.89,310L863.08,310L862.27,310L861.46,310L860.65,310L859.84,310L859.03,310L858.22,310L857.41,310L856.6,310L855.79,310L854.98,310L854.17,310L853.36,310L852.55,310L851.74,310L850.93,310L850.12,310L849.31,310L848.5,310L847.69,310L846.88,310L846.07,310L845.26,310L844.45,310L843.64,310L842.83,310L842.02,310L841.21,310L840.4,310L839.59,310L838.78,310L837.97,310L837.16,310L836.35,310L835.54,310L834.73,310L833.92,310L833.11,310L832.3,310L831.49,310L830.68,310L829.87,310L829.06,310L828.25,310L827.44,310L826.63,310L825.82,310L825.01,310L824.2,310L823.39,310L822.58,310L821.77,310L820.96,310L820.15,310L819.34,310L818.53,310L817.72,310L816.91,310L816.1,310L815.29,310L814.48,310L813.67,310L812.86,310L812.05,310L811.24,310L810.43,310L809.62,310L808.81,310L808,310L807.19,310L806.38,310L805.57,310L804.76,310L803.95,310L803.14,310L802.33,310L801.52,310L800.71,310L799.9,310L799.09,310L798.28,310L797.47,310L796.66,310L795.85,310L795.04,310L794.23,310L793.42,310L792.61,310L791.8,310L790.99,310L790.18,310L789.37,310L788.56,310L787.75,310L786.94,310L786.13,310L785.32,310L784.51,310L783.7,310L782.89,310L782.08,310L781.27,310L780.46,310L779.65,310L778.84,310L778.03,310L777.22,310L776.41,310L775.6,310L774.79,310L773.98,310L773.17,310L772.36,310L771.55,310L770.74,310L769.93,310L769.12,310L768.31,310L767.5,310L766.69,310L765.88,310L765.07,310L764.26,310L763.45,310L762.64,310L761.83,310L761.02,310L760.21,310L759.4,310L758.59,310L757.78,310L756.97,310L756.16,310L755.35,310L754.54,310L753.73,310L752.92,310L752.11,310L751.3,310L750.49,310L749.68,310L748.87,310L748.06,310L747.25,310L746.44,310L745.63,310L744.82,310L744.01,310L743.2,310L742.39,310L741.58,310L740.77,310L739.96,310L739.15,310L738.34,310L737.53,310L736.72,310L735.91,310L735.1,310L734.29,310L733.48,310L732.67,310L731.86,310L731.05,310L730.24,310L729.43,310L728.62,310L727.81,310L727,310L726.19,310L725.38,310L724.57,310L723.76,310L722.95,310L722.14,310L721.33,310L720.52,310L719.71,310L718.9,310L718.09,310L717.28,310L716.47,310L715.66,310L714.85,310L714.04,310L713.23,310L712.42,310L711.61,310L710.8,310L709.99,310L709.18,310L708.37,310L707.56,310L706.75,310L705.94,310L705.13,310L704.32,310L703.51,310L702.7,310L701.89,310L701.08,310L700.27,310L699.46,310L698.65,310L697.84,310L697.03,310L696.22,310L695.41,310L694.6,310L693.79,310L692.98,310L692.17,310L691.36,310L690.55,310L689.74,310L688.93,310L688.12,310L687.31,310L686.5,310L685.69,310L684.88,310L684.07,310L683.26,310L682.45,310L681.64,310L680.83,310L680.02,310L679.21,310L678.4,310L677.59,310L676.78,310L675.97,310L675.16,310L674.35,310L673.54,310L672.73,310L671.92,310L671.11,310L670.3,310L669.49,310L668.68,310L667.87,310L667.06,310L666.25,310L665.44,310L664.63,310L663.82,310L663.01,310L662.2,310L661.39,310L660.58,310L659.77,310L658.96,310L658.15,310L657.34,310L656.53,310L655.72,310L654.91,310L654.1,310L653.29,310L652.48,310L651.67,310L650.86,310L650.05,310L649.24,310L648.43,310L647.62,310L646.81,310L646,310L645.19,310L644.38,310L643.57,310L642.76,310L641.95,310L641.14,310L640.33,310L639.52,310L638.71,310L637.9,310L637.09,310L636.28,310L635.47,310L634.66,310L633.85,310L633.04,310L632.23,310L631.42,310L630.61,310L629.8,310L628.99,310L628.18,310L627.37,310L626.56,310L625.75,310L624.94,310L624.13,310L623.32,310L622.51,310L621.7,310L620.89,310L620.08,310L619.27,310L618.46,310L617.65,310L616.84,310L616.03,310L615.22,310L614.41,310L613.6,310L612.79,310L611.98,310L611.17,310L610.36,310L609.55,310L608.74,310L607.93,310L607.12,310L606.31,310L605.5,310L604.69,310L603.88,310L603.07,310L602.26,310L601.45,310L600.64,310L599.83,310L599.02,310L598.21,310L597.4,310L596.59,310L595.78,310L594.97,310L594.16,310L593.35,310L592.54,310L591.73,310L590.92,310L590.11,310L589.3,310L588.49,310L587.68,310L586.87,310L586.06,310L585.25,310L584.44,310L583.63,310L582.82,310L582.01,310L581.2,310L580.39,310L579.58,310L578.77,310L577.96,310L577.15,310L576.34,310L575.53,310L574.72,310L573.91,310L573.1,310L572.29,310L571.48,310L570.67,310L569.86,310L569.05,310L568.24,310L567.43,310L566.62,310L565.81,310L565,310Z" fill-opacity="0.5" data-tippy-content="&lt;span style='color: white; background-color: #E2AE79;'&gt;Asparagus_Oryza.ks&lt;/span&gt; &lt;br&gt; Peak: &lt;span style='color: red;'&gt;1.95&lt;/span&gt; (Density: &lt;span style='color: #E2AE79;'&gt;0.61&lt;/span&gt;)&lt;br&gt;95% CIs: &lt;span style='color: white; background-color: #E2AE79';&gt;1.11 &lt;--&gt; 1.96&lt;/span&gt;" style="fill: rgb(226, 174, 121);"/><text class="rate2 ref2outgroup" x="654.559686888454" y="99.48004241117722" fill="#32AEEC" font-size="9px" text-anchor="start" font-style="italic">A. officinalis - E. guineensis</text><line class="rate2 ref2outgroup" x1="654.559686888454" y1="93.48004241117722" x2="654.559686888454" y2="116.85005301397152" stroke="#32AEEC"/><line class="rate2 cal2ref" x1="721.9275929549906" y1="157.92768986959305" x2="721.9275929549906" y2="197.4096123369913" stroke="#E2AE79"/><text x="723.9275929549906" y="163.92768986959305" fill="#E2AE79" font-size="9px" text-anchor="start" font-style="italic">A. officinalis - O. sativa</text><marker id="arrow-marker-left" viewBox="0 0 10 10" refX="1" refY="5" markerWidth="6" markerHeight="9" orient="auto"><path d="M 0 0 L 10 5 L 0 10 z" fill="#E2AE79"/></marker><line x1="721.9275929549906" y1="157.92768986959305" x2="654.559686888454" y2="157.92768986959305" stroke="#E2AE79" marker-end="url(#arrow-marker-left)"/><g class="rect-bar-reference"><rect id="Ks_0.05" x="564.1" y="306.2516666666667" width="7.425000000000001" height="3.748333333333278" fill="black" fill-opacity="0.5" data-tippy-content="&lt;font color='#ff7575'&gt;&lt;i&gt;K&lt;/i&gt;&lt;sub&gt;s&lt;/sub&gt;&lt;/font&gt;: 0.05&lt;br&gt;&lt;font color='#00BB00'&gt;&lt;i&gt;Elaeis1.ks_anchors&lt;/i&gt;&lt;/font&gt;: 28.83&lt;br&gt;"/><rect id="Ks_0.15" x="572.1999999999999" y="282.115" width="7.425000000000001" height="27.88499999999999" fill="black" fill-opacity="0.5" data-tippy-content="&lt;font color='#ff7575'&gt;&lt;i&gt;K&lt;/i&gt;&lt;sub&gt;s&lt;/sub&gt;&lt;/font&gt;: 0.15&lt;br&gt;&lt;font color='#00BB00'&gt;&lt;i&gt;Elaeis1.ks_anchors&lt;/i&gt;&lt;/font&gt;: 214.50&lt;br&gt;"/><rect id="Ks_0.25" x="580.3" y="132.8316666666671" width="7.425000000000001" height="177.1683333333329" fill="black" fill-opacity="0.5" data-tippy-content="&lt;font color='#ff7575'&gt;&lt;i&gt;K&lt;/i&gt;&lt;sub&gt;s&lt;/sub&gt;&lt;/font&gt;: 0.25&lt;br&gt;&lt;font color='#00BB00'&gt;&lt;i&gt;Elaeis1.ks_anchors&lt;/i&gt;&lt;/font&gt;: 1362.83&lt;br&gt;"/><rect id="Ks_0.35" x="588.4" y="183.1525" width="7.425000000000001" height="126.8475" fill="black" fill-opacity="0.5" data-tippy-content="&lt;font color='#ff7575'&gt;&lt;i&gt;K&lt;/i&gt;&lt;sub&gt;s&lt;/sub&gt;&lt;/font&gt;: 0.35&lt;br&gt;&lt;font color='#00BB00'&gt;&lt;i&gt;Elaeis1.ks_anchors&lt;/i&gt;&lt;/font&gt;: 975.75&lt;br&gt;"/><rect id="Ks_0.45" x="596.4999999999999" y="248.31500000000003" width="7.425000000000001" height="61.684999999999974" fill="black" fill-opacity="0.5" data-tippy-content="&lt;font color='#ff7575'&gt;&lt;i&gt;K&lt;/i&gt;&lt;sub&gt;s&lt;/sub&gt;&lt;/font&gt;: 0.45&lt;br&gt;&lt;font color='#00BB00'&gt;&lt;i&gt;Elaeis1.ks_anchors&lt;/i&gt;&lt;/font&gt;: 474.50&lt;br&gt;"/><rect id="Ks_0.55" x="604.6" y="270.5233333333333" width="7.425000000000001" height="39.47666666666669" fill="black" fill-opacity="0.5" data-tippy-content="&lt;font color='#ff7575'&gt;&lt;i&gt;K&lt;/i&gt;&lt;sub&gt;s&lt;/sub&gt;&lt;/font&gt;: 0.55&lt;br&gt;&lt;font color='#00BB00'&gt;&lt;i&gt;Elaeis1.ks_anchors&lt;/i&gt;&lt;/font&gt;: 303.67&lt;br&gt;"/><rect id="Ks_0.65" x="612.6999999999999" y="280.01333333333326" width="7.425000000000001" height="29.986666666666736" fill="black" fill-opacity="0.5" data-tippy-content="&lt;font color='#ff7575'&gt;&lt;i&gt;K&lt;/i&gt;&lt;sub&gt;s&lt;/sub&gt;&lt;/font&gt;: 0.65&lt;br&gt;&lt;font color='#00BB00'&gt;&lt;i&gt;Elaeis1.ks_anchors&lt;/i&gt;&lt;/font&gt;: 230.67&lt;br&gt;"/><rect id="Ks_0.75" x="620.8" y="273.11869047619047" width="7.425000000000001" height="36.881309523809534" fill="black" fill-opacity="0.5" data-tippy-content="&lt;font color='#ff7575'&gt;&lt;i&gt;K&lt;/i&gt;&lt;sub&gt;s&lt;/sub&gt;&lt;/font&gt;: 0.75&lt;br&gt;&lt;font color='#00BB00'&gt;&lt;i&gt;Elaeis1.ks_anchors&lt;/i&gt;&lt;/font&gt;: 283.70&lt;br&gt;"/><rect id="Ks_0.85" x="628.9" y="271.24142857142857" width="7.425000000000001" height="38.75857142857143" fill="black" fill-opacity="0.5" data-tippy-content="&lt;font color='#ff7575'&gt;&lt;i&gt;K&lt;/i&gt;&lt;sub&gt;s&lt;/sub&gt;&lt;/font&gt;: 0.85&lt;br&gt;&lt;font color='#00BB00'&gt;&lt;i&gt;Elaeis1.ks_anchors&lt;/i&gt;&lt;/font&gt;: 298.14&lt;br&gt;"/><rect id="Ks_0.95" x="637" y="279.6372619047619" width="7.425000000000001" height="30.362738095238115" fill="black" fill-opacity="0.5" data-tippy-content="&lt;font color='#ff7575'&gt;&lt;i&gt;K&lt;/i&gt;&lt;sub&gt;s&lt;/sub&gt;&lt;/font&gt;: 0.95&lt;br&gt;&lt;font color='#00BB00'&gt;&lt;i&gt;Elaeis1.ks_anchors&lt;/i&gt;&lt;/font&gt;: 233.56&lt;br&gt;"/><rect id="Ks_1.05" x="645.1" y="283.88083333333327" width="7.425000000000001" height="26.11916666666673" fill="black" fill-opacity="0.5" data-tippy-content="&lt;font color='#ff7575'&gt;&lt;i&gt;K&lt;/i&gt;&lt;sub&gt;s&lt;/sub&gt;&lt;/font&gt;: 1.05&lt;br&gt;&lt;font color='#00BB00'&gt;&lt;i&gt;Elaeis1.ks_anchors&lt;/i&gt;&lt;/font&gt;: 200.92&lt;br&gt;"/><rect id="Ks_1.15" x="653.1999999999999" y="288.8022619047619" width="7.425000000000001" height="21.197738095238094" fill="black" fill-opacity="0.5" data-tippy-content="&lt;font color='#ff7575'&gt;&lt;i&gt;K&lt;/i&gt;&lt;sub&gt;s&lt;/sub&gt;&lt;/font&gt;: 1.15&lt;br&gt;&lt;font color='#00BB00'&gt;&lt;i&gt;Elaeis1.ks_anchors&lt;/i&gt;&lt;/font&gt;: 163.06&lt;br&gt;"/><rect id="Ks_1.25" x="661.3" y="295.7541666666667" width="7.425000000000001" height="14.24583333333328" fill="black" fill-opacity="0.5" data-tippy-content="&lt;font color='#ff7575'&gt;&lt;i&gt;K&lt;/i&gt;&lt;sub&gt;s&lt;/sub&gt;&lt;/font&gt;: 1.25&lt;br&gt;&lt;font color='#00BB00'&gt;&lt;i&gt;Elaeis1.ks_anchors&lt;/i&gt;&lt;/font&gt;: 109.58&lt;br&gt;"/><rect id="Ks_1.35" x="669.4" y="298.02483333333333" width="7.425000000000001" height="11.975166666666667" fill="black" fill-opacity="0.5" data-tippy-content="&lt;font color='#ff7575'&gt;&lt;i&gt;K&lt;/i&gt;&lt;sub&gt;s&lt;/sub&gt;&lt;/font&gt;: 1.35&lt;br&gt;&lt;font color='#00BB00'&gt;&lt;i&gt;Elaeis1.ks_anchors&lt;/i&gt;&lt;/font&gt;: 92.12&lt;br&gt;"/><rect id="Ks_1.45" x="677.4999999999999" y="300.7338888888889" width="7.425000000000001" height="9.266111111111115" fill="black" fill-opacity="0.5" data-tippy-content="&lt;font color='#ff7575'&gt;&lt;i&gt;K&lt;/i&gt;&lt;sub&gt;s&lt;/sub&gt;&lt;/font&gt;: 1.45&lt;br&gt;&lt;font color='#00BB00'&gt;&lt;i&gt;Elaeis1.ks_anchors&lt;/i&gt;&lt;/font&gt;: 71.28&lt;br&gt;"/><rect id="Ks_1.55" x="685.5999999999999" y="300.77216666666664" width="7.425000000000001" height="9.227833333333365" fill="black" fill-opacity="0.5" data-tippy-content="&lt;font color='#ff7575'&gt;&lt;i&gt;K&lt;/i&gt;&lt;sub&gt;s&lt;/sub&gt;&lt;/font&gt;: 1.55&lt;br&gt;&lt;font color='#00BB00'&gt;&lt;i&gt;Elaeis1.ks_anchors&lt;/i&gt;&lt;/font&gt;: 70.98&lt;br&gt;"/><rect id="Ks_1.65" x="693.6999999999999" y="303.13166666666666" width="7.425000000000001" height="6.868333333333339" fill="black" fill-opacity="0.5" data-tippy-content="&lt;font color='#ff7575'&gt;&lt;i&gt;K&lt;/i&gt;&lt;sub&gt;s&lt;/sub&gt;&lt;/font&gt;: 1.65&lt;br&gt;&lt;font color='#00BB00'&gt;&lt;i&gt;Elaeis1.ks_anchors&lt;/i&gt;&lt;/font&gt;: 52.83&lt;br&gt;"/><rect id="Ks_1.75" x="701.8" y="303.8972222222222" width="7.425000000000001" height="6.102777777777817" fill="black" fill-opacity="0.5" data-tippy-content="&lt;font color='#ff7575'&gt;&lt;i&gt;K&lt;/i&gt;&lt;sub&gt;s&lt;/sub&gt;&lt;/font&gt;: 1.75&lt;br&gt;&lt;font color='#00BB00'&gt;&lt;i&gt;Elaeis1.ks_anchors&lt;/i&gt;&lt;/font&gt;: 46.94&lt;br&gt;"/><rect id="Ks_1.85" x="709.8999999999999" y="304.56166666666667" width="7.425000000000001" height="5.438333333333333" fill="black" fill-opacity="0.5" data-tippy-content="&lt;font color='#ff7575'&gt;&lt;i&gt;K&lt;/i&gt;&lt;sub&gt;s&lt;/sub&gt;&lt;/font&gt;: 1.85&lt;br&gt;&lt;font color='#00BB00'&gt;&lt;i&gt;Elaeis1.ks_anchors&lt;/i&gt;&lt;/font&gt;: 41.83&lt;br&gt;"/><rect id="Ks_1.95" x="718" y="305.15316666666666" width="7.425000000000001" height="4.846833333333336" fill="black" fill-opacity="0.5" data-tippy-content="&lt;font color='#ff7575'&gt;&lt;i&gt;K&lt;/i&gt;&lt;sub&gt;s&lt;/sub&gt;&lt;/font&gt;: 1.95&lt;br&gt;&lt;font color='#00BB00'&gt;&lt;i&gt;Elaeis1.ks_anchors&lt;/i&gt;&lt;/font&gt;: 37.28&lt;br&gt;"/><rect id="Ks_2.05" x="726.0999999999999" y="306.02416666666664" width="7.425000000000001" height="3.9758333333333553" fill="black" fill-opacity="0.5" data-tippy-content="&lt;font color='#ff7575'&gt;&lt;i&gt;K&lt;/i&gt;&lt;sub&gt;s&lt;/sub&gt;&lt;/font&gt;: 2.05&lt;br&gt;&lt;font color='#00BB00'&gt;&lt;i&gt;Elaeis1.ks_anchors&lt;/i&gt;&lt;/font&gt;: 30.58&lt;br&gt;"/><rect id="Ks_2.15" x="734.1999999999999" y="306.41055555555556" width="7.425000000000001" height="3.589444444444439" fill="black" fill-opacity="0.5" data-tippy-content="&lt;font color='#ff7575'&gt;&lt;i&gt;K&lt;/i&gt;&lt;sub&gt;s&lt;/sub&gt;&lt;/font&gt;: 2.15&lt;br&gt;&lt;font color='#00BB00'&gt;&lt;i&gt;Elaeis1.ks_anchors&lt;/i&gt;&lt;/font&gt;: 27.61&lt;br&gt;"/><rect id="Ks_2.25" x="742.3" y="305.86816666666664" width="7.425000000000001" height="4.131833333333361" fill="black" fill-opacity="0.5" data-tippy-content="&lt;font color='#ff7575'&gt;&lt;i&gt;K&lt;/i&gt;&lt;sub&gt;s&lt;/sub&gt;&lt;/font&gt;: 2.25&lt;br&gt;&lt;font color='#00BB00'&gt;&lt;i&gt;Elaeis1.ks_anchors&lt;/i&gt;&lt;/font&gt;: 31.78&lt;br&gt;"/><rect id="Ks_2.35" x="750.4" y="306.7897222222222" width="7.425000000000001" height="3.210277777777776" fill="black" fill-opacity="0.5" data-tippy-content="&lt;font color='#ff7575'&gt;&lt;i&gt;K&lt;/i&gt;&lt;sub&gt;s&lt;/sub&gt;&lt;/font&gt;: 2.35&lt;br&gt;&lt;font color='#00BB00'&gt;&lt;i&gt;Elaeis1.ks_anchors&lt;/i&gt;&lt;/font&gt;: 24.69&lt;br&gt;"/><rect id="Ks_2.45" x="758.5" y="307.7033333333333" width="7.425000000000001" height="2.296666666666681" fill="black" fill-opacity="0.5" data-tippy-content="&lt;font color='#ff7575'&gt;&lt;i&gt;K&lt;/i&gt;&lt;sub&gt;s&lt;/sub&gt;&lt;/font&gt;: 2.45&lt;br&gt;&lt;font color='#00BB00'&gt;&lt;i&gt;Elaeis1.ks_anchors&lt;/i&gt;&lt;/font&gt;: 17.67&lt;br&gt;"/><rect id="Ks_2.55" x="766.5999999999999" y="307.5155555555555" width="7.425000000000001" height="2.4844444444444775" fill="black" fill-opacity="0.5" data-tippy-content="&lt;font color='#ff7575'&gt;&lt;i&gt;K&lt;/i&gt;&lt;sub&gt;s&lt;/sub&gt;&lt;/font&gt;: 2.55&lt;br&gt;&lt;font color='#00BB00'&gt;&lt;i&gt;Elaeis1.ks_anchors&lt;/i&gt;&lt;/font&gt;: 19.11&lt;br&gt;"/><rect id="Ks_2.65" x="774.7" y="307.4758333333333" width="7.425000000000001" height="2.5241666666667015" fill="black" fill-opacity="0.5" data-tippy-content="&lt;font color='#ff7575'&gt;&lt;i&gt;K&lt;/i&gt;&lt;sub&gt;s&lt;/sub&gt;&lt;/font&gt;: 2.65&lt;br&gt;&lt;font color='#00BB00'&gt;&lt;i&gt;Elaeis1.ks_anchors&lt;/i&gt;&lt;/font&gt;: 19.42&lt;br&gt;"/><rect id="Ks_2.75" x="782.8" y="307.60583333333335" width="7.425000000000001" height="2.3941666666666492" fill="black" fill-opacity="0.5" data-tippy-content="&lt;font color='#ff7575'&gt;&lt;i&gt;K&lt;/i&gt;&lt;sub&gt;s&lt;/sub&gt;&lt;/font&gt;: 2.75&lt;br&gt;&lt;font color='#00BB00'&gt;&lt;i&gt;Elaeis1.ks_anchors&lt;/i&gt;&lt;/font&gt;: 18.42&lt;br&gt;"/><rect id="Ks_2.85" x="790.9" y="308.94555555555553" width="7.425000000000001" height="1.0544444444444707" fill="black" fill-opacity="0.5" data-tippy-content="&lt;font color='#ff7575'&gt;&lt;i&gt;K&lt;/i&gt;&lt;sub&gt;s&lt;/sub&gt;&lt;/font&gt;: 2.85&lt;br&gt;&lt;font color='#00BB00'&gt;&lt;i&gt;Elaeis1.ks_anchors&lt;/i&gt;&lt;/font&gt;: 8.11&lt;br&gt;"/><rect id="Ks_2.95" x="799" y="308.27750000000003" width="7.425000000000001" height="1.7224999999999682" fill="black" fill-opacity="0.5" data-tippy-content="&lt;font color='#ff7575'&gt;&lt;i&gt;K&lt;/i&gt;&lt;sub&gt;s&lt;/sub&gt;&lt;/font&gt;: 2.95&lt;br&gt;&lt;font color='#00BB00'&gt;&lt;i&gt;Elaeis1.ks_anchors&lt;/i&gt;&lt;/font&gt;: 13.25&lt;br&gt;"/><rect id="Ks_3.05" x="807.0999999999999" y="308.4779166666667" width="7.425000000000001" height="1.5220833333332848" fill="black" fill-opacity="0.5" data-tippy-content="&lt;font color='#ff7575'&gt;&lt;i&gt;K&lt;/i&gt;&lt;sub&gt;s&lt;/sub&gt;&lt;/font&gt;: 3.05&lt;br&gt;&lt;font color='#00BB00'&gt;&lt;i&gt;Elaeis1.ks_anchors&lt;/i&gt;&lt;/font&gt;: 11.71&lt;br&gt;"/><rect id="Ks_3.15" x="815.2" y="308.6631666666667" width="7.425000000000001" height="1.3368333333332885" fill="black" fill-opacity="0.5" data-tippy-content="&lt;font color='#ff7575'&gt;&lt;i&gt;K&lt;/i&gt;&lt;sub&gt;s&lt;/sub&gt;&lt;/font&gt;: 3.15&lt;br&gt;&lt;font color='#00BB00'&gt;&lt;i&gt;Elaeis1.ks_anchors&lt;/i&gt;&lt;/font&gt;: 10.28&lt;br&gt;"/><rect id="Ks_3.25" x="823.3" y="308.59166666666664" width="7.425000000000001" height="1.4083333333333599" fill="black" fill-opacity="0.5" data-tippy-content="&lt;font color='#ff7575'&gt;&lt;i&gt;K&lt;/i&gt;&lt;sub&gt;s&lt;/sub&gt;&lt;/font&gt;: 3.25&lt;br&gt;&lt;font color='#00BB00'&gt;&lt;i&gt;Elaeis1.ks_anchors&lt;/i&gt;&lt;/font&gt;: 10.83&lt;br&gt;"/><rect id="Ks_3.35" x="831.4000000000001" y="307.9272222222222" width="7.425000000000001" height="2.0727777777777874" fill="black" fill-opacity="0.5" data-tippy-content="&lt;font color='#ff7575'&gt;&lt;i&gt;K&lt;/i&gt;&lt;sub&gt;s&lt;/sub&gt;&lt;/font&gt;: 3.35&lt;br&gt;&lt;font color='#00BB00'&gt;&lt;i&gt;Elaeis1.ks_anchors&lt;/i&gt;&lt;/font&gt;: 15.94&lt;br&gt;"/><rect id="Ks_3.45" x="839.5" y="308.33166666666665" width="7.425000000000001" height="1.6683333333333508" fill="black" fill-opacity="0.5" data-tippy-content="&lt;font color='#ff7575'&gt;&lt;i&gt;K&lt;/i&gt;&lt;sub&gt;s&lt;/sub&gt;&lt;/font&gt;: 3.45&lt;br&gt;&lt;font color='#00BB00'&gt;&lt;i&gt;Elaeis1.ks_anchors&lt;/i&gt;&lt;/font&gt;: 12.83&lt;br&gt;"/><rect id="Ks_3.55" x="847.5999999999999" y="308.87333333333333" width="7.425000000000001" height="1.1266666666666652" fill="black" fill-opacity="0.5" data-tippy-content="&lt;font color='#ff7575'&gt;&lt;i&gt;K&lt;/i&gt;&lt;sub&gt;s&lt;/sub&gt;&lt;/font&gt;: 3.55&lt;br&gt;&lt;font color='#00BB00'&gt;&lt;i&gt;Elaeis1.ks_anchors&lt;/i&gt;&lt;/font&gt;: 8.67&lt;br&gt;"/><rect id="Ks_3.65" x="855.7" y="309.25899999999996" width="7.425000000000001" height="0.7410000000000423" fill="black" fill-opacity="0.5" data-tippy-content="&lt;font color='#ff7575'&gt;&lt;i&gt;K&lt;/i&gt;&lt;sub&gt;s&lt;/sub&gt;&lt;/font&gt;: 3.65&lt;br&gt;&lt;font color='#00BB00'&gt;&lt;i&gt;Elaeis1.ks_anchors&lt;/i&gt;&lt;/font&gt;: 5.70&lt;br&gt;"/><rect id="Ks_3.75" x="863.8" y="308.65666666666664" width="7.425000000000001" height="1.3433333333333621" fill="black" fill-opacity="0.5" data-tippy-content="&lt;font color='#ff7575'&gt;&lt;i&gt;K&lt;/i&gt;&lt;sub&gt;s&lt;/sub&gt;&lt;/font&gt;: 3.75&lt;br&gt;&lt;font color='#00BB00'&gt;&lt;i&gt;Elaeis1.ks_anchors&lt;/i&gt;&lt;/font&gt;: 10.33&lt;br&gt;"/><rect id="Ks_3.85" x="871.8999999999999" y="309.3608333333333" width="7.425000000000001" height="0.6391666666667106" fill="black" fill-opacity="0.5" data-tippy-content="&lt;font color='#ff7575'&gt;&lt;i&gt;K&lt;/i&gt;&lt;sub&gt;s&lt;/sub&gt;&lt;/font&gt;: 3.85&lt;br&gt;&lt;font color='#00BB00'&gt;&lt;i&gt;Elaeis1.ks_anchors&lt;/i&gt;&lt;/font&gt;: 4.92&lt;br&gt;"/><rect id="Ks_3.95" x="880" y="308.9553571428571" width="7.425000000000001" height="1.0446428571428896" fill="black" fill-opacity="0.5" data-tippy-content="&lt;font color='#ff7575'&gt;&lt;i&gt;K&lt;/i&gt;&lt;sub&gt;s&lt;/sub&gt;&lt;/font&gt;: 3.95&lt;br&gt;&lt;font color='#00BB00'&gt;&lt;i&gt;Elaeis1.ks_anchors&lt;/i&gt;&lt;/font&gt;: 8.04&lt;br&gt;"/><rect id="Ks_4.05" x="888.0999999999999" y="309.43666666666667" width="7.425000000000001" height="0.5633333333333326" fill="black" fill-opacity="0.5" data-tippy-content="&lt;font color='#ff7575'&gt;&lt;i&gt;K&lt;/i&gt;&lt;sub&gt;s&lt;/sub&gt;&lt;/font&gt;: 4.05&lt;br&gt;&lt;font color='#00BB00'&gt;&lt;i&gt;Elaeis1.ks_anchors&lt;/i&gt;&lt;/font&gt;: 4.33&lt;br&gt;"/><rect id="Ks_4.15" x="896.1999999999999" y="309.1875" width="7.425000000000001" height="0.8125" fill="black" fill-opacity="0.5" data-tippy-content="&lt;font color='#ff7575'&gt;&lt;i&gt;K&lt;/i&gt;&lt;sub&gt;s&lt;/sub&gt;&lt;/font&gt;: 4.15&lt;br&gt;&lt;font color='#00BB00'&gt;&lt;i&gt;Elaeis1.ks_anchors&lt;/i&gt;&lt;/font&gt;: 6.25&lt;br&gt;"/><rect id="Ks_4.25" x="904.3" y="308.96" width="7.425000000000001" height="1.0400000000000205" fill="black" fill-opacity="0.5" data-tippy-content="&lt;font color='#ff7575'&gt;&lt;i&gt;K&lt;/i&gt;&lt;sub&gt;s&lt;/sub&gt;&lt;/font&gt;: 4.25&lt;br&gt;&lt;font color='#00BB00'&gt;&lt;i&gt;Elaeis1.ks_anchors&lt;/i&gt;&lt;/font&gt;: 8.00&lt;br&gt;"/><rect id="Ks_4.35" x="912.3999999999999" y="309.5341666666667" width="7.425000000000001" height="0.46583333333330756" fill="black" fill-opacity="0.5" data-tippy-content="&lt;font color='#ff7575'&gt;&lt;i&gt;K&lt;/i&gt;&lt;sub&gt;s&lt;/sub&gt;&lt;/font&gt;: 4.35&lt;br&gt;&lt;font color='#00BB00'&gt;&lt;i&gt;Elaeis1.ks_anchors&lt;/i&gt;&lt;/font&gt;: 3.58&lt;br&gt;"/><rect id="Ks_4.45" x="920.5" y="309.0466666666667" width="7.425000000000001" height="0.9533333333333189" fill="black" fill-opacity="0.5" data-tippy-content="&lt;font color='#ff7575'&gt;&lt;i&gt;K&lt;/i&gt;&lt;sub&gt;s&lt;/sub&gt;&lt;/font&gt;: 4.45&lt;br&gt;&lt;font color='#00BB00'&gt;&lt;i&gt;Elaeis1.ks_anchors&lt;/i&gt;&lt;/font&gt;: 7.33&lt;br&gt;"/><rect id="Ks_4.55" x="928.5999999999999" y="309.2525" width="7.425000000000001" height="0.7475000000000023" fill="black" fill-opacity="0.5" data-tippy-content="&lt;font color='#ff7575'&gt;&lt;i&gt;K&lt;/i&gt;&lt;sub&gt;s&lt;/sub&gt;&lt;/font&gt;: 4.55&lt;br&gt;&lt;font color='#00BB00'&gt;&lt;i&gt;Elaeis1.ks_anchors&lt;/i&gt;&lt;/font&gt;: 5.75&lt;br&gt;"/><rect id="Ks_4.65" x="936.6999999999999" y="309.3283333333333" width="7.425000000000001" height="0.6716666666666811" fill="black" fill-opacity="0.5" data-tippy-content="&lt;font color='#ff7575'&gt;&lt;i&gt;K&lt;/i&gt;&lt;sub&gt;s&lt;/sub&gt;&lt;/font&gt;: 4.65&lt;br&gt;&lt;font color='#00BB00'&gt;&lt;i&gt;Elaeis1.ks_anchors&lt;/i&gt;&lt;/font&gt;: 5.17&lt;br&gt;"/><rect id="Ks_4.75" x="944.8" y="308.7216666666667" width="7.425000000000001" height="1.2783333333333076" fill="black" fill-opacity="0.5" data-tippy-content="&lt;font color='#ff7575'&gt;&lt;i&gt;K&lt;/i&gt;&lt;sub&gt;s&lt;/sub&gt;&lt;/font&gt;: 4.75&lt;br&gt;&lt;font color='#00BB00'&gt;&lt;i&gt;Elaeis1.ks_anchors&lt;/i&gt;&lt;/font&gt;: 9.83&lt;br&gt;"/><rect id="Ks_4.85" x="952.9" y="309.3825" width="7.425000000000001" height="0.6175000000000068" fill="black" fill-opacity="0.5" data-tippy-content="&lt;font color='#ff7575'&gt;&lt;i&gt;K&lt;/i&gt;&lt;sub&gt;s&lt;/sub&gt;&lt;/font&gt;: 4.85&lt;br&gt;&lt;font color='#00BB00'&gt;&lt;i&gt;Elaeis1.ks_anchors&lt;/i&gt;&lt;/font&gt;: 4.75&lt;br&gt;"/><rect id="Ks_4.95" x="960.9999999999999" y="309.69666666666666" width="7.425000000000001" height="0.30333333333334167" fill="black" fill-opacity="0.5" data-tippy-content="&lt;font color='#ff7575'&gt;&lt;i&gt;K&lt;/i&gt;&lt;sub&gt;s&lt;/sub&gt;&lt;/font&gt;: 4.95&lt;br&gt;&lt;font color='#00BB00'&gt;&lt;i&gt;Elaeis1.ks_anchors&lt;/i&gt;&lt;/font&gt;: 2.33&lt;br&gt;"/></g><path class="line" d="M569.05,306.252C569.05,306.252,578.666,126.384,585.25,132.832C590.027,137.51,589.884,217.891,601.45,248.315C605.926,260.09,609.894,279.205,617.65,280.013C622.229,280.491,628.666,270.921,633.85,271.241C639.507,271.591,644.6,279.76,650.05,283.881C655.402,287.927,660.43,292.894,666.25,295.754C671.33,298.251,676.974,299.499,682.45,300.734C687.778,301.935,693.235,302.493,698.65,303.132C704.035,303.767,709.45,304.08,714.85,304.562C720.25,305.044,725.641,305.807,731.05,306.024C736.441,306.241,741.864,305.591,747.25,305.868C752.664,306.147,758.036,307.436,763.45,307.703C768.837,307.969,774.259,307.27,779.65,307.476C785.059,307.682,790.442,308.779,795.85,308.946C801.242,309.111,806.649,308.537,812.05,308.478C817.449,308.419,822.85,308.616,828.25,308.592C833.65,308.567,839.053,308.221,844.45,308.332C849.853,308.443,855.247,309.088,860.65,309.259C866.047,309.43,871.45,309.331,876.85,309.361C882.25,309.39,887.651,309.503,893.05,309.437C898.451,309.37,903.849,309.025,909.25,308.96C914.649,308.895,920.05,308.985,925.45,309.047C930.85,309.108,936.25,309.272,941.65,309.328C947.05,309.384,957.85,309.383,957.85,309.383" fill="none" stroke="black" stroke-width="1.5" stroke-opacity="0.7"/><g class="legend" transform="translate(820, 40)"><g class="legend-item" transform="translate(0, 0)"><rect x="0" y="0" width="10" height="10" fill="black" fill-opacity="0.5"/><text x="20" y="10" font-size="12px" fill="#333"><tspan style="font-style: italic;">E. guineensis</tspan> - Anchors</text></g></g></svg>