<?xml version="1.0" encoding="utf-8"?>
<!-- Generator: Adobe Illustrator 27.0.0, SVG Export Plug-In . SVG Version: 6.00 Build 0)  -->
<svg version="1.1" id="Layer_1" xmlns="http://www.w3.org/2000/svg" xmlns:xlink="http://www.w3.org/1999/xlink" x="0px" y="0px"
	 viewBox="0 0 800 350" style="enable-background:new 0 0 800 350;" xml:space="preserve">
<style type="text/css">
	.st0{fill:none;stroke:#000000;}
	.st1{font-family:'ArialMT';}
	.st2{font-size:12px;}
	.st3{font-family:'Arial-ItalicMT';}
	.st4{font-size:14px;}
	.st5{fill:#1B7837;fill-opacity:0.5;}
	.st6{fill:#5AAE61;fill-opacity:0.5;}
	.st7{fill:#364B9A;fill-opacity:0.5;}
	.st8{fill:none;stroke:#1B7837;stroke-width:1.4;stroke-dasharray:5,5;}
	.st9{fill:#1B7837;fill-opacity:0.2;}
	.st10{fill:#1B7837;fill-opacity:0.6;stroke:#1B7837;stroke-width:1.2;}
	.st11{fill:none;stroke:#5AAE61;stroke-width:1.4;stroke-dasharray:5,5;}
	.st12{fill:#5AAE61;fill-opacity:0.2;}
	.st13{fill:#5AAE61;fill-opacity:0.6;stroke:#5AAE61;stroke-width:1.2;}
	.st14{fill:none;stroke:#364B9A;stroke-width:1.4;stroke-dasharray:5,5;}
	.st15{fill:#364B9A;fill-opacity:0.2;}
	.st16{fill:#364B9A;fill-opacity:0.6;stroke:#364B9A;stroke-width:1.2;}
	.st17{fill:#696969;fill-opacity:0.6;}
	.st18{fill:none;stroke:#AAAAAA;stroke-width:2.45;}
	.st19{fill:#2F4F4F;fill-opacity:0.6;}
	.st20{fill:#333333;}
</style>
<g transform="translate(0,300)">
	<g transform="translate(80,0)">
		<line class="st0" x1="0" y1="0" x2="0" y2="6"/>
		<text transform="matrix(1 0 0 1 -3.3369 16.52)" class="st1 st2">0</text>
	</g>
	<g transform="translate(139,0)">
		<line class="st0" x1="0" y1="0" x2="0" y2="6"/>
		<text transform="matrix(1 0 0 1 -3.3369 16.52)" class="st1 st2">1</text>
	</g>
	<g transform="translate(198,0)">
		<line class="st0" x1="0" y1="0" x2="0" y2="6"/>
		<text transform="matrix(1 0 0 1 -3.3369 16.52)" class="st1 st2">2</text>
	</g>
	<g transform="translate(257,0)">
		<line class="st0" x1="0" y1="0" x2="0" y2="6"/>
		<text transform="matrix(1 0 0 1 -3.3369 16.52)" class="st1 st2">3</text>
	</g>
	<g transform="translate(316,0)">
		<line class="st0" x1="0" y1="0" x2="0" y2="6"/>
		<text transform="matrix(1 0 0 1 -3.3369 16.52)" class="st1 st2">4</text>
	</g>
	<g transform="translate(375,0)">
		<line class="st0" x1="0" y1="0" x2="0" y2="6"/>
		<text transform="matrix(1 0 0 1 -3.3369 16.52)" class="st1 st2">5</text>
	</g>
	<path d="M80,1V0h295v1"/>
</g>
<g>
	<text transform="matrix(1 0 0 1 204.3311 340)" class="st3 st4">K</text>
	<text transform="matrix(1 0 0 1 214.6689 342)" class="st1 st2">s</text>
</g>
<g transform="translate(380, 0)">
	<g transform="translate(0,300)">
		<line class="st0" x1="0" y1="0" x2="6" y2="0"/>
		<text transform="matrix(1 0 0 1 8 3.84)" class="st1 st2">0.0</text>
	</g>
	<g transform="translate(0,282.1428571428571)">
		<line class="st0" x1="0" y1="0" x2="6" y2="0"/>
		<text transform="matrix(1 0 0 1 8 3.84)" class="st1 st2">0.2</text>
	</g>
	<g transform="translate(0,264.2857142857143)">
		<line class="st0" x1="0" y1="0" x2="6" y2="0"/>
		<text transform="matrix(1 0 0 1 8 3.84)" class="st1 st2">0.4</text>
	</g>
	<g transform="translate(0,246.42857142857144)">
		<line class="st0" x1="0" y1="0" x2="6" y2="0"/>
		<text transform="matrix(1 0 0 1 8 3.84)" class="st1 st2">0.6</text>
	</g>
	<g transform="translate(0,228.57142857142853)">
		<line class="st0" x1="0" y1="0" x2="6" y2="0"/>
		<text transform="matrix(1 0 0 1 8 3.84)" class="st1 st2">0.8</text>
	</g>
	<g transform="translate(0,210.7142857142857)">
		<line class="st0" x1="0" y1="0" x2="6" y2="0"/>
		<text transform="matrix(1 0 0 1 8 3.84)" class="st1 st2">1.0</text>
	</g>
	<g transform="translate(0,192.85714285714283)">
		<line class="st0" x1="0" y1="0" x2="6" y2="0"/>
		<text transform="matrix(1 0 0 1 8 3.84)" class="st1 st2">1.2</text>
	</g>
	<g transform="translate(0,175)">
		<line class="st0" x1="0" y1="0" x2="6" y2="0"/>
		<text transform="matrix(1 0 0 1 8 3.84)" class="st1 st2">1.4</text>
	</g>
	<g transform="translate(0,157.14285714285714)">
		<line class="st0" x1="0" y1="0" x2="6" y2="0"/>
		<text transform="matrix(1 0 0 1 8 3.84)" class="st1 st2">1.6</text>
	</g>
	<g transform="translate(0,139.28571428571428)">
		<line class="st0" x1="0" y1="0" x2="6" y2="0"/>
		<text transform="matrix(1 0 0 1 8 3.84)" class="st1 st2">1.8</text>
	</g>
	<g transform="translate(0,121.42857142857142)">
		<line class="st0" x1="0" y1="0" x2="6" y2="0"/>
		<text transform="matrix(1 0 0 1 8 3.84)" class="st1 st2">2.0</text>
	</g>
	<g transform="translate(0,103.57142857142856)">
		<line class="st0" x1="0" y1="0" x2="6" y2="0"/>
		<text transform="matrix(1 0 0 1 8 3.84)" class="st1 st2">2.2</text>
	</g>
	<g transform="translate(0,85.7142857142857)">
		<line class="st0" x1="0" y1="0" x2="6" y2="0"/>
		<text transform="matrix(1 0 0 1 8 3.84)" class="st1 st2">2.4</text>
	</g>
	<g transform="translate(0,67.85714285714282)">
		<line class="st0" x1="0" y1="0" x2="6" y2="0"/>
		<text transform="matrix(1 0 0 1 8 3.84)" class="st1 st2">2.6</text>
	</g>
	<g transform="translate(0,50)">
		<line class="st0" x1="0" y1="0" x2="6" y2="0"/>
		<text transform="matrix(1 0 0 1 8 3.84)" class="st1 st2">2.8</text>
	</g>
	<path d="M1,50H0v250h1"/>
</g>
<g>
	<text transform="matrix(6.123234e-17 -1 1 6.123234e-17 435 227.1348)" class="st1 st4">Ortholog Density</text>
</g>
<path class="st5" d="M80,299.9l0.6,0l0.6,0l0.6,0l0.6,0l0.6,0l0.6,0l0.6,0l0.6,0l0.6,0l0.6,0l0.6,0l0.6,0l0.6,0l0.6,0l0.6,0l0.6,0
	l0.6,0l0.6,0l0.6,0l0.6,0l0.6,0l0.6,0l0.6,0l0.6,0l0.6,0l0.6,0l0.6,0l0.6,0l0.6,0l0.6-0.1l0.6-0.1l0.6-0.1l0.6-0.1l0.6-0.1l0.6-0.2
	l0.6-0.2l0.6-0.2l0.6-0.3l0.6-0.3l0.6-0.4l0.6-0.5l0.6-0.5l0.6-0.6l0.6-0.7l0.6-0.8l0.6-1l0.6-1.1l0.6-1.3l0.6-1.5l0.6-1.6l0.6-1.8
	l0.6-2l0.6-2.1l0.6-2.2l0.6-2.4l0.6-2.5l0.6-2.7l0.6-2.9l0.6-3.1l0.6-3.2l0.6-3.3l0.6-3.4l0.6-3.5l0.6-3.6l0.6-3.6l0.6-3.7l0.6-3.7
	l0.6-3.8l0.6-3.8l0.6-3.8l0.6-3.7l0.6-3.7l0.6-3.6l0.6-3.5l0.6-3.4l0.6-3.2l0.6-3l0.6-2.8l0.6-2.6l0.6-2.4l0.6-2.2l0.6-2l0.6-1.7
	l0.6-1.5l0.6-1.3l0.6-1l0.6-0.8l0.6-0.5l0.6-0.2l0.6,0l0.6,0.3l0.6,0.5l0.6,0.8l0.6,1l0.6,1.2l0.6,1.4l0.6,1.6l0.6,1.7l0.6,1.8
	l0.6,1.9l0.6,2l0.6,2.1l0.6,2.2l0.6,2.3l0.6,2.4l0.6,2.4l0.6,2.4l0.6,2.4l0.6,2.4l0.6,2.4l0.6,2.3l0.6,2.3l0.6,2.3l0.6,2.2l0.6,2.2
	l0.6,2.1l0.6,2.1l0.6,2l0.6,1.8l0.6,1.7l0.6,1.6l0.6,1.6l0.6,1.5l0.6,1.4l0.6,1.4l0.6,1.3l0.6,1.3l0.6,1.3l0.6,1.2l0.6,1.1l0.6,1.1
	l0.6,1.1l0.6,1.1l0.6,1l0.6,1l0.6,0.9l0.6,0.9l0.6,0.9l0.6,0.9l0.6,0.8l0.6,0.8l0.6,0.8l0.6,0.7l0.6,0.7l0.6,0.7l0.6,0.7l0.6,0.7
	l0.6,0.7l0.6,0.7l0.6,0.6l0.6,0.6l0.6,0.6l0.6,0.6l0.6,0.6l0.6,0.5l0.6,0.5l0.6,0.5l0.6,0.5l0.6,0.5l0.6,0.5l0.6,0.5l0.6,0.5
	l0.6,0.4l0.6,0.4l0.6,0.4l0.6,0.4l0.6,0.4l0.6,0.4l0.6,0.4l0.6,0.4l0.6,0.3l0.6,0.3l0.6,0.3l0.6,0.3l0.6,0.3l0.6,0.3l0.6,0.3
	l0.6,0.3l0.6,0.3l0.6,0.3l0.6,0.2l0.6,0.2l0.6,0.2l0.6,0.2l0.6,0.2l0.6,0.2l0.6,0.2l0.6,0.2l0.6,0.2l0.6,0.2l0.6,0.2l0.6,0.2
	l0.6,0.2l0.6,0.2l0.6,0.2l0.6,0.2l0.6,0.2l0.6,0.2l0.6,0.2l0.6,0.2l0.6,0.2l0.6,0.2l0.6,0.2l0.6,0.2l0.6,0.2l0.6,0.2l0.6,0.2
	l0.6,0.2l0.6,0.2l0.6,0.2l0.6,0.2l0.6,0.2l0.6,0.2l0.6,0.2l0.6,0.2l0.6,0.2l0.6,0.2l0.6,0.2l0.6,0.1l0.6,0.1l0.6,0.1l0.6,0.1
	l0.6,0.1l0.6,0.1l0.6,0.1l0.6,0.1l0.6,0.1l0.6,0.1l0.6,0.1l0.6,0.1l0.6,0.1l0.6,0.1l0.6,0.1l0.6,0.1l0.6,0.1l0.6,0.1l0.6,0.1
	l0.6,0.1l0.6,0.1l0.6,0.1l0.6,0.1l0.6,0.1l0.6,0.1l0.6,0.1l0.6,0.1l0.6,0.1l0.6,0.1l0.6,0.1l0.6,0.1l0.6,0.1l0.6,0.1l0.6,0.1
	l0.6,0.1l0.6,0.1l0.6,0.1l0.6,0l0.6,0l0.6,0l0.6,0.1l0.6,0.1l0.6,0.1l0.6,0.1l0.6,0.1l0.6,0.1l0.6,0.1l0.6,0.1l0.6,0.1l0.6,0.1
	l0.6,0.1l0.6,0.1l0.6,0.1l0.6,0.1l0.6,0.1l0.6,0.1l0.6,0.1l0.6,0.1l0.6,0.1l0.6,0.1l0.6,0.1l0.6,0.1l0.6,0.1l0.6,0.1l0.6,0.1
	l0.6,0.1l0.6,0.1l0.6,0.1l0.6,0.1l0.6,0.1l0.6,0.1l0.6,0.1l0.6,0.1l0.6,0.1l0.6,0.1l0.6,0.1l0.6,0.1l0.6,0.1l0.6,0.1l0.6,0.1l0.6,0
	l0.6,0l0.6,0l0.6,0l0.6,0l0.6,0l0.6,0l0.6,0l0.6,0l0.6,0l0.6,0l0.6,0l0.6,0l0.6,0l0.6,0l0.6,0l0.6,0l0.6,0l0.6,0l0.6,0l0.6,0l0.6,0
	l0.6,0l0.6,0l0.6,0l0.6,0l0.6,0l0.6,0l0.6,0l0.6,0l0.6,0l0.6,0l0.6,0l0.6,0l0.6,0l0.6,0l0.6,0l0.6,0l0.6,0l0.6,0l0.6,0l0.6,0l0.6,0
	l0.6,0l0.6,0l0.6,0l0.6,0l0.6,0l0.6,0l0.6,0l0.6,0l0.6,0l0.6,0l0.6,0l0.6,0l0.6,0l0.6,0l0.6,0l0.6,0l0.6,0l0.6,0l0.6,0l0.6,0l0.6,0
	l0.6,0l0.6,0l0.6,0l0.6,0l0.6,0l0.6,0l0.6,0l0.6,0l0.6,0l0.6,0l0.6,0l0.6,0l0.6,0l0.6,0l0.6,0l0.6,0l0.6,0l0.6,0l0.6,0l0.6,0l0.6,0
	l0.6,0l0.6,0l0.6,0l0.6,0l0.6,0l0.6,0l0.6,0l0.6,0l0.6,0l0.6,0l0.6,0l0.6,0l0.6,0l0.6,0l0.6,0l0.6,0l0.6,0l0.6,0l0.6,0l0.6,0l0.6,0
	l0.6,0l0.6,0l0.6,0l0.6,0l0.6,0l0.6,0l0.6,0l0.6,0l0.6,0l0.6,0l0.6,0l0.6,0l0.6,0l0.6,0l0.6,0l0.6,0l0.6,0l0.6,0l0.6,0l0.6,0l0.6,0
	l0.6,0l0.6,0l0.6,0l0.6,0l0.6,0l0.6,0l0.6,0l0.6,0l0.6,0l0.6,0l0.6,0l0.6,0l0.6,0l0.6,0l0.6,0l0.6,0l0.6,0l0.6,0l0.6,0l0.6,0l0.6,0
	l0.6,0l0.6,0l0.6,0l0.6,0l0.6,0l0.6,0l0.6,0l0.6,0l0.6,0l0.6,0l0.6,0l0.6,0l0.6,0l0.6,0l0.6,0l0.6,0l0.6,0l0.6,0l0.6,0l0.6,0l0.6,0
	l0.6,0l0.6,0l0.6,0l0.6,0l0.6,0l0.6,0l0.6,0l0.6,0l0.6,0l0.6,0l0.6,0l0.6,0l0.6,0l0.6,0l0.6,0l0.6,0l0.6,0l0.6,0l0.6,0l0.6,0l0.6,0
	l0.6,0l0.6,0l0.6,0l0.6,0l0.6,0l0.6,0l0.6,0l0.6,0l0.6,0l0.6,0l0.6,0l0.6,0v0.3h-0.6h-0.6h-0.6h-0.6H372h-0.6h-0.6h-0.6h-0.6h-0.6
	h-0.6h-0.6h-0.6h-0.6h-0.6h-0.6H365h-0.6h-0.6h-0.6h-0.6H362h-0.6h-0.6h-0.6h-0.6h-0.6h-0.6h-0.6h-0.6h-0.6h-0.6h-0.6h-0.6h-0.6
	h-0.6h-0.6h-0.6H352h-0.6h-0.6h-0.6h-0.6H349h-0.6h-0.6h-0.6h-0.6h-0.6h-0.6h-0.6h-0.6h-0.6h-0.6h-0.6H342h-0.6h-0.6h-0.6h-0.6H339
	h-0.6h-0.6h-0.6h-0.6h-0.6h-0.6h-0.6h-0.6h-0.6h-0.6h-0.6h-0.6h-0.6h-0.6h-0.6h-0.6H329h-0.6h-0.6h-0.6h-0.6H326h-0.6h-0.6h-0.6
	h-0.6h-0.6h-0.6h-0.6h-0.6h-0.6h-0.6h-0.6H319h-0.6h-0.6h-0.6h-0.6H316h-0.6h-0.6h-0.6h-0.6H313h-0.6h-0.6h-0.6h-0.6h-0.6h-0.6h-0.6
	h-0.6h-0.6h-0.6h-0.6H306h-0.6h-0.6h-0.6h-0.6H303h-0.6h-0.6h-0.6h-0.6h-0.6h-0.6h-0.6h-0.6h-0.6h-0.6h-0.6h-0.6h-0.6h-0.6h-0.6
	h-0.6H293h-0.6h-0.6h-0.6h-0.6H290h-0.6h-0.6h-0.6h-0.6h-0.6h-0.6h-0.6h-0.6h-0.6h-0.6h-0.6H283h-0.6h-0.6h-0.6h-0.6H280h-0.6h-0.6
	h-0.6h-0.6h-0.6h-0.6h-0.6h-0.6h-0.6h-0.6h-0.6h-0.6h-0.6h-0.6h-0.6h-0.6H270h-0.6h-0.6h-0.6h-0.6H267h-0.6h-0.6h-0.6h-0.6h-0.6
	h-0.6h-0.6h-0.6h-0.6h-0.6h-0.6H260h-0.6h-0.6h-0.6h-0.6H257h-0.6h-0.6h-0.6h-0.6h-0.6h-0.6h-0.6h-0.6h-0.6h-0.6h-0.6h-0.6h-0.6
	h-0.6h-0.6h-0.6H247h-0.6h-0.6h-0.6h-0.6H244h-0.6h-0.6h-0.6h-0.6h-0.6h-0.6h-0.6h-0.6h-0.6h-0.6h-0.6h-0.6h-0.6h-0.6h-0.6h-0.6H234
	h-0.6h-0.6h-0.6h-0.6H231h-0.6h-0.6h-0.6h-0.6h-0.6h-0.6h-0.6h-0.6h-0.6h-0.6h-0.6H224h-0.6h-0.6h-0.6h-0.6H221h-0.6h-0.6h-0.6h-0.6
	h-0.6h-0.6h-0.6h-0.6h-0.6h-0.6h-0.6h-0.6h-0.6h-0.6h-0.6h-0.6H211h-0.6h-0.6h-0.6h-0.6H208h-0.6h-0.6h-0.6h-0.6h-0.6h-0.6h-0.6
	h-0.6h-0.6h-0.6h-0.6h-0.6h-0.6h-0.6h-0.6h-0.6H198h-0.6h-0.6h-0.6h-0.6h-0.6h-0.6h-0.6h-0.6h-0.6h-0.6h-0.6h-0.6h-0.6h-0.6h-0.6
	h-0.6H188h-0.6h-0.6h-0.6h-0.6H185h-0.6h-0.6h-0.6h-0.6h-0.6h-0.6h-0.6h-0.6h-0.6h-0.6h-0.6h-0.6h-0.6h-0.6h-0.6h-0.6H175h-0.6h-0.6
	h-0.6h-0.6H172h-0.6h-0.6h-0.6h-0.6h-0.6h-0.6h-0.6h-0.6h-0.6h-0.6h-0.6H165h-0.6h-0.6h-0.6h-0.6H162h-0.6h-0.6h-0.6h-0.6h-0.6h-0.6
	h-0.6h-0.6h-0.6h-0.6h-0.6h-0.6h-0.6h-0.6h-0.6h-0.6H152h-0.6h-0.6h-0.6h-0.6H149h-0.6h-0.6h-0.6h-0.6h-0.6h-0.6h-0.6h-0.6h-0.6
	h-0.6h-0.6h-0.6h-0.6h-0.6h-0.6h-0.6H139h-0.6h-0.6h-0.6h-0.6h-0.6h-0.6h-0.6h-0.6h-0.6h-0.6h-0.6h-0.6h-0.6h-0.6h-0.6h-0.6H129
	h-0.6h-0.6h-0.6h-0.6H126h-0.6h-0.6h-0.6h-0.6h-0.6h-0.6h-0.6h-0.6h-0.6h-0.6h-0.6h-0.6h-0.6h-0.6h-0.6h-0.6H116h-0.6h-0.6h-0.6
	h-0.6H113h-0.6h-0.6h-0.6h-0.6h-0.6h-0.6h-0.6h-0.6h-0.6h-0.6h-0.6H106h-0.6h-0.6h-0.6h-0.6H103h-0.6h-0.6h-0.6h-0.6h-0.6h-0.6h-0.6
	h-0.6h-0.6h-0.6h-0.6h-0.6h-0.6h-0.6h-0.6h-0.6H93h-0.6h-0.6h-0.6h-0.6H90h-0.6h-0.6h-0.6h-0.6h-0.6h-0.6h-0.6h-0.6h-0.6h-0.6h-0.6
	h-0.6h-0.6h-0.6h-0.6h-0.6H80V299.9z"/>
<path class="st6" d="M80,300l0.6,0l0.6,0l0.6,0l0.6,0l0.6,0l0.6,0l0.6,0l0.6,0l0.6,0l0.6,0l0.6,0l0.6,0l0.6,0l0.6,0l0.6,0l0.6,0
	l0.6,0l0.6,0l0.6,0l0.6,0l0.6,0l0.6,0l0.6,0l0.6,0l0.6,0l0.6,0l0.6,0l0.6,0l0.6,0l0.6,0l0.6,0l0.6,0l0.6,0l0.6,0l0.6,0l0.6-0.1
	l0.6-0.1l0.6-0.1l0.6-0.1l0.6-0.1l0.6-0.2l0.6-0.2l0.6-0.2l0.6-0.3l0.6-0.4l0.6-0.4l0.6-0.5l0.6-0.6l0.6-0.7l0.6-0.7l0.6-0.8l0.6-1
	l0.6-1.1l0.6-1.2l0.6-1.3l0.6-1.4l0.6-1.6l0.6-1.7l0.6-1.9l0.6-2l0.6-2.2l0.6-2.3l0.6-2.5l0.6-2.6l0.6-2.7l0.6-2.8l0.6-2.9l0.6-3
	l0.6-3.1l0.6-3.2l0.6-3.2l0.6-3.2l0.6-3.3l0.6-3.3l0.6-3.2l0.6-3.2l0.6-3.2l0.6-3.2l0.6-3.1l0.6-3l0.6-2.9l0.6-2.8l0.6-2.7l0.6-2.6
	l0.6-2.4l0.6-2.2l0.6-2.1l0.6-1.9l0.6-1.8l0.6-1.6l0.6-1.4l0.6-1.2l0.6-1l0.6-0.7l0.6-0.6l0.6-0.4l0.6-0.1l0.6,0.1l0.6,0.2l0.6,0.4
	l0.6,0.6l0.6,0.7l0.6,0.9l0.6,1l0.6,1.2l0.6,1.3l0.6,1.4l0.6,1.5l0.6,1.6l0.6,1.6l0.6,1.7l0.6,1.7l0.6,1.8l0.6,1.8l0.6,1.8l0.6,1.8
	l0.6,1.8l0.6,1.8l0.6,1.8l0.6,1.8l0.6,1.8l0.6,1.7l0.6,1.7l0.6,1.7l0.6,1.7l0.6,1.7l0.6,1.6l0.6,1.6l0.6,1.5l0.6,1.5l0.6,1.5
	l0.6,1.4l0.6,1.4l0.6,1.4l0.6,1.3l0.6,1.3l0.6,1.2l0.6,1.2l0.6,1.2l0.6,1.1l0.6,1.1l0.6,1l0.6,1l0.6,1l0.6,1l0.6,0.9l0.6,0.9
	l0.6,0.9l0.6,0.9l0.6,0.9l0.6,0.8l0.6,0.8l0.6,0.7l0.6,0.7l0.6,0.7l0.6,0.7l0.6,0.6l0.6,0.6l0.6,0.6l0.6,0.6l0.6,0.6l0.6,0.6
	l0.6,0.5l0.6,0.5l0.6,0.5l0.6,0.5l0.6,0.5l0.6,0.5l0.6,0.5l0.6,0.5l0.6,0.5l0.6,0.4l0.6,0.4l0.6,0.4l0.6,0.4l0.6,0.4l0.6,0.4
	l0.6,0.4l0.6,0.4l0.6,0.3l0.6,0.3l0.6,0.3l0.6,0.3l0.6,0.3l0.6,0.3l0.6,0.3l0.6,0.3l0.6,0.3l0.6,0.3l0.6,0.3l0.6,0.3l0.6,0.3
	l0.6,0.3l0.6,0.3l0.6,0.3l0.6,0.3l0.6,0.3l0.6,0.3l0.6,0.3l0.6,0.3l0.6,0.3l0.6,0.3l0.6,0.3l0.6,0.3l0.6,0.2l0.6,0.2l0.6,0.2
	l0.6,0.2l0.6,0.2l0.6,0.2l0.6,0.2l0.6,0.2l0.6,0.2l0.6,0.2l0.6,0.2l0.6,0.2l0.6,0.2l0.6,0.2l0.6,0.2l0.6,0.2l0.6,0.2l0.6,0.2
	l0.6,0.2l0.6,0.1l0.6,0.1l0.6,0.2l0.6,0.2l0.6,0.2l0.6,0.1l0.6,0.1l0.6,0.1l0.6,0.2l0.6,0.2l0.6,0.1l0.6,0.1l0.6,0.1l0.6,0.1
	l0.6,0.1l0.6,0.2l0.6,0.2l0.6,0.2l0.6,0.2l0.6,0.1l0.6,0.1l0.6,0.1l0.6,0.1l0.6,0.2l0.6,0.1l0.6,0.1l0.6,0.1l0.6,0.1l0.6,0.1
	l0.6,0.1l0.6,0.1l0.6,0.1l0.6,0.1l0.6,0.1l0.6,0.1l0.6,0.1l0.6,0.1l0.6,0.1l0.6,0.1l0.6,0.1l0.6,0.1l0.6,0.1l0.6,0.1l0.6,0.1
	l0.6,0.1l0.6,0.1l0.6,0.1l0.6,0.1l0.6,0.1l0.6,0.1l0.6,0.1l0.6,0l0.6,0l0.6,0l0.6,0l0.6,0l0.6,0l0.6,0l0.6,0l0.6,0l0.6,0l0.6,0
	l0.6,0l0.6,0l0.6,0l0.6,0l0.6,0l0.6,0l0.6,0l0.6,0l0.6,0l0.6,0l0.6,0l0.6,0l0.6,0l0.6,0l0.6,0l0.6,0l0.6,0l0.6,0l0.6,0l0.6,0l0.6,0
	l0.6,0l0.6,0l0.6,0l0.6,0l0.6,0l0.6,0l0.6,0l0.6,0l0.6,0l0.6,0l0.6,0l0.6,0l0.6,0l0.6,0l0.6,0l0.6,0l0.6,0l0.6,0l0.6,0l0.6,0l0.6,0
	l0.6,0l0.6,0l0.6,0l0.6,0l0.6,0l0.6,0l0.6,0l0.6,0l0.6,0l0.6,0l0.6,0l0.6,0l0.6,0l0.6,0l0.6,0l0.6,0l0.6,0l0.6,0l0.6,0l0.6,0l0.6,0
	l0.6,0l0.6,0l0.6,0l0.6,0l0.6,0l0.6,0l0.6,0l0.6,0l0.6,0l0.6,0l0.6,0l0.6,0l0.6,0l0.6,0l0.6,0l0.6,0l0.6,0l0.6,0l0.6,0l0.6,0l0.6,0
	l0.6,0l0.6,0l0.6,0l0.6,0l0.6,0l0.6,0l0.6,0l0.6,0l0.6,0l0.6,0l0.6,0l0.6,0l0.6,0l0.6,0l0.6,0l0.6,0l0.6,0l0.6,0l0.6,0l0.6,0l0.6,0
	l0.6,0l0.6,0l0.6,0l0.6,0l0.6,0l0.6,0l0.6,0l0.6,0l0.6,0l0.6,0l0.6,0l0.6,0l0.6,0l0.6,0l0.6,0l0.6,0l0.6,0l0.6,0l0.6,0l0.6,0l0.6,0
	l0.6,0l0.6,0l0.6,0l0.6,0l0.6,0l0.6,0l0.6,0l0.6,0l0.6,0l0.6,0l0.6,0l0.6,0l0.6,0l0.6,0l0.6,0l0.6,0l0.6,0l0.6,0l0.6,0l0.6,0l0.6,0
	l0.6,0l0.6,0l0.6,0l0.6,0l0.6,0l0.6,0l0.6,0l0.6,0l0.6,0l0.6,0l0.6,0l0.6,0l0.6,0l0.6,0l0.6,0l0.6,0l0.6,0l0.6,0l0.6,0l0.6,0l0.6,0
	l0.6,0l0.6,0l0.6,0l0.6,0l0.6,0l0.6,0l0.6,0l0.6,0l0.6,0l0.6,0l0.6,0l0.6,0l0.6,0l0.6,0l0.6,0l0.6,0l0.6,0l0.6,0l0.6,0l0.6,0l0.6,0
	l0.6,0l0.6,0l0.6,0l0.6,0l0.6,0l0.6,0l0.6,0l0.6,0l0.6,0l0.6,0l0.6,0l0.6,0l0.6,0l0.6,0l0.6,0l0.6,0l0.6,0l0.6,0l0.6,0l0.6,0l0.6,0
	l0.6,0l0.6,0l0.6,0l0.6,0l0.6,0v0.5h-0.6h-0.6h-0.6h-0.6H372h-0.6h-0.6h-0.6h-0.6h-0.6h-0.6h-0.6h-0.6h-0.6h-0.6h-0.6H365h-0.6h-0.6
	h-0.6h-0.6H362h-0.6h-0.6h-0.6h-0.6h-0.6h-0.6h-0.6h-0.6h-0.6h-0.6h-0.6h-0.6h-0.6h-0.6h-0.6h-0.6H352h-0.6h-0.6h-0.6h-0.6H349h-0.6
	h-0.6h-0.6h-0.6h-0.6h-0.6h-0.6h-0.6h-0.6h-0.6h-0.6H342h-0.6h-0.6h-0.6h-0.6H339h-0.6h-0.6h-0.6h-0.6h-0.6h-0.6h-0.6h-0.6h-0.6
	h-0.6h-0.6h-0.6h-0.6h-0.6h-0.6h-0.6H329h-0.6h-0.6h-0.6h-0.6H326h-0.6h-0.6h-0.6h-0.6h-0.6h-0.6h-0.6h-0.6h-0.6h-0.6h-0.6H319h-0.6
	h-0.6h-0.6h-0.6H316h-0.6h-0.6h-0.6h-0.6H313h-0.6h-0.6h-0.6h-0.6h-0.6h-0.6h-0.6h-0.6h-0.6h-0.6h-0.6H306h-0.6h-0.6h-0.6h-0.6H303
	h-0.6h-0.6h-0.6h-0.6h-0.6h-0.6h-0.6h-0.6h-0.6h-0.6h-0.6h-0.6h-0.6h-0.6h-0.6h-0.6H293h-0.6h-0.6h-0.6h-0.6H290h-0.6h-0.6h-0.6
	h-0.6h-0.6h-0.6h-0.6h-0.6h-0.6h-0.6h-0.6H283h-0.6h-0.6h-0.6h-0.6H280h-0.6h-0.6h-0.6h-0.6h-0.6h-0.6h-0.6h-0.6h-0.6h-0.6h-0.6
	h-0.6h-0.6h-0.6h-0.6h-0.6H270h-0.6h-0.6h-0.6h-0.6H267h-0.6h-0.6h-0.6h-0.6h-0.6h-0.6h-0.6h-0.6h-0.6h-0.6h-0.6H260h-0.6h-0.6h-0.6
	h-0.6H257h-0.6h-0.6h-0.6h-0.6h-0.6h-0.6h-0.6h-0.6h-0.6h-0.6h-0.6h-0.6h-0.6h-0.6h-0.6h-0.6H247h-0.6h-0.6h-0.6h-0.6H244h-0.6h-0.6
	h-0.6h-0.6h-0.6h-0.6h-0.6h-0.6h-0.6h-0.6h-0.6h-0.6h-0.6h-0.6h-0.6h-0.6H234h-0.6h-0.6h-0.6h-0.6H231h-0.6h-0.6h-0.6h-0.6h-0.6
	h-0.6h-0.6h-0.6h-0.6h-0.6h-0.6H224h-0.6h-0.6h-0.6h-0.6H221h-0.6h-0.6h-0.6h-0.6h-0.6h-0.6h-0.6h-0.6h-0.6h-0.6h-0.6h-0.6h-0.6
	h-0.6h-0.6h-0.6H211h-0.6h-0.6h-0.6h-0.6H208h-0.6h-0.6h-0.6h-0.6h-0.6h-0.6h-0.6h-0.6h-0.6h-0.6h-0.6h-0.6h-0.6h-0.6h-0.6h-0.6H198
	h-0.6h-0.6h-0.6h-0.6h-0.6h-0.6h-0.6h-0.6h-0.6h-0.6h-0.6h-0.6h-0.6h-0.6h-0.6h-0.6H188h-0.6h-0.6h-0.6h-0.6H185h-0.6h-0.6h-0.6
	h-0.6h-0.6h-0.6h-0.6h-0.6h-0.6h-0.6h-0.6h-0.6h-0.6h-0.6h-0.6h-0.6H175h-0.6h-0.6h-0.6h-0.6H172h-0.6h-0.6h-0.6h-0.6h-0.6h-0.6
	h-0.6h-0.6h-0.6h-0.6h-0.6H165h-0.6h-0.6h-0.6h-0.6H162h-0.6h-0.6h-0.6h-0.6h-0.6h-0.6h-0.6h-0.6h-0.6h-0.6h-0.6h-0.6h-0.6h-0.6
	h-0.6h-0.6H152h-0.6h-0.6h-0.6h-0.6H149h-0.6h-0.6h-0.6h-0.6h-0.6h-0.6h-0.6h-0.6h-0.6h-0.6h-0.6h-0.6h-0.6h-0.6h-0.6h-0.6H139h-0.6
	h-0.6h-0.6h-0.6h-0.6h-0.6h-0.6h-0.6h-0.6h-0.6h-0.6h-0.6h-0.6h-0.6h-0.6h-0.6H129h-0.6h-0.6h-0.6h-0.6H126h-0.6h-0.6h-0.6h-0.6
	h-0.6h-0.6h-0.6h-0.6h-0.6h-0.6h-0.6h-0.6h-0.6h-0.6h-0.6h-0.6H116h-0.6h-0.6h-0.6h-0.6H113h-0.6h-0.6h-0.6h-0.6h-0.6h-0.6h-0.6
	h-0.6h-0.6h-0.6h-0.6H106h-0.6h-0.6h-0.6h-0.6H103h-0.6h-0.6h-0.6h-0.6h-0.6h-0.6h-0.6h-0.6h-0.6h-0.6h-0.6h-0.6h-0.6h-0.6h-0.6
	h-0.6H93h-0.6h-0.6h-0.6h-0.6H90h-0.6h-0.6h-0.6h-0.6h-0.6h-0.6h-0.6h-0.6h-0.6h-0.6h-0.6h-0.6h-0.6h-0.6h-0.6h-0.6L80,300L80,300z"
	/>
<path class="st7" d="M80,298.9l0.6-0.3l0.6-0.4l0.6-0.6l0.6-0.8l0.6-1.1l0.6-1.4l0.6-1.8l0.6-2.2l0.6-2.6l0.6-3.1l0.6-3.6l0.6-4.1
	l0.6-4.6l0.6-5l0.6-5.4l0.6-5.7l0.6-6l0.6-6.3l0.6-6.5l0.6-6.6l0.6-6.8l0.6-6.9l0.6-6.9l0.6-6.9l0.6-6.9l0.6-6.8l0.6-6.7l0.6-6.6
	l0.6-6.3l0.6-6.1l0.6-5.9l0.6-5.6l0.6-5.3l0.6-4.9l0.6-4.6l0.6-4.1l0.6-3.7l0.6-3.3l0.6-2.8l0.6-2.3l0.6-1.8l0.6-1.3l0.6-0.8
	l0.6-0.2l0.6,0.3l0.6,0.9l0.6,1.4l0.6,2l0.6,2.6l0.6,3.1l0.6,3.7l0.6,4.2l0.6,4.6l0.6,5l0.6,5.3l0.6,5.6l0.6,5.8l0.6,5.8l0.6,5.9
	l0.6,5.8l0.6,5.7l0.6,5.5l0.6,5.4l0.6,5.3l0.6,5.1l0.6,4.8l0.6,4.7l0.6,4.5l0.6,4.2l0.6,4.1l0.6,3.9l0.6,3.7l0.6,3.5l0.6,3.3
	l0.6,3.1l0.6,2.9l0.6,2.7l0.6,2.6l0.6,2.5l0.6,2.3l0.6,2.2l0.6,2l0.6,1.9l0.6,1.8l0.6,1.7l0.6,1.6l0.6,1.5l0.6,1.4l0.6,1.4l0.6,1.3
	l0.6,1.2l0.6,1.1l0.6,1.1l0.6,1l0.6,1l0.6,0.9l0.6,0.8l0.6,0.8l0.6,0.7l0.6,0.7l0.6,0.6l0.6,0.6l0.6,0.6l0.6,0.5l0.6,0.5l0.6,0.5
	l0.6,0.5l0.6,0.4l0.6,0.4l0.6,0.4l0.6,0.4l0.6,0.4l0.6,0.3l0.6,0.3l0.6,0.3l0.6,0.3l0.6,0.3l0.6,0.3l0.6,0.2l0.6,0.2l0.6,0.2
	l0.6,0.2l0.6,0.2l0.6,0.2l0.6,0.2l0.6,0.2l0.6,0.2l0.6,0.2l0.6,0.2l0.6,0.2l0.6,0.2l0.6,0.1l0.6,0.1l0.6,0.1l0.6,0.1l0.6,0.1
	l0.6,0.1l0.6,0.1l0.6,0.1l0.6,0.1l0.6,0.1l0.6,0.1l0.6,0.1l0.6,0.1l0.6,0.1l0.6,0.1l0.6,0.1l0.6,0.1l0.6,0.1l0.6,0.1l0.6,0.1
	l0.6,0.1l0.6,0.1l0.6,0.1l0.6,0.1l0.6,0l0.6,0l0.6,0l0.6,0l0.6,0l0.6,0l0.6,0l0.6,0l0.6,0l0.6,0l0.6,0l0.6,0l0.6,0l0.6,0l0.6,0
	l0.6,0l0.6,0l0.6,0l0.6,0l0.6,0l0.6,0l0.6,0l0.6,0l0.6,0l0.6,0l0.6,0l0.6,0l0.6,0l0.6,0l0.6,0l0.6,0l0.6,0l0.6,0l0.6,0l0.6,0l0.6,0
	l0.6,0l0.6,0l0.6,0l0.6,0l0.6,0l0.6,0l0.6,0l0.6,0l0.6,0l0.6,0l0.6,0l0.6,0l0.6,0l0.6,0l0.6,0l0.6,0l0.6,0l0.6,0l0.6,0l0.6,0l0.6,0
	l0.6,0l0.6,0l0.6,0l0.6,0l0.6,0l0.6,0l0.6,0l0.6,0l0.6,0l0.6,0l0.6,0l0.6,0l0.6,0l0.6,0l0.6,0l0.6,0l0.6,0l0.6,0l0.6,0l0.6,0l0.6,0
	l0.6,0l0.6,0l0.6,0l0.6,0l0.6,0l0.6,0l0.6,0l0.6,0l0.6,0l0.6,0l0.6,0l0.6,0l0.6,0l0.6,0l0.6,0l0.6,0l0.6,0l0.6,0l0.6,0l0.6,0l0.6,0
	l0.6,0l0.6,0l0.6,0l0.6,0l0.6,0l0.6,0l0.6,0l0.6,0l0.6,0l0.6,0l0.6,0l0.6,0l0.6,0l0.6,0l0.6,0l0.6,0l0.6,0l0.6,0l0.6,0l0.6,0l0.6,0
	l0.6,0l0.6,0l0.6,0l0.6,0l0.6,0l0.6,0l0.6,0l0.6,0l0.6,0l0.6,0l0.6,0l0.6,0l0.6,0l0.6,0l0.6,0l0.6,0l0.6,0l0.6,0l0.6,0l0.6,0l0.6,0
	l0.6,0l0.6,0l0.6,0l0.6,0l0.6,0l0.6,0l0.6,0l0.6,0l0.6,0l0.6,0l0.6,0l0.6,0l0.6,0l0.6,0l0.6,0l0.6,0l0.6,0l0.6,0l0.6,0l0.6,0l0.6,0
	l0.6,0l0.6,0l0.6,0l0.6,0l0.6,0l0.6,0l0.6,0l0.6,0l0.6,0l0.6,0l0.6,0l0.6,0l0.6,0l0.6,0l0.6,0l0.6,0l0.6,0l0.6,0l0.6,0l0.6,0l0.6,0
	l0.6,0l0.6,0l0.6,0l0.6,0l0.6,0l0.6,0l0.6,0l0.6,0l0.6,0l0.6,0l0.6,0l0.6,0l0.6,0l0.6,0l0.6,0l0.6,0l0.6,0l0.6,0l0.6,0l0.6,0l0.6,0
	l0.6,0l0.6,0l0.6,0l0.6,0l0.6,0l0.6,0l0.6,0l0.6,0l0.6,0l0.6,0h0.6l0.6,0l0.6,0l0.6,0l0.6,0l0.6,0l0.6,0l0.6,0l0.6,0l0.6,0l0.6,0
	l0.6,0l0.6,0l0.6,0l0.6,0l0.6,0l0.6,0l0.6,0l0.6,0l0.6,0l0.6,0l0.6,0l0.6,0l0.6,0l0.6,0l0.6,0l0.6,0l0.6,0l0.6,0l0.6,0l0.6,0l0.6,0
	l0.6,0l0.6,0l0.6,0l0.6,0l0.6,0l0.6,0l0.6,0l0.6,0l0.6,0l0.6,0l0.6,0l0.6,0l0.6,0l0.6,0l0.6,0l0.6,0l0.6,0l0.6,0l0.6,0l0.6,0l0.6,0
	l0.6,0l0.6,0l0.6,0l0.6,0l0.6,0l0.6,0l0.6,0l0.6,0l0.6,0l0.6,0l0.6,0l0.6,0l0.6,0l0.6,0l0.6,0l0.6,0l0.6,0l0.6,0l0.6,0l0.6,0l0.6,0
	l0.6,0l0.6,0l0.6,0l0.6,0l0.6,0l0.6,0l0.6,0l0.6,0l0.6,0l0.6,0l0.6,0l0.6,0l0.6,0l0.6,0l0.6,0l0.6,0l0.6,0l0.6,0l0.6,0l0.6,0l0.6,0
	l0.6,0l0.6,0l0.6,0l0.6,0l0.6,0l0.6,0l0.6,0l0.6,0l0.6,0l0.6,0l0.6,0l0.6,0l0.6,0l0.6,0l0.6,0l0.6,0l0.6,0l0.6,0l0.6,0l0.6,0l0.6,0
	l0.6,0l0.6,0l0.6,0l0.6,0l0.6,0l0.6,0l0.6,0l0.6,0l0.6,0l0.6,0l0.6,0l0.6,0l0.6,0l0.6,0l0.6,0v0h-0.6h-0.6h-0.6h-0.6H372h-0.6h-0.6
	h-0.6h-0.6h-0.6h-0.6h-0.6h-0.6h-0.6h-0.6h-0.6H365h-0.6h-0.6h-0.6h-0.6H362h-0.6h-0.6h-0.6h-0.6h-0.6h-0.6h-0.6h-0.6h-0.6h-0.6
	h-0.6h-0.6h-0.6h-0.6h-0.6h-0.6H352h-0.6h-0.6h-0.6h-0.6H349h-0.6h-0.6h-0.6h-0.6h-0.6h-0.6h-0.6h-0.6h-0.6h-0.6h-0.6H342h-0.6h-0.6
	h-0.6h-0.6H339h-0.6h-0.6h-0.6h-0.6h-0.6h-0.6h-0.6h-0.6h-0.6h-0.6h-0.6h-0.6h-0.6h-0.6h-0.6h-0.6H329h-0.6h-0.6h-0.6h-0.6H326h-0.6
	h-0.6h-0.6h-0.6h-0.6h-0.6h-0.6h-0.6h-0.6h-0.6h-0.6H319h-0.6h-0.6h-0.6h-0.6H316h-0.6h-0.6h-0.6h-0.6H313h-0.6h-0.6h-0.6h-0.6h-0.6
	h-0.6h-0.6h-0.6h-0.6h-0.6h-0.6H306h-0.6h-0.6h-0.6h-0.6H303h-0.6h-0.6h-0.6h-0.6h-0.6h-0.6h-0.6h-0.6h-0.6h-0.6h-0.6h-0.6h-0.6
	h-0.6h-0.6h-0.6H293h-0.6h-0.6h-0.6h-0.6H290h-0.6h-0.6h-0.6h-0.6h-0.6h-0.6h-0.6h-0.6h-0.6h-0.6h-0.6H283h-0.6h-0.6h-0.6h-0.6H280
	h-0.6h-0.6h-0.6h-0.6h-0.6h-0.6h-0.6h-0.6h-0.6h-0.6h-0.6h-0.6h-0.6h-0.6h-0.6h-0.6H270h-0.6h-0.6h-0.6h-0.6H267h-0.6h-0.6h-0.6
	h-0.6h-0.6h-0.6h-0.6h-0.6h-0.6h-0.6h-0.6H260h-0.6h-0.6h-0.6h-0.6H257h-0.6h-0.6h-0.6h-0.6h-0.6h-0.6h-0.6h-0.6h-0.6h-0.6h-0.6
	h-0.6h-0.6h-0.6h-0.6h-0.6H247h-0.6h-0.6h-0.6h-0.6H244h-0.6h-0.6h-0.6h-0.6h-0.6h-0.6h-0.6h-0.6h-0.6h-0.6h-0.6h-0.6h-0.6h-0.6
	h-0.6h-0.6H234h-0.6h-0.6h-0.6h-0.6H231h-0.6h-0.6h-0.6h-0.6h-0.6h-0.6h-0.6h-0.6h-0.6h-0.6h-0.6H224h-0.6h-0.6h-0.6h-0.6H221h-0.6
	h-0.6h-0.6h-0.6h-0.6h-0.6h-0.6h-0.6h-0.6h-0.6h-0.6h-0.6h-0.6h-0.6h-0.6h-0.6H211h-0.6h-0.6h-0.6h-0.6H208h-0.6h-0.6h-0.6h-0.6
	h-0.6h-0.6h-0.6h-0.6h-0.6h-0.6h-0.6h-0.6h-0.6h-0.6h-0.6h-0.6H198h-0.6h-0.6h-0.6h-0.6h-0.6h-0.6h-0.6h-0.6h-0.6h-0.6h-0.6h-0.6
	h-0.6h-0.6h-0.6h-0.6H188h-0.6h-0.6h-0.6h-0.6H185h-0.6h-0.6h-0.6h-0.6h-0.6h-0.6h-0.6h-0.6h-0.6h-0.6h-0.6h-0.6h-0.6h-0.6h-0.6
	h-0.6H175h-0.6h-0.6h-0.6h-0.6H172h-0.6h-0.6h-0.6h-0.6h-0.6h-0.6h-0.6h-0.6h-0.6h-0.6h-0.6H165h-0.6h-0.6h-0.6h-0.6H162h-0.6h-0.6
	h-0.6h-0.6h-0.6h-0.6h-0.6h-0.6h-0.6h-0.6h-0.6h-0.6h-0.6h-0.6h-0.6h-0.6H152h-0.6h-0.6h-0.6h-0.6H149h-0.6h-0.6h-0.6h-0.6h-0.6
	h-0.6h-0.6h-0.6h-0.6h-0.6h-0.6h-0.6h-0.6h-0.6h-0.6h-0.6H139h-0.6h-0.6h-0.6h-0.6h-0.6h-0.6h-0.6h-0.6h-0.6h-0.6h-0.6h-0.6h-0.6
	h-0.6h-0.6h-0.6H129h-0.6h-0.6h-0.6h-0.6H126h-0.6h-0.6h-0.6h-0.6h-0.6h-0.6h-0.6h-0.6h-0.6h-0.6h-0.6h-0.6h-0.6h-0.6h-0.6h-0.6H116
	h-0.6h-0.6h-0.6h-0.6H113h-0.6h-0.6h-0.6h-0.6h-0.6h-0.6h-0.6h-0.6h-0.6h-0.6h-0.6H106h-0.6h-0.6h-0.6h-0.6H103h-0.6h-0.6h-0.6h-0.6
	h-0.6h-0.6h-0.6h-0.6h-0.6h-0.6h-0.6h-0.6h-0.6h-0.6h-0.6h-0.6H93h-0.6h-0.6h-0.6h-0.6H90h-0.6h-0.6h-0.6h-0.6h-0.6h-0.6h-0.6h-0.6
	h-0.6h-0.6h-0.6h-0.6h-0.6h-0.6h-0.6h-0.6H80V298.9z"/>
<line class="st8" x1="132.5" y1="300" x2="132.5" y2="163.4"/>
<rect x="131.9" y="163.4" class="st9" width="1.2" height="116.6"/>
<circle class="st10" cx="132.5" cy="143.4" r="5"/>
<line class="st11" x1="137.2" y1="300" x2="137.2" y2="172.8"/>
<rect x="136.6" y="172.8" class="st12" width="1.8" height="107.2"/>
<circle class="st13" cx="137.2" cy="152.8" r="5"/>
<line class="st14" x1="106" y1="300" x2="106" y2="97.2"/>
<rect x="104.8" y="97.2" class="st15" width="2.4" height="182.8"/>
<circle class="st16" cx="106" cy="77.2" r="5"/>
<g transform="translate(120, 20)">
	<g transform="translate(0,0)">
		<rect x="70" y="17" class="st5" width="10" height="10"/>
		<text transform="matrix(1 0 0 1 90 27)" class="st3 st2">A. shenzhenica - D. catenatum</text>
	</g>
	<g transform="translate(0,20)">
		<rect x="70" y="17" class="st6" width="10" height="10"/>
		<text transform="matrix(1 0 0 1 90 27)" class="st3 st2">A. shenzhenica - P. equestris</text>
	</g>
	<g transform="translate(0,40)">
		<rect x="70" y="17" class="st7" width="10" height="10"/>
		<text transform="matrix(1 0 0 1 90 27)" class="st3 st2">D. catenatum - P. equestris</text>
	</g>
</g>
<g transform="translate(75, 0)">
	<g transform="translate(0,300)">
		<line class="st0" x1="0" y1="0" x2="-6" y2="0"/>
		<text transform="matrix(1 0 0 1 -14.6738 3.84)" class="st1 st2">0</text>
	</g>
	<g transform="translate(0,275)">
		<line class="st0" x1="0" y1="0" x2="-6" y2="0"/>
		<text transform="matrix(1 0 0 1 -21.3477 3.84)" class="st1 st2">20</text>
	</g>
	<g transform="translate(0,250)">
		<line class="st0" x1="0" y1="0" x2="-6" y2="0"/>
		<text transform="matrix(1 0 0 1 -21.3477 3.84)" class="st1 st2">40</text>
	</g>
	<g transform="translate(0,225)">
		<line class="st0" x1="0" y1="0" x2="-6" y2="0"/>
		<text transform="matrix(1 0 0 1 -21.3477 3.84)" class="st1 st2">60</text>
	</g>
	<g transform="translate(0,200)">
		<line class="st0" x1="0" y1="0" x2="-6" y2="0"/>
		<text transform="matrix(1 0 0 1 -21.3477 3.84)" class="st1 st2">80</text>
	</g>
	<g transform="translate(0,175)">
		<line class="st0" x1="0" y1="0" x2="-6" y2="0"/>
		<text transform="matrix(1 0 0 1 -28.0215 3.84)" class="st1 st2">100</text>
	</g>
	<g transform="translate(0,150)">
		<line class="st0" x1="0" y1="0" x2="-6" y2="0"/>
		<text transform="matrix(1 0 0 1 -28.0215 3.84)" class="st1 st2">120</text>
	</g>
	<g transform="translate(0,125.00000000000001)">
		<line class="st0" x1="0" y1="0" x2="-6" y2="0"/>
		<text transform="matrix(1 0 0 1 -28.0215 3.84)" class="st1 st2">140</text>
	</g>
	<g transform="translate(0,99.99999999999999)">
		<line class="st0" x1="0" y1="0" x2="-6" y2="0"/>
		<text transform="matrix(1 0 0 1 -28.0215 3.84)" class="st1 st2">160</text>
	</g>
	<g transform="translate(0,75)">
		<line class="st0" x1="0" y1="0" x2="-6" y2="0"/>
		<text transform="matrix(1 0 0 1 -28.0215 3.84)" class="st1 st2">180</text>
	</g>
	<g transform="translate(0,50)">
		<line class="st0" x1="0" y1="0" x2="-6" y2="0"/>
		<text transform="matrix(1 0 0 1 -28.0215 3.84)" class="st1 st2">200</text>
	</g>
	<path d="M-1,50h1v250h-1"/>
</g>
<g>
	<text transform="matrix(6.123234e-17 -1 1 6.123234e-17 35 268.3857)" class="st1 st4">Number of retained duplicates</text>
</g>
<g>
	<rect x="79.6" y="295" class="st17" width="5.1" height="5"/>
	<rect x="85.5" y="291.9" class="st17" width="5.1" height="8.1"/>
	<rect x="91.4" y="286.7" class="st17" width="5.1" height="13.3"/>
	<rect x="97.3" y="295.4" class="st17" width="5.1" height="4.6"/>
	<rect x="103.2" y="295" class="st17" width="5.1" height="5"/>
	<rect x="109.1" y="272.1" class="st17" width="5.1" height="27.9"/>
	<rect x="115" y="264.2" class="st17" width="5.1" height="35.8"/>
	<rect x="120.9" y="253.8" class="st17" width="5.1" height="46.2"/>
	<rect x="126.8" y="225" class="st17" width="5.1" height="75"/>
	<rect x="132.7" y="230.9" class="st17" width="5.1" height="69.1"/>
	<rect x="138.6" y="221.2" class="st17" width="5.1" height="78.8"/>
	<rect x="144.5" y="250.2" class="st17" width="5.1" height="49.8"/>
	<rect x="150.4" y="244.4" class="st17" width="5.1" height="55.6"/>
	<rect x="156.3" y="265" class="st17" width="5.1" height="35"/>
	<rect x="162.2" y="242.4" class="st17" width="5.1" height="57.6"/>
	<rect x="168.1" y="255.9" class="st17" width="5.1" height="44.1"/>
	<rect x="174" y="258.3" class="st17" width="5.1" height="41.7"/>
	<rect x="179.9" y="265" class="st17" width="5.1" height="35"/>
	<rect x="185.8" y="267.6" class="st17" width="5.1" height="32.4"/>
	<rect x="191.7" y="275" class="st17" width="5.1" height="25"/>
	<rect x="197.6" y="281.2" class="st17" width="5.1" height="18.8"/>
	<rect x="203.5" y="271.9" class="st17" width="5.1" height="28.1"/>
	<rect x="209.4" y="283.1" class="st17" width="5.1" height="16.9"/>
	<rect x="215.3" y="278.1" class="st17" width="5.1" height="21.9"/>
	<rect x="221.2" y="283.1" class="st17" width="5.1" height="16.9"/>
	<rect x="227.1" y="286.5" class="st17" width="5.1" height="13.5"/>
	<rect x="233" y="289.8" class="st17" width="5.1" height="10.2"/>
	<rect x="238.9" y="281.5" class="st17" width="5.1" height="18.5"/>
	<rect x="244.8" y="289.2" class="st17" width="5.1" height="10.8"/>
	<rect x="250.7" y="290" class="st17" width="5.1" height="10"/>
	<rect x="256.6" y="288.3" class="st17" width="5.1" height="11.7"/>
	<rect x="262.5" y="284.9" class="st17" width="5.1" height="15.1"/>
	<rect x="268.4" y="292.5" class="st17" width="5.1" height="7.5"/>
	<rect x="274.3" y="293.3" class="st17" width="5.1" height="6.7"/>
	<rect x="280.2" y="290.6" class="st17" width="5.1" height="9.4"/>
	<rect x="286.1" y="291.5" class="st17" width="5.1" height="8.5"/>
	<rect x="292" y="294.4" class="st17" width="5.1" height="5.6"/>
	<rect x="297.9" y="292.5" class="st17" width="5.1" height="7.5"/>
	<rect x="303.8" y="297.1" class="st17" width="5.1" height="2.9"/>
	<rect x="309.7" y="295.6" class="st17" width="5.1" height="4.4"/>
	<rect x="315.6" y="289.4" class="st17" width="5.1" height="10.6"/>
	<rect x="321.5" y="296.2" class="st17" width="5.1" height="3.8"/>
	<rect x="327.4" y="298.1" class="st17" width="5.1" height="1.9"/>
	<rect x="333.3" y="293.8" class="st17" width="5.1" height="6.2"/>
	<rect x="339.2" y="292.1" class="st17" width="5.1" height="7.9"/>
	<rect x="345.1" y="291.9" class="st17" width="5.1" height="8.1"/>
	<rect x="351" y="297.5" class="st17" width="5.1" height="2.5"/>
	<rect x="356.9" y="292.5" class="st17" width="5.1" height="7.5"/>
	<rect x="362.8" y="295" class="st17" width="5.1" height="5"/>
	<rect x="368.7" y="295.4" class="st17" width="5.1" height="4.6"/>
</g>
<g transform="translate(120,140)">
</g>
<g transform="translate(515,100)">
	<path class="st18" d="M0,68.8V25h135"/>
	<path class="st18" d="M0,68.8v43.8h45"/>
	<path class="st18" d="M45,112.5V75h90"/>
	<path class="st18" d="M45,112.5V150h45"/>
	<path class="st18" d="M90,150v25h45"/>
	<path class="st18" d="M90,150v-25h45"/>
	<g transform="translate(0,68.75)">
	</g>
	<g transform="translate(45.00000000000001,112.5)">
	</g>
	<g transform="translate(90.00000000000001,150)">
	</g>
	<g transform="translate(135,125)">
		<text transform="matrix(1 0 0 1 8 3)" class="st3 st4">P. equestris</text>
	</g>
	<g transform="translate(135,175)">
		<text transform="matrix(1 0 0 1 8 3)" class="st3 st4">D. catenatum</text>
	</g>
	<g transform="translate(135,75)">
		<text transform="matrix(1 0 0 1 8 3)" class="st3 st4">A. shenzhenica</text>
	</g>
	<g transform="translate(135,25)">
		<text transform="matrix(1 0 0 1 8 3)" class="st3 st4">A. officinalis</text>
	</g>
	<circle class="st10" cx="41" cy="112.5" r="8"/>
	<circle class="st13" cx="49" cy="112.5" r="8"/>
	<circle class="st16" cx="90" cy="150" r="8"/>
</g>
<g transform="translate(120,120)">
</g>
<g transform="translate(120,100)">
</g>
<g transform="translate(120,80)">
	<g transform="translate(0, 0)">
		<rect x="70" y="17" class="st19" width="10" height="10"/>
		<text transform="matrix(1 0 0 1 90 27)" class="st20 st3 st2">A. shenzhenica</text>
		<text transform="matrix(1 0 0 1 172.0547 27)" class="st20 st1 st2"> - Anchors</text>
	</g>
</g>
</svg>
