<svg xmlns="http://www.w3.org/2000/svg" width="1000" height="350"><g class="axis axis--x" transform="translate(0,300)"><g class="tick" transform="translate(80,0)" style="opacity: 1;"><line y2="6" x2="0" style="stroke-width: 1; stroke: black;"/><text dy=".71em" y="8" x="0" font-size="12px" style="text-anchor: middle;">0</text></g><g class="tick" transform="translate(159,0)" style="opacity: 1;"><line y2="6" x2="0" style="stroke-width: 1; stroke: black;"/><text dy=".71em" y="8" x="0" font-size="12px" style="text-anchor: middle;">1</text></g><g class="tick" transform="translate(238,0)" style="opacity: 1;"><line y2="6" x2="0" style="stroke-width: 1; stroke: black;"/><text dy=".71em" y="8" x="0" font-size="12px" style="text-anchor: middle;">2</text></g><g class="tick" transform="translate(317,0)" style="opacity: 1;"><line y2="6" x2="0" style="stroke-width: 1; stroke: black;"/><text dy=".71em" y="8" x="0" font-size="12px" style="text-anchor: middle;">3</text></g><g class="tick" transform="translate(396,0)" style="opacity: 1;"><line y2="6" x2="0" style="stroke-width: 1; stroke: black;"/><text dy=".71em" y="8" x="0" font-size="12px" style="text-anchor: middle;">4</text></g><g class="tick" transform="translate(475,0)" style="opacity: 1;"><line y2="6" x2="0" style="stroke-width: 1; stroke: black;"/><text dy=".71em" y="8" x="0" font-size="12px" style="text-anchor: middle;">5</text></g><path class="domain" d="M80,1V0H475V1"/></g><g class="xTitle"><text x="262.5" y="340" text-anchor="middle"><tspan style="font-size: 14px;"><tspan style="font-style: italic;">K</tspan><tspan dx="1px" dy="2px" style="font-size: 12px;">s</tspan></tspan></text></g><g class="axis axis--yt" transform="translate(75, 0)" font-size="12px"><g class="tick" transform="translate(0,300)" style="opacity: 1;"><line x2="-6" y2="0" style="stroke-width: 1; stroke: black;"/><text dy=".32em" x="-8" y="0" style="text-anchor: end;">0.0</text></g><g class="tick" transform="translate(0,275)" style="opacity: 1;"><line x2="-6" y2="0" style="stroke-width: 1; stroke: black;"/><text dy=".32em" x="-8" y="0" style="text-anchor: end;">0.2</text></g><g class="tick" transform="translate(0,250)" style="opacity: 1;"><line x2="-6" y2="0" style="stroke-width: 1; stroke: black;"/><text dy=".32em" x="-8" y="0" style="text-anchor: end;">0.4</text></g><g class="tick" transform="translate(0,225)" style="opacity: 1;"><line x2="-6" y2="0" style="stroke-width: 1; stroke: black;"/><text dy=".32em" x="-8" y="0" style="text-anchor: end;">0.6</text></g><g class="tick" transform="translate(0,200)" style="opacity: 1;"><line x2="-6" y2="0" style="stroke-width: 1; stroke: black;"/><text dy=".32em" x="-8" y="0" style="text-anchor: end;">0.8</text></g><g class="tick" transform="translate(0,175)" style="opacity: 1;"><line x2="-6" y2="0" style="stroke-width: 1; stroke: black;"/><text dy=".32em" x="-8" y="0" style="text-anchor: end;">1.0</text></g><g class="tick" transform="translate(0,150)" style="opacity: 1;"><line x2="-6" y2="0" style="stroke-width: 1; stroke: black;"/><text dy=".32em" x="-8" y="0" style="text-anchor: end;">1.2</text></g><g class="tick" transform="translate(0,125.00000000000001)" style="opacity: 1;"><line x2="-6" y2="0" style="stroke-width: 1; stroke: black;"/><text dy=".32em" x="-8" y="0" style="text-anchor: end;">1.4</text></g><g class="tick" transform="translate(0,99.99999999999999)" style="opacity: 1;"><line x2="-6" y2="0" style="stroke-width: 1; stroke: black;"/><text dy=".32em" x="-8" y="0" style="text-anchor: end;">1.6</text></g><g class="tick" transform="translate(0,75)" style="opacity: 1;"><line x2="-6" y2="0" style="stroke-width: 1; stroke: black;"/><text dy=".32em" x="-8" y="0" style="text-anchor: end;">1.8</text></g><g class="tick" transform="translate(0,50)" style="opacity: 1;"><line x2="-6" y2="0" style="stroke-width: 1; stroke: black;"/><text dy=".32em" x="-8" y="0" style="text-anchor: end;">2.0</text></g><path class="domain" d="M-1,50H0V300H-1"/></g><g class="y2Title"><text y="175" x="35" text-anchor="middle" font-size="14px" transform="rotate(-90, 35, 175)">Ortholog Density</text></g><path class="area path" d="M80,300L80.79,300L81.58000000000001,300L82.36999999999999,299.9939996911558L83.16,299.9873651567618L83.95,299.98101138979877L84.74,299.9749383902667L85.53,299.96914615816564L86.32,299.9636346934956L87.11,299.95840399625644L87.9,299.95345406644833L88.69,299.94878490407115L89.48,299.944396509125L90.27000000000001,299.9402888816097L91.05999999999999,299.93646202152553L91.85,299.93291592887226L92.64,299.9296506036499L93.43,299.92666604585867L94.22,299.9239622554984L95.00999999999999,299.92153923256905L95.8,299.9193969770707L96.59,299.9175354890033L97.38,299.9159547683669L98.16999999999999,299.91465481516144L98.96,299.913635629387L99.75,299.9095252222742L100.54,299.9057657463734L101.33,299.90211212681334L102.12,299.89576818671037L102.91,299.8899857814693L103.69999999999999,299.8847649110903L104.49,299.8790590149743L105.28,299.8715639284043L106.07,299.8613657533926L106.86000000000001,299.84853327795975L107.65,299.8365081843706L108.44,299.8168119560131L109.22999999999999,299.79353633598504L110.02000000000001,299.7705159967243L110.81,299.74694135938233L111.60000000000001,299.72016262517553L112.38999999999999,299.6872061441273L113.18,299.639568327094L113.97,299.56817029948525L114.76,299.4778786523163L115.55,299.37760691623777L116.34,299.261758905007L117.13,299.11975787786616L117.92000000000002,298.96118639213853L118.71000000000001,298.7789155591951L119.5,298.5600284627983L120.29,298.2819791764156L121.08000000000001,297.95010886523164L121.87,297.52977360786144L122.66,297.0446259756668L123.45000000000002,296.500359749649L124.24000000000001,295.8955318483856L125.03,295.20997518249885L125.82,294.4429753603182L126.61,293.58499663547025L127.4,292.6108763921385L128.19,291.50247906176884L128.98,290.3024113125877L129.77,288.99428776789887L130.56,287.57834563406647L131.35,286.03726569489936L132.14,284.3988737225082L132.93,282.6341395437529L133.72000000000003,280.70855546560597L134.51,278.594161888161L135.3,276.3576317267198L136.08999999999997,274.00183975900796L136.88,271.52465764155363L137.67,268.9097442044923L138.45999999999998,266.17345512634535L139.25,263.3038735072532L140.04000000000002,260.2695521244736L140.82999999999998,257.12626998362185L141.62,253.87463068554055L142.41,250.53064596162844L143.2,247.10252158399618L143.99,243.62268251988766L144.78,240.0597918460459L145.57,236.46534104585862L146.36,232.81883828731858L147.14999999999998,229.15971178287322L147.94,225.4885970145063L148.73000000000002,221.84712236546557L149.51999999999998,218.2753741951334L150.31,214.76293057089373L151.10000000000002,211.3299499274683L151.89,207.928311050538L152.68,204.59502162143212L153.47,201.3645228685072L154.26,198.25282894478238L155.05,195.23864882779574L155.84,192.37508613242866L156.63,189.66518637108095L157.42000000000002,187.10441455311195L158.21,184.70539834113234L159,182.50886312821692L159.79000000000002,180.47959589845556L160.58,178.61720175947573L161.37,176.92640964904064L162.16000000000003,175.39642055685528L162.95000000000002,174.03737938933062L163.74,172.89663991810932L164.53,171.95785391202656L165.32,171.26049505381346L166.11,170.73596901731418L166.90000000000003,170.3471921314925L167.69000000000003,170.07977908750544L168.48000000000002,169.99522799017316L169.26999999999998,170.03370177585407L170.06,170.2641564693496L170.85,170.66361948291973L171.64,171.26731449461886L172.43,172.06073644829195L173.22,172.97884050070226L174.01,173.92732536499733L174.8,174.99818924894706L175.59,176.1670944384651L176.38,177.4577209709874L177.17,178.84307848385598L177.95999999999998,180.30812262985515L178.75,181.8508795999066L179.54000000000002,183.39527157697688L180.33,185.0184805732335L181.12,186.69744907580704L181.91,188.40547409452532L182.7,190.13366039775374L183.49,191.9089647683665L184.28,193.6811943144595L185.07,195.4791884698174L185.86,197.2250465278427L186.65,198.97742415301863L187.44,200.7085314974263L188.23000000000002,202.46038540711248L189.01999999999998,204.2614604796444L189.80999999999997,206.07956470753376L190.6,207.91798609499307L191.39,209.69519611839013L192.17999999999998,211.43997534861919L192.97,213.19356392372487L193.76,214.953515783809L194.55,216.67227049134289L195.33999999999997,218.38846746373426L196.13,220.1145580416471L196.92,221.7968243893309L197.70999999999998,223.44918265325225L198.5,225.1248711956014L199.29,226.8007735563876L200.07999999999998,228.46040700280759L200.87,230.10829036031816L201.66000000000003,231.71376315863353L202.45,233.2421906504444L203.23999999999998,234.75842052409925L204.03,236.23068742629832L204.82,237.68803834815168L205.61,239.11075900795512L206.39999999999998,240.47398094291052L207.19,241.7839016588676L207.98000000000002,243.05441333177353L208.76999999999998,244.23701451099677L209.56,245.4044878217126L210.34999999999997,246.53747783809075L211.14,247.67789925596625L211.92999999999998,248.82450562938692L212.72,249.94626877398227L213.51,250.99774396116044L214.29999999999998,252.009892938699L215.08999999999997,252.96316641787553L215.88,253.89493520355637L216.67,254.80537496490408L217.45999999999998,255.69781040243322L218.25,256.5826970917173L219.04,257.4225034043051L219.82999999999998,258.25218951099674L220.62,259.0627412119794L221.40999999999997,259.84816218530653L222.2,260.62151120496026L222.98999999999998,261.3853037435657L223.78,262.13329314693493L224.57,262.8640681516144L225.35999999999999,263.5399154375292L226.15,264.1845114131961L226.94,264.77020605287794L227.73000000000002,265.3354371689284L228.51999999999998,265.8870137927001L229.31,266.4168652363127L230.1,266.9273921595695L230.89000000000001,267.4052639213851L231.68,267.86351554281697L232.47,268.3110701286851L233.26000000000002,268.75198229761355L234.05,269.2057193472158L234.84000000000003,269.6537983715489L235.63,270.11256826860085L236.42000000000002,270.5460959241928L237.21,270.9712638067384L238,271.4057864950866L238.79,271.85930175947584L239.58,272.3276652480112L240.37,272.80017841600375L241.16000000000003,273.2749910622368L241.95,273.71521676883475L242.74,274.14805429808143L243.52999999999997,274.54881331305575L244.32000000000002,274.90265639213857L245.10999999999999,275.25211137810015L245.90000000000003,275.59023454843236L246.69,275.93272765325224L247.48000000000002,276.27350703088445L248.26999999999998,276.6167798689752L249.06,276.9606035657464L249.85000000000002,277.28379341132427L250.64000000000001,277.61842361020126L251.43,277.9489295039776L252.22000000000003,278.27682564342535L253.01000000000002,278.6068365722976L253.8,278.9192757627515L254.58999999999997,279.2104309780065L255.38000000000002,279.5076983809078L256.17,279.80928145999064L256.96000000000004,280.1288536944314L257.75,280.4417148853533L258.53999999999996,280.75088908048673L259.33000000000004,281.04655690219937L260.12,281.31779819606925L260.91,281.57115282171264L261.7,281.83555862891905L262.49,282.1112600327562L263.28,282.3905004328498L264.07000000000005,282.66688798315397L264.86,282.95299142021526L265.65,283.2281224871315L266.44,283.48541396350026L267.23,283.73003744501636L268.02,283.95501806504444L268.81,284.1669754422087L269.6,284.3730213172672L270.39,284.5650215910154L271.18,284.7635585446888L271.97,284.9688277678989L272.76,285.16580765559195L273.55,285.38343865465606L274.34,285.60496823584464L275.13000000000005,285.8430054468881L275.92,286.0669782873187L276.71000000000004,286.27113136874124L277.5,286.4664055942911L278.28999999999996,286.6618187505849L279.08,286.85737197473094L279.87,287.0584588441741L280.66,287.2557092723444L281.45,287.4335363991577L282.24,287.60831955077214L283.03,287.78986457182964L283.82,287.9685312704726L284.61,288.1348214459523L285.4,288.2982438558727L286.19,288.46876739354235L286.98,288.6349890828264L287.77000000000004,288.8002597707066L288.56,288.96649297145535L289.35,289.1278125737014L290.14,289.2826110786149L290.93,289.4256997707066L291.72,289.57051309780064L292.51,289.70556232335053L293.3,289.83548519185774L294.09000000000003,289.95484774450165L294.88000000000005,290.0874255287787L295.67,290.2395570940571L296.46000000000004,290.4031109241928L297.25,290.5522397028545L298.03999999999996,290.693498008891L298.83000000000004,290.82234169162376L299.61999999999995,290.9379049064109L300.41,291.02230603182034L301.2,291.1019155381376L301.99,291.16980476602714L302.78,291.23331694899395L303.57000000000005,291.2949043589144L304.35999999999996,291.3544074145999L305.15000000000003,291.4117320379036L305.94,291.4743374192794L306.73,291.52915331539543L307.52,291.5702642653252L308.31,291.6121899181095L309.1,291.6557338301357L309.89000000000004,291.69306993916706L310.67999999999995,291.731947594759L311.47,291.7925990945251L312.26,291.8466142138512L313.05000000000007,291.8999502339729L313.84,291.9548149274684L314.63,292.02880719700516L315.41999999999996,292.0995626672906L316.21000000000004,292.15798397519893L317,292.2128069255966L317.78999999999996,292.26185274918106L318.58,292.3046089541413L319.36999999999995,292.3380877187646L320.16,292.37127200046797L320.95,292.39226519185775L321.74,292.41921452035564L322.53,292.4551263804399L323.32000000000005,292.496055982686L324.11,292.5412711277492L324.9,292.59194971923256L325.69,292.64529757370144L326.47999999999996,292.6897882896584L327.27000000000004,292.7385864904071L328.06,292.8002798759944L328.85,292.8732899719232L329.64,292.9406330720637L330.42999999999995,292.992113121198L331.22,293.04055286616756L332.01,293.0771383083762L332.8,293.1226178872251L333.59,293.1852276906879L334.38000000000005,293.263289887693L335.17,293.3547847285915L335.96000000000004,293.4610732264857L336.75,293.57061167056617L337.53999999999996,293.6748687739822L338.33000000000004,293.7659112985493L339.11999999999995,293.86430637108094L339.91,293.95475313523633L340.69999999999993,294.03868395414133L341.49,294.0956664693495L342.28,294.1448923982218L343.07000000000005,294.1983092021526L343.85999999999996,294.24239218062706L344.65,294.2841723397286L345.44,294.3253094852597L346.23,294.36301424192794L347.02,294.39408548900326L347.81,294.4250450959289L348.59999999999997,294.4562923069724L349.39000000000004,294.4941192746841L350.18,294.5332715559195L350.97,294.57404059429103L351.75999999999993,294.6071249578849L352.55,294.6331603252223L353.34,294.66402721572297L354.13000000000005,294.69258183200753L354.91999999999996,294.71472401497425L355.71000000000004,294.73327616518486L356.5,294.7638968226486L357.28999999999996,294.79570962564344L358.08,294.8176796630791L358.86999999999995,294.83153726953674L359.65999999999997,294.845489017314L360.45,294.8642068132896L361.24,294.89365111137107L362.03,294.92863188348156L362.82,294.9628543238184L363.61,295.0027366495087L364.4,295.0488441998128L365.19,295.09511081890497L365.97999999999996,295.1336863757604L366.77,295.18035076509125L367.56,295.2313976532522L368.35,295.2890158750585L369.14,295.3297399976603L369.92999999999995,295.3583120987365L370.71999999999997,295.38681332007485L371.51,295.4198599344876L372.3,295.44441559429106L373.09,295.4798538067384L373.88,295.52790776321945L374.67,295.5789093495555L375.46000000000004,295.63181638511935L376.25,295.68204475198877L377.03999999999996,295.7221841974731L377.83,295.75144019887694L378.62,295.79667042817033L379.41,295.8494376415536L380.2,295.90185859850254L380.99,295.94456769770704L381.78000000000003,295.9848923444081L382.57000000000005,296.02853294571827L383.36,296.066232620496L384.15,296.10470973327097L384.94,296.13568836218997L385.73,296.14899466775853L386.52000000000004,296.1592584440805L387.31,296.1734986944315L388.1,296.19855746139444L388.89,296.22670304866637L389.68,296.2535262494151L390.47,296.2717179854937L391.26,296.2854995109967L392.05,296.30067628919045L392.84000000000003,296.3206800982686L393.63000000000005,296.33538183200744L394.42,296.3407858750585L395.21000000000004,296.3397038254563L396,296.3464629925129L396.79,296.3569955755732L397.58,296.3647696256435L398.37,296.3674129036032L399.16,296.3613960645765L399.95,296.3517158844174L400.74,296.35524965138046L401.53000000000003,296.3668349157698L402.32,296.3827834464202L403.10999999999996,296.3967495484324L403.9,296.4159335025737L404.69000000000005,296.44007882077676L405.48,296.45891937529245L406.27,296.4743475386055L407.05999999999995,296.49316300655124L407.85,296.52064276087975L408.64000000000004,296.543664749649L409.43,296.56889606925597L410.21999999999997,296.59767911090313L411.01,296.63427924426765L411.80000000000007,296.66326149040714L412.59,296.69716351193256L413.38,296.7385616237716L414.17,296.7830025105288L414.96000000000004,296.82914740290124L415.75,296.87027108563404L416.53999999999996,296.8954986218999L417.3299999999999,296.9098477959757L418.12,296.9277301614413L418.91,296.9462611698643L419.7,296.9609923420683L420.48999999999995,296.9809854749649L421.28000000000003,297.0071598432382L422.07000000000005,297.0355333013571L422.86,297.057074129621L423.65,297.08482580018716L424.44000000000005,297.11147449695835L425.22999999999996,297.1245834861956L426.02000000000004,297.138696008423L426.80999999999995,297.1614730907815L427.6,297.19501971689283L428.39,297.22538696069256L429.17999999999995,297.23314142723444L429.96999999999997,297.23832028778656L430.76000000000005,297.2497486523163L431.55,297.2615193776322L432.34,297.2711366799251L433.13,297.28215555217594L433.9200000000001,297.2932829761348L434.71000000000004,297.3056907346748L435.5,297.32219421619095L436.28999999999996,297.34360163781L437.08,297.3718610271409L437.87,297.4029951661207L438.66,297.4296371525503L439.44999999999993,297.451249043051L440.24,297.4756051333645L441.03000000000003,297.50261820308845L441.82,297.53483620963965L442.60999999999996,297.55550488301355L443.4,297.5694158352831L444.19000000000005,297.58357608797377L444.98,297.5940320355639L445.77,297.59580247777257L446.55999999999995,297.60089138043986L447.35,297.61608431679923L448.14000000000004,297.63305810481984L448.93,297.6476058516612L449.71999999999997,297.6609329340197L450.51,297.6740439939167L451.3,297.68191572297616L452.09,297.69178728825455L452.88,297.70573469817504L453.67,297.7191182639214L454.46,297.7375169536734L455.25,297.75436855872715L456.03999999999996,297.76753427000466L456.83,297.78236378100144L457.62,297.8002680322883L458.40999999999997,297.8196523069724L459.2,297.83308320308845L459.99,297.85373785914834L460.78000000000003,297.8840789915769L461.57,297.9149193846514L462.36,297.94138205194196L463.15,297.974252646233L463.94000000000005,298.01244965138045L464.72999999999996,298.05532897987837L465.52,298.1018537997192L466.31,298.1545089237248L467.1,298.21438906410856L467.89,298.27742112073L468.67999999999995,298.3267649087506L469.46999999999997,298.37593219934485L470.26000000000005,298.4296966284511L471.05,298.48109429340195L471.84,298.532696750117L472.63,298.58521008656993L473.42,298.6417397379504L474.21000000000004,298.6999360809546L475,298.76235011230693L475,300L474.21000000000004,300L473.42,300L472.63,300L471.84,300L471.05,300L470.26000000000005,300L469.46999999999997,300L468.67999999999995,300L467.89,300L467.1,300L466.31,300L465.52,300L464.72999999999996,300L463.94000000000005,300L463.15,300L462.36,300L461.57,300L460.78000000000003,300L459.99,300L459.2,300L458.40999999999997,300L457.62,300L456.83,300L456.03999999999996,300L455.25,300L454.46,300L453.67,300L452.88,300L452.09,300L451.3,300L450.51,300L449.71999999999997,300L448.93,300L448.14000000000004,300L447.35,300L446.55999999999995,300L445.77,300L444.98,300L444.19000000000005,300L443.4,300L442.60999999999996,300L441.82,300L441.03000000000003,300L440.24,300L439.44999999999993,300L438.66,300L437.87,300L437.08,300L436.28999999999996,300L435.5,300L434.71000000000004,300L433.9200000000001,300L433.13,300L432.34,300L431.55,300L430.76000000000005,300L429.96999999999997,300L429.17999999999995,300L428.39,300L427.6,300L426.80999999999995,300L426.02000000000004,300L425.22999999999996,300L424.44000000000005,300L423.65,300L422.86,300L422.07000000000005,300L421.28000000000003,300L420.48999999999995,300L419.7,300L418.91,300L418.12,300L417.3299999999999,300L416.53999999999996,300L415.75,300L414.96000000000004,300L414.17,300L413.38,300L412.59,300L411.80000000000007,300L411.01,300L410.21999999999997,300L409.43,300L408.64000000000004,300L407.85,300L407.05999999999995,300L406.27,300L405.48,300L404.69000000000005,300L403.9,300L403.10999999999996,300L402.32,300L401.53000000000003,300L400.74,300L399.95,300L399.16,300L398.37,300L397.58,300L396.79,300L396,300L395.21000000000004,300L394.42,300L393.63000000000005,300L392.84000000000003,300L392.05,300L391.26,300L390.47,300L389.68,300L388.89,300L388.1,300L387.31,300L386.52000000000004,300L385.73,300L384.94,300L384.15,300L383.36,300L382.57000000000005,300L381.78000000000003,300L380.99,300L380.2,300L379.41,300L378.62,300L377.83,300L377.03999999999996,300L376.25,300L375.46000000000004,300L374.67,300L373.88,300L373.09,300L372.3,300L371.51,300L370.71999999999997,300L369.92999999999995,300L369.14,300L368.35,300L367.56,300L366.77,300L365.97999999999996,300L365.19,300L364.4,300L363.61,300L362.82,300L362.03,300L361.24,300L360.45,300L359.65999999999997,300L358.86999999999995,300L358.08,300L357.28999999999996,300L356.5,300L355.71000000000004,300L354.91999999999996,300L354.13000000000005,300L353.34,300L352.55,300L351.75999999999993,300L350.97,300L350.18,300L349.39000000000004,300L348.59999999999997,300L347.81,300L347.02,300L346.23,300L345.44,300L344.65,300L343.85999999999996,300L343.07000000000005,300L342.28,300L341.49,300L340.69999999999993,300L339.91,300L339.11999999999995,300L338.33000000000004,300L337.53999999999996,300L336.75,300L335.96000000000004,300L335.17,300L334.38000000000005,300L333.59,300L332.8,300L332.01,300L331.22,300L330.42999999999995,300L329.64,300L328.85,300L328.06,300L327.27000000000004,300L326.47999999999996,300L325.69,300L324.9,300L324.11,300L323.32000000000005,300L322.53,300L321.74,300L320.95,300L320.16,300L319.36999999999995,300L318.58,300L317.78999999999996,300L317,300L316.21000000000004,300L315.41999999999996,300L314.63,300L313.84,300L313.05000000000007,300L312.26,300L311.47,300L310.67999999999995,300L309.89000000000004,300L309.1,300L308.31,300L307.52,300L306.73,300L305.94,300L305.15000000000003,300L304.35999999999996,300L303.57000000000005,300L302.78,300L301.99,300L301.2,300L300.41,300L299.61999999999995,300L298.83000000000004,300L298.03999999999996,300L297.25,300L296.46000000000004,300L295.67,300L294.88000000000005,300L294.09000000000003,300L293.3,300L292.51,300L291.72,300L290.93,300L290.14,300L289.35,300L288.56,300L287.77000000000004,300L286.98,300L286.19,300L285.4,300L284.61,300L283.82,300L283.03,300L282.24,300L281.45,300L280.66,300L279.87,300L279.08,300L278.28999999999996,300L277.5,300L276.71000000000004,300L275.92,300L275.13000000000005,300L274.34,300L273.55,300L272.76,300L271.97,300L271.18,300L270.39,300L269.6,300L268.81,300L268.02,300L267.23,300L266.44,300L265.65,300L264.86,300L264.07000000000005,300L263.28,300L262.49,300L261.7,300L260.91,300L260.12,300L259.33000000000004,300L258.53999999999996,300L257.75,300L256.96000000000004,300L256.17,300L255.38000000000002,300L254.58999999999997,300L253.8,300L253.01000000000002,300L252.22000000000003,300L251.43,300L250.64000000000001,300L249.85000000000002,300L249.06,300L248.26999999999998,300L247.48000000000002,300L246.69,300L245.90000000000003,300L245.10999999999999,300L244.32000000000002,300L243.52999999999997,300L242.74,300L241.95,300L241.16000000000003,300L240.37,300L239.58,300L238.79,300L238,300L237.21,300L236.42000000000002,300L235.63,300L234.84000000000003,300L234.05,300L233.26000000000002,300L232.47,300L231.68,300L230.89000000000001,300L230.1,300L229.31,300L228.51999999999998,300L227.73000000000002,300L226.94,300L226.15,300L225.35999999999999,300L224.57,300L223.78,300L222.98999999999998,300L222.2,300L221.40999999999997,300L220.62,300L219.82999999999998,300L219.04,300L218.25,300L217.45999999999998,300L216.67,300L215.88,300L215.08999999999997,300L214.29999999999998,300L213.51,300L212.72,300L211.92999999999998,300L211.14,300L210.34999999999997,300L209.56,300L208.76999999999998,300L207.98000000000002,300L207.19,300L206.39999999999998,300L205.61,300L204.82,300L204.03,300L203.23999999999998,300L202.45,300L201.66000000000003,300L200.87,300L200.07999999999998,300L199.29,300L198.5,300L197.70999999999998,300L196.92,300L196.13,300L195.33999999999997,300L194.55,300L193.76,300L192.97,300L192.17999999999998,300L191.39,300L190.6,300L189.80999999999997,300L189.01999999999998,300L188.23000000000002,300L187.44,300L186.65,300L185.86,300L185.07,300L184.28,300L183.49,300L182.7,300L181.91,300L181.12,300L180.33,300L179.54000000000002,300L178.75,300L177.95999999999998,300L177.17,300L176.38,300L175.59,300L174.8,300L174.01,300L173.22,300L172.43,300L171.64,300L170.85,300L170.06,300L169.26999999999998,300L168.48000000000002,300L167.69000000000003,300L166.90000000000003,300L166.11,300L165.32,300L164.53,300L163.74,300L162.95000000000002,300L162.16000000000003,300L161.37,300L160.58,300L159.79000000000002,300L159,300L158.21,300L157.42000000000002,300L156.63,300L155.84,300L155.05,300L154.26,300L153.47,300L152.68,300L151.89,300L151.10000000000002,300L150.31,300L149.51999999999998,300L148.73000000000002,300L147.94,300L147.14999999999998,300L146.36,300L145.57,300L144.78,300L143.99,300L143.2,300L142.41,300L141.62,300L140.82999999999998,300L140.04000000000002,300L139.25,300L138.45999999999998,300L137.67,300L136.88,300L136.08999999999997,300L135.3,300L134.51,300L133.72000000000003,300L132.93,300L132.14,300L131.35,300L130.56,300L129.77,300L128.98,300L128.19,300L127.4,300L126.61,300L125.82,300L125.03,300L124.24000000000001,300L123.45000000000002,300L122.66,300L121.87,300L121.08000000000001,300L120.29,300L119.5,300L118.71000000000001,300L117.92000000000002,300L117.13,300L116.34,300L115.55,300L114.76,300L113.97,300L113.18,300L112.38999999999999,300L111.60000000000001,300L110.81,300L110.02000000000001,300L109.22999999999999,300L108.44,300L107.65,300L106.86000000000001,300L106.07,300L105.28,300L104.49,300L103.69999999999999,300L102.91,300L102.12,300L101.33,300L100.54,300L99.75,300L98.96,300L98.16999999999999,300L97.38,300L96.59,300L95.8,300L95.00999999999999,300L94.22,300L93.43,300L92.64,300L91.85,300L91.05999999999999,300L90.27000000000001,300L89.48,300L88.69,300L87.9,300L87.11,300L86.32,300L85.53,300L84.74,300L83.95,300L83.16,300L82.36999999999999,300L81.58000000000001,300L80.79,300L80,300Z" fill-opacity="0.5" data-tippy-content="&lt;span style='color: white; background-color: #006d2c;'&gt;&lt;i&gt;A. officinalis - E. guineensis&lt;/i&gt;&lt;/span&gt; &lt;br&gt; Peak: &lt;span style='color: red;'&gt;1.12&lt;/span&gt; (Density: &lt;span style='color: #006d2c;'&gt;1.04&lt;/span&gt;)&lt;br&gt;95% CIs: &lt;span style='color: white; background-color: #006d2c';&gt;1.11 &lt;--&gt; 1.14&lt;/span&gt;" style="fill: rgb(0, 109, 44);"/><path class="area path" d="M80,299.96979012128674L80.79,299.966014413781L81.58000000000001,299.96244963965546L82.36999999999999,299.9590957989102L83.16,299.95595289154505L83.95,299.9530209175602L84.74,299.9502998769555L85.53,299.9432309087713L86.32,299.93594948848653L87.11,299.9290899349622L87.9,299.9226522481983L88.69,299.91663642819475L89.48,299.91104247495167L90.27000000000001,299.90587038846894L91.05999999999999,299.90112016874673L91.85,299.89679181578487L92.64,299.8928853295834L93.43,299.88940071014235L94.22,299.883934540341L95.00999999999999,299.8762228159606L95.8,299.86914389172085L96.59,299.86269776762174L97.38,299.8568844436632L98.16999999999999,299.8517039198453L98.96,299.84715619616804L99.75,299.84324127263136L100.54,299.838386640886L101.33,299.8306327298295L102.12,299.8190619792582L102.91,299.8059769484971L103.69999999999999,299.7909015398137L104.49,299.77709173141153L105.28,299.76454752329056L106.07,299.75019436104765L106.86000000000001,299.7351379363684L107.65,299.72155804535066L108.44,299.70945468799437L109.22999999999999,299.6988278642995L110.02000000000001,299.6896775742661L110.81,299.67892926349094L111.60000000000001,299.6676886236597L112.38999999999999,299.65813545087013L113.18,299.65026974512216L113.97,299.6440915064159L114.76,299.63639876603975L115.55,299.6280901001934L116.34,299.6212579680084L117.13,299.6157442643698L117.92000000000002,299.6067036596942L118.71000000000001,299.5993505220601L119.5,299.59368485146774L120.29,299.589706647917L121.08000000000001,299.58741591140796L121.87,299.5868126419405L122.66,299.5878968395148L123.45000000000002,299.5905630796274L124.24000000000001,299.5898585621374L125.03,299.58633023730005L125.82,299.5838580980841L126.61,299.5830734259097L127.4,299.58397622077695L128.19,299.58656648268584L128.98,299.59084421163647L129.77,299.59680940762877L130.56,299.6003109017402L131.35,299.6046519107049L132.14,299.60617992265776L132.93,299.60934181402706L133.72000000000003,299.6121649885744L134.51,299.61197725786604L135.3,299.6106968922482L136.08999999999997,299.6115258604324L136.88,299.6144641624187L137.67,299.61951179820704L138.45999999999998,299.62561831956407L139.25,299.6297589418175L140.04000000000002,299.63462833889963L140.82999999999998,299.6379674143083L141.62,299.63664769906836L142.41,299.626786426437L143.2,299.6101880787485L143.99,299.5882730391985L144.78,299.560963589383L145.57,299.5248161364036L146.36,299.47616028124446L147.14999999999998,299.4172508068202L147.94,299.35969156969594L148.73000000000002,299.29647930743545L149.51999999999998,299.2275658217613L150.31,299.14288342063634L151.10000000000002,299.03608888381086L151.89,298.9089950676745L152.68,298.7646343715943L153.47,298.62850159606256L154.26,298.47300981894887L155.05,298.3079910880647L155.84,298.140172575145L156.63,297.9537477131306L157.42000000000002,297.74863192828263L158.21,297.53993119353134L159,297.3130235014941L159.79000000000002,297.0736074283705L160.58,296.8065634593074L161.37,296.5261435190719L162.16000000000003,296.2156063526103L162.95000000000002,295.87756528739675L163.74,295.5028490982598L164.53,295.0954537915275L165.32,294.6844637686764L166.11,294.2461476955528L166.90000000000003,293.79768354368076L167.69000000000003,293.3462389031464L168.48000000000002,292.8826225206539L169.26999999999998,292.4149293021621L170.06,291.93357428722095L170.85,291.39906876428194L171.64,290.81911347864303L172.43,290.20421983125334L173.22,289.56587468447884L174.01,288.8778792054843L174.8,288.1763372367727L175.59,287.42997956055547L176.38,286.6592481103885L177.17,285.9067658780102L177.95999999999998,285.17365949024435L178.75,284.4274131130251L179.54000000000002,283.6547002601512L180.33,282.8308528106873L181.12,281.98154954121986L181.91,281.1109651608367L182.7,280.21065540516787L183.49,279.29015766918616L184.28,278.36199614343474L185.07,277.3890678467218L185.86,276.4075999542977L186.65,275.3897532360696L187.44,274.3650054737212L188.23000000000002,273.35210672525926L189.01999999999998,272.33590294603624L189.80999999999997,271.31229388644755L190.6,270.2826199226578L191.39,269.1948183090174L192.17999999999998,268.05888259448056L192.97,266.9189226190896L193.76,265.7587188715064L194.55,264.57857329231854L195.33999999999997,263.41908956582876L196.13,262.25474222183163L196.92,261.06270003163996L197.70999999999998,259.8859784285463L198.5,258.72641392511866L199.29,257.58831006855337L200.07999999999998,256.4249537423098L200.87,255.31112695728604L201.66000000000003,254.1840748391633L202.45,253.05616277728953L203.23999999999998,251.92434338548077L204.03,250.79237792230626L204.82,249.66388782914396L205.61,248.57582323431188L206.39999999999998,247.46543712075942L207.19,246.38510112497804L207.98000000000002,245.3130464791703L208.76999999999998,244.1962207488135L209.56,243.11280878537525L210.34999999999997,241.9882925399895L211.14,240.881652329056L211.92999999999998,239.81394524169443L212.72,238.79628671822823L213.51,237.78865817191075L214.29999999999998,236.77917215679378L215.08999999999997,235.79740950606438L215.88,234.81458262260503L216.67,233.9436880646861L217.45999999999998,233.14011820003518L218.25,232.392700530849L219.04,231.63918927052208L219.82999999999998,230.89906074178248L220.62,230.19231134470024L221.40999999999997,229.56669246264718L222.2,228.908338502373L222.98999999999998,228.26109049042006L223.78,227.70860210581802L224.57,227.1734460326947L225.35999999999999,226.69178342415177L226.15,226.23405879064856L226.94,225.84063189312715L227.73000000000002,225.5065638214098L228.51999999999998,225.20701124274925L229.31,224.97405565828788L230.1,224.80693503955007L230.89000000000001,224.6437673967305L231.68,224.4741725821761L232.47,224.3620407769378L233.26000000000002,224.26754075584455L234.05,224.21800830374414L234.84000000000003,224.25810793109514L235.63,224.35714400070307L236.42000000000002,224.45815940587087L237.21,224.563882306205L238,224.72071572508344L238.79,224.94236127263133L239.58,225.18971237475822L240.37,225.51003327474055L241.16000000000003,225.8583996027422L241.95,226.23091283529612L242.74,226.66129978555102L243.52999999999997,227.1802830690808L244.32000000000002,227.74139475830546L245.10999999999999,228.35567741606604L245.90000000000003,228.93120515732107L246.69,229.53426918614875L247.48000000000002,230.11149973984877L248.26999999999998,230.64424481279661L249.06,231.21429345403422L249.85000000000002,231.75165924415538L250.64000000000001,232.2800032975919L251.43,232.83958045702224L252.22000000000003,233.40038247495156L253.01000000000002,233.9704957989101L253.8,234.52219188609604L254.58999999999997,235.08699849534193L255.38000000000002,235.6169358446124L256.17,236.1816642924944L256.96000000000004,236.75373941290226L257.75,237.30578073475132L258.53999999999996,237.81460631042367L259.33000000000004,238.33579598875036L260.12,238.83458596589895L260.91,239.36788326243635L261.7,239.81937908595535L262.49,240.2209179117596L263.28,240.6404192441554L264.07000000000005,241.06283063455786L264.86,241.4678065670593L265.65,241.84246053084908L266.44,242.23583332395862L267.23,242.64280035155565L268.02,243.05009178414483L268.81,243.4583979328528L269.6,243.86555593953244L270.39,244.24688782211285L271.18,244.6061721146072L271.97,244.99465213921607L272.76,245.3534241378099L273.55,245.6977161399192L274.34,246.08184059061338L275.13000000000005,246.50532320618728L275.92,246.88636370539638L276.71000000000004,247.20208429600984L277.5,247.50127603093696L278.28999999999996,247.7967251221656L279.08,248.12550879592197L279.87,248.42784480928105L280.66,248.76333145016696L281.45,249.08700806820178L282.24,249.41086864123744L283.03,249.80879130954486L283.82,250.2289652346634L284.61,250.6493015362981L285.4,251.07552409210763L286.19,251.5420813605203L286.98,251.97217443838994L287.77000000000004,252.43131288451391L288.56,252.92157315872745L289.35,253.41730955879768L290.14,253.90465240288285L290.93,254.38127962032L291.72,254.8381988996309L292.51,255.3000516364915L293.3,255.7978981613641L294.09000000000003,256.29884697837934L294.88000000000005,256.77728942520656L295.67,257.24205727192833L296.46000000000004,257.72168278080505L297.25,258.1784853823168L298.03999999999996,258.6524001863245L298.83000000000004,259.150612353665L299.61999999999995,259.63554164528034L300.41,260.10335143610473L301.2,260.54833115837585L301.99,260.98126955879763L302.78,261.42146957285985L303.57000000000005,261.8730342977677L304.35999999999996,262.3262906451046L305.15000000000003,262.77361250834946L305.94,263.2120277307083L306.73,263.69275127438914L307.52,264.20391810511506L308.31,264.70760743188606L309.1,265.2149274283705L309.89000000000004,265.7140161188259L310.67999999999995,266.2173063490947L311.47,266.74167972930223L312.26,267.2660488381086L313.05000000000007,267.76515397082096L313.84,268.237849326771L314.63,268.72771617859024L315.41999999999996,269.17013665670595L316.21000000000004,269.5802277764106L317,269.95589437862543L317.78999999999996,270.28946548075237L318.58,270.65091833714183L319.36999999999995,270.9770171453682L320.16,271.31923413253645L320.95,271.645938287924L321.74,271.9435626823695L322.53,272.23911008964666L323.32000000000005,272.4896810687291L324.11,272.712002995254L324.9,272.9345010089647L325.69,273.1663568606082L326.47999999999996,273.3599336298119L327.27000000000004,273.52176998769556L328.06,273.6793367270171L328.85,273.84387393918087L329.64,274.0109773879417L330.42999999999995,274.147721901916L331.22,274.2936785832308L332.01,274.45825261381617L332.8,274.62637532431006L333.59,274.79841162946036L334.38000000000005,274.95634663737036L335.17,275.1088374020038L335.96000000000004,275.24669675162596L336.75,275.39370495693447L337.53999999999996,275.5395295517666L338.33000000000004,275.67443337669187L339.11999999999995,275.8022161645281L339.91,275.9275119001582L340.69999999999993,276.04313184742483L341.49,276.1431098084022L342.28,276.26538718228164L343.07000000000005,276.39133805589734L343.85999999999996,276.51585278959396L344.65,276.65138052381786L345.44,276.77532340657405L346.23,276.91591984883104L347.02,277.0702124380383L347.81,277.2433293654421L348.59999999999997,277.40842951661097L349.39000000000004,277.5500989453331L350.18,277.67960540692565L350.97,277.8224534680963L351.75999999999993,277.9738132395851L352.55,278.15120398312536L353.34,278.31418872561085L354.13000000000005,278.487136505537L354.91999999999996,278.66463346458073L355.71000000000004,278.8572790261909L356.5,279.038852884514L357.28999999999996,279.2111832307962L358.08,279.3964990578309L358.86999999999995,279.5807818069959L359.65999999999997,279.76793338723854L360.45,279.9585101142556L361.24,280.16084622956583L362.03,280.3511512216558L362.82,280.52581132712254L363.61,280.67902564598353L364.4,280.8290947266655L365.19,280.95031727544387L365.97999999999996,281.05383168219373L366.77,281.11036036210226L367.56,281.18094794164176L368.35,281.2735601617156L369.14,281.3575965160837L369.92999999999995,281.42823992968886L370.71999999999997,281.5259552399367L371.51,281.66156743188606L372.3,281.80945938477765L373.09,281.95236433468096L373.88,282.09203464229216L374.67,282.2389531481807L375.46000000000004,282.39977782738623L376.25,282.5754863033925L377.03999999999996,282.73894384250315L377.83,282.9008841483565L378.62,283.06945802425736L379.41,283.26485215327824L380.2,283.46147780629286L380.99,283.64106107576026L381.78000000000003,283.8429290877132L382.57000000000005,284.0399055018457L383.36,284.22613289857617L384.15,284.40050870803304L384.94,284.5460912989981L385.73,284.6909619687115L386.52000000000004,284.8346700369133L387.31,284.9913257338724L388.1,285.1302711689225L388.89,285.23880117068023L389.68,285.3249825698717L390.47,285.40560523114783L391.26,285.4987797046932L392.05,285.60766300931624L392.84000000000003,285.7217452416945L393.63000000000005,285.8498404429601L394.42,286.0005892248198L395.21000000000004,286.1460227069784L396,286.26896929864654L396.79,286.4106398558622L397.58,286.5477079205484L398.37,286.67006777992617L399.16,286.7846795394621L399.95,286.9018277412551L400.74,287.0281425171383L401.53000000000003,287.1583489822465L402.32,287.27359371066973L403.10999999999996,287.3678735489541L403.9,287.47129354192293L404.69000000000005,287.5448166602215L405.48,287.61515979961325L406.27,287.65930973809105L407.05999999999995,287.7033912075936L407.85,287.75812413780983L408.64000000000004,287.8049305923712L409.43,287.8423280576551L410.21999999999997,287.89009942696435L411.01,287.95828600457025L411.80000000000007,288.0369154086834L412.59,288.11459259623837L413.38,288.17785819300406L414.17,288.2269019441027L414.96000000000004,288.2918111232202L415.75,288.3472866127614L416.53999999999996,288.40116548426795L417.3299999999999,288.4759160871858L418.12,288.5556166742837L418.91,288.64833166110037L419.7,288.7495189980665L420.48999999999995,288.8440522939005L421.28000000000003,288.9579080049218L422.07000000000005,289.07221709615044L422.86,289.1932730602918L423.65,289.2965678959395L424.44000000000005,289.37073919142205L425.22999999999996,289.4438058709791L426.02000000000004,289.4952974301283L426.80999999999995,289.5324801230445L427.6,289.5592880998418L428.39,289.59464049217786L429.17999999999995,289.6267618280893L429.96999999999997,289.6442955176657L430.76000000000005,289.6884890455264L431.55,289.7509124063983L432.34,289.8145028616629L433.13,289.88551104236245L433.9200000000001,289.9627863280014L434.71000000000004,290.0287984039374L435.5,290.0794710036913L436.28999999999996,290.14857157672697L437.08,290.2200184355774L437.87,290.29187820706625L438.66,290.35160183160485L439.44999999999993,290.409577662155L440.24,290.4871211495869L441.03000000000003,290.58527349270526L441.82,290.6697043452276L442.60999999999996,290.7322399121111L443.4,290.7971120407804L444.19000000000005,290.8567304622957L444.98,290.91863021269114L445.77,290.9802247213922L446.55999999999995,291.033664397961L447.35,291.0947317630515L448.14000000000004,291.14992285111623L448.93,291.2007386957286L449.71999999999997,291.2621245596766L450.51,291.33655648444363L451.3,291.4164587133064L452.09,291.5029397750044L452.88,291.59069467393215L453.67,291.66877803480406L454.46,291.74324510107226L455.25,291.8032644120232L456.03999999999996,291.88076133591136L456.83,291.9808674705572L457.62,292.0860629108806L458.40999999999997,292.2092816593426L459.2,292.35842360344526L459.99,292.522052979434L460.78000000000003,292.69825681139037L461.57,292.89249307435404L462.36,293.1030632589207L463.15,293.3116621972227L463.94000000000005,293.5246840288276L464.72999999999996,293.7438969660749L465.52,293.955424556161L466.31,294.1663330673229L467.1,294.3800232097029L467.89,294.60485004394445L468.67999999999995,294.8349632800141L469.46999999999997,295.0492660362102L470.26000000000005,295.2696380523818L471.05,295.4991089646687L471.84,295.7290797257866L472.63,295.9559452838812L473.42,296.16988384250305L474.21000000000004,296.3777609562313L475,296.58543764106173L475,300L474.21000000000004,300L473.42,300L472.63,300L471.84,300L471.05,300L470.26000000000005,300L469.46999999999997,300L468.67999999999995,300L467.89,300L467.1,300L466.31,300L465.52,300L464.72999999999996,300L463.94000000000005,300L463.15,300L462.36,300L461.57,300L460.78000000000003,300L459.99,300L459.2,300L458.40999999999997,300L457.62,300L456.83,300L456.03999999999996,300L455.25,300L454.46,300L453.67,300L452.88,300L452.09,300L451.3,300L450.51,300L449.71999999999997,300L448.93,300L448.14000000000004,300L447.35,300L446.55999999999995,300L445.77,300L444.98,300L444.19000000000005,300L443.4,300L442.60999999999996,300L441.82,300L441.03000000000003,300L440.24,300L439.44999999999993,300L438.66,300L437.87,300L437.08,300L436.28999999999996,300L435.5,300L434.71000000000004,300L433.9200000000001,300L433.13,300L432.34,300L431.55,300L430.76000000000005,300L429.96999999999997,300L429.17999999999995,300L428.39,300L427.6,300L426.80999999999995,300L426.02000000000004,300L425.22999999999996,300L424.44000000000005,300L423.65,300L422.86,300L422.07000000000005,300L421.28000000000003,300L420.48999999999995,300L419.7,300L418.91,300L418.12,300L417.3299999999999,300L416.53999999999996,300L415.75,300L414.96000000000004,300L414.17,300L413.38,300L412.59,300L411.80000000000007,300L411.01,300L410.21999999999997,300L409.43,300L408.64000000000004,300L407.85,300L407.05999999999995,300L406.27,300L405.48,300L404.69000000000005,300L403.9,300L403.10999999999996,300L402.32,300L401.53000000000003,300L400.74,300L399.95,300L399.16,300L398.37,300L397.58,300L396.79,300L396,300L395.21000000000004,300L394.42,300L393.63000000000005,300L392.84000000000003,300L392.05,300L391.26,300L390.47,300L389.68,300L388.89,300L388.1,300L387.31,300L386.52000000000004,300L385.73,300L384.94,300L384.15,300L383.36,300L382.57000000000005,300L381.78000000000003,300L380.99,300L380.2,300L379.41,300L378.62,300L377.83,300L377.03999999999996,300L376.25,300L375.46000000000004,300L374.67,300L373.88,300L373.09,300L372.3,300L371.51,300L370.71999999999997,300L369.92999999999995,300L369.14,300L368.35,300L367.56,300L366.77,300L365.97999999999996,300L365.19,300L364.4,300L363.61,300L362.82,300L362.03,300L361.24,300L360.45,300L359.65999999999997,300L358.86999999999995,300L358.08,300L357.28999999999996,300L356.5,300L355.71000000000004,300L354.91999999999996,300L354.13000000000005,300L353.34,300L352.55,300L351.75999999999993,300L350.97,300L350.18,300L349.39000000000004,300L348.59999999999997,300L347.81,300L347.02,300L346.23,300L345.44,300L344.65,300L343.85999999999996,300L343.07000000000005,300L342.28,300L341.49,300L340.69999999999993,300L339.91,300L339.11999999999995,300L338.33000000000004,300L337.53999999999996,300L336.75,300L335.96000000000004,300L335.17,300L334.38000000000005,300L333.59,300L332.8,300L332.01,300L331.22,300L330.42999999999995,300L329.64,300L328.85,300L328.06,300L327.27000000000004,300L326.47999999999996,300L325.69,300L324.9,300L324.11,300L323.32000000000005,300L322.53,300L321.74,300L320.95,300L320.16,300L319.36999999999995,300L318.58,300L317.78999999999996,300L317,300L316.21000000000004,300L315.41999999999996,300L314.63,300L313.84,300L313.05000000000007,300L312.26,300L311.47,300L310.67999999999995,300L309.89000000000004,300L309.1,300L308.31,300L307.52,300L306.73,300L305.94,300L305.15000000000003,300L304.35999999999996,300L303.57000000000005,300L302.78,300L301.99,300L301.2,300L300.41,300L299.61999999999995,300L298.83000000000004,300L298.03999999999996,300L297.25,300L296.46000000000004,300L295.67,300L294.88000000000005,300L294.09000000000003,300L293.3,300L292.51,300L291.72,300L290.93,300L290.14,300L289.35,300L288.56,300L287.77000000000004,300L286.98,300L286.19,300L285.4,300L284.61,300L283.82,300L283.03,300L282.24,300L281.45,300L280.66,300L279.87,300L279.08,300L278.28999999999996,300L277.5,300L276.71000000000004,300L275.92,300L275.13000000000005,300L274.34,300L273.55,300L272.76,300L271.97,300L271.18,300L270.39,300L269.6,300L268.81,300L268.02,300L267.23,300L266.44,300L265.65,300L264.86,300L264.07000000000005,300L263.28,300L262.49,300L261.7,300L260.91,300L260.12,300L259.33000000000004,300L258.53999999999996,300L257.75,300L256.96000000000004,300L256.17,300L255.38000000000002,300L254.58999999999997,300L253.8,300L253.01000000000002,300L252.22000000000003,300L251.43,300L250.64000000000001,300L249.85000000000002,300L249.06,300L248.26999999999998,300L247.48000000000002,300L246.69,300L245.90000000000003,300L245.10999999999999,300L244.32000000000002,300L243.52999999999997,300L242.74,300L241.95,300L241.16000000000003,300L240.37,300L239.58,300L238.79,300L238,300L237.21,300L236.42000000000002,300L235.63,300L234.84000000000003,300L234.05,300L233.26000000000002,300L232.47,300L231.68,300L230.89000000000001,300L230.1,300L229.31,300L228.51999999999998,300L227.73000000000002,300L226.94,300L226.15,300L225.35999999999999,300L224.57,300L223.78,300L222.98999999999998,300L222.2,300L221.40999999999997,300L220.62,300L219.82999999999998,300L219.04,300L218.25,300L217.45999999999998,300L216.67,300L215.88,300L215.08999999999997,300L214.29999999999998,300L213.51,300L212.72,300L211.92999999999998,300L211.14,300L210.34999999999997,300L209.56,300L208.76999999999998,300L207.98000000000002,300L207.19,300L206.39999999999998,300L205.61,300L204.82,300L204.03,300L203.23999999999998,300L202.45,300L201.66000000000003,300L200.87,300L200.07999999999998,300L199.29,300L198.5,300L197.70999999999998,300L196.92,300L196.13,300L195.33999999999997,300L194.55,300L193.76,300L192.97,300L192.17999999999998,300L191.39,300L190.6,300L189.80999999999997,300L189.01999999999998,300L188.23000000000002,300L187.44,300L186.65,300L185.86,300L185.07,300L184.28,300L183.49,300L182.7,300L181.91,300L181.12,300L180.33,300L179.54000000000002,300L178.75,300L177.95999999999998,300L177.17,300L176.38,300L175.59,300L174.8,300L174.01,300L173.22,300L172.43,300L171.64,300L170.85,300L170.06,300L169.26999999999998,300L168.48000000000002,300L167.69000000000003,300L166.90000000000003,300L166.11,300L165.32,300L164.53,300L163.74,300L162.95000000000002,300L162.16000000000003,300L161.37,300L160.58,300L159.79000000000002,300L159,300L158.21,300L157.42000000000002,300L156.63,300L155.84,300L155.05,300L154.26,300L153.47,300L152.68,300L151.89,300L151.10000000000002,300L150.31,300L149.51999999999998,300L148.73000000000002,300L147.94,300L147.14999999999998,300L146.36,300L145.57,300L144.78,300L143.99,300L143.2,300L142.41,300L141.62,300L140.82999999999998,300L140.04000000000002,300L139.25,300L138.45999999999998,300L137.67,300L136.88,300L136.08999999999997,300L135.3,300L134.51,300L133.72000000000003,300L132.93,300L132.14,300L131.35,300L130.56,300L129.77,300L128.98,300L128.19,300L127.4,300L126.61,300L125.82,300L125.03,300L124.24000000000001,300L123.45000000000002,300L122.66,300L121.87,300L121.08000000000001,300L120.29,300L119.5,300L118.71000000000001,300L117.92000000000002,300L117.13,300L116.34,300L115.55,300L114.76,300L113.97,300L113.18,300L112.38999999999999,300L111.60000000000001,300L110.81,300L110.02000000000001,300L109.22999999999999,300L108.44,300L107.65,300L106.86000000000001,300L106.07,300L105.28,300L104.49,300L103.69999999999999,300L102.91,300L102.12,300L101.33,300L100.54,300L99.75,300L98.96,300L98.16999999999999,300L97.38,300L96.59,300L95.8,300L95.00999999999999,300L94.22,300L93.43,300L92.64,300L91.85,300L91.05999999999999,300L90.27000000000001,300L89.48,300L88.69,300L87.9,300L87.11,300L86.32,300L85.53,300L84.74,300L83.95,300L83.16,300L82.36999999999999,300L81.58000000000001,300L80.79,300L80,300Z" fill-opacity="0.5" data-tippy-content="&lt;span style='color: white; background-color: #31a354;'&gt;&lt;i&gt;A. officinalis - O. sativa&lt;/i&gt;&lt;/span&gt; &lt;br&gt; Peak: &lt;span style='color: red;'&gt;1.95&lt;/span&gt; (Density: &lt;span style='color: #31a354;'&gt;0.61&lt;/span&gt;)&lt;br&gt;95% CIs: &lt;span style='color: white; background-color: #31a354';&gt;1.94 &lt;--&gt; 1.97&lt;/span&gt;" style="fill: rgb(49, 163, 84);"/><path class="area path" d="M80,299.9415855617353L80.79,299.93621959955505L81.58000000000001,299.93118734149056L82.36999999999999,299.9264887875417L83.16,299.92212393770853L83.95,299.91809279199106L84.74,299.9143953503893L85.53,299.91103161290323L86.32,299.90800157953277L87.11,299.90530525027805L87.9,299.902942625139L88.69,299.9009137041157L89.48,299.89921848720803L90.27000000000001,299.8941301751947L91.05999999999999,299.8891663264739L91.85,299.8847030339266L92.64,299.8807402975528L93.43,299.8772781173526L94.22,299.8743164933259L95.00999999999999,299.87185542547275L95.8,299.8698949137931L96.59,299.86843495828697L97.38,299.86747555895437L98.16999999999999,299.86701671579533L98.96,299.8670584288098L99.75,299.8676006979978L100.54,299.8675646245829L101.33,299.86506351223585L102.12,299.86322980812014L102.91,299.8611498637375L103.69999999999999,299.8565998081201L104.49,299.85288401279195L105.28,299.85000247775304L106.07,299.8479552030033L106.86000000000001,299.84674218854286L107.65,299.8426366351502L108.44,299.8391561012236L109.22999999999999,299.8327892352614L110.02000000000001,299.8273815600667L110.81,299.8224765767519L111.60000000000001,299.8153436512792L112.38999999999999,299.80954554226923L113.18,299.801547855951L113.97,299.7862844382647L114.76,299.7715614126808L115.55,299.75800635150165L116.34,299.74561925472744L117.13,299.7327039126808L117.92000000000002,299.7186332786429L118.71000000000001,299.7016048414905L119.5,299.68220161568405L120.29,299.6644669104561L121.08000000000001,299.6465815044494L121.87,299.62684310622916L122.66,299.60548374026695L123.45000000000002,299.58281688820915L124.24000000000001,299.5582312374861L125.03,299.53019212458287L125.82,299.4993190294772L126.61,299.46243326195776L127.4,299.41933307285876L128.19,299.37634367352615L128.98,299.3275034566185L129.77,299.259669368743L130.56,299.1880198331479L131.35,299.1066126056729L132.14,299.0063329588432L132.93,298.8795406701891L133.72000000000003,298.74434607897666L134.51,298.58708222469414L135.3,298.40430112625137L136.08999999999997,298.21156830367073L136.88,297.9975016518354L137.67,297.74675567018915L138.45999999999998,297.4820050945495L139.25,297.17924845661844L140.04000000000002,296.8446736818687L140.82999999999998,296.469146512792L141.62,296.0771123359288L142.41,295.6540314043382L143.2,295.2041318159065L143.99,294.69362176585093L144.78,294.1386599332592L145.57,293.5307151390434L146.36,292.87100463570636L147.14999999999998,292.1616704699666L147.94,291.41660833982206L148.73000000000002,290.60073608175753L149.51999999999998,289.75086876807563L150.31,288.84541053670745L151.10000000000002,287.85407459399335L151.89,286.81275616518354L152.68,285.737738634594L153.47,284.59827836763066L154.26,283.4127975250279L155.05,282.1514159482758L155.84,280.83452753893215L156.63,279.46654661012235L157.42000000000002,278.05684434093433L158.21,276.577493634594L159,275.02351796162407L159.79000000000002,273.41008113737485L160.58,271.7448968409344L161.37,270.0347937931035L162.16000000000003,268.2838002363738L162.95000000000002,266.51376703281426L163.74,264.71466845105675L164.53,262.89066424638486L165.32,261.02390758898775L166.11,259.0676587458287L166.90000000000003,257.0967106117909L167.69000000000003,255.11438859010008L168.48000000000002,253.06560211067844L169.26999999999998,250.9402386624027L170.06,248.81062292269183L170.85,246.6356178670746L171.64,244.4706480200224L172.43,242.30597053948836L173.22,240.16464015850948L174.01,238.02958796162403L174.8,235.9151559760845L175.59,233.83317322858716L176.38,231.7630652252503L177.17,229.67164178809776L177.95999999999998,227.63015311735265L178.75,225.59008823692997L179.54000000000002,223.50718985539493L180.33,221.45484235261404L181.12,219.49555982202438L181.91,217.61024915739713L182.7,215.7852667908787L183.49,214.01328317018908L184.28,212.3058494632924L185.07,210.70546954671858L185.86,209.17750160456046L186.65,207.72575008064487L187.44,206.3496848776418L188.23000000000002,205.02734562013345L189.01999999999998,203.82710984983308L189.80999999999997,202.73058256952183L190.6,201.6814022052283L191.39,200.7459633036709L192.17999999999998,199.91578652669656L192.97,199.1667977669632L193.76,198.53635563403776L194.55,197.95894359844294L195.33999999999997,197.44030187986644L196.13,197.03851764460487L196.92,196.75457723859847L197.70999999999998,196.57141303948836L198.5,196.45082848998862L199.29,196.4470107814236L200.07999999999998,196.50756343715216L200.87,196.67329640155725L201.66000000000003,196.94463108453843L202.45,197.3495456062293L203.23999999999998,197.8560670995551L204.03,198.42440957452732L204.82,199.05689413515015L205.61,199.68349348164608L206.39999999999998,200.3841406034484L207.19,201.12649761957732L207.98000000000002,201.91207251390432L208.76999999999998,202.71374081479436L209.56,203.59917360400425L210.34999999999997,204.48896728865407L211.14,205.48286993325922L211.92999999999998,206.50860869299214L212.72,207.58782151835393L213.51,208.70268075083433L214.29999999999998,209.88742533370387L215.08999999999997,211.11851766407102L215.88,212.37815963292542L216.67,213.6299300305895L217.45999999999998,214.90028959121244L218.25,216.16595006395985L219.04,217.38307816184656L219.82999999999998,218.58428491101216L220.62,219.83261983314785L221.40999999999997,221.10902941601773L222.2,222.32845209677416L222.98999999999998,223.55700070912127L223.78,224.77205482758615L224.57,226.02154914627354L225.35999999999999,227.27631457174644L226.15,228.52153299777518L226.94,229.70527970522792L227.73000000000002,230.86482555617343L228.51999999999998,232.00880232480543L229.31,233.1272990155729L230.1,234.21155708843156L230.89000000000001,235.2865636651836L231.68,236.34771326195767L232.47,237.3873212736375L233.26000000000002,238.4296198248054L234.05,239.4295792324805L234.84000000000003,240.32442101779756L235.63,241.20459553114574L236.42000000000002,242.06509821190224L237.21,242.91991064516134L238,243.72343978865408L238.79,244.52979872636257L239.58,245.29535687152395L240.37,246.05109334538372L241.16000000000003,246.81533292547263L241.95,247.6096847636263L242.74,248.41698147664079L243.52999999999997,249.18962139877638L244.32000000000002,249.9446082730812L245.10999999999999,250.66257970244712L245.90000000000003,251.36943179365974L246.69,252.02613694938822L247.48000000000002,252.70213229699664L248.26999999999998,253.3910490183536L249.06,254.07701089822018L249.85000000000002,254.72514058398212L250.64000000000001,255.38297979977762L251.43,256.00153613459406L252.22000000000003,256.6051282675195L253.01000000000002,257.20228695216906L253.8,257.8228424249166L254.58999999999997,258.43089742491657L255.38000000000002,259.0414416991102L256.17,259.66484492769746L256.96000000000004,260.28045191045607L257.75,260.89499934927693L258.53999999999996,261.54007946329256L259.33000000000004,262.17167320912125L260.12,262.7968802502781L260.91,263.42592506396L261.7,263.9967399610678L262.49,264.5770236040045L263.28,265.14725773081204L264.07000000000005,265.7023533036707L264.86,266.264138676307L265.65,266.8457486179088L266.44,267.39670256396L267.23,267.9439199416018L268.02,268.46783310901003L268.81,268.95915221913236L269.6,269.4281900889878L270.39,269.85155874860953L271.18,270.277317038376L271.97,270.7016852419355L272.76,271.0961719438265L273.55,271.50760830367074L274.34,271.85869650166853L275.13000000000005,272.18365131256957L275.92,272.511742983871L276.71000000000004,272.8342405728587L277.5,273.12417390433814L278.28999999999996,273.4080233259177L279.08,273.67864924638485L279.87,273.9315139571746L280.66,274.1740379699666L281.45,274.4156630088988L282.24,274.6666099388209L283.03,274.91358275305896L283.82,275.15287975528366L284.61,275.3974190906563L285.4,275.64918290322584L286.19,275.9063979143492L286.98,276.18716580367067L287.77000000000004,276.4762333064516L288.56,276.75633975250275L289.35,277.01022334538374L290.14,277.2371639599555L290.93,277.46101902113463L291.72,277.68328529199107L292.51,277.9074986429366L293.3,278.1579515739711L294.09000000000003,278.3948598220245L294.88000000000005,278.6107750111235L295.67,278.8634710595106L296.46000000000004,279.13122911846494L297.25,279.3964672191324L298.03999999999996,279.6815642936596L298.83000000000004,279.9758458481647L299.61999999999995,280.25388050055614L300.41,280.527779032258L301.2,280.80354481368187L301.99,281.08601904060066L302.78,281.36559196051167L303.57000000000005,281.62737203559516L304.35999999999996,281.8919479004449L305.15000000000003,282.1842926779755L305.94,282.485693634594L306.73,282.79719113459396L307.52,283.0954695717464L308.31,283.3896599916574L309.1,283.6659231006674L309.89000000000004,283.90320795884315L310.67999999999995,284.1412300945495L311.47,284.39245102057845L312.26,284.60382352057843L313.05000000000007,284.8409865850946L313.84,285.0672985845384L314.63,285.2880028197998L315.41999999999996,285.53714521968857L316.21000000000004,285.78876113459404L317,286.0244298971079L317.78999999999996,286.2537021607342L318.58,286.4774162736374L319.36999999999995,286.6968001585094L320.16,286.899914916574L320.95,287.0833630061179L321.74,287.2553787096774L322.53,287.41646613737487L323.32000000000005,287.57128640155724L324.11,287.71851174360404L324.9,287.83911961067855L325.69,287.9575818854282L326.47999999999996,288.07831784482755L327.27000000000004,288.18265293103445L328.06,288.29440954671855L328.85,288.39986484427146L329.64,288.4926477030034L330.42999999999995,288.5806884927697L331.22,288.6576758509455L332.01,288.71699551167967L332.8,288.78125661290323L333.59,288.8337377002225L334.38000000000005,288.8640422219132L335.17,288.90105384593994L335.96000000000004,288.9530980728587L336.75,288.99866402669636L337.53999999999996,289.04902504171304L338.33000000000004,289.0981490823137L339.11999999999995,289.14728608731923L339.91,289.1992788320356L340.69999999999993,289.2665685483871L341.49,289.32297280311457L342.28,289.36815488042265L343.07000000000005,289.4004368159066L343.85999999999996,289.4448093186874L344.65,289.4986586179088L345.44,289.5608646106785L346.23,289.6348638320356L347.02,289.6912309288098L347.81,289.7477432536151L348.59999999999997,289.80515122358173L349.39000000000004,289.84219389877643L350.18,289.8779938681869L350.97,289.9241409510567L351.75999999999993,289.96077195216907L352.55,290.0027979477197L353.34,290.05203386262514L354.13000000000005,290.1138091017798L354.91999999999996,290.1965598553949L355.71000000000004,290.27759153225804L356.5,290.36836901279196L357.28999999999996,290.44116820912126L358.08,290.5112830311457L358.86999999999995,290.5860220661846L359.65999999999997,290.6611087541713L360.45,290.7338010984427L361.24,290.8102610539488L362.03,290.88308161568403L362.82,290.9490833592881L363.61,291.01777294771966L364.4,291.0736339738598L365.19,291.13614830088994L365.97999999999996,291.1898373553949L366.77,291.2522382230256L367.56,291.31315560901L368.35,291.38067704115684L369.14,291.45491961624026L369.92999999999995,291.5339783008899L370.71999999999997,291.5970884816463L371.51,291.65613037541715L372.3,291.70715436874303L373.09,291.76010750556173L373.88,291.8193171106785L374.67,291.8701362430478L375.46000000000004,291.9391053921023L376.25,292.0195558147943L377.03999999999996,292.09787990823133L377.83,292.16584756117913L378.62,292.2320184677419L379.41,292.2957220244716L380.2,292.3561090044494L380.99,292.40382175194657L381.78000000000003,292.4331672580645L382.57000000000005,292.4542825695217L383.36,292.47988378198L384.15,292.50417134315904L384.94,292.5309764516129L385.73,292.55561940767524L386.52000000000004,292.5777608592881L387.31,292.60781466907673L388.1,292.6414875083426L388.89,292.64770526696327L389.68,292.6389397525028L390.47,292.6235397413793L391.26,292.61106947719685L392.05,292.60970874026697L392.84000000000003,292.62190413236925L393.63000000000005,292.6354851557286L394.42,292.64203688542824L395.21000000000004,292.6329161012236L396,292.64116691045604L396.79,292.6470718381535L397.58,292.6577667880979L398.37,292.66797442992214L399.16,292.6787614321468L399.95,292.6939827196885L400.74,292.72769033926585L401.53000000000003,292.76238618186875L402.32,292.7837518047831L403.10999999999996,292.8162353058954L403.9,292.861188528921L404.69000000000005,292.91235777530585L405.48,292.9656441156841L406.27,293.0267905478309L407.05999999999995,293.07822907675194L407.85,293.1266804449388L408.64000000000004,293.17923759176864L409.43,293.2404908092325L410.21999999999997,293.2976777085651L411.01,293.360636637931L411.80000000000007,293.4229753448276L412.59,293.50215851779757L413.38,293.588298445495L414.17,293.6833448859844L414.96000000000004,293.7911758481646L415.75,293.8999386206897L416.53999999999996,294.00693242769745L417.3299999999999,294.11454552280316L418.12,294.2213702586207L418.91,294.33147777530587L419.7,294.44101300611794L420.48999999999995,294.5414534399332L421.28000000000003,294.62241936874307L422.07000000000005,294.6937350166852L422.86,294.75653914071194L423.65,294.82136476084537L424.44000000000005,294.8912740294772L425.22999999999996,294.9620848498331L426.02000000000004,295.0345150695217L426.80999999999995,295.0992383342603L427.6,295.1578575500556L428.39,295.1958955561735L429.17999999999995,295.2137155978865L429.96999999999997,295.2315210817575L430.76000000000005,295.2478890266963L431.55,295.28125337319244L432.34,295.3263500305896L433.13,295.3727428281424L433.9200000000001,295.41516649888763L434.71000000000004,295.43852496106786L435.5,295.45810722747495L436.28999999999996,295.4566839961068L437.08,295.4567852586207L437.87,295.4379799638487L438.66,295.41085255561734L439.44999999999993,295.38393019187987L440.24,295.3595621996663L441.03000000000003,295.34934013348163L441.82,295.3421621913237L442.60999999999996,295.335482919911L443.4,295.3396401807564L444.19000000000005,295.3330604866518L444.98,295.33460763070076L445.77,295.3372660177975L446.55999999999995,295.33936590100114L447.35,295.3465325556174L448.14000000000004,295.3613495856507L448.93,295.37807874860954L449.71999999999997,295.39609773637375L450.51,295.409804958287L451.3,295.4236152530589L452.09,295.4418807063403L452.88,295.454532080089L453.67,295.4745577975528L454.46,295.498304349277L455.25,295.5144589404894L456.03999999999996,295.53310799499445L456.83,295.5699588987764L457.62,295.6161992686318L458.40999999999997,295.6774122830923L459.2,295.7500444688543L459.99,295.82437500000003L460.78000000000003,295.89538471635154L461.57,295.9667066546162L462.36,296.04211352335926L463.15,296.12868137652947L463.94000000000005,296.2290153170189L464.72999999999996,296.3377737430479L465.52,296.45067958565073L466.31,296.55934064516134L467.1,296.67192156840935L467.89,296.78885607063404L468.67999999999995,296.90142381256953L469.46999999999997,297.02178311179085L470.26000000000005,297.1357966268076L471.05,297.25529713014464L471.84,297.38178756674085L472.63,297.51352227196884L473.42,297.6543605506118L474.21000000000004,297.79102283926585L475,297.9257889877642L475,300L474.21000000000004,300L473.42,300L472.63,300L471.84,300L471.05,300L470.26000000000005,300L469.46999999999997,300L468.67999999999995,300L467.89,300L467.1,300L466.31,300L465.52,300L464.72999999999996,300L463.94000000000005,300L463.15,300L462.36,300L461.57,300L460.78000000000003,300L459.99,300L459.2,300L458.40999999999997,300L457.62,300L456.83,300L456.03999999999996,300L455.25,300L454.46,300L453.67,300L452.88,300L452.09,300L451.3,300L450.51,300L449.71999999999997,300L448.93,300L448.14000000000004,300L447.35,300L446.55999999999995,300L445.77,300L444.98,300L444.19000000000005,300L443.4,300L442.60999999999996,300L441.82,300L441.03000000000003,300L440.24,300L439.44999999999993,300L438.66,300L437.87,300L437.08,300L436.28999999999996,300L435.5,300L434.71000000000004,300L433.9200000000001,300L433.13,300L432.34,300L431.55,300L430.76000000000005,300L429.96999999999997,300L429.17999999999995,300L428.39,300L427.6,300L426.80999999999995,300L426.02000000000004,300L425.22999999999996,300L424.44000000000005,300L423.65,300L422.86,300L422.07000000000005,300L421.28000000000003,300L420.48999999999995,300L419.7,300L418.91,300L418.12,300L417.3299999999999,300L416.53999999999996,300L415.75,300L414.96000000000004,300L414.17,300L413.38,300L412.59,300L411.80000000000007,300L411.01,300L410.21999999999997,300L409.43,300L408.64000000000004,300L407.85,300L407.05999999999995,300L406.27,300L405.48,300L404.69000000000005,300L403.9,300L403.10999999999996,300L402.32,300L401.53000000000003,300L400.74,300L399.95,300L399.16,300L398.37,300L397.58,300L396.79,300L396,300L395.21000000000004,300L394.42,300L393.63000000000005,300L392.84000000000003,300L392.05,300L391.26,300L390.47,300L389.68,300L388.89,300L388.1,300L387.31,300L386.52000000000004,300L385.73,300L384.94,300L384.15,300L383.36,300L382.57000000000005,300L381.78000000000003,300L380.99,300L380.2,300L379.41,300L378.62,300L377.83,300L377.03999999999996,300L376.25,300L375.46000000000004,300L374.67,300L373.88,300L373.09,300L372.3,300L371.51,300L370.71999999999997,300L369.92999999999995,300L369.14,300L368.35,300L367.56,300L366.77,300L365.97999999999996,300L365.19,300L364.4,300L363.61,300L362.82,300L362.03,300L361.24,300L360.45,300L359.65999999999997,300L358.86999999999995,300L358.08,300L357.28999999999996,300L356.5,300L355.71000000000004,300L354.91999999999996,300L354.13000000000005,300L353.34,300L352.55,300L351.75999999999993,300L350.97,300L350.18,300L349.39000000000004,300L348.59999999999997,300L347.81,300L347.02,300L346.23,300L345.44,300L344.65,300L343.85999999999996,300L343.07000000000005,300L342.28,300L341.49,300L340.69999999999993,300L339.91,300L339.11999999999995,300L338.33000000000004,300L337.53999999999996,300L336.75,300L335.96000000000004,300L335.17,300L334.38000000000005,300L333.59,300L332.8,300L332.01,300L331.22,300L330.42999999999995,300L329.64,300L328.85,300L328.06,300L327.27000000000004,300L326.47999999999996,300L325.69,300L324.9,300L324.11,300L323.32000000000005,300L322.53,300L321.74,300L320.95,300L320.16,300L319.36999999999995,300L318.58,300L317.78999999999996,300L317,300L316.21000000000004,300L315.41999999999996,300L314.63,300L313.84,300L313.05000000000007,300L312.26,300L311.47,300L310.67999999999995,300L309.89000000000004,300L309.1,300L308.31,300L307.52,300L306.73,300L305.94,300L305.15000000000003,300L304.35999999999996,300L303.57000000000005,300L302.78,300L301.99,300L301.2,300L300.41,300L299.61999999999995,300L298.83000000000004,300L298.03999999999996,300L297.25,300L296.46000000000004,300L295.67,300L294.88000000000005,300L294.09000000000003,300L293.3,300L292.51,300L291.72,300L290.93,300L290.14,300L289.35,300L288.56,300L287.77000000000004,300L286.98,300L286.19,300L285.4,300L284.61,300L283.82,300L283.03,300L282.24,300L281.45,300L280.66,300L279.87,300L279.08,300L278.28999999999996,300L277.5,300L276.71000000000004,300L275.92,300L275.13000000000005,300L274.34,300L273.55,300L272.76,300L271.97,300L271.18,300L270.39,300L269.6,300L268.81,300L268.02,300L267.23,300L266.44,300L265.65,300L264.86,300L264.07000000000005,300L263.28,300L262.49,300L261.7,300L260.91,300L260.12,300L259.33000000000004,300L258.53999999999996,300L257.75,300L256.96000000000004,300L256.17,300L255.38000000000002,300L254.58999999999997,300L253.8,300L253.01000000000002,300L252.22000000000003,300L251.43,300L250.64000000000001,300L249.85000000000002,300L249.06,300L248.26999999999998,300L247.48000000000002,300L246.69,300L245.90000000000003,300L245.10999999999999,300L244.32000000000002,300L243.52999999999997,300L242.74,300L241.95,300L241.16000000000003,300L240.37,300L239.58,300L238.79,300L238,300L237.21,300L236.42000000000002,300L235.63,300L234.84000000000003,300L234.05,300L233.26000000000002,300L232.47,300L231.68,300L230.89000000000001,300L230.1,300L229.31,300L228.51999999999998,300L227.73000000000002,300L226.94,300L226.15,300L225.35999999999999,300L224.57,300L223.78,300L222.98999999999998,300L222.2,300L221.40999999999997,300L220.62,300L219.82999999999998,300L219.04,300L218.25,300L217.45999999999998,300L216.67,300L215.88,300L215.08999999999997,300L214.29999999999998,300L213.51,300L212.72,300L211.92999999999998,300L211.14,300L210.34999999999997,300L209.56,300L208.76999999999998,300L207.98000000000002,300L207.19,300L206.39999999999998,300L205.61,300L204.82,300L204.03,300L203.23999999999998,300L202.45,300L201.66000000000003,300L200.87,300L200.07999999999998,300L199.29,300L198.5,300L197.70999999999998,300L196.92,300L196.13,300L195.33999999999997,300L194.55,300L193.76,300L192.97,300L192.17999999999998,300L191.39,300L190.6,300L189.80999999999997,300L189.01999999999998,300L188.23000000000002,300L187.44,300L186.65,300L185.86,300L185.07,300L184.28,300L183.49,300L182.7,300L181.91,300L181.12,300L180.33,300L179.54000000000002,300L178.75,300L177.95999999999998,300L177.17,300L176.38,300L175.59,300L174.8,300L174.01,300L173.22,300L172.43,300L171.64,300L170.85,300L170.06,300L169.26999999999998,300L168.48000000000002,300L167.69000000000003,300L166.90000000000003,300L166.11,300L165.32,300L164.53,300L163.74,300L162.95000000000002,300L162.16000000000003,300L161.37,300L160.58,300L159.79000000000002,300L159,300L158.21,300L157.42000000000002,300L156.63,300L155.84,300L155.05,300L154.26,300L153.47,300L152.68,300L151.89,300L151.10000000000002,300L150.31,300L149.51999999999998,300L148.73000000000002,300L147.94,300L147.14999999999998,300L146.36,300L145.57,300L144.78,300L143.99,300L143.2,300L142.41,300L141.62,300L140.82999999999998,300L140.04000000000002,300L139.25,300L138.45999999999998,300L137.67,300L136.88,300L136.08999999999997,300L135.3,300L134.51,300L133.72000000000003,300L132.93,300L132.14,300L131.35,300L130.56,300L129.77,300L128.98,300L128.19,300L127.4,300L126.61,300L125.82,300L125.03,300L124.24000000000001,300L123.45000000000002,300L122.66,300L121.87,300L121.08000000000001,300L120.29,300L119.5,300L118.71000000000001,300L117.92000000000002,300L117.13,300L116.34,300L115.55,300L114.76,300L113.97,300L113.18,300L112.38999999999999,300L111.60000000000001,300L110.81,300L110.02000000000001,300L109.22999999999999,300L108.44,300L107.65,300L106.86000000000001,300L106.07,300L105.28,300L104.49,300L103.69999999999999,300L102.91,300L102.12,300L101.33,300L100.54,300L99.75,300L98.96,300L98.16999999999999,300L97.38,300L96.59,300L95.8,300L95.00999999999999,300L94.22,300L93.43,300L92.64,300L91.85,300L91.05999999999999,300L90.27000000000001,300L89.48,300L88.69,300L87.9,300L87.11,300L86.32,300L85.53,300L84.74,300L83.95,300L83.16,300L82.36999999999999,300L81.58000000000001,300L80.79,300L80,300Z" fill-opacity="0.5" data-tippy-content="&lt;span style='color: white; background-color: #a63603;'&gt;&lt;i&gt;E. guineensis - O. sativa&lt;/i&gt;&lt;/span&gt; &lt;br&gt; Peak: &lt;span style='color: red;'&gt;1.51&lt;/span&gt; (Density: &lt;span style='color: #a63603;'&gt;0.83&lt;/span&gt;)&lt;br&gt;95% CIs: &lt;span style='color: white; background-color: #a63603';&gt;1.49 &lt;--&gt; 1.52&lt;/span&gt;" style="fill: rgb(166, 54, 3);"/><line x1="168.48000000000002" y1="300" x2="168.48000000000002" y2="149.99522799017316" style="stroke: rgb(0, 109, 44); stroke-width: 1.4; stroke-dasharray: 5, 5;"/><rect x="167.69000000000003" y="149.99522799017316" width="2.369999999999976" height="130.00477200982684" data-tippy-content="Peak: &lt;span style='color: #006d2c;'&gt;1.12&lt;/span&gt;&lt;br&gt;95% CIs: &lt;span style='color: undefined; background-color: undefined';&gt;1.11 &lt;--&gt; 1.14&lt;/span&gt;" style="fill: rgb(0, 109, 44); fill-opacity: 0.2;"/><circle cx="168.48000000000002" cy="129.99522799017316" r="5" stroke-width="1.2" data-tippy-content="&lt;span style='color: white; background-color: #006d2c;'&gt;&lt;i&gt;A. officinalis - E. guineensis&lt;/i&gt;&lt;/span&gt; &lt;br&gt; Peak: &lt;span style='color: red;'&gt;1.12&lt;/span&gt; (Density: &lt;span style='color: #006d2c;'&gt;1.04&lt;/span&gt;)&lt;br&gt;95% CIs: &lt;span style='color: white; background-color: #006d2c';&gt;1.11 &lt;--&gt; 1.14&lt;/span&gt;" style="fill: rgb(0, 109, 44); fill-opacity: 0.6; stroke: rgb(0, 109, 44); stroke-opacity: 1;"/><line x1="234.05" y1="300" x2="234.05" y2="204.21800830374414" style="stroke: rgb(49, 163, 84); stroke-width: 1.4; stroke-dasharray: 5, 5;"/><rect x="233.26000000000002" y="204.21800830374414" width="2.369999999999976" height="75.78199169625586" data-tippy-content="Peak: &lt;span style='color: #31a354;'&gt;1.95&lt;/span&gt;&lt;br&gt;95% CIs: &lt;span style='color: undefined; background-color: undefined';&gt;1.94 &lt;--&gt; 1.97&lt;/span&gt;" style="fill: rgb(49, 163, 84); fill-opacity: 0.2;"/><circle cx="234.05" cy="184.21800830374414" r="5" stroke-width="1.2" data-tippy-content="&lt;span style='color: white; background-color: #31a354;'&gt;&lt;i&gt;A. officinalis - O. sativa&lt;/i&gt;&lt;/span&gt; &lt;br&gt; Peak: &lt;span style='color: red;'&gt;1.95&lt;/span&gt; (Density: &lt;span style='color: #31a354;'&gt;0.61&lt;/span&gt;)&lt;br&gt;95% CIs: &lt;span style='color: white; background-color: #31a354';&gt;1.94 &lt;--&gt; 1.97&lt;/span&gt;" style="fill: rgb(49, 163, 84); fill-opacity: 0.6; stroke: rgb(49, 163, 84); stroke-opacity: 1;"/><line x1="199.29" y1="300" x2="199.29" y2="176.4470107814236" style="stroke: rgb(166, 54, 3); stroke-width: 1.4; stroke-dasharray: 5, 5;"/><rect x="197.70999999999998" y="176.4470107814236" width="2.3700000000000045" height="103.55298921857641" data-tippy-content="Peak: &lt;span style='color: #08519c;'&gt;1.51&lt;/span&gt;&lt;br&gt;95% CIs: &lt;span style='color: undefined; background-color: undefined';&gt;1.49 &lt;--&gt; 1.52&lt;/span&gt;" style="fill: rgb(166, 54, 3); fill-opacity: 0.2;"/><circle cx="199.29" cy="156.4470107814236" r="5" stroke-width="1.2" data-tippy-content="&lt;span style='color: white; background-color: #a63603;'&gt;&lt;i&gt;E. guineensis - O. sativa&lt;/i&gt;&lt;/span&gt; &lt;br&gt; Peak: &lt;span style='color: red;'&gt;1.51&lt;/span&gt; (Density: &lt;span style='color: #a63603;'&gt;0.83&lt;/span&gt;)&lt;br&gt;95% CIs: &lt;span style='color: white; background-color: #a63603';&gt;1.49 &lt;--&gt; 1.52&lt;/span&gt;" style="fill: rgb(166, 54, 3); fill-opacity: 0.6; stroke: rgb(166, 54, 3); stroke-opacity: 1;"/><g class="legend" transform="translate(325, 20)"><g class="legend-item" transform="translate(0,0)"><rect x="0" y="0" width="10" height="10" fill="#006d2c" fill-opacity="0.5"/><text x="20" y="10" text-anchor="start" font-size="12px" font-style="italic">A. officinalis - E. guineensis</text></g><g class="legend-item" transform="translate(0,20)"><rect x="0" y="0" width="10" height="10" fill="#31a354" fill-opacity="0.5"/><text x="20" y="10" text-anchor="start" font-size="12px" font-style="italic">A. officinalis - O. sativa</text></g><g class="legend-item" transform="translate(0,40)"><rect x="0" y="0" width="10" height="10" fill="#a63603" fill-opacity="0.5"/><text x="20" y="10" text-anchor="start" font-size="12px" font-style="italic">E. guineensis - O. sativa</text></g></g><g class="axis axis--y2" transform="translate(480, 0)" font-size="12px"><g class="tick" transform="translate(0,300)" style="opacity: 1;"><line x2="6" y2="0" style="stroke-width: 1; stroke: black;"/><text dy=".32em" x="8" y="0" style="text-anchor: start;">0</text></g><g class="tick" transform="translate(0,250)" style="opacity: 1;"><line x2="6" y2="0" style="stroke-width: 1; stroke: black;"/><text dy=".32em" x="8" y="0" style="text-anchor: start;">500</text></g><g class="tick" transform="translate(0,200)" style="opacity: 1;"><line x2="6" y2="0" style="stroke-width: 1; stroke: black;"/><text dy=".32em" x="8" y="0" style="text-anchor: start;">1000</text></g><g class="tick" transform="translate(0,150)" style="opacity: 1;"><line x2="6" y2="0" style="stroke-width: 1; stroke: black;"/><text dy=".32em" x="8" y="0" style="text-anchor: start;">1500</text></g><g class="tick" transform="translate(0,99.99999999999999)" style="opacity: 1;"><line x2="6" y2="0" style="stroke-width: 1; stroke: black;"/><text dy=".32em" x="8" y="0" style="text-anchor: start;">2000</text></g><g class="tick" transform="translate(0,50)" style="opacity: 1;"><line x2="6" y2="0" style="stroke-width: 1; stroke: black;"/><text dy=".32em" x="8" y="0" style="text-anchor: start;">2500</text></g><path class="domain" d="M1,50H0V300H1"/></g><g class="yTitle"><text y="175" x="535" text-anchor="middle" font-size="14px" transform="rotate(-90, 535, 175)">Number of retained duplicates</text></g><g class="rect bar"><rect x="79.675" y="297.1166666666667" width="6.4125000000000005" height="2.8833333333333258" fill="#696969" fill-opacity="0.6" data-tippy-content="&lt;font color='#ff7575'&gt;&lt;i&gt;K&lt;/i&gt;&lt;sub&gt;s&lt;/sub&gt;&lt;/font&gt;: 0.05&lt;br&gt;&lt;font color='#00BB00'&gt;&lt;i&gt;Elaeis1.ks_anchors&lt;/i&gt;&lt;/font&gt;: 28.83&lt;br&gt;"/><rect x="87.57499999999999" y="278.55" width="6.4125000000000005" height="21.44999999999999" fill="#696969" fill-opacity="0.6" data-tippy-content="&lt;font color='#ff7575'&gt;&lt;i&gt;K&lt;/i&gt;&lt;sub&gt;s&lt;/sub&gt;&lt;/font&gt;: 0.15&lt;br&gt;&lt;font color='#00BB00'&gt;&lt;i&gt;Elaeis1.ks_anchors&lt;/i&gt;&lt;/font&gt;: 214.50&lt;br&gt;"/><rect x="95.475" y="163.716666666667" width="6.4125000000000005" height="136.283333333333" fill="#696969" fill-opacity="0.6" data-tippy-content="&lt;font color='#ff7575'&gt;&lt;i&gt;K&lt;/i&gt;&lt;sub&gt;s&lt;/sub&gt;&lt;/font&gt;: 0.25&lt;br&gt;&lt;font color='#00BB00'&gt;&lt;i&gt;Elaeis1.ks_anchors&lt;/i&gt;&lt;/font&gt;: 1362.83&lt;br&gt;"/><rect x="103.375" y="202.425" width="6.4125000000000005" height="97.57499999999999" fill="#696969" fill-opacity="0.6" data-tippy-content="&lt;font color='#ff7575'&gt;&lt;i&gt;K&lt;/i&gt;&lt;sub&gt;s&lt;/sub&gt;&lt;/font&gt;: 0.35&lt;br&gt;&lt;font color='#00BB00'&gt;&lt;i&gt;Elaeis1.ks_anchors&lt;/i&gt;&lt;/font&gt;: 975.75&lt;br&gt;"/><rect x="111.27499999999999" y="252.55" width="6.4125000000000005" height="47.44999999999999" fill="#696969" fill-opacity="0.6" data-tippy-content="&lt;font color='#ff7575'&gt;&lt;i&gt;K&lt;/i&gt;&lt;sub&gt;s&lt;/sub&gt;&lt;/font&gt;: 0.45&lt;br&gt;&lt;font color='#00BB00'&gt;&lt;i&gt;Elaeis1.ks_anchors&lt;/i&gt;&lt;/font&gt;: 474.50&lt;br&gt;"/><rect x="119.17500000000001" y="269.63333333333327" width="6.4125000000000005" height="30.36666666666673" fill="#696969" fill-opacity="0.6" data-tippy-content="&lt;font color='#ff7575'&gt;&lt;i&gt;K&lt;/i&gt;&lt;sub&gt;s&lt;/sub&gt;&lt;/font&gt;: 0.55&lt;br&gt;&lt;font color='#00BB00'&gt;&lt;i&gt;Elaeis1.ks_anchors&lt;/i&gt;&lt;/font&gt;: 303.67&lt;br&gt;"/><rect x="127.07499999999999" y="276.9333333333333" width="6.4125000000000005" height="23.06666666666672" fill="#696969" fill-opacity="0.6" data-tippy-content="&lt;font color='#ff7575'&gt;&lt;i&gt;K&lt;/i&gt;&lt;sub&gt;s&lt;/sub&gt;&lt;/font&gt;: 0.65&lt;br&gt;&lt;font color='#00BB00'&gt;&lt;i&gt;Elaeis1.ks_anchors&lt;/i&gt;&lt;/font&gt;: 230.67&lt;br&gt;"/><rect x="134.975" y="271.6297619047619" width="6.4125000000000005" height="28.370238095238108" fill="#696969" fill-opacity="0.6" data-tippy-content="&lt;font color='#ff7575'&gt;&lt;i&gt;K&lt;/i&gt;&lt;sub&gt;s&lt;/sub&gt;&lt;/font&gt;: 0.75&lt;br&gt;&lt;font color='#00BB00'&gt;&lt;i&gt;Elaeis1.ks_anchors&lt;/i&gt;&lt;/font&gt;: 283.70&lt;br&gt;"/><rect x="142.87499999999997" y="270.1857142857143" width="6.4125000000000005" height="29.81428571428569" fill="#696969" fill-opacity="0.6" data-tippy-content="&lt;font color='#ff7575'&gt;&lt;i&gt;K&lt;/i&gt;&lt;sub&gt;s&lt;/sub&gt;&lt;/font&gt;: 0.85&lt;br&gt;&lt;font color='#00BB00'&gt;&lt;i&gt;Elaeis1.ks_anchors&lt;/i&gt;&lt;/font&gt;: 298.14&lt;br&gt;"/><rect x="150.775" y="276.6440476190476" width="6.4125000000000005" height="23.355952380952374" fill="#696969" fill-opacity="0.6" data-tippy-content="&lt;font color='#ff7575'&gt;&lt;i&gt;K&lt;/i&gt;&lt;sub&gt;s&lt;/sub&gt;&lt;/font&gt;: 0.95&lt;br&gt;&lt;font color='#00BB00'&gt;&lt;i&gt;Elaeis1.ks_anchors&lt;/i&gt;&lt;/font&gt;: 233.56&lt;br&gt;"/><rect x="158.675" y="279.90833333333325" width="6.4125000000000005" height="20.091666666666754" fill="#696969" fill-opacity="0.6" data-tippy-content="&lt;font color='#ff7575'&gt;&lt;i&gt;K&lt;/i&gt;&lt;sub&gt;s&lt;/sub&gt;&lt;/font&gt;: 1.05&lt;br&gt;&lt;font color='#00BB00'&gt;&lt;i&gt;Elaeis1.ks_anchors&lt;/i&gt;&lt;/font&gt;: 200.92&lt;br&gt;"/><rect x="166.575" y="283.69404761904764" width="6.4125000000000005" height="16.305952380952363" fill="#696969" fill-opacity="0.6" data-tippy-content="&lt;font color='#ff7575'&gt;&lt;i&gt;K&lt;/i&gt;&lt;sub&gt;s&lt;/sub&gt;&lt;/font&gt;: 1.15&lt;br&gt;&lt;font color='#00BB00'&gt;&lt;i&gt;Elaeis1.ks_anchors&lt;/i&gt;&lt;/font&gt;: 163.06&lt;br&gt;"/><rect x="174.475" y="289.0416666666667" width="6.4125000000000005" height="10.958333333333314" fill="#696969" fill-opacity="0.6" data-tippy-content="&lt;font color='#ff7575'&gt;&lt;i&gt;K&lt;/i&gt;&lt;sub&gt;s&lt;/sub&gt;&lt;/font&gt;: 1.25&lt;br&gt;&lt;font color='#00BB00'&gt;&lt;i&gt;Elaeis1.ks_anchors&lt;/i&gt;&lt;/font&gt;: 109.58&lt;br&gt;"/><rect x="182.375" y="290.7883333333333" width="6.4125000000000005" height="9.211666666666702" fill="#696969" fill-opacity="0.6" data-tippy-content="&lt;font color='#ff7575'&gt;&lt;i&gt;K&lt;/i&gt;&lt;sub&gt;s&lt;/sub&gt;&lt;/font&gt;: 1.35&lt;br&gt;&lt;font color='#00BB00'&gt;&lt;i&gt;Elaeis1.ks_anchors&lt;/i&gt;&lt;/font&gt;: 92.12&lt;br&gt;"/><rect x="190.275" y="292.8722222222222" width="6.4125000000000005" height="7.127777777777794" fill="#696969" fill-opacity="0.6" data-tippy-content="&lt;font color='#ff7575'&gt;&lt;i&gt;K&lt;/i&gt;&lt;sub&gt;s&lt;/sub&gt;&lt;/font&gt;: 1.45&lt;br&gt;&lt;font color='#00BB00'&gt;&lt;i&gt;Elaeis1.ks_anchors&lt;/i&gt;&lt;/font&gt;: 71.28&lt;br&gt;"/><rect x="198.17499999999998" y="292.9016666666667" width="6.4125000000000005" height="7.098333333333301" fill="#696969" fill-opacity="0.6" data-tippy-content="&lt;font color='#ff7575'&gt;&lt;i&gt;K&lt;/i&gt;&lt;sub&gt;s&lt;/sub&gt;&lt;/font&gt;: 1.55&lt;br&gt;&lt;font color='#00BB00'&gt;&lt;i&gt;Elaeis1.ks_anchors&lt;/i&gt;&lt;/font&gt;: 70.98&lt;br&gt;"/><rect x="206.07499999999996" y="294.7166666666667" width="6.4125000000000005" height="5.283333333333303" fill="#696969" fill-opacity="0.6" data-tippy-content="&lt;font color='#ff7575'&gt;&lt;i&gt;K&lt;/i&gt;&lt;sub&gt;s&lt;/sub&gt;&lt;/font&gt;: 1.65&lt;br&gt;&lt;font color='#00BB00'&gt;&lt;i&gt;Elaeis1.ks_anchors&lt;/i&gt;&lt;/font&gt;: 52.83&lt;br&gt;"/><rect x="213.975" y="295.30555555555554" width="6.4125000000000005" height="4.694444444444457" fill="#696969" fill-opacity="0.6" data-tippy-content="&lt;font color='#ff7575'&gt;&lt;i&gt;K&lt;/i&gt;&lt;sub&gt;s&lt;/sub&gt;&lt;/font&gt;: 1.75&lt;br&gt;&lt;font color='#00BB00'&gt;&lt;i&gt;Elaeis1.ks_anchors&lt;/i&gt;&lt;/font&gt;: 46.94&lt;br&gt;"/><rect x="221.875" y="295.81666666666666" width="6.4125000000000005" height="4.183333333333337" fill="#696969" fill-opacity="0.6" data-tippy-content="&lt;font color='#ff7575'&gt;&lt;i&gt;K&lt;/i&gt;&lt;sub&gt;s&lt;/sub&gt;&lt;/font&gt;: 1.85&lt;br&gt;&lt;font color='#00BB00'&gt;&lt;i&gt;Elaeis1.ks_anchors&lt;/i&gt;&lt;/font&gt;: 41.83&lt;br&gt;"/><rect x="229.775" y="296.2716666666667" width="6.4125000000000005" height="3.728333333333296" fill="#696969" fill-opacity="0.6" data-tippy-content="&lt;font color='#ff7575'&gt;&lt;i&gt;K&lt;/i&gt;&lt;sub&gt;s&lt;/sub&gt;&lt;/font&gt;: 1.95&lt;br&gt;&lt;font color='#00BB00'&gt;&lt;i&gt;Elaeis1.ks_anchors&lt;/i&gt;&lt;/font&gt;: 37.28&lt;br&gt;"/><rect x="237.67499999999998" y="296.94166666666666" width="6.4125000000000005" height="3.058333333333337" fill="#696969" fill-opacity="0.6" data-tippy-content="&lt;font color='#ff7575'&gt;&lt;i&gt;K&lt;/i&gt;&lt;sub&gt;s&lt;/sub&gt;&lt;/font&gt;: 2.05&lt;br&gt;&lt;font color='#00BB00'&gt;&lt;i&gt;Elaeis1.ks_anchors&lt;/i&gt;&lt;/font&gt;: 30.58&lt;br&gt;"/><rect x="245.57500000000002" y="297.2388888888889" width="6.4125000000000005" height="2.76111111111112" fill="#696969" fill-opacity="0.6" data-tippy-content="&lt;font color='#ff7575'&gt;&lt;i&gt;K&lt;/i&gt;&lt;sub&gt;s&lt;/sub&gt;&lt;/font&gt;: 2.15&lt;br&gt;&lt;font color='#00BB00'&gt;&lt;i&gt;Elaeis1.ks_anchors&lt;/i&gt;&lt;/font&gt;: 27.61&lt;br&gt;"/><rect x="253.475" y="296.82166666666666" width="6.4125000000000005" height="3.1783333333333417" fill="#696969" fill-opacity="0.6" data-tippy-content="&lt;font color='#ff7575'&gt;&lt;i&gt;K&lt;/i&gt;&lt;sub&gt;s&lt;/sub&gt;&lt;/font&gt;: 2.25&lt;br&gt;&lt;font color='#00BB00'&gt;&lt;i&gt;Elaeis1.ks_anchors&lt;/i&gt;&lt;/font&gt;: 31.78&lt;br&gt;"/><rect x="261.375" y="297.53055555555557" width="6.4125000000000005" height="2.4694444444444343" fill="#696969" fill-opacity="0.6" data-tippy-content="&lt;font color='#ff7575'&gt;&lt;i&gt;K&lt;/i&gt;&lt;sub&gt;s&lt;/sub&gt;&lt;/font&gt;: 2.35&lt;br&gt;&lt;font color='#00BB00'&gt;&lt;i&gt;Elaeis1.ks_anchors&lt;/i&gt;&lt;/font&gt;: 24.69&lt;br&gt;"/><rect x="269.27500000000003" y="298.23333333333335" width="6.4125000000000005" height="1.7666666666666515" fill="#696969" fill-opacity="0.6" data-tippy-content="&lt;font color='#ff7575'&gt;&lt;i&gt;K&lt;/i&gt;&lt;sub&gt;s&lt;/sub&gt;&lt;/font&gt;: 2.45&lt;br&gt;&lt;font color='#00BB00'&gt;&lt;i&gt;Elaeis1.ks_anchors&lt;/i&gt;&lt;/font&gt;: 17.67&lt;br&gt;"/><rect x="277.175" y="298.08888888888885" width="6.4125000000000005" height="1.911111111111154" fill="#696969" fill-opacity="0.6" data-tippy-content="&lt;font color='#ff7575'&gt;&lt;i&gt;K&lt;/i&gt;&lt;sub&gt;s&lt;/sub&gt;&lt;/font&gt;: 2.55&lt;br&gt;&lt;font color='#00BB00'&gt;&lt;i&gt;Elaeis1.ks_anchors&lt;/i&gt;&lt;/font&gt;: 19.11&lt;br&gt;"/><rect x="285.07500000000005" y="298.05833333333334" width="6.4125000000000005" height="1.9416666666666629" fill="#696969" fill-opacity="0.6" data-tippy-content="&lt;font color='#ff7575'&gt;&lt;i&gt;K&lt;/i&gt;&lt;sub&gt;s&lt;/sub&gt;&lt;/font&gt;: 2.65&lt;br&gt;&lt;font color='#00BB00'&gt;&lt;i&gt;Elaeis1.ks_anchors&lt;/i&gt;&lt;/font&gt;: 19.42&lt;br&gt;"/><rect x="292.975" y="298.15833333333336" width="6.4125000000000005" height="1.8416666666666401" fill="#696969" fill-opacity="0.6" data-tippy-content="&lt;font color='#ff7575'&gt;&lt;i&gt;K&lt;/i&gt;&lt;sub&gt;s&lt;/sub&gt;&lt;/font&gt;: 2.75&lt;br&gt;&lt;font color='#00BB00'&gt;&lt;i&gt;Elaeis1.ks_anchors&lt;/i&gt;&lt;/font&gt;: 18.42&lt;br&gt;"/><rect x="300.87500000000006" y="299.18888888888887" width="6.4125000000000005" height="0.8111111111111313" fill="#696969" fill-opacity="0.6" data-tippy-content="&lt;font color='#ff7575'&gt;&lt;i&gt;K&lt;/i&gt;&lt;sub&gt;s&lt;/sub&gt;&lt;/font&gt;: 2.85&lt;br&gt;&lt;font color='#00BB00'&gt;&lt;i&gt;Elaeis1.ks_anchors&lt;/i&gt;&lt;/font&gt;: 8.11&lt;br&gt;"/><rect x="308.7750000000001" y="298.675" width="6.4125000000000005" height="1.3249999999999886" fill="#696969" fill-opacity="0.6" data-tippy-content="&lt;font color='#ff7575'&gt;&lt;i&gt;K&lt;/i&gt;&lt;sub&gt;s&lt;/sub&gt;&lt;/font&gt;: 2.95&lt;br&gt;&lt;font color='#00BB00'&gt;&lt;i&gt;Elaeis1.ks_anchors&lt;/i&gt;&lt;/font&gt;: 13.25&lt;br&gt;"/><rect x="316.675" y="298.82916666666665" width="6.4125000000000005" height="1.1708333333333485" fill="#696969" fill-opacity="0.6" data-tippy-content="&lt;font color='#ff7575'&gt;&lt;i&gt;K&lt;/i&gt;&lt;sub&gt;s&lt;/sub&gt;&lt;/font&gt;: 3.05&lt;br&gt;&lt;font color='#00BB00'&gt;&lt;i&gt;Elaeis1.ks_anchors&lt;/i&gt;&lt;/font&gt;: 11.71&lt;br&gt;"/><rect x="324.57500000000005" y="298.9716666666667" width="6.4125000000000005" height="1.0283333333333076" fill="#696969" fill-opacity="0.6" data-tippy-content="&lt;font color='#ff7575'&gt;&lt;i&gt;K&lt;/i&gt;&lt;sub&gt;s&lt;/sub&gt;&lt;/font&gt;: 3.15&lt;br&gt;&lt;font color='#00BB00'&gt;&lt;i&gt;Elaeis1.ks_anchors&lt;/i&gt;&lt;/font&gt;: 10.28&lt;br&gt;"/><rect x="332.475" y="298.91666666666663" width="6.4125000000000005" height="1.0833333333333712" fill="#696969" fill-opacity="0.6" data-tippy-content="&lt;font color='#ff7575'&gt;&lt;i&gt;K&lt;/i&gt;&lt;sub&gt;s&lt;/sub&gt;&lt;/font&gt;: 3.25&lt;br&gt;&lt;font color='#00BB00'&gt;&lt;i&gt;Elaeis1.ks_anchors&lt;/i&gt;&lt;/font&gt;: 10.83&lt;br&gt;"/><rect x="340.375" y="298.4055555555555" width="6.4125000000000005" height="1.5944444444444912" fill="#696969" fill-opacity="0.6" data-tippy-content="&lt;font color='#ff7575'&gt;&lt;i&gt;K&lt;/i&gt;&lt;sub&gt;s&lt;/sub&gt;&lt;/font&gt;: 3.35&lt;br&gt;&lt;font color='#00BB00'&gt;&lt;i&gt;Elaeis1.ks_anchors&lt;/i&gt;&lt;/font&gt;: 15.94&lt;br&gt;"/><rect x="348.27500000000003" y="298.71666666666664" width="6.4125000000000005" height="1.2833333333333599" fill="#696969" fill-opacity="0.6" data-tippy-content="&lt;font color='#ff7575'&gt;&lt;i&gt;K&lt;/i&gt;&lt;sub&gt;s&lt;/sub&gt;&lt;/font&gt;: 3.45&lt;br&gt;&lt;font color='#00BB00'&gt;&lt;i&gt;Elaeis1.ks_anchors&lt;/i&gt;&lt;/font&gt;: 12.83&lt;br&gt;"/><rect x="356.175" y="299.1333333333334" width="6.4125000000000005" height="0.8666666666666174" fill="#696969" fill-opacity="0.6" data-tippy-content="&lt;font color='#ff7575'&gt;&lt;i&gt;K&lt;/i&gt;&lt;sub&gt;s&lt;/sub&gt;&lt;/font&gt;: 3.55&lt;br&gt;&lt;font color='#00BB00'&gt;&lt;i&gt;Elaeis1.ks_anchors&lt;/i&gt;&lt;/font&gt;: 8.67&lt;br&gt;"/><rect x="364.07500000000005" y="299.43" width="6.4125000000000005" height="0.5699999999999932" fill="#696969" fill-opacity="0.6" data-tippy-content="&lt;font color='#ff7575'&gt;&lt;i&gt;K&lt;/i&gt;&lt;sub&gt;s&lt;/sub&gt;&lt;/font&gt;: 3.65&lt;br&gt;&lt;font color='#00BB00'&gt;&lt;i&gt;Elaeis1.ks_anchors&lt;/i&gt;&lt;/font&gt;: 5.70&lt;br&gt;"/><rect x="371.975" y="298.96666666666664" width="6.4125000000000005" height="1.0333333333333599" fill="#696969" fill-opacity="0.6" data-tippy-content="&lt;font color='#ff7575'&gt;&lt;i&gt;K&lt;/i&gt;&lt;sub&gt;s&lt;/sub&gt;&lt;/font&gt;: 3.75&lt;br&gt;&lt;font color='#00BB00'&gt;&lt;i&gt;Elaeis1.ks_anchors&lt;/i&gt;&lt;/font&gt;: 10.33&lt;br&gt;"/><rect x="379.875" y="299.5083333333334" width="6.4125000000000005" height="0.4916666666666174" fill="#696969" fill-opacity="0.6" data-tippy-content="&lt;font color='#ff7575'&gt;&lt;i&gt;K&lt;/i&gt;&lt;sub&gt;s&lt;/sub&gt;&lt;/font&gt;: 3.85&lt;br&gt;&lt;font color='#00BB00'&gt;&lt;i&gt;Elaeis1.ks_anchors&lt;/i&gt;&lt;/font&gt;: 4.92&lt;br&gt;"/><rect x="387.77500000000003" y="299.19642857142856" width="6.4125000000000005" height="0.8035714285714448" fill="#696969" fill-opacity="0.6" data-tippy-content="&lt;font color='#ff7575'&gt;&lt;i&gt;K&lt;/i&gt;&lt;sub&gt;s&lt;/sub&gt;&lt;/font&gt;: 3.95&lt;br&gt;&lt;font color='#00BB00'&gt;&lt;i&gt;Elaeis1.ks_anchors&lt;/i&gt;&lt;/font&gt;: 8.04&lt;br&gt;"/><rect x="395.675" y="299.56666666666666" width="6.4125000000000005" height="0.4333333333333371" fill="#696969" fill-opacity="0.6" data-tippy-content="&lt;font color='#ff7575'&gt;&lt;i&gt;K&lt;/i&gt;&lt;sub&gt;s&lt;/sub&gt;&lt;/font&gt;: 4.05&lt;br&gt;&lt;font color='#00BB00'&gt;&lt;i&gt;Elaeis1.ks_anchors&lt;/i&gt;&lt;/font&gt;: 4.33&lt;br&gt;"/><rect x="403.57500000000005" y="299.375" width="6.4125000000000005" height="0.625" fill="#696969" fill-opacity="0.6" data-tippy-content="&lt;font color='#ff7575'&gt;&lt;i&gt;K&lt;/i&gt;&lt;sub&gt;s&lt;/sub&gt;&lt;/font&gt;: 4.15&lt;br&gt;&lt;font color='#00BB00'&gt;&lt;i&gt;Elaeis1.ks_anchors&lt;/i&gt;&lt;/font&gt;: 6.25&lt;br&gt;"/><rect x="411.475" y="299.20000000000005" width="6.4125000000000005" height="0.7999999999999545" fill="#696969" fill-opacity="0.6" data-tippy-content="&lt;font color='#ff7575'&gt;&lt;i&gt;K&lt;/i&gt;&lt;sub&gt;s&lt;/sub&gt;&lt;/font&gt;: 4.25&lt;br&gt;&lt;font color='#00BB00'&gt;&lt;i&gt;Elaeis1.ks_anchors&lt;/i&gt;&lt;/font&gt;: 8.00&lt;br&gt;"/><rect x="419.375" y="299.64166666666665" width="6.4125000000000005" height="0.3583333333333485" fill="#696969" fill-opacity="0.6" data-tippy-content="&lt;font color='#ff7575'&gt;&lt;i&gt;K&lt;/i&gt;&lt;sub&gt;s&lt;/sub&gt;&lt;/font&gt;: 4.35&lt;br&gt;&lt;font color='#00BB00'&gt;&lt;i&gt;Elaeis1.ks_anchors&lt;/i&gt;&lt;/font&gt;: 3.58&lt;br&gt;"/><rect x="427.27500000000003" y="299.26666666666665" width="6.4125000000000005" height="0.7333333333333485" fill="#696969" fill-opacity="0.6" data-tippy-content="&lt;font color='#ff7575'&gt;&lt;i&gt;K&lt;/i&gt;&lt;sub&gt;s&lt;/sub&gt;&lt;/font&gt;: 4.45&lt;br&gt;&lt;font color='#00BB00'&gt;&lt;i&gt;Elaeis1.ks_anchors&lt;/i&gt;&lt;/font&gt;: 7.33&lt;br&gt;"/><rect x="435.17499999999995" y="299.425" width="6.4125000000000005" height="0.5749999999999886" fill="#696969" fill-opacity="0.6" data-tippy-content="&lt;font color='#ff7575'&gt;&lt;i&gt;K&lt;/i&gt;&lt;sub&gt;s&lt;/sub&gt;&lt;/font&gt;: 4.55&lt;br&gt;&lt;font color='#00BB00'&gt;&lt;i&gt;Elaeis1.ks_anchors&lt;/i&gt;&lt;/font&gt;: 5.75&lt;br&gt;"/><rect x="443.07500000000005" y="299.48333333333335" width="6.4125000000000005" height="0.5166666666666515" fill="#696969" fill-opacity="0.6" data-tippy-content="&lt;font color='#ff7575'&gt;&lt;i&gt;K&lt;/i&gt;&lt;sub&gt;s&lt;/sub&gt;&lt;/font&gt;: 4.65&lt;br&gt;&lt;font color='#00BB00'&gt;&lt;i&gt;Elaeis1.ks_anchors&lt;/i&gt;&lt;/font&gt;: 5.17&lt;br&gt;"/><rect x="450.975" y="299.01666666666665" width="6.4125000000000005" height="0.9833333333333485" fill="#696969" fill-opacity="0.6" data-tippy-content="&lt;font color='#ff7575'&gt;&lt;i&gt;K&lt;/i&gt;&lt;sub&gt;s&lt;/sub&gt;&lt;/font&gt;: 4.75&lt;br&gt;&lt;font color='#00BB00'&gt;&lt;i&gt;Elaeis1.ks_anchors&lt;/i&gt;&lt;/font&gt;: 9.83&lt;br&gt;"/><rect x="458.875" y="299.52500000000003" width="6.4125000000000005" height="0.4749999999999659" fill="#696969" fill-opacity="0.6" data-tippy-content="&lt;font color='#ff7575'&gt;&lt;i&gt;K&lt;/i&gt;&lt;sub&gt;s&lt;/sub&gt;&lt;/font&gt;: 4.85&lt;br&gt;&lt;font color='#00BB00'&gt;&lt;i&gt;Elaeis1.ks_anchors&lt;/i&gt;&lt;/font&gt;: 4.75&lt;br&gt;"/><rect x="466.77500000000003" y="299.76666666666665" width="6.4125000000000005" height="0.2333333333333485" fill="#696969" fill-opacity="0.6" data-tippy-content="&lt;font color='#ff7575'&gt;&lt;i&gt;K&lt;/i&gt;&lt;sub&gt;s&lt;/sub&gt;&lt;/font&gt;: 4.95&lt;br&gt;&lt;font color='#00BB00'&gt;&lt;i&gt;Elaeis1.ks_anchors&lt;/i&gt;&lt;/font&gt;: 2.33&lt;br&gt;"/></g><g class="legend" transform="translate(325,140)"/><g transform="translate(615,100)"><path class="link" d="M0,68.75 0,25 235,25" fill="none" stroke="#aaa" stroke-width="2.45px"/><path class="link" d="M0,68.75 0,112.5 78.33333333333334,112.5" fill="none" stroke="#aaa" stroke-width="2.45px"/><path class="link" d="M78.33333333333334,112.5 78.33333333333334,75 235,75" fill="none" stroke="#aaa" stroke-width="2.45px"/><path class="link" d="M78.33333333333334,112.5 78.33333333333334,150 156.66666666666669,150" fill="none" stroke="#aaa" stroke-width="2.45px"/><path class="link" d="M156.66666666666669,150 156.66666666666669,175 235,175" fill="none" stroke="#aaa" stroke-width="2.45px"/><path class="link" d="M156.66666666666669,150 156.66666666666669,125 235,125" fill="none" stroke="#aaa" stroke-width="2.45px"/><g class="tree-root-node" transform="translate(0,68.75)"/><g class="tree-inner-node" transform="translate(78.33333333333334,112.5)"/><g class="tree-inner-node" transform="translate(156.66666666666669,150)"/><g class="tree-leaf-node" transform="translate(235,125)"><text class="my-text" dx="8" dy="3" text-anchor="start" font-size="14px" fill="black" font-style="italic">E. guineensis</text></g><g class="tree-leaf-node" transform="translate(235,175)"><text class="my-text" dx="8" dy="3" text-anchor="start" font-size="14px" fill="black" font-style="italic">O. sativa</text></g><g class="tree-leaf-node" transform="translate(235,75)"><text class="my-text" dx="8" dy="3" text-anchor="start" font-size="14px" fill="black" font-style="italic">A. officinalis</text></g><g class="tree-leaf-node" transform="translate(235,25)"><text class="my-text" dx="8" dy="3" text-anchor="start" font-size="14px" fill="black" font-style="italic">V. vinifera</text></g><circle class="tree-circle-multiple-1-Asparagus3_Elaeis1" cx="74.33333333333334" cy="112.5" r="8" stroke-width="1.2" data-tippy-content="&lt;i&gt;A. officinalis - E. guineensis&lt;/i&gt;&lt;br&gt;Peak: &lt;span style='color: #006d2c;'&gt;1.12&lt;/span&gt;&lt;br&gt;" style="fill: rgb(0, 109, 44); fill-opacity: 0.6; stroke: rgb(0, 109, 44); stroke-opacity: 1;"/><circle class="tree-circle-multiple-1-Asparagus3_Oryza2" cx="82.33333333333334" cy="112.5" r="8" stroke-width="1.2" data-tippy-content="&lt;i&gt;A. officinalis - O. sativa&lt;/i&gt;&lt;br&gt;Peak: &lt;span style='color: #31a354;'&gt;1.95&lt;/span&gt;&lt;br&gt;" style="fill: rgb(49, 163, 84); fill-opacity: 0.6; stroke: rgb(49, 163, 84); stroke-opacity: 1;"/><circle class="tree-circle" cx="156.66666666666669" cy="150" r="8" stroke-width="1.2" data-tippy-content="&lt;i&gt;E. guineensis - O. sativa&lt;/i&gt;&lt;br&gt;Peak: &lt;span style='color: #a63603;'&gt;1.51&lt;/span&gt;&lt;br&gt;" style="fill: rgb(166, 54, 3); fill-opacity: 0.6; stroke: rgb(166, 54, 3); stroke-opacity: 1;"/></g><g class="legend" transform="translate(325,120)"/><g class="legend" transform="translate(325,100)"/><g class="legend" transform="translate(325,80)"><g class="legend-item-paralog" transform="translate(0, 0)"><rect x="0" y="0" width="10" height="10" fill="#2F4F4F" fill-opacity="0.6"/><text x="20" y="10" font-size="12px" fill="#333"><tspan style="font-style: italic;">E. guineensis</tspan> - Anchors</text></g></g></svg>