<?xml version="1.0" encoding="utf-8"?>
<!-- Generator: Adobe Illustrator 27.0.0, SVG Export Plug-In . SVG Version: 6.00 Build 0)  -->
<svg version="1.1" id="Layer_1" xmlns="http://www.w3.org/2000/svg" xmlns:xlink="http://www.w3.org/1999/xlink" x="0px" y="0px"
	 viewBox="0 0 414 148" style="enable-background:new 0 0 414 148;" xml:space="preserve">
<style type="text/css">
	.st0{fill:none;stroke:#AAAAAA;stroke-width:2.45;}
	.st1{fill:none;stroke:#0000FF;stroke-width:0.66;stroke-opacity:0.2;stroke-dasharray:4,1;}
	.st2{opacity:0.6;fill:#FFFFFF;stroke:#F75000;stroke-width:2.5;enable-background:new    ;}
	.st3{opacity:0.3;fill:#0000FF;enable-background:new    ;}
	.st4{font-family:'ArialMT';}
	.st5{font-size:10px;}
	.st6{font-family:'Arial-ItalicMT';}
	.st7{font-size:14px;}
	.st8{font-size:13px;}
</style>
<g transform="translate(120, 20)">
	<path class="st0" d="M35,76v15h92"/>
	<path class="st0" d="M35,76V61h92"/>
	<path class="st0" d="M-51,53.5V76h86"/>
	<path class="st0" d="M-51,53.5V31h179"/>
	<path class="st0" d="M-102,27.2v26.2h51"/>
	<path class="st0" d="M-102,27.2V1h230"/>
	<line class="st1" x1="128" y1="-14" x2="128" y2="106"/>
	<line class="st1" x1="105.8" y1="-14" x2="105.8" y2="106"/>
	<line class="st1" x1="83.7" y1="-14" x2="83.7" y2="106"/>
	<line class="st1" x1="61.5" y1="-14" x2="61.5" y2="106"/>
	<line class="st1" x1="39.3" y1="-14" x2="39.3" y2="106"/>
	<line class="st1" x1="17.2" y1="-14" x2="17.2" y2="106"/>
	<line class="st1" x1="-5" y1="-14" x2="-5" y2="106"/>
	<line class="st1" x1="-27.2" y1="-14" x2="-27.2" y2="106"/>
	<line class="st1" x1="-49.3" y1="-14" x2="-49.3" y2="106"/>
	<line class="st1" x1="-71.5" y1="-14" x2="-71.5" y2="106"/>
	<line class="st1" x1="-93.7" y1="-14" x2="-93.7" y2="106"/>
	<rect x="-85.5" y="44.5" class="st2" width="18" height="18"/>
	<rect x="-17" y="67" class="st2" width="18" height="18"/>
	<text transform="matrix(1 0 0 1 125.2192 118)" class="st3 st4 st5">0</text>
	<text transform="matrix(1 0 0 1 100.2719 118)" class="st3 st4 st5">10</text>
	<text transform="matrix(1 0 0 1 78.1054 118)" class="st3 st4 st5">20</text>
	<text transform="matrix(1 0 0 1 55.9388 118)" class="st3 st4 st5">30</text>
	<text transform="matrix(1 0 0 1 33.7723 118)" class="st3 st4 st5">40</text>
	<text transform="matrix(1 0 0 1 11.6058 118)" class="st3 st4 st5">50</text>
	<text transform="matrix(1 0 0 1 -10.5608 118)" class="st3 st4 st5">60</text>
	<text transform="matrix(1 0 0 1 -32.7273 118)" class="st3 st4 st5">70</text>
	<text transform="matrix(1 0 0 1 -54.8938 118)" class="st3 st4 st5">80</text>
	<text transform="matrix(1 0 0 1 -77.0604 118)" class="st3 st4 st5">90</text>
	<text transform="matrix(1 0 0 1 -102.0077 118)" class="st3 st4 st5">100</text>
	<g>
		<text transform="matrix(1 0 0 1 136 118)" class="st3 st4 st5">million years ago</text>
	</g>
	<g transform="translate(0,41.25)">
		<line class="st0" x1="-102" y1="-14" x2="-112" y2="-14"/>
	</g>
	<g transform="translate(230,15)">
		<text transform="matrix(1 0 0 1 -94 -11)" class="st6 st7">Asparagus officinalis</text>
	</g>
	<g transform="translate(51,67.5)">
	</g>
	<g transform="translate(230,45)">
		<text transform="matrix(1 0 0 1 -94 -11)" class="st6 st7">Apostasia shenzhenica</text>
	</g>
	<g transform="translate(137,90)">
	</g>
	<g transform="translate(229,105)">
		<text transform="matrix(1 0 0 1 -94 -11)" class="st6 st7">Dendrobium catenatum</text>
	</g>
	<g transform="translate(229,75)">
		<text transform="matrix(1 0 0 1 -94 -11)" class="st6 st7">Phalaenopsis equestris</text>
	</g>
	<text transform="matrix(1 0 0 1 -92.0391 33.5)" class="st4 st8">wgd1</text>
	<text transform="matrix(1 0 0 1 -23.5391 56)" class="st4 st8">wgd2</text>
</g>
</svg>
